<?xml version="1.0" encoding="UTF-8"?>
<svg id="_レイヤー_1" data-name="レイヤー_1" xmlns="http://www.w3.org/2000/svg" version="1.1" viewBox="0 0 2560 823.02">
  <!-- Generator: Adobe Illustrator 30.1.0, SVG Export Plug-In . SVG Version: 2.1.1 Build 136)  -->
  <defs>
    <style>
      .st0 {
        fill: #fff;
      }

      .st1 {
        display: none;
      }
    </style>
  </defs>
  <g class="st1">
    <g>
      <path d="M0,405.28V-301.72h2560V779.33c-4.35.16-7.7,3.25-11.54,5.24-4.3,2.23-8.26,3.21-10.9,7.38-1.9,3-3.52,5.71-1.29,9.17l6.78,10.5-4.32,1.18c-.83.23-1.04,2.8-.28,3.45,6.36,5.48,5.71,14.01,11.47,11.72,3.64-1.45,3.58-3.92,2.64-7.34l-.69-2.48c-.13-.48,1.91-.1,2.41-.19,1.82-.33,4.23-.76,5.73-.81v211.13h-1317.89c-.06-2.28,0-6.16.39-8.2,2.65-1.57,6.89-3.1,8-4.99,6.07-11.72,11.29-1.16,23.02-6.12,4.19-3.41,7.74-5.31,13.57-5.92l11.3-1.19c9.89,3.42,10.55,2.08,23.07,5.31,1.87.48,5.54,3.46,7.41,3.07,5.87-1.24,11.53-2.86,17.2-3.37,3.25-.29,8.68.77,9.73-3.54-2.49-6.37-5.32-14.73-4.51-21.22l4.55-2.81c.95-.59-.49-3.52-.76-4.86,1.91-.73,4.78-.2,6.41,1.04l5.25,3.97c3.4,4.79,6.78,8.33,11.74,11.91l-2.47,5.74c.23,2.86,3.29,7.88,6.26,9.88,2.78,1.88,8.43,1.72,10.86,1.04.14-2.95.07-6.12,1.6-7.32,1.42-1.12,3.79-1.67,6.28-2.59,2.99-1.1,6.13-3.9,9.21-5.67,7.41-4.26,3.37-11.66,7.05-10.42,1.08.37,2.86,1.34,4.76,2.41,4.77-6.12,11.99-7.52,18.94-8.38,32.99-4.04,17.55,4.55,33.43,1.61,2.51-.46,5.91.03,8.77.16l10.87.47,9.26-9.58c5.46.47,10.22.79,15.67.53s10.42,1.22,15.76,2.06c5.23.82,11.05-.46,16.67,1.52,3.32,1.17,7.37-.06,9.78-1.89,4.11-3.11,7.42,2.72,10.15,2.64l13.75-.37c3.44-.09,6.51.84,9.25,2.26,1.74.17,5.44-.32,7.2.64s3.37,3.72,4.67,6.05c4.66,8.36-2.35,9.68.14,13.09.46.63,1.83,1.67,2.61,1.92l12.18,3.9c2.58.83,6.14,1.42,8.12,2.96,4.58,3.57,8.59,3.51,14,2.78,8.94-1.21,17.58-2.64,25.94-6.43,2.7-1.23,7.26-3.9,8.15-6.31,4.3-11.72,5.39-19.33,14.93-25.73,5.05-3.39,3.67-14.42,14.1-12.58,4.12-6.14,10.59-9.89,17.33-11.92,4.17-1.26,6.54-5.59,12.57-3.6,4.4,1.45,9.51-1.62,10.29-6.52.59-3.65,2.83-6.05,5.76-8.3l2.1-6.2c.5-1.49,5.06-1.29,6.35-2.49,16.53-15.36,14.68,11.32,43.91-19.83,1.87-1.99,4.12-3.64,7.02-3.85,4.47-.33,9.42-2.9,9.7-7.84.18-3.15-1.92-8.56,1.48-11.09,4.35-3.24,9-7.08,12.88-10.5,4.04,1.67,18.29,5.51,20.25,5.35,1.3-.11,2.79-2.95,3.91-3.96,2.97-2.66,7.65-4.67,9.47-8.14,1.46-2.79,2.63-5.48,4.81-7.36,4.42-3.82,6.69-10.24,2.53-14.93-2.09-2.35-3.17-5.23-2.77-8.76.54-4.79,6.95-4.56,14.79-9.51,10.04-6.33,9.78-14.52,12.88-26.47,1.23-4.73,7.34-3.28,10.23-4.48,5.15-2.13,10.12-3.04,14.38.8,4.59,4.13,11.18-7.33,12.42-9.81,1.45-2.9,1.03-4.93,4.48-6.28,3.18-1.24,5.57-9.56,6.35-13.31,11.17-1.7,5.73-9.32,11.18-13.53,4.39-3.39,3.84-7.68.42-12.14l9.92-3.47,3.68,1.59c.86.37,2.83-1.39,3.83-1.52l10-1.34,10.39,14.01c1.38,1.86,2.54,4.26,4.09,4.93,8.06,3.47,8.17-5.96,17.39-.18,5.93,3.71,15.19,5.62,22.01,3.41s12.36-4,19.38-3.66l13.27-7.69,4.61,5.4c6.12-1.22,12.28-10.55,17.94-8.97,2.5.7,6.5,1.92,8.28-.58.93-1.31.34-4.6-.5-5.88-1.04-1.59-4.17-3.22-6.12-3.08l-10.73.75-2.02,2.67c-.43.57-2.24-1.47-2.64-2.09-1.36-2.08-1.45-7.4,2.12-7,1.48.53,4.12,2.52,5.63,2.67,5.54.52,5.62-4.52,11.91-6.32,5.31-1.52,11.77,1.18,11.85,7.25.03,2.01-.17,7.21,3.43,6.33,2.71-.66,6.04-1.92,8.23-2.82l1.48-3.65c.31-.76,2.55,1.64,2.93,2.37,7.88,15.22,14.06,10.65,15.04,13.07l2.19,5.38c.38.93,2.63,1.92,3.07,2.76,1.13,2.18-3.45,7.69,1.21,9.55,1.31.52,4.19-.79,5.65-.87,4.42-.23,8.3-.37,13.04-2.41,1.65-.71,4.51,2.6,6.38,3.64,3.52,1.97,7.86-1.76,12.37-2.03,1.99-.12,3.36,4.18,4.51,6.94,2.34-.08,5.11-2.41,7.76-4.56s11.31,3.18,11.88,7.19c.24,1.69-1.25,3.99-2.17,5.59l-3.15,5.5c-.79,1.39.83,3.74,2.03,5.01,7.45,7.89,18.25,7.55,28.74,7.06,2.75-.13,6.43.72,8.8-.69,6.99-4.17,11.34,2.39,20.4,8.8l3.88,2.74c1.27.9,6.18-3.65,6.97-1.84l1.31,3c3.57,8.18-9.81,8.44-8.35,17.16.29,1.71,3.49,4.07,5.07,5.25,1.14,7.07,7.7,10.39,14.33,11.41,1.82.27,5.23,4.09,6.97,3.25,3.99-1.94,8.16-4.58,12-1.92,1.86,1.29,4.48,5.24,6.63,5.66,11.87,2.34-.5-.4,14.9,8.66,2.55,1.5,4.2,2.74,7.17,2.06,6.17-1.4,5.72,6.7,10.27,10.98,1.82,1.71,5.44-1.16,7.12-.93,7.05.97,14.29,1.16,19.78-4.29,7.85-1.06,12.02,8.25,19.62,1.6,3.46-3.03,7.94-3.81,12.31-5.65,2.84-2.19,6.14-6.16,8.75-9.22-1.71-5.48-1.1-13.1,4.91-14.96l7.78-2.41c2.7-.83,5.55-.31,6.28,2.6.32,1.29,4.23,3.7,5.08,2.64,2.51-3.11.02-8.6-3.33-10.31-2.35-1.2-3.92-3.36-3.81-5.96s5.58-6.31,7.87-7.56c1.02-.56,3.2,1.17,4.1,2.67,2.52,4.2,7.49-2.89,13.07.07s8.64,1.14,12.6-1.89c5.15-3.95,11.35-7,14.06-13.14.8-1.8,2.01-2.68,4.43-2.91,6.41-.62-.96-8.95,2.3-9.93,2.87-1.84,4.6-4.53,4.59-7.89v-1.98c0-1.17-4.41.06-7.74-3.28-1.18-1.18-1.73-4.89-.98-6.35,2.68-2.17,3.31-4.89,2.71-8.7-.29-1.79.52-6.03-1.02-8.01-1.98-2.54.81-7.21,1.58-10.74,1.18-5.46,1.71-10.89,7.22-14.63.99-.67-.46-3.75-.97-4.86l-9.61-20.62,2.67-7.55c-.3-1.12-1.91-3.7-1.3-4.57.81-1.15,1.34-3.32.62-4.09-9.43-9.97-3.56-8.24-15.91-18.86-7.44,1.92-12.49-1.55-17.9-5.91-3.73-3.01-9.5-5.31-12.29-9.29-3.01-4.3-6.23-9.81-12.94-8.24-2.03.48-4.95,3.04-7.36,5.14-1.1.95-4.04-.55-5.3-1.57-1.69-1.37-4.97,3.21-12.44,4.13-.45.45-1.44,1.52-1.83,1.93-1.46,1.55-4.87-3.61-5.66-4.96-7.07-12.2-8.69-2.38-20.16-14.14-3.87-3.97-8.76-9.72-14.26-10.84-2.97-.61-10.66,1.73-10.27-3.81.24-3.43,1.02-6.44-1.15-9.18-2.33-2.94-5.62-4.53-9.45-4.02l-23.23,3.09c-2.21.29-6.86-.91-9.25-1.23-.78-7.42-5.11-10.78-11.57-11.97-3.36-.62-6.21-.47-9.51.49l-9,2.62c-5.4-1.33-12.89-3.05-18.01-5.43l-6.25-5.68c-2.45-2.23-5.7-2.5-8.84-1.29-6.06,2.34-4.45-2.54-17.29-3.88-5.06,3.86-11.28,6.36-17.29,4.34-4.07-1.36-7.77-1.64-11.78-2.08l-9.04-.98c-10.78-1.17-7.75,10.86-13.22,13.66-11.54,5.9-15.89,5.05-20.17,10.28-1.39,1.7-6.35,3.47-8.17,2.08-3.32-2.55-5.19-5.86-7.49-8.82-2.48-3.19-3.74-5.83-4.32-10.02-.55-3.94-7-5.45-9.75-2.14-3.5,4.22-5.63-3.64-10.31-2.92-4.89.74-3.89,9.44-7.75,4.25l-2.89-3.89c.28.37-21.84,2.85-21.42,5.09-2.15,1.89-3.74,4.58-6.4,5.45l-9.3,3.05c-6.64,2.18-11.59,2.92-17.29-1.68-4.15-3.35-8.37-6.77-8.62-13.45l-12.81-2.13c-4.66-.78-4.78-8.23-7.03-10.7-4.16-4.57-12.12-1.97-17.05.06-5.27,2.17.68-7.44-21.7.15-3.12,1.06-5.71,2.93-8.62,4.43-4.47,2.31-9.18,5.1-8.86,11.27l-5.14,6.82-7.24,2.74c-2.97,1.13-5.13,1.87-8.97,3.05l-2.05,10.26c-.73,1.39-4.05,3.18-5.83,4.07-6.5-1.77-12.97-.68-18.79,3.47-3.73-2.2-7.63-5.26-11.6-6.38-12.9-3.67-6.7-11.41-13.62-10.18-2.02.36-4.18-.2-6.22-1-3.67-1.45-7.32-2.15-11.01-3.23l-9.31-2.72-6.36,6.09c-1.05,1.01-4.56-1.39-6.03-1.5l-10.31-.75c-.46-7.35-5.67-11.48-11.46-13.4-3.95-6.05-15.05-1.29-18.05,1.17-3.96,3.25-3.33,6.45-1.36,10.16l-.24,8.57c-.08,2.78-.91,5.09-3.49,6.45-4.5,2.37-9.11-5.74-14.98-5.47-2.84.13-5.47,3.34-7.87,4.66-3.28,1.8-6.82,2.91-9.41,5.69-4.22,4.52-7.13,10.1-9.16,16.22-6.29,7.6-13.63,6.62-22.88,9.01-1.94,2-1.62,7.21-2.16,9.61-.9,4.05-6.94,2.56-9.03.42-2.86-2.93-5.59-2.75-9.36-2.36-1.87.19-6.38-.69-7.31.83l-1.68,10.02c-.29,1.7-.61,3.26-1.37,4.06s-4.04.94-4.91.3l-4.68-3.47c-5.83-4.32-11.87-8.52-13.42-16.49s-5.39-18.99-15.01-21.18c-3.21-.73-8.06-.1-10.16-3.93-4.73-2.13-15.64,4.06-18.77-6.06-2.28-7.39-9.08-10.88-16.79-8.62-5.99,1.75-4.32,3.75-15.52,10.56-3.3,2.01-5.97,3.13-10.6,2.56-4.26-.52-2.86,5.84-5.81,10.03-17.52,4.53-19.28-4.06-23.95-3.77-1.28.08-3.86,2.94-3.68,4.29.45,3.42,1.52,10.03.29,13.88-.54,1.68-5.4,3.01-6.82,2.02-.87-.6-1.88-2.98-2.77-2.9l-4.02.35c-.51.04-1.71-.04-2.12-.09-.62-.08-1.26-2.43-.89-2.93l4.44-5.97c-3.88-11.75,2.06-9.8-3.82-18.51-1.02-1.51-.71-5.36-1.93-7.36l-5.69-9.35c-2.63-4.32-3.7-5.64-7.66-7.96s-7.47-4.1-12.42-4.84c-17.71-2.65-13.06,4.53-25.92,10.39l-4.58,10.26c-8.67,2.24-25.34,11.94-23.61,22.3-4.71,10.02-5.06,10.89-13.8,18.12l-7.8,6.46c-1.69,1.4-4.05,4.96-5.82,7.05-2.1,1.85-1.78,9.84-6.56,9.63-2.94-.13-8.27.88-9.5,3.87l-2.71,6.59c-1.6,3.88-10.1-7.6-12.48-6.22l-12.13.61c-1.21.06-3.54.35-4.33.6-1.59,4.88-3.96,9.15-6.94,13.22l-4.54,6.2c-.27.37-2.85.44-3.08.04l-1.39-2.36c-.39-.67-2.48-.86-3.26-.56l-8.4,3.29c-5.65,2.21-7.64-8.74-13.73-4.39l-12.22,8.73-.84,6.74c-.51,4.12,3.22,2.46,3.55,8.07.09,1.46-2.61,3.15-4.34,4.38-11.43,32.14-12.55,17.18-21.36,24.92l-6.6,5.81c-1.37,1.21-5,3.25-6.67,4.05-11.06,1.75-2.13.92-16.72,8.56-8.51,4.46-13.02,6.01-23.31,5.5-5.61-.28-11.11-.72-16.75-1.66-4.81-.8-9.15-.71-11.81,4.37-3.46,6.61-12.03,2.55-10.54,6.41l1.46,3.8c-5.97,5.64-4.8-3.99-19.49.85-4.7,1.55-6.85,4.08-6.84,9.36l-4.71,8.16c-.45.78-2.25,1.88-3.02,2.04l-5.81,1.2c-.4.08-1.38,2.1-1.83,2.89-4.99.36-10.58.65-15.78.17-10.96-1.01-8.75,7.07-12.19,4.35l-11.07-8.75c-11.35-8.97,2.12-13.61-6.4-21.96-4.98-4.88-3.28-8.92-12.22-14.79-2.99-1.96-6.08-.53-9.25.16-9.81,2.14-8.74-2.86-18.52,6.48-1.67,1.6-3.38,3.74-4.85,4.22-1.9.63-5.28-1.18-7.18-1.64-5.09-1.22-9.52-2.23-11.42-7.98l-3.33-10.11c-7.67-6.92-9.25-7.75-19.49-11.16-2.2-.49-7.04.85-9.28.68-10.58-3.59-11.36-.09-26.22-1.79-2.57-.3-7.84-1.85-10.08-3.16l-15.37-8.99c-2.25-3.93-10.63-17.08-15.58-18.36l-5-9.34c-.3-.56-2.37-1.9-2.76-1.42s-.99,1.26-1.54,2.11l-2.61,4c-.59.91-3.43-1.13-4.33-1.89-8.63-7.22,1.21-15.27-12.61-19.38-2.1-3.8-4.07-8.77-6.87-11.87-15.04-16.61,5.64-14.3-24.44-24.49-7.45,2.97-14.15.84-16.71,2.7s.62,5.03-3.58,9.28c-3.17,3.21-6.65-6.67-10.88-8.22l-1.97-6.1c-10.4-8.8-11.33-3.27-19.28-11.84-3.24-3.5-6.2,2.01-8.09,2.77-3.22,1.29-4.88-8.66-13.01-9.09-3.12-.16-4.93-5.67-19.3-4.89l-6.17-10.86-5.34-1.67c-2.72-2.73-5.58-6.4-8.79-8.27-3.6-2.09-8.93-1.83-10.33-6.72l-3.8-13.27c-.51-1.77-3.45-4.71-5.22-4.09l-6.6,2.28c-.73.25-2.1.31-2.69-.02-.73-.41-1.52-2.8-1.04-3.46,6.01-8.22,5.79-2.74,5.6-11.19-.21-9.67,1.21-13.15-7.06-18.35-5.05-3.18,1.28-8.83-2.67-16.31-5.54-10.46,6.39-11.89,7.53-21.1.29-2.36-.54-7.73-1.8-9.72-1.57-2.49-4.64-5.13-6.66-7.35l-.16-7.63-7.06-13.14c-1.15-2.14-4.15-1.86-6.56-1.49-4.07.63-6.49-5.07-9.09-7.72l-5.88-5.99-1.98-9.57,4.53-15.28c6.19-20.88-4.23-12.36-3.28-34.72.32-7.39-1.82-13.88-7.69-18.18-4.26-3.12-7.69-7.59-11.9-11.05-3.23-2.66-8.53-4.63-10.99-7.76-10.4-13.25-11.9-2.89-18.94-12.35-4.05-5.44-4.77-.49-21.48-4.48-4.48-1.07-8.24,3.42-8.7,7.76-.3,2.79-3.09,5.93-5.62,7.1-6.86,3.17-13.7,1.96-20.67.04-7.58-2.09-7.09-10.69-9.41-20.96-1.33-5.9-11.36-5.81-15.87-4.14l-8.25,3.06c-3.87-2.02-7.09-1.34-10.86.19-9.42,3.8-4.04,21.39-11.84,21.92-2.18.15-4.29-1.39-5.19-3.43l-5.37-12.08c-2.21-4.97-13-7.51-18.63-8.12l-10.72-12.42c-1.51-1.75-4.49-3.94-6.46-5.5-11.38,1.96-11.18-7.28-27.93-9.43-2.94-.38-6.04.62-8.24-1.31-4.7-4.13-9.99-3.87-12.76-1.1-1.01,1.01-1.1,3.76-1.23,6.43s-4.28,4.85-6.71,5.51c-6.06,1.65-16.32-8.21-20.62-11.49-5.96-4.55-28.4-8.46-22.82-27.31.37-1.25-.4-4.28-.39-5.33.09-9.13.71-16.2-9.14-21.04-5.35-2.64.35-5.49.46-14.46l.15-12.37c.08-6,.07-11.56-.86-17.8-.52-3.48.58-5.9,2.52-8.82s2.28-9.01.82-12.44c-2.06-4.85-6.73-13.24-9.7-16.46l-10-10.87c-9.08-9.87-8.75.63-13.91-8.26l-3.3-5.69c-2.69-4.63-7.09-5.98-12.48-5.63-15.53,1.02-11.43-4.68-18.38-2.65-7.76,2.27-11.82,2.34-18.12,4.41l-21.81,7.18c-12.1,3.98-8.49,4.09-16.62,12.29l-5.48,5.53c-5.93,5.98-16.61,17.72-8.46,25.58l-.58,4.43c-4.29,1.94-8.45.09-12.86-1.35s-9.28,2.25-13.26,3.7c-4.73,1.73-9.45,2.63-13.94,4.59-6.71,2.93-13.55.27-23.48-.11l-8.39-.32c-5.55-.21-5.03,5.14-13.52,3.91-4.48-.65-7.96.54-9.07,5.27-.99,4.21-5.56,7.93-8.61,7.26s-8.68-2.64-11.14-.67c-5.69,4.57-11.41,3.88-17.54,6.78l-13.55,6.42c-3.09,1.47-24.28.89-36.14,10.85l-6,5.04-1.2,1.02c-.6.51-.88,2.83-.32,3.48,10.61,12.37,3.28,11.19,1.5,23.24l6.69,14.26c.88,1.88-1.16,6.01-1.65,7.81-.94,3.45-2.69,5.62-5.59,7.57-7.2,4.83-11.37-.37-12.18,2.4-1.14,3.91,2.52,11.4-6.87,16.63-1.34.74-3.47,2.81-4.7,2.51-1.77-.44-3.97-1.93-5.2-3.19l-2.2-2.25c-.46-.47-5.96,4.41-1.61,10.55-4.17,2.27-6.5,8.93-4.26,11.72.19.23,1.51,1.02,1.66,1.13l2.27,1.71c.67.5-1.41,2.38-2.24,2.27l-1.73-.23-1.41-.2c-.19-.03-1.36.01-1.51.11l-2.05,1.38c-.66.44-.55,3.07.15,3.47l3.32,1.89c.69.39,1.02,2.55,1.08,3.9l-8.21,4.59c-9.14,5.11-4.06.03-8.36,4.76-.98,1.08-3.46,4.34-2.56,5.35,8.19,4.74-5.04,25.36-7.73,25.7-4.23.54-7.12-3.82-14.03-.56-6.3,2.98-.95,9.26-2.17,16.29l-9.12,2.98c-1.25.41-4.22.5-4.85-.68l-2.75-5.14c-.52-.98-3.16-1.56-4.14-1.06l-3.06,1.57Z"/>
      <path class="st0" d="M1242.11,1028.28h-357.13c-1.74-3.71-5.91-6.81-9.56-9-6,6.67-8.57,4.29-8.43,9h-24.33c-.27-1.08-.38-2.83-.21-4.13l.69-5.42c-12.88,1.91-8.69-11.55-17.35-6.3-10.07,6.1-19.57-10.35-22.46-18.52l-9.35-9.6c4.58-21.21-5.29-17.75-6.21-27.68-.24-2.57-.8-5.6-3.56-5.2-5.21.75-14.94.76-17.62-1.3-2.5-1.93,1.62-4.38.66-9.38-.6-3.14-15.94-2.06-17.28-2.11l-14.65-.59-8.48,15.1c-1.39,2.47-4.34,5.8-5.41,7.98-7.46,15.1-3.9,4.89-10.76,18.98-1.37,2.82-2.07,7.61-3.22,10.86-.35.98-10.45,8.96-10.56,9.02-1.34.77-4.84-.5-6.53-1.23-3.93-1.68-7.98,1.38-11.77,1.91l-13.73,1.93c-2,.28-5.82-1.53-7.99-.71l-8.2,3.09c-4.06,1.53-10.04-.84-14.21.97-2.37,1.03-5.53,2.48-7.32,1.99-2.89-.79-4.68-2.9-6.28-5.6l-7.95-2.53c-8.72,4.26-6.26,11.77-10.85,16.53-3.89-2.24-3.94-5.39-2.3-9.64l-6.97-7.22c-4.66-.51-7.77-2.41-9.7-6.34-10.82,4.47-6,.03-16.78,6.28-1.79,1.03-7.43,1.46-9.14,1-3.3-.89-1.21-14.11-13.04-21.31-10.75-6.54-6.65.59-19.78-5.14-4.68-2.04-19.71-5.16-24.27-4.66-6.97.77-12.59-1.23-15.34-8.35l-12.54,2.69-14.14-3.13c-2.98-.66-5.96-3.63-10.3-1.92-5.32-4.51-7.94-12.35-8.81-19.23-.81-6.33-7.74-21.57-11.54-28.01l-7.38,4.38c-26.22-3.53-19.39,10.49-30.35,11.43-18.01,1.53-11.61.01-21.93,9.16-10.04-5.24-13.18,8.75-26.61-1.98-6.85-5.47-4.44,7.41-17.26,5.37l-9.83-1.57c-9.89-1.58-19.45-.44-27.65,5.87-16.44,1.55-11.34.08-18.78-5.25-16-11.44-3.23-14.74-8.66-19.42s-10.44,4.18-15.48-.85l-10.14-.27c-1.61-2.97-3.37-5.81-5.74-7.19-4.02-2.34-4.08-5.84-1.85-9.43l-.15-8.4-9.92,1.03c-2.03.21-4.12-4.07-3.53-6.22,1.96-7.15,10.29-2.37,11.94-8.39.71-2.59-1.03-4.86-3.29-6.13l-8.5-4.79c-15.73-1.31-7.86.3-22.06-6.31-3.99-6.64-9.36-6.82-16.16-7.6-5.2-.6-9.83-4.22-15.36-1.95l-16.43,6.74c-2.48,1.02-8.43.82-11.29.73-1.7-.05-3.69-3.92-4.93-5.02-4.11-3.67-8.59-7.72-13.26-10.66-5.12-3.22-10.39-6.52-10.86-13.55,3.65-12.84,8.87-10.91,12.63-24.41l7.42-2.46c2.93-.97,8.11-1.53,10.49.52,4.37,3.75,22.48,20.02,28.11,15.6,1.07-.84,1.62-4.23,1.22-5.66l-2.66-9.6c-.95-3.42-2.5-8.05-3.58-11.02-8.77-8.23,2.35-.31-9.2-21.05l-6.18-11.1c-7.74-13.91-1.33-21.63-5.71-24.62-5.93-4.04-9.53,3.35-17.83-2.64-12.55-9.06-17.06,3.52-30.22-.74-3.38-1.09-6.37-3.91-9.12-5.89l-9.02-6.52c-6.11-4.42-9.87-17.69-16.75-24.9l-11.19-.53c-4.8-9.48-13.67-12.9-22.6-16.72-3.85-1.65-14.61-10.74-17.77-9.06v-193c3-1.04,5.54-3.2,5.11-6.44-.4-2.96-2.21-6.11-5.11-6.56v-59l3.06-1.57c.98-.5,3.62.08,4.14,1.06l2.75,5.14c.63,1.18,3.61,1.09,4.85.68l9.12-2.98c1.22-7.03-4.13-13.32,2.17-16.29,6.91-3.26,9.81,1.1,14.03.56,2.69-.35,15.92-20.97,7.73-25.7-.9-1.01,1.58-4.28,2.56-5.35,4.3-4.72-.79.36,8.36-4.76l8.21-4.59c-.07-1.35-.39-3.51-1.08-3.9l-3.32-1.89c-.7-.4-.81-3.03-.15-3.47l2.05-1.38c.14-.1,1.32-.14,1.51-.11l1.41.2,1.73.23c.84.11,2.92-1.77,2.24-2.27l-2.27-1.71c-.15-.11-1.48-.9-1.66-1.13-2.24-2.78.09-9.44,4.26-11.72-4.35-6.14,1.15-11.01,1.61-10.55l2.2,2.25c1.23,1.26,3.43,2.75,5.2,3.19,1.23.3,3.37-1.76,4.7-2.51,9.38-5.23,5.73-12.73,6.87-16.63.81-2.77,4.98,2.43,12.18-2.4,2.9-1.95,4.65-4.11,5.59-7.57.49-1.81,2.53-5.93,1.65-7.81l-6.69-14.26c1.78-12.05,9.11-10.87-1.5-23.24-.56-.65-.28-2.98.32-3.48l1.2-1.02,6-5.04c11.86-9.95,33.05-9.38,36.14-10.85l13.55-6.42c6.13-2.9,11.84-2.22,17.54-6.78,2.46-1.97,7.96-.03,11.14.67s7.62-3.04,8.61-7.26c1.11-4.73,4.59-5.92,9.07-5.27,8.49,1.23,7.96-4.12,13.52-3.91l8.39.32c9.92.38,16.76,3.04,23.48.11,4.49-1.96,9.21-2.86,13.94-4.59,3.98-1.45,8.86-5.13,13.26-3.7s8.57,3.29,12.86,1.35l.58-4.43c-8.15-7.86,2.52-19.6,8.46-25.58l5.48-5.53c8.13-8.2,4.52-8.31,16.62-12.29l21.81-7.18c6.29-2.07,10.35-2.14,18.12-4.41,6.95-2.03,2.85,3.66,18.38,2.65,5.39-.35,9.79,1,12.48,5.63l3.3,5.69c5.16,8.88,4.83-1.61,13.91,8.26l10,10.87c2.97,3.22,7.64,11.61,9.7,16.46,1.46,3.43,1.19,9.42-.82,12.44s-3.04,5.34-2.52,8.82c.94,6.24.94,11.8.86,17.8l-.15,12.37c-.11,8.97-5.81,11.83-.46,14.46,9.85,4.85,9.22,11.91,9.14,21.04,0,1.05.76,4.07.39,5.33-5.58,18.85,16.86,22.76,22.82,27.31,4.3,3.29,14.57,13.15,20.62,11.49,2.43-.66,6.6-2.95,6.71-5.51s.22-5.42,1.23-6.43c2.77-2.77,8.06-3.02,12.76,1.1,2.2,1.93,5.3.93,8.24,1.31,16.75,2.15,16.55,11.4,27.93,9.43,1.98,1.56,4.95,3.75,6.46,5.5l10.72,12.42c5.64.61,16.43,3.15,18.63,8.12l5.37,12.08c.91,2.04,3.01,3.58,5.19,3.43,7.8-.53,2.42-18.12,11.84-21.92,3.77-1.52,6.98-2.21,10.86-.19l8.25-3.06c4.51-1.67,14.54-1.76,15.87,4.14,2.32,10.27,1.83,18.87,9.41,20.96,6.97,1.92,13.81,3.13,20.67-.04,2.53-1.17,5.33-4.31,5.62-7.1.46-4.34,4.22-8.83,8.7-7.76,16.71,3.98,17.43-.97,21.48,4.48,7.04,9.47,8.54-.89,18.94,12.35,2.46,3.13,7.76,5.11,10.99,7.76,4.21,3.45,7.64,7.93,11.9,11.05,5.87,4.3,8.01,10.79,7.69,18.18-.96,22.36,9.46,13.85,3.28,34.72l-4.53,15.28,1.98,9.57,5.88,5.99c2.6,2.65,5.02,8.36,9.09,7.72,2.4-.37,5.41-.65,6.56,1.49l7.06,13.14.16,7.63c2.03,2.22,5.09,4.86,6.66,7.35,1.26,1.99,2.09,7.36,1.8,9.72-1.14,9.21-13.07,10.64-7.53,21.1,3.96,7.47-2.38,13.12,2.67,16.31,8.26,5.2,6.84,8.68,7.06,18.35.18,8.45.4,2.98-5.6,11.19-.48.66.31,3.05,1.04,3.46.58.33,1.95.28,2.69.02l6.6-2.28c1.78-.61,4.72,2.32,5.22,4.09l3.8,13.27c1.4,4.89,6.74,4.63,10.33,6.72,3.2,1.86,6.06,5.54,8.79,8.27l5.34,1.67,6.17,10.86c14.38-.78,16.18,4.73,19.3,4.89,8.13.43,9.79,10.38,13.01,9.09,1.89-.76,4.84-6.27,8.09-2.77,7.95,8.58,8.88,3.04,19.28,11.84l1.97,6.1c4.24,1.55,7.71,11.43,10.88,8.22,4.2-4.25.97-7.37,3.58-9.28s9.26.27,16.71-2.7c30.08,10.19,9.4,7.88,24.44,24.49,2.8,3.1,4.77,8.07,6.87,11.87,13.81,4.11,3.97,12.16,12.61,19.38.91.76,3.74,2.8,4.33,1.89l2.61-4c.55-.84,1.15-1.63,1.54-2.11s2.46.87,2.76,1.42l5,9.34c4.94,1.29,13.33,14.43,15.58,18.36l15.37,8.99c2.23,1.31,7.51,2.86,10.08,3.16,14.86,1.71,15.65-1.79,26.22,1.79,2.25.17,7.09-1.17,9.28-.68,10.24,3.42,11.82,4.24,19.49,11.16l3.33,10.11c1.9,5.75,6.33,6.76,11.42,7.98,1.89.45,5.27,2.26,7.18,1.64,1.47-.49,3.18-2.62,4.85-4.22,9.77-9.34,8.71-4.34,18.52-6.48,3.17-.69,6.26-2.12,9.25-.16,8.94,5.87,7.23,9.91,12.22,14.79,8.52,8.34-4.95,12.98,6.4,21.96l11.07,8.75c3.44,2.72,1.23-5.37,12.19-4.35,5.2.48,10.79.19,15.78-.17.45-.79,1.43-2.81,1.83-2.89l5.81-1.2c.77-.16,2.57-1.26,3.02-2.04l4.71-8.16c0-5.28,2.14-7.81,6.84-9.36,14.69-4.84,13.52,4.79,19.49-.85l-1.46-3.8c-1.49-3.86,7.08.19,10.54-6.41,2.66-5.07,7-5.17,11.81-4.37,5.65.94,11.14,1.38,16.75,1.66,10.29.51,14.8-1.04,23.31-5.5,14.59-7.64,5.66-6.81,16.72-8.56,1.68-.8,5.3-2.84,6.67-4.05l6.6-5.81c8.81-7.74,9.93,7.22,21.36-24.92,1.73-1.24,4.43-2.92,4.34-4.38-.33-5.61-4.06-3.95-3.55-8.07l.84-6.74,12.22-8.73c6.1-4.36,8.08,6.6,13.73,4.39l8.4-3.29c.78-.3,2.87-.11,3.26.56l1.39,2.36c.23.4,2.81.33,3.08-.04l4.54-6.2c2.98-4.08,5.35-8.34,6.94-13.22.79-.26,3.12-.54,4.33-.6l12.13-.61c2.38-1.39,10.88,10.1,12.48,6.22l2.71-6.59c1.23-3,6.56-4,9.5-3.87,4.77.21,4.46-7.79,6.56-9.63,1.78-2.1,4.14-5.66,5.82-7.05l7.8-6.46c8.74-7.23,9.09-8.1,13.8-18.12-1.72-10.36,14.94-20.06,23.61-22.3l4.58-10.26c12.86-5.86,8.22-13.04,25.92-10.39,4.95.74,8.53,2.56,12.42,4.84s5.03,3.65,7.66,7.96l5.69,9.35c1.22,2.01.91,5.85,1.93,7.36,5.88,8.71-.06,6.77,3.82,18.51l-4.44,5.97c-.37.5.27,2.85.89,2.93.41.05,1.61.14,2.12.09l4.02-.35c.9-.08,1.91,2.3,2.77,2.9,1.42.99,6.28-.34,6.82-2.02,1.23-3.86.16-10.46-.29-13.88-.18-1.36,2.4-4.21,3.68-4.29,4.67-.29,6.43,8.29,23.95,3.77,2.95-4.19,1.55-10.55,5.81-10.03,4.63.57,7.3-.55,10.6-2.56,11.19-6.81,9.52-8.81,15.52-10.56,7.71-2.25,14.51,1.24,16.79,8.62,3.12,10.12,14.03,3.93,18.77,6.06,2.1,3.83,6.95,3.2,10.16,3.93,9.63,2.19,13.4,12.84,15.01,21.18s7.59,12.17,13.42,16.49l4.68,3.47c.87.64,4.15.51,4.91-.3s1.08-2.36,1.37-4.06l1.68-10.02c.93-1.52,5.44-.64,7.31-.83,3.78-.39,6.5-.57,9.36,2.36,2.09,2.14,8.13,3.63,9.03-.42.54-2.4.22-7.61,2.16-9.61,9.26-2.4,16.6-1.41,22.88-9.01,2.03-6.12,4.94-11.7,9.16-16.22,2.59-2.78,6.13-3.89,9.41-5.69,2.39-1.32,5.03-4.53,7.87-4.66,5.86-.27,10.48,7.83,14.98,5.47,2.58-1.36,3.41-3.67,3.49-6.45l.24-8.57c-1.97-3.71-2.6-6.91,1.36-10.16,3-2.46,14.1-7.22,18.05-1.17,5.79,1.92,11.01,6.05,11.46,13.4l10.31.75c1.47.11,4.98,2.51,6.03,1.5l6.36-6.09,9.31,2.72c3.69,1.08,7.34,1.78,11.01,3.23,2.03.8,4.2,1.36,6.22,1,6.92-1.24.72,6.51,13.62,10.18,3.96,1.13,7.86,4.19,11.6,6.38,5.82-4.15,12.29-5.24,18.79-3.47,1.77-.89,5.09-2.68,5.83-4.07l2.05-10.26c3.84-1.17,6-1.92,8.97-3.05l7.24-2.74,5.14-6.82c-.31-6.16,4.39-8.96,8.86-11.27,2.91-1.5,5.5-3.37,8.62-4.43,22.38-7.59,16.43,2.02,21.7-.15,4.93-2.03,12.9-4.63,17.05-.06,2.25,2.47,2.37,9.93,7.03,10.7l12.81,2.13c.25,6.67,4.47,10.1,8.62,13.45,5.7,4.6,10.65,3.86,17.29,1.68l9.3-3.05c2.66-.87,4.26-3.56,6.4-5.45-.43-2.24,21.69-4.71,21.42-5.09l2.89,3.89c3.86,5.19,2.86-3.51,7.75-4.25,4.68-.71,6.81,7.14,10.31,2.92,2.75-3.31,9.21-1.8,9.75,2.14.58,4.19,1.85,6.83,4.32,10.02,2.3,2.96,4.17,6.27,7.49,8.82,1.82,1.39,6.78-.38,8.17-2.08,4.28-5.24,8.63-4.38,20.17-10.28,5.47-2.8,2.44-14.83,13.22-13.66l9.04.98c4.01.44,7.7.71,11.78,2.08,6.01,2.02,12.23-.48,17.29-4.34,12.84,1.34,11.23,6.22,17.29,3.88,3.14-1.21,6.39-.94,8.84,1.29l6.25,5.68c5.12,2.38,12.6,4.09,18.01,5.43l9-2.62c3.3-.96,6.15-1.11,9.51-.49,6.46,1.19,10.79,4.54,11.57,11.97,2.39.32,7.04,1.52,9.25,1.23l23.23-3.09c3.83-.51,7.12,1.07,9.45,4.02,2.17,2.74,1.39,5.75,1.15,9.18-.4,5.54,7.3,3.21,10.27,3.81,5.5,1.12,10.39,6.87,14.26,10.84,11.47,11.76,13.09,1.94,20.16,14.14.79,1.36,4.2,6.51,5.66,4.96.38-.41,1.37-1.48,1.83-1.93,7.46-.91,10.74-5.49,12.44-4.13,1.26,1.02,4.2,2.53,5.3,1.57,2.41-2.09,5.33-4.66,7.36-5.14,6.7-1.57,9.93,3.94,12.94,8.24,2.79,3.98,8.56,6.29,12.29,9.29,5.4,4.36,10.46,7.82,17.9,5.91,12.35,10.62,6.48,8.89,15.91,18.86.72.77.19,2.94-.62,4.09-.61.87.99,3.45,1.3,4.57l-2.67,7.55,9.61,20.62c.52,1.11,1.97,4.18.97,4.86-5.52,3.74-6.04,9.16-7.22,14.63-.76,3.53-3.56,8.2-1.58,10.74,1.54,1.98.73,6.22,1.02,8.01.61,3.81-.03,6.53-2.71,8.7-.75,1.46-.2,5.17.98,6.35,3.33,3.34,7.73,2.11,7.73,3.28v1.98c0,3.36-1.71,6.05-4.59,7.89-3.25.99,4.11,9.32-2.3,9.93-2.42.23-3.63,1.1-4.43,2.91-2.72,6.14-8.91,9.19-14.06,13.14-3.95,3.03-7.04,4.84-12.6,1.89s-10.54,4.14-13.07-.07c-.9-1.5-3.08-3.23-4.1-2.67-2.29,1.25-7.76,4.93-7.87,7.56s1.46,4.76,3.81,5.96c3.35,1.71,5.84,7.2,3.33,10.31-.86,1.06-4.76-1.35-5.08-2.64-.73-2.91-3.58-3.44-6.28-2.6l-7.78,2.41c-6.02,1.86-6.62,9.49-4.91,14.96-2.6,3.06-5.91,7.03-8.75,9.22-4.36,1.84-8.84,2.61-12.31,5.65-7.6,6.66-11.77-2.65-19.62-1.6-5.49,5.45-12.73,5.26-19.78,4.29-1.68-.23-5.31,2.63-7.12.93-4.55-4.28-4.09-12.37-10.27-10.98-2.98.67-4.62-.56-7.17-2.06-15.4-9.06-3.03-6.32-14.9-8.66-2.14-.42-4.76-4.37-6.63-5.66-3.84-2.66-8.01-.02-12,1.92-1.74.84-5.15-2.97-6.97-3.25-6.63-1.02-13.2-4.34-14.33-11.41-1.57-1.19-4.78-3.54-5.07-5.25-1.46-8.72,11.92-8.98,8.35-17.16l-1.31-3c-.79-1.81-5.7,2.74-6.97,1.84l-3.88-2.74c-9.06-6.41-13.41-12.97-20.4-8.8-2.37,1.41-6.05.56-8.8.69-10.49.49-21.29.83-28.74-7.06-1.2-1.27-2.82-3.62-2.03-5.01l3.15-5.5c.92-1.6,2.41-3.9,2.17-5.59-.57-4.01-9.3-9.28-11.88-7.19s-5.42,4.48-7.76,4.56c-1.15-2.76-2.52-7.05-4.51-6.94-4.51.26-8.85,3.99-12.37,2.03-1.87-1.05-4.73-4.35-6.38-3.64-4.74,2.04-8.62,2.18-13.04,2.41-1.46.08-4.34,1.39-5.65.87-4.66-1.86-.08-7.37-1.21-9.55-.44-.85-2.69-1.83-3.07-2.76l-2.19-5.38c-.98-2.42-7.16,2.15-15.04-13.07-.38-.73-2.62-3.13-2.93-2.37l-1.48,3.65c-2.18.9-5.52,2.16-8.23,2.82-3.6.88-3.4-4.32-3.43-6.33-.08-6.07-6.54-8.77-11.85-7.25-6.28,1.8-6.36,6.84-11.91,6.32-1.51-.14-4.15-2.14-5.63-2.67-3.57-.4-3.48,4.93-2.12,7,.4.62,2.21,2.65,2.64,2.09l2.02-2.67,10.73-.75c1.96-.14,5.08,1.49,6.12,3.08.83,1.27,1.43,4.56.5,5.88-1.78,2.5-5.78,1.27-8.28.58-5.66-1.58-11.81,7.75-17.94,8.97l-4.61-5.4-13.27,7.69c-7.02-.34-12.85,1.54-19.38,3.66s-16.08.31-22.01-3.41c-9.22-5.78-9.33,3.65-17.39.18-1.55-.67-2.71-3.06-4.09-4.93l-10.39-14.01-10,1.34c-1,.13-2.97,1.89-3.83,1.52l-3.68-1.59-9.92,3.47c3.42,4.46,3.97,8.75-.42,12.14-5.46,4.21-.01,11.83-11.18,13.53-.78,3.75-3.18,12.07-6.35,13.31-3.45,1.35-3.03,3.38-4.48,6.28-1.24,2.48-7.84,13.94-12.42,9.81-4.26-3.83-9.24-2.93-14.38-.8-2.89,1.2-9-.25-10.23,4.48-3.1,11.95-2.85,20.13-12.88,26.47-7.84,4.95-14.25,4.72-14.79,9.51-.4,3.53.68,6.41,2.77,8.76,4.17,4.69,1.89,11.11-2.53,14.93-2.18,1.88-3.35,4.57-4.81,7.36-1.82,3.47-6.51,5.48-9.47,8.14-1.12,1-2.62,3.85-3.91,3.96-1.95.16-16.21-3.68-20.25-5.35-3.88,3.42-8.53,7.26-12.88,10.5-3.4,2.53-1.31,7.94-1.48,11.09-.28,4.94-5.23,7.51-9.7,7.84-2.9.21-5.14,1.86-7.02,3.85-29.24,31.15-27.38,4.47-43.91,19.83-1.29,1.2-5.85,1.01-6.35,2.49l-2.1,6.2c-2.92,2.26-5.17,4.65-5.76,8.3-.79,4.9-5.9,7.97-10.29,6.52-6.03-1.99-8.4,2.34-12.57,3.6-6.73,2.03-13.21,5.78-17.33,11.92-10.43-1.84-9.05,9.19-14.1,12.58-9.54,6.39-10.62,14-14.93,25.73-.89,2.42-5.44,5.08-8.15,6.31-8.36,3.79-17,5.22-25.94,6.43-5.41.73-9.42.79-14-2.78-1.98-1.54-5.54-2.13-8.12-2.96l-12.18-3.9c-.78-.25-2.15-1.29-2.61-1.92-2.49-3.41,4.52-4.73-.14-13.09-1.3-2.33-2.84-5.05-4.67-6.05s-5.46-.46-7.2-.64c-2.74-1.42-5.81-2.35-9.25-2.26l-13.75.37c-2.72.07-6.04-5.76-10.15-2.64-2.41,1.83-6.46,3.06-9.78,1.89-5.62-1.98-11.45-.7-16.67-1.52-5.34-.83-10.17-2.32-15.76-2.06s-10.21-.06-15.67-.53l-9.26,9.58-10.87-.47c-2.87-.12-6.27-.62-8.77-.16-15.89,2.94-.44-5.65-33.43-1.61-6.95.85-14.17,2.25-18.94,8.38-1.9-1.07-3.68-2.05-4.76-2.41-3.69-1.25.36,6.15-7.05,10.42-3.07,1.77-6.22,4.57-9.21,5.67-2.49.91-4.86,1.47-6.28,2.59-1.53,1.2-1.46,4.36-1.6,7.32-2.43.68-8.08.84-10.86-1.04-2.96-2-6.02-7.02-6.26-9.88l2.47-5.74c-4.96-3.58-8.34-7.12-11.74-11.91l-5.25-3.97c-1.63-1.23-4.5-1.76-6.41-1.04.27,1.34,1.71,4.28.76,4.86l-4.55,2.81c-.81,6.49,2.02,14.85,4.51,21.22-1.06,4.31-6.49,3.25-9.73,3.54-5.67.5-11.34,2.13-17.2,3.37-1.87.39-5.53-2.58-7.41-3.07-12.52-3.23-13.18-1.89-23.07-5.31l-11.3,1.19c-5.83.62-9.37,2.51-13.57,5.92-11.73,4.96-16.95-5.6-23.02,6.12-1.1,1.89-5.35,3.42-8,4.99-.39,2.04-.45,5.92-.39,8.2ZM335.27,216.77c.92-1.99,1.73-3.71,2.19-4.93.64-1.69-9.35-9.83-16.43-8.1-3.92.95-6.52,8.62-4.44,11.92l9.32,14.85c1.4,2.23,4.8,3.65,7.18,2.71,7.42-2.93.55-12.88,2.19-16.45ZM607.25,368.62c1.26-1.78.69-4.87-.22-5.71s-3.86-2.35-4.7-1.43c-1.08,1.18-.55,4.88.57,5.96.87.83,3.64,2.18,4.35,1.19ZM609.29,373.75c-.33-.52-1.81-.64-2.45-.48-1.59,2.7-3.51,7.85-3.21,10.9,4.61,1.52,7.11-8.14,5.67-10.42ZM190.07,818.21c-2.16-4.17-6.46-5.39-11.64-7.29l-.48,11.33c11.77-1.35,8.09,6.3,12.65,8.54,3,1.48,2.3-7.14-.53-12.58ZM1813.81,864.84c.82.46,3.89.67,4.22-.02l1.45-3.07c1.41-2.99.52-8.92-3.8-9.1-2.09-.09-5.33.77-8,1.48.11,4.38,2.52,8.68,6.14,10.71ZM1345.53,963.89c2.55-3.01,5.1-6.8,3.92-10.03-.78-2.13-6.27-1.26-8-2.31-3.47-2.1-7.4-3.16-11.72-1.93l-6.96,1.98c.17,6.36,5.02,4.51,8.04,5.84l14.73,6.46Z"/>
      <path d="M842.67,1028.28H0v-358c3.16-1.67,13.91,7.41,17.77,9.06,8.93,3.82,17.79,7.24,22.6,16.72l11.19.53c6.88,7.21,10.64,20.48,16.75,24.9l9.02,6.52c2.74,1.98,5.74,4.8,9.12,5.89,13.16,4.27,17.67-8.32,30.22.74,8.3,5.99,11.9-1.41,17.83,2.64,4.38,2.99-2.03,10.71,5.71,24.62l6.18,11.1c11.55,20.74.43,12.83,9.2,21.05,1.08,2.97,2.63,7.59,3.58,11.02l2.66,9.6c.4,1.43-.15,4.82-1.22,5.66-5.62,4.42-23.74-11.85-28.11-15.6-2.38-2.04-7.56-1.49-10.49-.52l-7.42,2.46c-3.77,13.5-8.98,11.57-12.63,24.41.47,7.03,5.74,10.33,10.86,13.55,4.67,2.94,9.15,6.99,13.26,10.66,1.23,1.1,3.23,4.97,4.93,5.02,2.86.09,8.81.29,11.29-.73l16.43-6.74c5.54-2.27,10.17,1.35,15.36,1.95,6.8.78,12.17.96,16.16,7.6,14.2,6.62,6.33,5,22.06,6.31l8.5,4.79c2.25,1.27,4,3.54,3.29,6.13-1.66,6.02-9.98,1.25-11.94,8.39-.59,2.14,1.5,6.43,3.53,6.22l9.92-1.03.15,8.4c-2.23,3.58-2.18,7.08,1.85,9.43,2.37,1.38,4.14,4.22,5.74,7.19l10.14.27c5.04,5.02,10.21-3.7,15.48.85s-7.34,7.98,8.66,19.42c7.45,5.32,2.34,6.8,18.78,5.25,8.2-6.31,17.76-7.45,27.65-5.87l9.83,1.57c12.82,2.04,10.41-10.84,17.26-5.37,13.43,10.73,16.57-3.25,26.61,1.98,10.32-9.14,3.92-7.62,21.93-9.16,10.96-.93,4.13-14.96,30.35-11.43l7.38-4.38c3.8,6.43,10.73,21.68,11.54,28.01.88,6.88,3.49,14.73,8.81,19.23,4.34-1.7,7.32,1.26,10.3,1.92l14.14,3.13,12.54-2.69c2.75,7.13,8.37,9.12,15.34,8.35,4.56-.5,19.59,2.62,24.27,4.66,13.13,5.73,9.03-1.4,19.78,5.14,11.82,7.2,9.74,20.41,13.04,21.31,1.72.46,7.36.04,9.14-1,10.78-6.24,5.95-1.81,16.78-6.28,1.93,3.93,5.04,5.83,9.7,6.34l6.97,7.22c-1.65,4.26-1.59,7.4,2.3,9.64,4.58-4.75,2.13-12.27,10.85-16.53l7.95,2.53c1.6,2.7,3.4,4.81,6.28,5.6,1.79.49,4.95-.96,7.32-1.99,4.17-1.81,10.15.56,14.21-.97l8.2-3.09c2.18-.82,5.99,1,7.99.71l13.73-1.93c3.79-.53,7.84-3.59,11.77-1.91,1.69.72,5.19,1.99,6.53,1.23.11-.06,10.21-8.03,10.56-9.02,1.15-3.26,1.85-8.04,3.22-10.86,6.86-14.09,3.3-3.89,10.76-18.98,1.07-2.18,4.02-5.5,5.41-7.98l8.48-15.1,14.65.59c1.34.05,16.68-1.03,17.28,2.11.96,5-3.16,7.45-.66,9.38,2.68,2.06,12.41,2.05,17.62,1.3,2.75-.4,3.32,2.63,3.56,5.2.92,9.93,10.78,6.47,6.21,27.68l9.35,9.6c2.89,8.18,12.38,24.63,22.46,18.52,8.66-5.24,4.47,8.21,17.35,6.3l-.69,5.42c-.17,1.3-.06,3.06.21,4.13Z"/>
      <path class="st0" d="M2560,779.33v37.82c-1.5.05-3.91.48-5.73.81-.5.09-2.54-.29-2.41.19l.69,2.48c.95,3.42,1.01,5.89-2.64,7.34-5.75,2.3-5.1-6.24-11.47-11.72-.76-.65-.54-3.22.28-3.45l4.32-1.18-6.78-10.5c-2.23-3.46-.61-6.17,1.29-9.17,2.64-4.17,6.6-5.15,10.9-7.38,3.84-1.99,7.19-5.08,11.54-5.24Z"/>
      <path d="M884.98,1028.28h-17.98c-.14-4.71,2.43-2.33,8.43-9,3.64,2.19,7.82,5.29,9.56,9Z"/>
      <path d="M0,477.28v-13c2.9.46,4.72,3.61,5.11,6.56.43,3.23-2.11,5.4-5.11,6.44Z"/>
      <path d="M335.27,216.77c-1.64,3.57,5.24,13.52-2.19,16.45-2.38.94-5.78-.48-7.18-2.71l-9.32-14.85c-2.07-3.3.52-10.97,4.44-11.92,7.08-1.72,17.08,6.41,16.43,8.1-.46,1.21-1.27,2.94-2.19,4.93Z"/>
      <path d="M1345.53,963.89l-14.73-6.46c-3.03-1.33-7.88.52-8.04-5.84l6.96-1.98c4.32-1.23,8.25-.17,11.72,1.93,1.74,1.05,7.22.18,8,2.31,1.18,3.23-1.37,7.02-3.92,10.03Z"/>
      <path d="M190.07,818.21c2.82,5.45,3.53,14.06.53,12.58-4.56-2.24-.88-9.89-12.65-8.54l.48-11.33c5.18,1.89,9.48,3.12,11.64,7.29Z"/>
      <path d="M1813.81,864.84c-3.62-2.03-6.03-6.32-6.14-10.71,2.67-.71,5.91-1.57,8-1.48,4.32.18,5.21,6.11,3.8,9.1l-1.45,3.07c-.32.69-3.39.48-4.22.02Z"/>
      <path d="M609.29,373.75c1.45,2.28-1.05,11.94-5.67,10.42-.3-3.05,1.62-8.19,3.21-10.9.64-.17,2.12-.04,2.45.48Z"/>
      <path d="M607.25,368.62c-.7.99-3.48-.35-4.35-1.19-1.12-1.08-1.66-4.78-.57-5.96.84-.91,3.79.6,4.7,1.43s1.48,3.93.22,5.71Z"/>
    </g>
  </g>
  <g id="_生成オブジェクト" data-name="生成オブジェクト">
    <path class="st0" d="M1786.16,115.54l31.84,14.55c11.12,5.08,21.93,11.17,30.51,19.04l20.2,18.53c-7.11-3.76-12.84,17.7-20.62,17.4-3.48-.13-5.34-6-9.21-7.15-10.89-3.24-19.97,5.26-28.94,8.04-28.98,8.97-9.51,25.7-29.5,28.11-6.1-2.36-13.31-2.05-19.55-2.76-.5-1.87-1.71-5.26-3.46-5.33-2.75-.11-6.06,1.15-8.54,3.63-38.49,38.5-53.4,87.02-63.27,138.06-1.9,9.85-3.51,24.61-6.6,33.26-15.11,42.23-24.82,95.68-62.64,129.29-2.82,2.51-5.69,5.11-3.6,7.8-16.05-6.48-33.02-19.88-48.05-29.23,1.24-3.01,7.93-2.02,9.67-4.07l21.06-24.75c25.81-30.33,33.67-128.22,23.05-138.23-5.88-5.54-9.77,5.88-13.75,5.95-15.71.3-24.22,25.56-35.1,37.75l-26.57,29.77c-11.17,12.52-2.45,34.82-8.13,51.24-2.05,5.92-11.6,14.96-4.94,20.72,4.03,3.48,12.73,4.57,9.94,11.8-19.98-6.04-54.96-15.21-73.74-16.07,27.19,3.84-51.41-13.21-18.56-7.48-1.21-.21-2.14,3.97-3.37,3.99-7.01.11-13.83-1.35-20.15-2.47,39.23-19.15,87.43-54.8,61.05-103.24-3.56-6.54-6.15-16-10.75-20.61,3.18,4.68,3.81-4.07,6.32-4.9,59.02-19.48,95.5-72.49,126.08-119.5,19.54-30.05,43.59-57.09,73-76.59-2.29,11.82-39.84,36.9-49.85,54.82l41.92-30.89c8.3-6.12,20.66-4.37,29.68-12.94,12.01-11.41,25.54-18.75,41.31-21.1l43.26-6.45Z"/>
    <path class="st0" d="M1606.85,208.7c-30.57,47.01-67.06,100.02-126.08,119.5-2.51.83-3.14,9.57-6.32,4.9-15.18-15.23-26.82-47.32-61.32-43.12-19.35,2.36-38.77,10.39-53,23.89-1.25,1.18.07,4.29-1.97,5.63-3.53,2.34-4.78-.46-6.44.84-17.19,13.4-36.42,36.96-55.96,46.37-9.64,4.64-19.08,8.59-27.52,14.72-17.03-33.55-25.08-92.63-72.28-98.36,41.66-58.87,93.43-131.86,171.85-136.36l40.1-2.3,20.69-.95c1.47-.07,3,6.26,5,4.39,1-.93,1.61-1.29,3.8-2.57.59,3.82,2.11,5.86,4.73,5.78,1-.03,1.56-3.37,4.7-2.95s1.96,4.67,3.4,5.15c1.52.51,3.58,1.25,5.98-2.66.38,9.13,10.86,5.08,13.64,8.37,4.79,5.68,17.98,7.88,22.88,10.89,15.08,9.3,66.06,32.84,93.4,34.08,8.14.37,15.29-1.8,20.72,4.74Z"/>
    <path class="st0" d="M1868.3,68.82c2.68,1.82,6.36-1.38,9.96,3.31-3.87,4.48-8.07,10.6-12.26,12.85-25.34,13.6-51.3,26.32-79.84,30.57l-43.26,6.45c-15.77,2.35-29.3,9.69-41.31,21.1-9.02,8.57-21.38,6.82-29.68,12.94l-41.92,30.89c10.01-17.92,47.56-43,49.85-54.82,17.13-11.36,34.43-20.5,57.26-26.23l38.28-9.61c32.38-8.13,63.53-15.71,92.91-27.46Z"/>
    <path class="st0" d="M2096.26,11.5c3.56,5.26,10.99,8.2,16.64,13.4l29.83,27.44,12.88,31.45c2.52,6.16.64,16.14,6.45,20.65,0,1.72-.28,3.85-.01,5.48-8.29.77-5.95,32.11-11.31,35.64-2.01-12.23,9.2-36.48-5.03-41,.37-33.59-19.31-64.12-49.46-78.58-22.17-10.63-46.49-7.1-65.57,9.59-8.15,7.13-18.21,13.25-19.71,23.79l-5.33-.65c-1.85-.22-3.6-.64-5.51-1.42-.27-1.42.99-1.93,1.68-2.31,2.19-1.19-2.21-4.27-1.55-5.33l22.66-22.01c10.23-9.94,19.21-24.75,34.78-27.37,15.17-2.55,27.98,13.5,38.56,11.23Z"/>
    <path class="st0" d="M2150.74,145.57c-3.15,2.08.49,9.39,2.38,11.51-9.63,27.25,11.11,67.07,6.65,81.52,4.05.06,5.53,3.33,4.94,4.11l-2.49,3.29c-4.8-5.68-9.5-10.41-12.88-19.2-5.92,4.32-7.33,4.31-6.7-1.95,1.22-12.02-15.7-52.75-8.07-78.93l5.64-19.35c2.2-7.55,2.35-16.29,5.49-22,14.23,4.52,3.02,28.76,5.03,41Z"/>
    <path class="st0" d="M1910.01,52.71c2.23,7.61-7.34,6.49-13.13,13.97,7.27,2.66,14.03.03,18.27,4.88-1.96,7.8-12.39,6.64-16.19,15.2-1.6,3.6-9.81-.44-13.22,2.24-4.34,3.41-10.14,7.51-13.95,1.63-1.24-1.92-.33-4.21-1.79-4.75s-2.65-1.11-3.99-.91c4.19-2.25,8.39-8.37,12.26-12.85-3.6-4.69-7.28-1.49-9.96-3.31,13.79-5.51,27.17-11.43,41.7-16.11Z"/>
    <path class="st0" d="M1964.11,88.56c-1.92.75-4.07,1.25-4.25,2.28l-1.22,6.94c-.83,4.71-3.51,8.66-3.34,13.11.51,13.39-11.4,26.7-20.45,38.35-10.62,13.68-9.37,43.14-28.81,40.83-18.37-2.18,9.11-15.44-37.33-22.4l-20.2-18.53c-8.58-7.87-19.39-13.95-30.51-19.04l-31.84-14.55c28.54-4.26,54.5-16.97,79.84-30.57,1.34-.2,2.58.39,3.99.91s.55,2.83,1.79,4.75c3.81,5.88,9.61,1.78,13.95-1.63,3.42-2.68,11.62,1.37,13.22-2.24,3.8-8.56,14.23-7.4,16.19-15.2,10.83-3.14,55.37-9.16,55.34,9.51,0,3.27-2.96,6.15-6.38,7.49Z"/>
    <g>
      <path class="st0" d="M1896.02,358.86c.8,6.78,16.39,1.31,24.92,7,2.63,1.75,6.1,15.23,4.17,25.47,1.32-7.01,5.73,47.61,3.63,49.45-31.81,23.83,5.37,34.5-22.66,54.92-8.77,6.39.67,16.14,4.8,21.36,10.63,13.44-6.65,46.33-6.64,46.34,2.76,10.62,35.65-47.5,32.81-45.21l27.56-22.19c36.98-29.78,48.58-29.08,90.31-38.6,8.77-2,15.53-3.11,22.17.93,15.83,9.65,5.01,14.33,19.25,35.45-12.74,51.51-65.07,89.94-110.19,112.15-4.01,1.97-3.92,2.55-3.09,4.49.92,2.14.4,5.45,2.98,3.91-2.82,5.7-9.57,6.15-15.88,8.62l-33.5,13.13c-8.29,3.25-14.06,8.08-22.16,11.4,5.75,21.78-4.58,38.41-21.23,52.03-14.99,12.27-36.58,21.06-51.54,8.81,3.84,1.72,3.89-3.61,1.18-6.55,3.86-40.36,15.28-11.35,17.53-35.25,7.1-1.35,11.97-10.93,17.28-15.48,11.65-9.99,23.66-18,29.44-33.67-16.7-8.81-69.79-1.43-72.63,1.17l-45.26,41.28c-1.56-2.42-3.21-2.87-5.45-4.32-5.7-11.59-1.97-32.16-19.14-35.75-.37.61.13-16.27-3.2-3.91-3.34,4.41-6.54-.68-8.81-2.84-7.53-7.18,8.91-26.3,6.44-42.54,3.69-3.29,6.4-9.1,8.18-13.25,49.01-56.09,50.74-125.93,110.8-187.86,6.13-6.32,12.1-7.25,17.93-10.48Z"/>
      <path class="st0" d="M2041.13,269.3c5.42,12.01-24.5,8.35-15.67,14.78,2.18,1.59,12.94,1.75,24.4,3.78,12.41,24.9,4.54,32.22,34.46,50.45,5.41,3.29,41.4,25.37,41.76,25.99,1.67,2.89-2.97,6.77-.66,9.33l7.83,8.73c1.4,1.56-4.27,7.26-1.95,9.29,10.12,3.68,17.56,7.58,19.08,18.57,1.26,9.17,6.03,17.35,9.3,26.02,3.75,9.94,3.4,21.86,13.72,24.98,6.09,16.1-36.81,5.46-29.6,14.96-12.58.12-60.17-25.84-62.15-25.61-3.52.42-8.38,3.22-4.57,7.74-6.63-4.05-13.4-2.93-22.17-.93-41.73,9.53-53.33,8.82-90.31,38.6l-27.56,22.19c-5.08-5.44,11.98-28.72,9.73-39.51-1.77-8.43,5.37-12.6,5.23-17.23-.36-11.65,5.9-20.34,8.85-28.49,2.11-5.85-1.93-22.31,8.9-22.53,12.53-.26,24.04-14.52,24.38-23.08.05-1.41-.34-4.73.6-5.78,9.91-11.01,4.76-57.1,9.66-88.2.67-4.25-6.65-8.86-2.45-13.83,2.58-3.05,1.8-6.65,9.2-6.78,5.15-.09,13.14-2.87,16.81-6.61,4.31-4.4,8.8,5.66,13.18,3.14Z"/>
      <path class="st0" d="M2386.51,359.4c-5.96-.25-10.86,3.31-16.34,5.12,1.88-3.05-1.72-6.77-1.97-9.92,13.66-11.92,22.11-32.73,17.36-50.52-3.17-11.86-9.8-19.59-25.62-18.47,3.17-6.39,1.2-14.25,3.87-20.47,2.05-4.76,6.44-7.64,3.72-12.26-.89-1.51,1.04-4.35-.49-5.87-1.13-1.12-.1-1.66.15-2.74,2.04.53,3.86-.86,2.64-2.99,6.12-12.52,17.71-25.18,30.65-32.37,26.54-14.73,49.55,11.87,67.51,31.51-15.53,7.88-53.68,3.31-61.44,12.91-13.2,16.35,26.94,62.38-20.06,106.06Z"/>
      <path class="st0" d="M1841.73,708.32c-6.82-5.58-15.97-7.33-25.38-9.99-10.49-2.97-13.97-18.18-18.96-25.92l-8.13-12.6,45.26-41.28c2.84-2.59,55.93-9.98,72.63-1.17-5.78,15.67-17.79,23.68-29.44,33.67-5.32,4.56-10.18,14.13-17.28,15.48-2.25,23.91-13.66-5.11-17.53,35.25,2.71,2.93,2.65,8.26-1.18,6.55Z"/>
      <path class="st0" d="M2367.53,252.89c2.72,4.62-1.68,7.5-3.72,12.26-2.67,6.22-.7,14.07-3.87,20.47,15.82-1.12,22.45,6.61,25.62,18.47,4.76,17.79-3.69,38.59-17.36,50.52.25,3.15,3.85,6.87,1.97,9.92-8.49,2.82-15.09,10.14-24.91,14.05-.48-7.98,4.37-16.96-2.19-21.54,13.24-31.27,4.35-82.23,21.52-104,1.04.84,2.03.97,2.93-.14Z"/>
      <path class="st0" d="M2353.85,392.3c-2.58,6.71-11.48,8.38-17.94,13.76l21.52,10.4-36.08,12.43c-24.26,8.36-47.75,19.26-69.21,4.97-3.98-2.65-15.27,1.18-16.45-5.76,10.61-10.61,28.33-1.53,39.75-8.39,26.65-16.01,43.72-2.44,46.53-18.1,1.27-7.09,13.78-7.13,20.59-12.25,2.48-.03,5.76.24,7.05-.2,1.57-.54,4.87.05,4.24,3.14Z"/>
      <path class="st0" d="M2213.83,312.66c3.75.6,5.58,5.31,5.69,8.57-3.53,2.62-2.43,5.73-3.01,9.56-.82,5.43,5.11,6.03,7.15,10.29,2.01,4.21,12.94,36.31,6.76,39.85-2.5,6.43-40.62-22.47-40.09-26.07,4.21-7.34,2.5-16.76,2.71-25.08l14.69-16.22c.03,2.24,2.82,7.28,3.36,3.4.56-4,.38-5.96,2.75-4.31Z"/>
      <path class="st0" d="M2252.13,365.23c-4.99,5.93,2.85,11.62,7.97,15.96l6.66,5.64c1.56,1.32.49,4.05-1.8,7.55-11.31-2.24-27.17-4.43-34.54-13.45,6.18-3.54-4.75-35.64-6.76-39.85-2.04-4.27-7.97-4.87-7.15-10.29.58-3.83-.52-6.94,3.01-9.56,10.91,6.89,18.15,37.86,32.61,44Z"/>
      <path class="st0" d="M2560,581.88c-.61,10.57-5,24.17-16.59,30.22-5.23,2.73-9.06,3.81-13.71,1.15-10.22-5.84,3.64-27.71,2.71-37.79-.34-3.68,7.25-2.8,7.63-.88-4.07,3.23-3.22,4.63-1.72,7.27,1.75,3.09,6.8-.47,8.16,1.72l3.31,5.37c.71,1.15,2.88-1.13,10.21-7.07Z"/>
      <path class="st0" d="M2244.75,700.77c.08,3.05-4.96,8.72-5.38,10.89-9.2-2.3-19.81-5.88-26.09-12.3,6.12-8.72,10.14,2.29,17.41-.16,3.89-1.31,13.9-5.19,14.06,1.57Z"/>
      <path class="st0" d="M1986.03,614.33c.83-2.38,2.13-3.09,4.56-2.73,1.75.26,3.88-.66,4.18,2.48-4.07.73-6.28.4-8.74.25Z"/>
      <path class="st0" d="M2049.86,287.86c-11.46-2.02-22.22-2.19-24.4-3.78-8.83-6.44,21.09-2.78,15.67-14.78,4.37-2.51,6.87-.59,13.5-1.01-7.45-31.78,41.38,10.56,55.86,18.5,3.26,1.79,11.1-4.84,11.51,5.18.11,2.8-.88,5.62-4.2,9.83l22.6,22.22c-12.43,12.29-29.6,12.82-44.29,5.44-10.76-5.41-17.26-12.32-17.25-25.42,0-5.92-10.27-8.28-13.47-12.05-5.47-6.45-10.49-3.25-15.53-4.14Z"/>
      <g>
        <path class="st0" d="M2027.8,184.03c3.31,1.26,2.2-2.3,2.98-6.2,12.97,4.97,14.93-19.01,37.47-21.82,7.28,4.47,13.53,12.42,18.68,17.5-3.5,13.27,7.5,21.46,14.57,26.93l13.52,10.45c6.08,4.7,3.49,25.41,17,22.22,4.48-1.06-14.94-31.87-10.22-62.03,1.46-9.31.57-18.38,2.65-28.24l10.12,3.08c-7.63,26.18,9.29,66.91,8.07,78.93-.64,6.26.77,6.27,6.7,1.95,3.38,8.79,8.08,13.52,12.88,19.2l37.61,44.45c5.85,6.92,13.28,13.95,13.99,22.21-2.37-1.65-2.19.31-2.75,4.31-.54,3.87-3.33-1.16-3.36-3.4l-14.69,16.22c-.21,8.32,1.5,17.74-2.71,25.08-.53,3.6,37.59,32.5,40.09,26.07,7.38,9.01,23.23,11.21,34.54,13.45,2.29-3.5,3.36-6.24,1.8-7.55l-6.66-5.64c-5.12-4.34-12.96-10.02-7.97-15.96,27.17,11.53,72.38,23.35,90.95-8.2,6.56,4.59,1.7,13.56,2.19,21.54,9.81-3.91,16.41-11.23,24.91-14.05,5.48-1.82,10.38-5.37,16.34-5.12,3.83,4.79-28.17,34.81-32.66,32.9.62-3.09-2.68-3.68-4.24-3.14-1.28.44-4.56.17-7.05.2-6.81,5.12-19.32,5.16-20.59,12.25-2.81,15.66-19.88,2.09-46.53,18.1-11.42,6.86-29.14-2.22-39.75,8.39-3.35.41-9.66-1.42-14.06.18-16.1,19.49-20.28,37.12-48.22,32.96-10.33-3.12-9.97-15.04-13.72-24.98-3.27-8.67-8.04-16.85-9.3-26.02-1.51-11-8.96-14.9-19.08-18.57-2.32-2.03,3.35-7.73,1.95-9.29l-7.83-8.73c-2.3-2.57,2.33-6.44.66-9.33-.36-.62-36.35-22.69-41.76-25.99-29.93-18.23-22.05-25.55-34.46-50.45,5.04.89,10.06-2.31,15.53,4.14,3.2,3.77,13.47,6.13,13.47,12.05,0,13.1,6.49,20.01,17.25,25.42,14.69,7.38,31.86,6.85,44.29-5.44l-22.6-22.22c3.32-4.22,4.32-7.04,4.2-9.83-.41-10.03-8.24-3.4-11.51-5.18-14.49-7.94-63.32-50.27-55.86-18.5-6.62.42-9.13-1.49-13.5,1.01-4.38,2.51-8.87-7.54-13.18-3.14l.82-6.78c-.01.1-20.18-2.94-26.16.71-11.11,6.79-23.46,8.29-34.28,16.81-2.36-2.18.09-5.19-1.05-7.92,7.62-9.92,36.05-19.33,36.35-32.08-11.51-2.01-21.68,5.63-30.85,3.45-6.45-1.54-12.71-3.26-18.67-2.66-5.42.55-6.37,8.98-10.4,11.39-42.23,25.26-80.68,3.36-93.39,8.83-2.65,1.14-8.02,6.37-9.54,9.08,4.92,13.73,19.78,28.45,29.38,38.65,10.3,3.65-24.74,7.4-22.08,7.07-4,.5-.26,7.52-3,9.1-47.61,27.39-58.66,89.83-69.87,139.04-1.98.03-4.73-.32-6.29.31,1.9-.78-8,16.98-7.9,14.93-.24,5.07,5.71,2.43,5.82,5.69.13,3.82-3.25,3.45-4.23,3.96-1.75.9,1.78,6.06.54,8.08-3.99,6.45-9.21,10.96-3.96,16.33-17.52,1.32-8.15-5.09-30.98-15.83,3.34-.19,7.44.51,4.84-3.46-6.5,3.61-10.7,1.33-15.37.81-7.5-.84-13.71,6.58-21.38,4.14-1.39-6.94,5.51-9.9-.08-10.48,9.33-20.01,13.85-42.34,16.8-65.52l8.42-66.06c4.49-35.23,37.69-82.99,25.81-104.48l-6.7-12.11c-2.73-4.93,14.95-21.74,18.25-23.19,1.17.4,3.51-.84,5.74,1.34.75.74-1.77,2.73-2.59,3.38-1.8,1.41,2.37,5.2,1.72,6.67-2.34,5.34-12.98,14.57-8.94,19.92,4.59,6.08,14.95-1.82,20.5-1.1,8.48,1.09,15.79,9.43,24.03,6.79,3.61-1.15,5.16-9.48,4.65-13.24-.31-2.32-14.01-19.99-23.47-23.65,19.99-2.41.52-19.14,29.5-28.11,8.97-2.78,18.05-11.28,28.94-8.04,3.87,1.15,5.73,7.02,9.21,7.15,7.78.29,13.51-21.16,20.62-17.4,46.44,6.97,18.96,20.22,37.33,22.4,19.44,2.3,18.19-27.15,28.81-40.83,9.04-11.65,20.96-24.96,20.45-38.35-.17-4.45,2.52-8.4,3.34-13.11l1.22-6.94c.18-1.03,2.33-1.53,4.25-2.28,3.95,9.36,0,16.99-3.45,24.49-2.06,5.22,8.53,8.15,9.26,11.12,1.27,5.14-1.57,15.07,5.8,19.21-2.06,4.41-1.87,11.15-3.19,16.63-9.09,2.54-10.19,17.27-15.48,20.96-14.35,10-22.23,19.89-15.21,39.19,6.32-4.03,18.95-5.11,23.88-.24,2.03,2.03,6.54,2.77,8.25,7.85,47.98-7.5,24.67,22.77,67.62-1.45,5.41-3.05-3.66-8.36-4.49-11.84-2.55-10.6-5.84-21.91-9.31-30.44Z"/>
        <path class="st0" d="M1733.17,460.76c-10.44-8.54,1.88-14.17,1.71-22.03-4.67-3.11-10.68-4.6-13.53-7.16-6.8-6.13,1.58-40.77,4.6-47.32,4.13-8.96.9-18.72,3.67-27.03,3.06-9.18,10.98-17.84,8.79-28.82-2.16-10.81,2.37-21.62,2.51-32.81.16-11.79,10.02-21.53,19.72-27.59,6.08-3.8,10.62-14.54,20.14-11.72-2.45-.72,17.82,10.36,23.12,15.67,4.26,4.27-1.95,11.32-.38,15.57,3.02,8.2,6.63,25.55,1.62,30.74-9.51,9.84-29.73,89.84-42.07,111.23-6.4,11.09-20.82,19.35-29.9,31.28Z"/>
        <path class="st0" d="M1780.43,214.06c9.46,3.66,23.15,21.33,23.47,23.65.51,3.75-1.05,12.08-4.65,13.24-8.24,2.64-15.55-5.7-24.03-6.79-5.54-.71-15.91,7.18-20.5,1.1-4.04-5.36,6.6-14.59,8.94-19.92.64-1.47-3.53-5.26-1.72-6.67.82-.64,3.34-2.64,2.59-3.38-2.22-2.18-4.56-.95-5.74-1.34-1.02-1.66-.06-4.01,2.09-2.65,6.25.7,13.45.4,19.55,2.76Z"/>
      </g>
      <path class="st0" d="M2068.26,156c-22.55,2.81-24.5,26.79-37.47,21.82-.78,3.89.33,7.46-2.98,6.2-2.96-7.27-2.2-16.47-6.13-24.13s-1.08-15.56,3.65-22.85c7.74-11.93,27.83,9.68,42.94,18.96Z"/>
      <path class="st0" d="M1977.81,397.02c6.81-.55,10.95-5.8,16.31-9.67-.33,8.57-11.85,22.83-24.38,23.08-10.82.22-6.78,16.68-8.9,22.53-2.95,8.15-9.2,16.83-8.85,28.49.14,4.63-7,8.79-5.23,17.23,2.26,10.79-14.81,34.07-9.73,39.51,2.84-2.29-30.04,55.83-32.81,45.21,0-.01,17.27-32.9,6.64-46.34-4.13-5.22-13.57-14.97-4.8-21.36,28.03-20.42-9.14-31.09,22.66-54.92,2.09-1.83-2.32-56.46-3.63-49.45,1.92-10.24-1.55-23.72-4.17-25.47-8.53-5.69-24.12-.22-24.92-7,12.55-6.96,35-9.54,35.26,2.23.03,1.5-2.81.14-6.21,2.9,13.87,10.97,32.85,34.64,52.74,33.02Z"/>
      <path class="st0" d="M2096.25,25.99c-6.88.57-9.79,7.45-8.96,15.88.39,4,4.5,5.9,1.21,9.99-.48.6-15.06,4.1-11.96,3.51-2.87.55-3.25,4.86-.65,6.83-3.63,5.42-11.74,7.38-18.26,8.71-1.58-3.97,6.01-6.25.94-12.34,3.01,3.96,14.97,1.15,13.97-3.2-4.79-7.31-16.26-.05-21.61,1.17-2.16.49-5.86-.81-8.35-.39-4.42.73-6.03,3.17-5.68,5.53-8.75-5.21-18.71-1.43-25.95-2.31,1.51-10.53,11.56-16.66,19.71-23.79,19.08-16.69,43.4-20.22,65.57-9.59Z"/>
    </g>
    <path class="st0" d="M2057.64,70.91c-3.85.78-7.29,2.82-12.59,5.41l7.04,11.65c-18.47,3.89-36.44-.09-47.54-14.45-5.96,5.38-7.91-3.48-6.86-6.02,1.91-4.62,3.35-8.14,7.94-8.78l5.33.65c7.25.88,17.21-2.9,25.95,2.31-.35-2.36,1.26-4.8,5.68-5.53,2.49-.41,6.18.89,8.35.39,5.35-1.22,16.81-8.48,21.61-1.17,1,4.35-10.96,7.16-13.97,3.2,5.07,6.08-2.51,8.37-.94,12.34Z"/>
    <g>
      <path class="st0" d="M2145.71,104.57c-3.14,5.71-3.29,14.46-5.49,22l-5.64,19.35-10.12-3.08c-2.09,9.86-1.2,18.93-2.65,28.24-4.71,30.16,14.7,60.97,10.22,62.03-13.51,3.19-10.92-17.52-17-22.22l-13.52-10.45c-7.07-5.46-18.07-13.66-14.57-26.93-5.15-5.08-11.39-13.03-18.68-17.5-15.11-9.27-35.2-30.89-42.94-18.96-4.73,7.29-7.74,14.9-3.65,22.85s3.18,16.86,6.13,24.13c3.47,8.53,6.76,19.84,9.31,30.44.84,3.49,9.9,8.79,4.49,11.84-42.95,24.21-19.64-6.05-67.62,1.45-1.7-5.08-6.21-5.82-8.25-7.85-4.94-4.87-17.57-3.79-23.88.24-7.02-19.3.86-29.19,15.21-39.19,5.29-3.69,6.39-18.42,15.48-20.96,1.32-5.48,1.13-12.22,3.19-16.63-7.38-4.14-4.53-14.06-5.8-19.21-.73-2.97-11.32-5.91-9.26-11.12,3.45-7.5,7.4-15.13,3.45-24.49,3.42-1.33,6.38-4.21,6.38-7.49.03-18.67-44.5-12.65-55.34-9.51-4.25-4.85-11-2.22-18.27-4.88,5.79-7.48,15.36-6.35,13.13-13.97,29.85-9.6,60.68-7.49,90.12,4.58,1.91.78,3.66,1.2,5.51,1.42-4.6.64-6.03,4.16-7.94,8.78-1.05,2.54.89,11.4,6.86,6.02,11.1,14.36,29.07,18.35,47.54,14.45,4.24,9.82-2.79-4.32-10.61,7.27-1.73,2.57,35.03,57.14,49.92,51.05,8.96-1.85,23.84-34.59,9.92-42.06-6.71-3.6-19.69,10.2-49.23-16.25l-7.04-11.65c5.3-2.59,8.74-4.63,12.59-5.41,6.51-1.33,14.63-3.29,18.26-8.71-2.61-1.96-2.22-6.28.65-6.83-3.1.59,11.48-2.91,11.96-3.51,3.28-4.1-.82-6-1.21-9.99-.83-8.43,2.08-15.31,8.96-15.88,30.16,14.46,49.83,44.99,49.46,78.58Z"/>
      <path class="st0" d="M2052.1,87.97c29.54,26.45,42.53,12.65,49.23,16.25,13.92,7.47-.96,40.21-9.92,42.06-14.89,6.09-51.65-48.48-49.92-51.05,7.81-11.59,14.85,2.55,10.61-7.27Z"/>
      <path class="st0" d="M2001.72,110.29c12.1,3.29-2.71,37.44-7.36,34.25-7.33-5.02-6.37-21.88-3.45-29.28,2-5.06,7.93-5.75,10.81-4.97Z"/>
    </g>
    <g>
      <path class="st0" d="M212.3,331.74c-9.9,10.6-24.88,18.9-33.2,33.14-6.14,10.5,2.37,19.13,8.38,24.75,3.22,3.01,8.01,11.54,7.59,17.32-37.2,19.44-86.73-37.98-91.09-62.12-.78-4.35-5.9-7.98-9.61-7.84,7.73-4.27,13.11-13.07,24.68-16.25,14.24-3.9,26.91-14.51,34.8-26.21-1.14-3.27-4.95-3.9-2.04-5.48,12.09-11.61-23.29-39.25-37.41-32.98-3.97,2.29-9.11,3.84-1.88,4.93,8.32-2.3,14.92-1.54,17.77,2.33,4.17,5.67,2.49,13.96-.61,19.51-1.97-.63-3.76.24-4.95,1.15-1.44,1.1-3.87,4.16-1.79,5.77,2.29,1.78,6.08,1.43,6.25,4.99.15,3.04-2.86,5.52-6.8,8.33,1.92,3,6.71,1.41,8.26,6.16-9.47,5.49-20.3,11.31-28.25,14.62-6.26,2.6-10.95,13.39-20.71,14.44-2.91-6.22-4.11-1.69-2.49,2.67-29.8,23.07-44.28,59.55-51.19,97.71-6.38-.85-5.39-6.54-10.97-9.83l-3.84,13.19c-2.31-4.39-6.54-16.71-1.78-18.98,7.03-3.35-1.1-6.88-.3-9.76l9.65-34.52c.64-2.3.33-4.17.35-5.17.02-1.18-3.39-.93-3.54-2.25l13.91-33.86c1.26-.11,2.42.03,2.75-1.41.29-1.27-.13-2.56-.01-4.08,6.18,1.35,2.94-7.39,5.48-8.23,4.03-1.33,4.22-4.53,5.48-8.23,3.57-2.34,25.61-31.74,24.68-35.64l29.99-27.16c11.35-10.28,30.05-12.96,43.43-5.69,8.91,4.84,16.7,13.89,24.59,14.79,8.85,1,25.14,4.52,30.17-.88,10.78-11.59,19.63-19.83,28.51-31.76l13.16-17.7c9.39-12.63,16.65-26.37,25.16-38.4,1.95-2.75,5.49-4.3,5.15-8.35v-5.48c10.23-7.91,13.91-21.51,22.2-32.9,10.75-14.77,21.13-29.54,33.55-42.95,8.61-9.29,20.69-14.96,26.53-25.7l16.7-4.9c-16.27,13.22-33.87,24.47-44.96,43.22,7.14.09,38.02-37.94,41.55-28.75,2.55,6.64-18.95,17.42-12.4,18.82,13.01-13.37,56.55-11.42,50.73-.13-1.99,3.86-6.2,5.79-10.53,7.06-45.59,13.33-83.4,43.91-99.54,88.32,12.3-14.94,18.99-31.71,33.58-43.76,17.56-14.49,29.58,6.89,34.88-.32,1.34-1.83-.35-5.95,4.23-5.2-5.62,37.73-15.38,63.22-26.81,93.21,3.9-.95,20.66-34.14,19.54-37.36,9.5-7.78,4.72,19.77-7.11,31.83-14.3,14.57-58.08,52.17-72.67,59.32-1.55.76-5.17-1.58-5.78,2.55-.19,1.31-5.7.72-5.29-1.27,1.09-5.32,7.19-7.36,7.29-15.07-20.43,13.23-24.65,24.95-33.13,34.02l-30.3,32.43Z"/>
      <path class="st0" d="M1132.13,434.07c3.39,5.45,6.97,12.58,9.41,18.59-4.18,12.51-12.57,24.83-23.9,34.28-4.92,1.83-10.56-2.99-15.14.27,3.59,7.07-.93,11.01-.56,15.96.51,6.89-7.89,5.62-10.12,9.76s-.24,9.94-5.54,13.39c-19.17,12.48-40.82,18.92-62.38,23.07l-41.05,7.89c-5.77,1.11-11.79-2.27-19.17.2-.04,1.76,3.99,2.86,2.9,4.98-30.74,11.26-59.83,22.9-84.73,41.02-4.2-1.37-7.03-6.97-11.71-7.85-1.32-5.53-5.04-11.62-10.67-13.5.73-5.56-4.67-9.74-6.44-14.69-8.93-25.05-17.14-50.25-17.42-78.44,28.7,14.78,56.17,15.6,84.41,8,8.43-2.27,17.87,1.07,24.82-5.48l-36.63,1.87c-4.16.21-2.9-7.4-.98-10.33,3.33-5.1,43.82,2.52,50.33,2.99,29.71,2.12,57.83-2.95,92.24-9.07-9.38-11.67-28.78-1.37-60.64-22.47l32.59-16.17c14.4.16,7.41,11.76,35.03,7,11.26-1.94,39.18-12.03,41.39-20.2,11.63-3.36,24.03.85,33.96,8.93Z"/>
      <path class="st0" d="M1306.35,573.69c-10.13,29.29-21.9,58.35-38.13,84.97-1.35,2.22-3.34,3.44-3.71,8.1-1.79-1.24-5.61-6.62-8.73-6.05-4.49.81-11.25,8.08-11.38,13.08-.27,10.47-14.44,18.27-13.27,21.59l1.69,4.79c.43,1.82-1.21,1.32-1.81,1.67-.66.38-2.14,2.23-1.42,2.98-11.21,10.58-19.72,24.24-29.71,36.05l-49.47,58.51c-1.49,1.18-7.71,2.61-4.77,6.13s8.38.07,14.56.44c-14.86,20.71-18.12-8.61-27.84,10.21,7.92-.7,8.38,4.59,2.17,4.06-12.91-.59-23.24,6.27-35.52.42,23.07-15.56,7.33-1.93,25.14-10.93,5.93-3-.74-8.16,1.99-11.22,6.36-7.16,10.06-16.8,15.08-23.24,10.61-13.6,25.67-21.28,33.22-38.28-14.78,6.22-30.89,9.51-42.11,19.07-9.24,7.88-16.58,15.34-29.34,8.26,19.4-14.55-8.69-3.36-32.41-11.03l-83.27-26.93c8.67-3.52,15.85,1.1,23.09,3.37l35.64,11.19c-1.24-10.39-24.2-4.54-19.08-14.46l29.65,2.85c.12-6.43-4.23-9.51-7.24-17.97,4.4-.41,8.55-.1,12.45,1.5-4.3,2.83.55,3.64,1.89,3.14,1.01-.37,1.28-2.61,4.63-3.64,2.48,20.61,21.68,26.95,39.98,25.52,14.71-1.15,30.07-.79,41.52-13.85,5.6-6.39,14.9-7.99,21.04-12.61,43.24-32.55,44.17-59.43,65.93-106.09,6.43,2.57,8.9,8.39,15.14,9.42,12.03-8.29,13.24-23.52,20.15-34.23,3.36-5.21,7.45-9.58,7.87-15.54,11.75,3.51-3.3,17.51,1.18,19.13,2.79,1.01,4.97,4.03,7.08,1.89,2.54-2.57,7.65-23.78,15.88-19.27,4.81,2.63,1.14,4.88-1.89,4.08-1.76-.46-1.3,2.56.18,2.58s2.72.13,3.94.33Z"/>
      <path class="st0" d="M1479.49,550.99c13.63-.5,23.21,13.91,33.9,13.45,9.54-.41,19.98,1.5,30.43,4.53-3.74,4.96-8.34,4.02-11.8,6.59,4.24,5.11,10.94,1.27,13.06,6.02.85,4.57-4.73,3.13-9.39,8.71l11.09,2.44c-33.63,10.95-16.49.37-22.37-.35-2.09-.25-4.33-.64-4.43,4.7-14.99-.37-30.48-2.55-46.41-7.36-68.28-20.6-123.81-8.84-167.96,45.79-10.64-3.01-12,11.72-17.72,17.47-4.91,4.94-15.54,4.78-15.33,13.97-4.06-3.71-1.68-6.99-4.37-8.29,16.24-26.62,28-55.68,38.13-84.97-4.06,7.36,34.22-56.13,28.31-41.49,12.72,5.88,11.05-5.62,19.68-2.13,3.18,1.29,6.68,3.48,8.77,6.6,28.33-27.27,31.65-6.54,70.24,4.29l-14.15,9.29c10.52,3.83,21.61-1.06,31.75-3.67,11.33-2.91,20.45,4.71,28.55,4.42Z"/>
      <path class="st0" d="M486.58,312.56c25.27-5.63,32.08,25.12,49.68,41.04-.77-7.04,1.54-41.77.71-40.56.82-1.2,2.1-2.63,4.14-2.78.08,6.05,6.94,4.35,10,5.17,7.23,1.95,9.09-2.23,14.26-7.05,4.35,2.9,3.16,4.55,1.78,4.3-5.72-1.03-3.85,3.08-2.79,6.63s-6.24,7.78-6.32,13.06c-.22,13.16,9.88-18.89,16.43-15.29-1,4.55.89,6.6,2.47,4.81.78-.89,3.58,1.42,2.52-1.59,2.24,12.5-18.83,50.41-7.36,47.58-1.3,3.74,1.75,8.81-4.5,8.25-2.47-.22-7.25-2.28-10.63-3.18-7.64,8.16-25.95,16.69-35.59,6.82-31.12-31.85-61.9-9.2-92.63-11.07-19.06-1.16-30.39-.55-41.9,8.33-16.56,12.77-34.67,23.13-50.98,37.48-4.78,4.21-11.04,5.93-15.73,4.98,6.41-39.61,35.23-49.62,53.76-73.35,4.45-5.71,13.74-10.5,19.39-16.82,10.32-11.56,12.81-23.64,18.02-38.27l9.91-27.81c14.87-5,35.18-12.32,47.83-4.83,7.31,7.54-4.76,19.72-11.88,21.74s-10.05,10.41-16.24,14.24c-9.19,5.68-14.63,15.75-16.2,27.36-.41,3.06,6.59,6.57,3.26,10.34-7.03,7.95-7.4,7.8-14.76,17.16,5.05,5.61,10.42-2.95,14.37-2.04,29.69,6.77,38.63-.92,68.53,1.92-.78-4.98-3.71-10.29-6.15-11.52-9.92-1.25-18.08-1.74-27.1-4.86,3.66-2.85,33.82-14.47,23.69-20.17Z"/>
      <path class="st0" d="M486.58,312.56c10.14,5.7-20.03,17.32-23.69,20.17,9.02,3.12,17.18,3.61,27.1,4.86,2.44,1.23,5.38,6.54,6.15,11.52-29.9-2.84-38.84,4.85-68.53-1.92-3.95-.9-9.32,7.66-14.37,2.04,7.36-9.35,7.73-9.21,14.76-17.16,3.34-3.77-3.67-7.28-3.26-10.34,1.56-11.61,7.01-21.68,16.2-27.36,6.19-3.82,8.9-12.15,16.24-14.24s19.19-14.2,11.88-21.74c-12.65-7.49-32.96-.18-47.83,4.83l-9.91,27.81c-5.21,14.62-7.7,26.7-18.02,38.27-5.65,6.33-14.94,11.12-19.39,16.82-3.09-.45-4.71-4.09-4.04-9.79-5.18,1.31-7.18-4.59-11.72-4.15,2.25-8.94,1.23-14.26,11-18.89,8.2-3.88,14.43-19.86,14.68-31.14-12.74-5.53-22.42,6.69-33.63,7.05-20.38.65-1.41-.37-27.88,6.58.63,3,2.06,4.12,1.4,4.72-1.22,1.12-2.84,1.05-3.76,1.27-1.75.42-2.35-4.06-4.17-4.97-3.32-1.67-7.3,2.98-9.83.17l-5.2-5.77c8.99-7.19,20.48-6.06,32.28-8.72,17.38-3.92,32.84-10.38,49.79-17.04,8.09-3.18,20.39-14.5,28.2-5.06-3.45,6.48-10.85,10.05-7.48,15.59,22.6-20.74-11.17-6.78,14.88-19.71-6.8-1.23-10.44-1.69-13.49-6.02,13.16-6.58,24.87-20.9,40.5-22.47,13.15,1.25,85.73,56.64,78.7,77.11-1.32,3.85,2.05,1.9,3.86,5.78,1.31,2.82.61,4.7-3.06,6.42,6.6,1.38,6.11,8.91,2.04,12.72-9.29-7.14-17.94-15.94-26.17-23.89,6.95-2.24,5.04-5.72-1.43-3-2.8,2.74-4.49-2.13-6.29-2.84-2.17-.85-4.73,1.4-8.2,1.58-.18-.21-.08-2.2-.92-3.92-1.53-3.13-12.05,8.75-10.96,5.43-.98,2.97-.02,8,3.08,6.58-1.62-8.15,7.64-5.99,2.34-.81-.6,3.56,5.47,4.21,8.15,3.61Z"/>
      <path class="st0" d="M358.15,332.19c-1.96,7.77-46.77,52.45-53.82,65.54-6.74,1.44-12.21,1.24-21.78,2.24-1.86-16.1-17.85-18.51-23.84-28.61-1.83-3.09-5.01-2.13-8.82-5.7-7.23-6.77-10.87-16.25-20.32-22.56,6.19-10.15,43.99-14.58,43.58-24.23l-18.1,2.17c18.09-31.18,45.73-29.84,45.7-29.82l5.2,5.77c2.53,2.8,6.51-1.84,9.83-.17,1.82.91,2.42,5.39,4.17,4.97.92-.22,2.54-.15,3.76-1.27.66-.6-.77-1.72-1.4-4.72,26.47-6.95,7.5-5.93,27.88-6.58,11.21-.36,20.89-12.58,33.63-7.05-.25,11.28-6.48,27.25-14.68,31.14-9.77,4.63-8.75,9.95-11,18.89Z"/>
      <path class="st0" d="M1451.79,469.2c29.63-1.72,59.53,3.59,85.13,16.77.88,9.14,9.94,15.66,17.43,22.49-8.94,10.98-21.68,16.09-33.7,20.97-18.11,7.35-37.23,10.65-57.32,4.74-19.5-5.73-39.04-10.3-58.3-19.04-16.09-7.29-38.89-9.94-40.8-14.86,24.41-20.2,55.87-29.23,87.57-31.07Z"/>
      <path class="st0" d="M392.8,164.82l2.91,2.87c-5.13,2.24-1.87,6.89,3.71,4.56,14.43,18.11,28.71,34.3,46.55,50.12,1.69,1.5-1.19,4.56-.52,5.42-15.63,1.56-27.34,15.88-40.5,22.47-28.11,14.06-58.09,28.41-89.62,28.43l-20.51.02c8.62-20.37,13.13-2.44,25.19-13.58,3.42-3.16-1.52-8.2.64-10.53,13.08-14.08,32.61-26.44,43.12-41.49s7.2-58.92,29.04-48.29Z"/>
      <path class="st0" d="M982.85,557.29c.64,3.69-1.39,7.71,2.03,11.53,7.26-.64,11.57-4.58,17.91-1.77-9,22.02-12.81,42.99-16.95,66.32-17.57,9.56-47.42,7.29-51.93,13.69l-33.43-22.3c-4.87-7.86-14.67-12.93-18.62-21.27,24.9-18.11,54-29.76,84.73-41.02,1.09-2.12-2.94-3.23-2.9-4.98,7.38-2.47,13.41.91,19.17-.2Z"/>
      <path class="st0" d="M1268.24,381.44c-2.74,3.56-6.95,7.73-11.55,8.94-5.21,7.65-14.42-32.08-14.7-28,.88-12.78-9.1-25.27-18.01-26.18-27.66-2.83-25.17,21.52-33.23,33.98l-21.67-15.68c-18.15-13.14-38.61,7.22-52.1,21.57l-25.36,26.96c-16.45,5.08-20.23,3.1-20.95,3.22-3.28-2.94,30.3-21.9,24.68-24.88,1.9.46,4.48.57,5.5-1.35.6-1.12-.66-3.27-.02-4.14,7.52,1.75,25.81-23.99,29.69-28.02,1.64-1.7,4.51-1.75,5.51-4.85,3.78-1.8,10.51-2.75,8.67-8.25,2.17.28,3.82-.05,2.7-2.55-7.82,13.01,61.94-68.04,48.56-49.13,47.21,5.73,55.25,64.82,72.28,98.36Z"/>
      <path class="st0" d="M1169.06,581.23c-.12-5.83-3.55-10.56-4.49-16.21s-5.31-10.28-5.94-16.44c3.19-1.51,6.24-1.79,11.05-2.07-6.91-9.68,22.25-22.77,24.08-34.52l-30.96,24.53c-3.73-8.98,5.42-13.3,10.38-16.49,21.58-28.87,13.26-31.47,40.14-61.88,2.51-2.83,1.27-1.78,5.41-.01-10.3,17.86-9.29,4.65-20.14,28.67,4.87.2,8.81,7.17,13.79,5.27,3.42-2.09,7.61-3.1,10.67-2.96l25.37-31.54c8.62-10.71,20.46-18.42,30.79-27.45,3.36-2.94,7.53-5.4,11.48-7.36,6.44,3.54,10.18-1.65,21.48-2.23l-31.5,46.99-14.07,28.82c-4.16,8.53-3.64,18.26-9.21,25.39l11.38-52.91c-6.32-1.47-4.18,11.4-8.62,5.95-12.02,1.58-18.02,13.46-25.43,24.92,5.5,5.92,3.78,8.77-2.93,6.4-4.61,2.32-4.53,10.11-8.02,11.46-8.17,3.15-8.52,8.31-13.04,14.97l-29.73,43.85-11.95,4.86Z"/>
      <path class="st0" d="M1144.64,465.95l10.82,80.19c-8.08,5.99-60.47,59.69-68.38,55.5-20.92-11.09-.5-59.91,12.02-77.37l42.12-58.76c.63-.88,3.55.43,3.42.43Z"/>
      <path class="st0" d="M1023.9,549.4c18.69,15.14,1.46-7.59,37.03,14.73,7.63,4.79-3.82,41.14-5.9,47.5-6.39,19.57-28.26.98-47.34,8.08.62-2.01.28-4.68-1.52-5.27-8.66-2.88-8.32,11.1-19.66,27.59l-15.56,22.62c-16.18,1.4-26.81-10.73-37.06-17.57,4.51-6.4,34.36-4.13,51.93-13.69,4.14-23.34,7.95-44.3,16.95-66.32-6.34-2.81-10.65,1.12-17.91,1.77-3.41-3.82-1.39-7.84-2.03-11.53l41.05-7.89Z"/>
      <path class="st0" d="M577.37,172.94c1.27.34,3.63,1.79,5.02.18,1.02,1.15,2.06,1.22,3.12.06,5.1,2.35,10.94,1.2,16.3,2.4-5.47,4.64,24.63,2.78,24.68,2.29,1.04-1.02,1.78-.59,2.74.19-.49,1.53.34,2.77,1.42,3.18,1.72.66,2.96-.14,4.06-.81,2.4-1.44,5.72-.18,8.23.58,2.02,4.37,9.57,4.29,13.71,5.68.59,1.13-.54,2.86-1.46,2.72-1.29-.19-4.02-.47-4.08,2.47-.11,4.72-2.39,2.12-4.17.35-1.48-1.47-1.45-1.66,1.56-4.35-7.67-4.27-16.23-1.25-25.11,1.89-1.05.37-32.91.17-25.52,9.6,1.6,2.04,7.08-.97,9.38,3.04-16.34,2.3-34.37-2.06-51.03,2.72-12.73,3.65-26.06.61-38.15,8.35-6.47,4.14-64.48-31.43-56.74-37.83,24-1.06,48.15,2.37,72.6-1.53,13.46-2.15,30.88-.71,43.43-1.19Z"/>
      <path class="st0" d="M1144.64,465.95c.13,0-2.79-1.31-3.42-.43l-42.12,58.76c-12.51,17.45-32.94,66.27-12.02,77.37,7.9,4.19,60.29-49.51,68.38-55.5-.05,1.87,1.47,2.68,3.17,2.44.63,6.17,5.02,10.91,5.94,16.44-3.92,6.27-9.89,10.82-14.79,16.24-.23-2.22-1.93-1.96-2.76-1.28-.71.59-4.26.81-5.01,1.36-21.17,15.46-19.19-3.56-48.59,28.19-9.73,10.51-25.06,2.39-31.58,7.27-1.28-2.59-3.84-5.03-6.81-5.17,2.08-6.36,13.52-42.71,5.9-47.5-35.57-22.32-18.34.41-37.03-14.73,21.57-4.15,43.22-10.59,62.38-23.07,5.31-3.45,3.35-9.32,5.54-13.39s10.63-2.88,10.12-9.76c-.37-4.95,4.15-8.89.56-15.96,4.57-3.27,10.22,1.56,15.14-.27,11.33-9.45,19.71-21.78,23.9-34.28,1.45-.12,2.71.45,3.31,1.44,1.29,2.12-2.11,3.71-2.73,4.84,2.52,2.16,2.16,4.32,2.52,7.01Z"/>
      <path class="st0" d="M736.15,545.84l33.65,46.24c19.89,27.34,41.46,50.43,69.07,67.29.57,10.3-35.25-8.49-29.9-9.54-2.36,2.97-3.15,3.51-4.88,3.77-1.53.23-1.83-.18-2.3-3.71-10.31-4.12-19.74-11.4-29.21-11.33-4.25,2.12-12.22,5.67-16.94,3.86-50.04-19.12-57.15-67.86-73.94-83.73,3.46.52,2.55,2.37,8.21-1.36,6.02,5.69,4.77,17.36,13.37,19.28,1.73,4.1,8.18,7.11,8.68,12.69.2,2.25-3.32,3.86-3.42,5.28-.16,2.28,2.63,3.94,4.41,3.41,2.96-.88.49-3.59,2.97-5.61,1.14,8.4,4.8,13.87,9.98,19.25-.72,4.66,2.79-.2,5.53,1.31,30.78,34.05,28.26,15.26,27.39,14.83-5.55-2.78-31.7-40.8-27.28-73.77.25-1.87-2.38-4.53-1.04-7,.85-1.56,2.8-.94,5.64-1.15Z"/>
      <path class="st0" d="M736.15,545.84c-2.85.22-4.8-.41-5.64,1.15-1.34,2.48,1.29,5.13,1.04,7-4.42,32.98,21.73,70.99,27.28,73.77.87.43,3.39,19.22-27.39-14.83-2.75-1.51-6.25,3.35-5.53-1.31-5.18-5.38-8.84-10.85-9.98-19.25-2.48,2.03,0,4.73-2.97,5.61-1.78.53-4.57-1.13-4.41-3.41.1-1.42,3.62-3.03,3.42-5.28-.5-5.59-6.95-8.59-8.68-12.69l-7.32-34.04c-.73-3.38-6.12-4.57-6.33-6.41-.19-1.59,5.14-4.65,5.09-6.04l-1.88-60.67c3.09.14,4.23,4.07,5.78,7.46,11.32,24.73,22.45,48.21,37.52,68.92Z"/>
      <path class="st0" d="M1399.98,372.97c12.11,8.62.42,12.25,5.8,42.89,1.45,8.25-16.38,20.91-24.56,18.7l-49.28-13.31c8.72-16.67,17.65-26.85,28.97-39.97-3.29-10.71,15.64-23.77,25.4-21.5,6.6,1.53,9.34,7.83,13.67,13.19Z"/>
      <path class="st0" d="M1256.69,390.38c-10.97,11.97-24.29,21.96-40.24,30.77l-25.71-50.97c8.06-12.46,5.57-36.81,33.23-33.98,8.92.91,18.89,13.4,18.01,26.18.28-4.08,9.5,35.65,14.7,28Z"/>
      <path class="st0" d="M1120.34,658.53c-2.16-7.21-5.14-14.61-2.91-22.07,17.89-16.15,36.4-30.3,54.43-50.47,4.27,7.84,13.13,13.34,13.78,18.9,1.75,14.99-7.79,24.08-12.56,33.95-6.45,13.36-11.13,23.72-24.54,32.01-3.9,2.41-11.07,6.32-16.18,3.92-7.45-3.5-5.87-20.29-12.02-16.24Z"/>
      <path class="st0" d="M129.69,282.84c.88,3.28.83,7.64,2.51,10.83,9.11.78,13.95-2.4,19.62-4.62-2.91,1.58.9,2.21,2.04,5.48-7.9,11.7-20.56,22.31-34.8,26.21-11.58,3.17-16.96,11.97-24.68,16.25-10.69,5.91-17.62,13.82-22.67,27.42-1.43,3.86-11.15,6.11-8.2,15.06-6.7-1.13-7.76-.34-7.88,5.21-3.06.96-6.24,2.18-7.26,4.57-1.51,3.54,1.48,6.72,4.14,9.59,3,3.24-4.92,6.11-6.38,8.24.47-.69-5.58,37.85,1.67,40.95l-9.33-2.91c-4.12-1.29-6.69,16.37-18,12.58-1.98-.66-2.78-1.89-1.86-7.87-3.78-.49-4.12,3.32-4.98,2.72-1.24-.86-3.12-3.24-3.1-4.47.02-1.95-4.48-1.22-5.59.09-.44.52-.48,1.62-1-.77.21-3.13,1.69-8.45-2.89-8.48-.44-.87.08-1.96-.11-2.74,5.29-3.69,2.47-10.22,3.43-16.4l3.57-23.04c1.55-10,6.46-17.58,9.66-25.37.15,1.32,3.56,1.07,3.54,2.25-.02,1.01.29,2.88-.35,5.17l-9.65,34.52c-.81,2.88,7.33,6.41.3,9.76-4.76,2.27-.53,14.59,1.78,18.98l3.84-13.19c5.58,3.3,4.59,8.99,10.97,9.83,6.91-38.16,21.39-74.64,51.19-97.71-1.62-4.36-.42-8.89,2.49-2.67,9.76-1.05,14.45-11.84,20.71-14.44,7.94-3.3,18.78-9.13,28.25-14.62-1.55-4.76-6.34-3.17-8.26-6.16,3.94-2.8,6.94-5.28,6.8-8.33-.17-3.56-3.96-3.21-6.25-4.99-2.08-1.61.35-4.67,1.79-5.77,1.2-.91,2.99-1.78,4.95-1.15Z"/>
      <path class="st0" d="M281.01,488.88c.49-1.84-.47-3.16-1.57-3.38-1.52-.31-4.66.78-6.84-.16-23.51-10.2-39.1-33.59-54.66-51.88-.02-3.29-1.86-7.43-5.48-8.23-2.03-.45-1.84-7.03-5.82-5.49.83-7.21.7-12.09-4.8-18.76,15.76,5.65,33.44,9.85,47.84,22.86,1.67,1.51.32,6.17,2.45,6.9.95.32,1.98-3.39,3.98-3.47,4.73-.17,14.29,5.52,15.5,11.83,1.4,7.31-8.64,14.23-14.38,13.72-3.49-4.87-1.52-10.64-8.49-15.53-1.21,7.6,2.13,13.75,5.06,18.52,10.39,16.92,39.61-.93,46.74,10.82,3.02,4.97-1.76,17.13-5.59,21.14-4.87,1.95-10.18,1.53-13.93,1.11Z"/>
      <path class="st0" d="M1520.64,529.43c.83,2-1.37,4.05,2.34,7.47-14.39.86-27.93,4.83-43.28,7.14-2.98.45.04,5.44-.21,6.95-8.1.3-17.22-7.33-28.55-4.42-10.15,2.61-21.23,7.5-31.75,3.67l14.15-9.29c-38.59-10.83-41.91-31.56-70.24-4.29-2.09-3.11-5.58-5.31-8.77-6.6-8.62-3.49-6.95,8.01-19.68,2.13,5.64-13.96,18.18-22.51,29.56-31.92,1.91,4.92,24.72,7.57,40.8,14.86,19.26,8.74,38.81,13.31,58.3,19.04,20.09,5.91,39.21,2.61,57.32-4.74Z"/>
      <path class="st0" d="M1545.09,581.57c2.39-.08,2.83,2.12,2.39,5.86,2.21-.56,4.43-.37,6.05,1.07.97.86-.08.44.29,4.38,4.33-.86,8.13-5.66,11.15.8-47.37,14.45-24.98,10.48-64.05,5.71-37.52-4.58-69.61-16.93-99.84-8.91,14,7.64,18.14.07,22.23,2.37,8.7,4.89,27.19,14.41,36.49,18.42,7.43,3.2,9.73,9.13,14.09,13.82-4.21-1.02-7.36-3.71-11.59-6.54-52.09-34.83-119.43-23.84-159.05,26.72-2.5-3.47.62-7.56,2.4-9.77,44.14-54.63,99.68-66.39,167.96-45.79,15.92,4.8,31.41,6.99,46.41,7.36.1-5.34,2.34-4.96,4.43-4.7,5.87.71-11.26,11.3,22.37.35l-11.09-2.44c4.66-5.58,10.23-4.14,9.39-8.71Z"/>
      <path class="st0" d="M1061.85,616.8c-4.12,8.81-4.39,18.28-6.92,28.75-20.08,11.57-42.17,20.24-66.49,21.47-1.11-4.33,17.91-50.09,14.39-47.26.96-.77,3.56.58,4.87-.06,19.08-7.1,40.95,11.49,47.34-8.08,2.97.14,5.52,2.59,6.81,5.17Z"/>
      <path class="st0" d="M762.21,678.43c6.62,1.92-23.78,17.73-37.56,13.29-21.58-6.94-42.39-20.66-56.1-37.77-5.85-7.3,21.98-7.63,24.5-15.46,8.34,11.4,23.33,12.14,33.08,21.78,13,12.86-10.94,3.87,36.08,18.16Z"/>
      <path class="st0" d="M1132.13,434.07c-9.93-8.08-22.33-12.29-33.96-8.93l-35.01,10.11c12.69-9.83,18.7-21.85,28.46-32.22l25.36-26.96-.41,9.48c6.59-6.14,11.06-11.4,20.11-9.15-4.03,2.9-5.09,15.95,1.17,5.95-1.28,6.8,1.06,8.68,1.15,16.61.04,3.49-10.84,5.9-7.34,11.47,3.94,6.27,11.71,12.2,11.14,18.61-.34,3.76-8.48,4.9-10.67,5.02Z"/>
      <path class="st0" d="M1435.75,315.71c6.1,4.22,13.28,23.77,10.6,27.78-1.27,1.9-6.1,2.65-8.98,1.89-2.53-.67-1.44-4.49-4.1-8.24-3.51,2.06-5.03,3.88-6.99,2.99-1.78-.81.07-4.06-1.23-6.71-8.64-2.7-18.81,3.28-27.91-.29-16.3-6.38-23.51,2.94-44.41-2.81l38.97-19.92c15.26-6.21,31.19-3.59,44.05,5.3Z"/>
      <path class="st0" d="M834.96,548.87c-1.8-2.55-1.98-7.51-5.57-8.47.25-1.31.08-3.39-1.9-2.74,1.52-1.01.16-3.01-.75-4.03-.65-.73-1.23-1.89-2.83-1.45-1.14-5.21-4.98-9.24-7.71-13.7-1.22-1.99-2.53-4.96-5.03-5.49-.08-3.29-2.46-9.73-5.9-10.97,1.19-.75.1-2.99-.44-3.96-.43-.76-.39-2.01-2.17-1.52,1.82-1.34-.76-5.63-2.7-5.48,1.27-1.13.46-2.54-.66-4.05-.59-.8-.92-2.84-2.63-1.61l-2.92-5.3c-.09-1.05.18-2.79.02-4-.13-.92-1.41-1.92-2.76-1.48l-3.17-12.1c-6.21-10.9,36.85,21.22,38.9,22.51l12.13,52.03c1.47,6.31,5.76,11.67,3.74,18.94-3.67-1.66-4.3-6.37-7.65-7.11Z"/>
      <path class="st0" d="M1091.62,403.02c-9.76,10.37-15.77,22.39-28.46,32.22l35.01-10.11c-2.21,8.17-30.13,18.26-41.39,20.2-27.62,4.76-20.64-6.84-35.03-7,5.99-6.39,30.69-29.03,37.95-30.25l10.97-1.84c.72-.12,4.5,1.85,20.95-3.22Z"/>
      <path class="st0" d="M1120.34,658.53c-10.59,2.89,9.13,16.81,4.34,25.39-4.2,7.53-14.98,2.62-19.35,5.87-5.97,4.44-14.53,3.67-19.22.96-4.32-2.5-10.68-11.19-7.6-15.96,10.68-16.56,25.97-26.63,38.93-38.33-2.24,7.46.74,14.86,2.91,22.07Z"/>
      <path class="st0" d="M1248.42,457.58l-25.37,31.54c-3.06-.14-7.25.87-10.67,2.96-4.98,1.9-8.92-5.08-13.79-5.27,10.85-24.02,9.83-10.8,20.14-28.67-1.15-3.51-2.57-5.26.81-8.47,2.45-2.33,5.17-2.47,6.08-4.93,2.62-7.11,9.27-13.01,16.52-19.31.61,6.68,2.13,9.68,6.3,12.5-.15,2.08-4,3.99-3.79,5.14.31,1.7,5.03,2.65,5.88,5.18.37,1.11-2.17,2.59-3.35,3.69-1.93,1.8,0,3.91,1.24,5.64Z"/>
      <path class="st0" d="M541.12,310.26c-.03-1.92-.13-2.97-2.63-3.1l-3.43-.18c-4.44-13.12-5.53-28.58-7.46-44,11.9-3.12,15.23,10.66,22.96,9.63,12.78-1.71,23.23,10.9,32.77,16.17.98,3.23-1.89,9.31-5.11,9.93-2.73.52-8.04,2.64-11.7-.78-1.75-1.64,1.84-10.4-2.79-9.85-7.05.85-.95,8.31-.73,10.32-3.68,4.39-11.4,6.56-18.15,6.25-.67,3.65-.47,5.37-3.73,5.61Z"/>
      <path class="st0" d="M237.31,397.63c2.47,5.19,8.14,6.74,4.73,13.11-12.6-3.71-25.95-8.24-34.08-22.25,8.29-5.94,12.19,4.14,20.45,3.17-1.7-4.18-4.22-7.81-1.1-10.54,2.6-2.28,5.28-7.38,10.11-5,13.27,6.53,59.43,31.24,34.95,46.43-9.79-9.57-21.17-19.82-35.06-24.92Z"/>
      <path class="st0" d="M1169.06,581.23c-16.74,16.26-31.07,39.3-54.05,46.5-8.71,2.73-16.29,6.07-21.62,16.19-4.77-3.71-10.4-6.23-19.78-3.43,1.53-10.69,17.32-7.46,26.86-20.94,19.89-6.54,35.44-22.97,49.32-38.3,4.9-5.41,10.86-9.97,14.79-16.24.94,5.65,4.37,10.39,4.49,16.21Z"/>
      <path class="st0" d="M1384.91,443.26c-6.71,8.02-36.89,17.7-57.45,33.28-4.03-7.99,3.23-10.39,5-16.17-6.27-4.03-8.73-12.54-5.83-18.5,11.26-23.08,37.25-1.91,58.28,1.39Z"/>
      <path class="st0" d="M1013.09,718.62l-49.09-19.4c10.08-18.81,62.82-9.01,80.79,8.77-9.92,15.45-26.7,4.99-31.69,10.63Z"/>
      <path class="st0" d="M1229.59,704.82c-.72-.75.76-2.6,1.42-2.98.6-.35,2.24.15,1.81-1.67-.57,13.99,36.77-48.34,33.11-22.25-7.43,15.64-33.07,69.02-46.59,75.03-3.26-46.28,5.35-22.44,10.14-45.04,8.21-.67,5.49-4.6.11-3.09Z"/>
      <path class="st0" d="M1150.41,799.38l49.47-58.51c6.89,19.69-3.75,37.82-21.75,49.7-9.16,6.04-18.3,15.97-27.72,8.81Z"/>
      <path class="st0" d="M1584.15,696.07c-7.78-7.2,17.44-17.24,21.88-26.73.95-2.03.8-5.01,3.55-5.67,1.09-.26.68-.75,4.47.54,2.75-3.1,7.48-4.4,9.99-1.44,3.91,4.62-.87,26.93-10.97,32.77-8.33,4.82-21.74,7.19-28.93.53Z"/>
      <path class="st0" d="M1158.48,380.78c4.56,2.08,32.63,25.16,17.74,44.27-1.48,1.9-26.91-2.8-27.09-29.71-.03-4.91,1.07-18.34,9.35-14.56Z"/>
      <path class="st0" d="M1021.22,674.78c.71-2.94-4.79-3.08-4.35-5.41,7.58-4.98,17.98-8.29,25.2-8.36,2.06,5.89,3.35,3.45,4.59,3.08,2.19-.65,4.12,2.66.65,6.75.14,6.01,4.11,5.61,4.36-3.67,7.2,2.59,4.19,10.22,5.86,18.36.66,3.23,7.65,5.7,6.02,9.78-1.53,3.81-1.7,7.7-5.57,9.71-3.2-5.84-1.52-7.68-3.01-9.2-3.23-3.3-13.93.18-19.68-2.84-12.8-6.72,13.33-7,7.2-18.62-2.87,3.65-6.5,4.53-9.11,5.32-5.51,1.66-9.51-.25-12.16-4.89Z"/>
      <path class="st0" d="M1290.69,422.76c-3.95,1.96-8.11,4.42-11.48,7.36.53-1.65-.83-2.18-1.77-2.18-1.02,0-3.34,1.82-5.28,2.6-2.18-.58-.13-4.83-2.58-5.66-1.03-.35-3.79-.45-5-2.65,16.76-14.58,33.15-36.08,55.81-41.64l-29.69,42.17Z"/>
      <path class="st0" d="M1149.78,581.26c-13.88,15.33-29.43,31.76-49.32,38.3-4.73-1.1-4.31-6.9-7.04-10.02,29.4-31.76,27.42-12.73,48.59-28.19.75-.55,4.3-.77,5.01-1.36.83-.69,2.53-.94,2.76,1.28Z"/>
      <path class="st0" d="M187.47,389.63c-6.01-5.61-14.52-14.24-8.38-24.75,8.33-14.24,23.3-22.54,33.2-33.14.32,8.01-7.74,12.86-12.54,18.33,11.23,2.45,12.92,11.33,20.9,14.23-6.46,4.69-12.13.88-17.92-1.03-8.9,4.21,3.87,12.91-2.14,15.86-1.77.87-15.94-13.97-15.05-6.24l1.92,16.74Z"/>
      <path class="st0" d="M639.87,347.67c-7.08,7.71-19.51-17.86-32.43-26.79-9.9-6.84-22.8-12.3-22.36-29.42,11.46,2.95,60.69,49.79,54.79,56.21Z"/>
      <path class="st0" d="M384.01,149.57c-23.31-19.25,25.64-42.28-12.57-40.34,19.51-13.09,22.44,6.98,29.72-13.53,1.53-4.3,11.96-3.45,11.33,1.04-.45,3.24-5.03,8.51-2.26,14.61-15.5,6-27,18.23-26.22,38.23Z"/>
      <path class="st0" d="M1590.58,677.71l-5.92-9.12c-3.21-4.95,5.92-11.75,4.09-19.27,2-8.55,9.04-15.23,15.07-20.35,3.17,2.75,2.59,5.1,3.64,6.65,1.48,2.18-2.05,3.77-1.59,5.18,2.32,7.1,6.79,6.12,13.52,7.66l-28.81,29.24Z"/>
      <path class="st0" d="M437.14,120.96c-9.09,6.34-2.9-33.48-4.7-24.87,2.75-13.16,11.08-32.19-2.38-42.72,31.05-16.88,6.34,68.1,7.08,67.59Z"/>
      <path class="st0" d="M1321.44,413.14c-18.54.38,22.18-41.16,23.54-35.49-2.95,14.92-15.44,25.24-23.54,35.49Z"/>
      <path class="st0" d="M1435.75,315.71c-12.86-8.89-28.79-11.52-44.05-5.3-3.96-2.81-7.09,3.11-12.77.97,11.05-12.38,47.81-14.66,58.51.2.79,1.1,1.18,5.25-1.69,4.14Z"/>
      <path class="st0" d="M500.07,239.96c50.22,16.67,35.27,24.25,23.86,16.59-14.43-9.68-30.28-12.15-43.51-22.08,7.67-1.86,13.22,3.35,19.65,5.49Z"/>
      <path class="st0" d="M681.33,345.72c-16.54-14.29-31.33-29.84-43.95-46.13,5.17-.31,44.93,42.05,43.95,46.13Z"/>
      <path class="st0" d="M909.28,713.63c-2.28,9.75-22.56-4.79-22.57-7.62,0-2.62.68-7.54,7.18-6.56,4.86.74,16.92,7.66,15.39,14.18Z"/>
      <path class="st0" d="M1473.88,625.1c5.21,1.26,42.71,30.63,36.86,32.08-5.52,3.02-7.09,10.63-6.1,1.01l-30.75-33.09Z"/>
      <path class="st0" d="M425.31,128.74c1.96,1.73,18.98,58.19,1.6,37.03-2.57-3.13,2.51-9.16,1.32-11.88-2.97-6.81-8.05-17.34-2.92-25.15Z"/>
      <path class="st0" d="M881.85,603.49c3.95,8.34,13.75,13.42,18.62,21.27-11.13-7.43-26.85-14.55-30.33-29.12,4.68.89,7.51,6.48,11.71,7.85Z"/>
      <path class="st0" d="M1013.09,718.62c3.95,1.77,10.66,4.62,13.88,7.83-1.97,0-3.33,2.91-4.79,2.52-8.29-5.38-18.6-3.31-26.97-11.68,6.2,1.69,13.61-.58,17.88,1.33Z"/>
      <path class="st0" d="M853.03,567.45c1.77,4.95,7.17,9.13,6.44,14.69-6.93-2.32-13.07-9.18-17.35-17.75l10.91,3.06Z"/>
      <path class="st0" d="M870.14,595.64c-5.9-1.12-11.46-7.48-10.67-13.5,5.63,1.88,9.35,7.97,10.67,13.5Z"/>
      <path class="st0" d="M787.83,462.49l3.17,12.1c-4.98,1.61-4.99-2.2-7.79-6.81-1.84-3.03-.96-8.8,4.62-5.29Z"/>
      <path class="st0" d="M778.73,452.62c-2.53-4.58-6.16-10.02-3.39-13.18,5.56,1.06,6.33,9.15,3.39,13.18Z"/>
      <path class="st0" d="M1021.22,674.78c-1.08,4.48-5.99,2.81-9.5,2.48-2.14-.2-2.25-4.91-.34-8.27,3.19,2.98,5.39,6.92,9.84,5.79Z"/>
      <path class="st0" d="M689.55,356.69c-4.03-1.8-9.43-5.98-8.23-10.97,3.36,2.91,9.8,5.03,8.23,10.97Z"/>
      <path class="st0" d="M618.26,282.66c4.22-.73,9.42,1.85,7.85,8.48-3.7-2.54-6.84-5.05-7.85-8.48Z"/>
      <path class="st0" d="M637.37,299.59c-4.64-1.12-9.51-2.9-7.67-9.04,3.27,2.9,7.55,5,7.67,9.04Z"/>
      <path class="st0" d="M834.96,548.87c-2.7.15-5.62-.3-5.72-3.87-.05-1.81-5.08-4.01.15-4.6,3.59.96,3.77,5.92,5.57,8.47Z"/>
      <path class="st0" d="M561.88,245.14c.26-5.46,6.74,3.46,6.81,3.19-.55,2.25-3.36,2.1-3.91,1.37-.68-.89-3.04-1.53-2.9-4.57Z"/>
      <path class="st0" d="M1399.98,372.97c-2.19-5.98.88-8.16,2.14-7.05.95.84,3.69,2.54,1.94,4.26-.96.95-2.29,2.93-4.08,2.78Z"/>
      <path class="st0" d="M454.87,56.01c-.14-1.91,3.69-.68,5.55-.96.9-.14,1.97,1.73.36,2.65-.8.46-1.94,2.62-2.88,2.73s-2.84-1.77-3.03-4.42Z"/>
      <path class="st0" d="M695.03,362.17c2.2.24,8.03,4.65,4.42,7.35-1.92,1.44-6.19-5.13-4.42-7.35Z"/>
      <path class="st0" d="M590.84,263.47c2.37-1.44,8.75,2.31,7.31,4.43-2.36,3.48-7.52-2.03-7.31-4.43Z"/>
      <path class="st0" d="M1095.35,381.37c5.62,2.98-27.96,21.94-24.68,24.88l-10.97,1.84c6.58-7.27,16.31-11.47,24.07-19.07,3.83-3.75,6.45-8.88,11.57-7.65Z"/>
      <path class="st0" d="M1095.35,381.37c.42-1.97,2.88-6.09,5.48-5.48-.64.87.62,3.01.02,4.14-1.03,1.91-3.6,1.81-5.5,1.35Z"/>
      <path class="st0" d="M34.25,332.01c-2.37-4.87,4.92-5.56,5.48-8.23-2.55.84.7,9.58-5.48,8.23Z"/>
      <path class="st0" d="M2162.07,104.44c-5.81-4.51-3.93-14.48-6.45-20.65l-12.88-31.45c11.59,14.43,19.44,32.36,19.34,52.1Z"/>
      <path class="st0" d="M31.51,337.5c1.01-2.47.78-4.84,2.74-5.48-.11,1.52.31,2.81.01,4.08-.33,1.44-1.5,1.3-2.75,1.41Z"/>
      <path class="st0" d="M1144.7,334.76c-.46-2.3.91-3.25,2.7-2.55,1.12,2.5-.53,2.83-2.7,2.55Z"/>
      <path class="st0" d="M352.32,57.73c-5.84,10.73-17.92,16.41-26.53,25.7-12.42,13.41-22.8,28.18-33.55,42.95-8.29,11.38-11.97,24.99-22.2,32.9,5.71-23.05,58.91-94.68,82.28-101.54Z"/>
      <path class="st0" d="M212.47,425.24c-3.47-.8-5.1-3.38-5.82-5.49,3.98-1.54,3.79,5.04,5.82,5.49Z"/>
      <path class="st0" d="M319.4,655.55c-63.69,45.39-92.61-23.06-136.12,27.38-1.24-10.64,9.38-9.85,9.99-16.41l4.03.03c1.48,0,1.02-1.67,1.46-2.77,50.73-12.98,49.73,22.91,120.64-8.23Z"/>
      <path class="st0" d="M217.95,433.46c-2.74-2.18-7.67-4.09-5.48-8.23,3.62.8,5.47,4.94,5.48,8.23Z"/>
      <path class="st0" d="M344.08,633.62c.91,7.89-21.46,22.46-24.68,21.93,6.88-7.74,15.66-16.59,24.68-21.93Z"/>
      <path class="st0" d="M2367.53,252.89c-.9,1.11-1.89.98-2.93.14-1.07-.54-.33-3.39.11-4.41.38-.87.56-1.96,2.33-1.61,1.53,1.52-.4,4.36.49,5.87Z"/>
      <path class="st0" d="M2153.13,157.08c-1.89-2.12-5.53-9.44-2.38-11.51,5.36-3.53,3.02-34.87,11.31-35.64,2.76,17.29-3.78,32.59-8.93,47.16Z"/>
      <path class="st0" d="M281.01,488.88c-9.22-1.05-17.71-2.67-25.08-8.85-15.55-13.03-29.58-29.17-37.98-46.57,15.55,18.28,31.15,41.67,54.66,51.88,2.18.95,5.32-.14,6.84.16,1.1.22,2.06,1.54,1.57,3.38Z"/>
      <path class="st0" d="M3.93,447.39c-4.91-.64-1.6-5.93-2.89-8.48,4.58.03,3.1,5.34,2.89,8.48Z"/>
      <path class="st0" d="M45.21,315.56c4.47-13.02,14.37-26.31,24.68-35.64.94,3.9-21.1,33.31-24.68,35.64Z"/>
      <path class="st0" d="M2367.19,244.27c.4-1.73,1.08-3.46,2.64-2.99,1.22,2.13-.6,3.52-2.64,2.99Z"/>
      <path class="st0" d="M1136.03,343.01c1.16-3.63,5.46-6.81,8.67-8.25,1.83,5.5-4.89,6.45-8.67,8.25Z"/>
      <path class="st0" d="M1783.81,655.5c-5-3.22-10.66-6.97-16.14-11.28-9.16-7.2-9.22-17-2.99-24.47,17.16,3.59,13.43,24.16,19.14,35.75Z"/>
      <path class="st0" d="M344.08,633.62c-.47-4.09,13.04-21.06,13.71-19.19-.52,8.37-6.75,15.07-13.71,19.19Z"/>
      <path class="st0" d="M357.79,614.43c-1.68-5.49,2.05-9,5.48-10.97-.1,3.84-1.67,9.04-5.48,10.97Z"/>
      <path class="st0" d="M237.14,600.72c-2.57,4.15-5.83,8.24-11.79,10.72l-75.19,31.29c-3.55,1.48-4.79,6.58-8.99,4.85,4.18-3.51,8.36-7.94,14.52-10.46l62.41-25.51c7.22-2.95,11.9-10.03,19.04-10.88Z"/>
      <path class="st0" d="M656.65,186.7c-4.14-1.39-11.69-1.31-13.71-5.68,3.05.92,4.73.06,8.67-4.04,2.62,4.09,3.62,6.98,5.03,9.71Z"/>
      <path class="st0" d="M17.59,371.36c-3.2,7.79-8.11,15.37-9.66,25.37l-3.57,23.04c-.96,6.18,1.85,12.71-3.43,16.4-6.48-26.54,22.84-98,30.58-98.67l-13.91,33.86Z"/>
      <path class="st0" d="M1130.52,347.86c-3.88,4.03-22.17,29.78-29.69,28.02.09-.12,30.44-38.93,29.69-28.02Z"/>
      <path class="st0" d="M237.14,600.72c4.66-7.54,12.12-14.03,19.19-19.19-1.77,7.88-10.72,18.18-19.19,19.19Z"/>
      <path class="st0" d="M294.72,499.27c-1.04,2.76,1.74,7.5,1.76,11.16-6.02,4.27-7.02,9.59-8,16.29.64-4.32-26.98,63-32.14,54.8,2.12-9.43,22.84-31.09,28.98-66.37.67-3.85,9.61-7.26,4.24-14.26-.2-2.16,2.87-1.8,5.16-1.63Z"/>
      <path class="st0" d="M39.73,323.79c.85-4.06,1.7-5.75,5.48-8.23-1.27,3.69-1.45,6.9-5.48,8.23Z"/>
      <path class="st0" d="M377.85,529.43c-1.3-5.01-3.41-19.12,5.45-19.19-1.53,6.35-2.98,13.2-5.45,19.19Z"/>
      <path class="st0" d="M393.06,513.17c1.03-.21,2.07-.18,3.12-.19.15,3.22-2.54,3.26-3.12.19Z"/>
      <path class="st0" d="M401.66,515.72c.39,3.05-2.78,3.44-2.77,1.27l.03-4.01c1.82-.32,3.14.9,2.74,2.74Z"/>
      <path class="st0" d="M1407.92,144.42l-40.1,2.3c-78.42,4.49-130.19,77.49-171.85,136.36,13.38-18.91-56.38,62.14-48.56,49.13,1.11-3.3.77-8.49,2.89-10.31,12.45-11.04,24.17-22.51,34.72-35.25l69.2-83.56c38.64-46.66,99.13-67.17,153.7-58.67Z"/>
      <path class="st0" d="M407.14,519.35c-.26,3.25-2.78,1.38-2.8.3-.03-1.62.14-3.07.06-3.93,2.36-.33,3.36,1.57,2.74,3.63Z"/>
      <path class="st0" d="M2142.73,52.34l-29.83-27.44c-5.66-5.2-13.08-8.14-16.64-13.4,7.48-1.61,12.47,7.2,18.63,10.61,13.65,7.55,20.02,20.49,27.85,30.23Z"/>
      <path class="st0" d="M420.85,523.94c.39,3.05-2.78,3.44-2.77,1.27l.03-4.01c1.81-.4,3.14.93,2.74,2.74Z"/>
      <path class="st0" d="M626.49,177.87c-.05.5-30.14,2.35-24.68-2.29,8.06,1.81,17.51-2.91,24.68,2.29Z"/>
      <path class="st0" d="M423.59,523.94c.88,0,1.89.22,2.73-.06.2,3.28-2.84,3.4-2.73.06Z"/>
      <path class="st0" d="M270.05,164.76c-2.19.52-3.58-1.67-2.77-4.06.32-.93,1.42-1.74,2.77-1.42v5.48Z"/>
      <path class="st0" d="M577.37,172.94c-12.55.47-29.98-.96-43.43,1.19-24.46,3.9-48.6.48-72.6,1.53,1.09-3.4-1.32-2.42-4.31.35-2.18-6.4,1.14-5.08,3.51-6,3.13-1.21,5.61,2.35,7.81,2.37,16.52.14,33.88.15,50.21-.86l38.18-2.36c-7.02.43,20.14-4.45,20.39-.33l.25,4.11Z"/>
      <path class="st0" d="M585.51,173.18c-1.06,1.16-2.09,1.08-3.12-.06.15-3.44,3.13-3.39,3.12.06Z"/>
      <path class="st0" d="M634.71,180.43c-1.1.66-2.34,1.46-4.06.81-1.08-.41-1.91-1.65-1.42-3.18.88.71,3.03.35,3.98.39.82.03,1.93.39,1.5,1.98Z"/>
      <path class="st0" d="M264.9,173.11c-8.51,12.02-15.77,25.77-25.16,38.4l-13.16,17.7c-8.87,11.93-17.73,20.17-28.51,31.76-5.03,5.41-21.32,1.88-30.17.88-7.89-.89-15.68-9.94-24.59-14.79-13.37-7.27-32.08-4.59-43.43,5.69l-29.99,27.16c-1.41-5.89,5.36-8.38,9.03-12.89,11.06-13.59,24.4-22.75,41.53-27.25,27.72-7.29,36.44,26.56,59.21,18.12,28.56-10.59,48.01-31.99,63.58-56.78l13.84-22.03c1.44-2.3,2.06-4.92,3.38-6.07,1.04-.92,3.31.34,4.45.09Z"/>
      <path class="st0" d="M363.27,603.46c-.06-9.25,6.88-19.82,7.94-30,.98-9.39-.69-19.06,5.77-24.84.38,2.02-6.49,55.53-13.71,54.84Z"/>
      <path class="st0" d="M395.7,167.69l-2.91-2.87c-1.68-.9.37-4.89,1.85-5.23s3.31,2.84,4.21,3.97c1.04,1.29-.6,5.05-3.15,4.13Z"/>
      <path class="st0" d="M572.18,251.18c1.04-2.69,3.04.98,3.77,1.45,1.54,1,.56,2.5-.31,2.71-2.23.53-5.08,0-3.46-4.16Z"/>
      <path class="st0" d="M695.03,362.17c-1.65-.12-3.25.45-4.2-.04-1.58-.82-1.57-2.73-1.28-5.44,2.56-.02,4.41,2.57,5.48,5.48Z"/>
      <path class="st0" d="M590.84,263.47c-1.08.65-3.11-.04-4.05-.01s-1.82-.91-1.47-3.93c.11-.96,1.5-2.45,2.82-.21.7,1.21,2.12,1.88,2.71,4.15Z"/>
      <path class="st0" d="M827.49,537.65c-2.04.66-2.67-.49-4.9-2.58-1.08-1.01-2.5-2.7,1.32-2.91,1.61-.44,2.18.72,2.83,1.45.92,1.02,2.27,3.02.75,4.03Z"/>
      <path class="st0" d="M433.04,127.42c-.12-2.63,3.58-.97,4.29.2.53.89.06,3.18-1.14,4.02-.86.6-3.02-1.58-3.15-4.23Z"/>
      <path class="st0" d="M816.19,518.47c-2.09,0-4.65.73-6.05-1.32-1.21-1.76,1.04-3.12,1.02-4.17,2.5.53,3.81,3.5,5.03,5.49Z"/>
      <path class="st0" d="M805.26,502.01c-1.51-.54-2.83-.4-4.73-2.58-1.68-1.93-1.37-2.83,2.12-2.9,1.78-.49,1.74.76,2.17,1.52.54.97,1.63,3.21.44,3.96Z"/>
      <path class="st0" d="M799.94,491.04c-1.27.1-4.98.57-6-1.22-.63-1.12,3.67-2.35,2.71-4.44,1.7-1.23,2.03.81,2.63,1.61,1.12,1.51,1.92,2.92.66,4.05Z"/>
      <path class="st0" d="M793.74,480.07c-.61-.42-5.15.73-5.21-1.29-.03-1.19,2.91-2.53,2.47-4.2,1.35-.44,2.63.56,2.76,1.48.17,1.21-.11,2.95-.02,4Z"/>
      <path class="st0" d="M618.26,282.66c-1.34.23-3.1.09-4.05,0s-1.83-.86-1.48-3.95c.11-.95,1.51-2.45,2.82-.2.7,1.21,2.12,1.89,2.71,4.15Z"/>
      <path class="st0" d="M198.76,663.78c-.43,1.1.03,2.78-1.46,2.77l-4.03-.03c.12-1.31.16-2.54,1.45-2.77,1.55-.28,2.93.32,4.04.03Z"/>
      <g>
        <path class="st0" d="M692.85,469.45l1.88,60.67c.04,1.39-5.28,4.45-5.09,6.04.22,1.84,5.61,3.03,6.33,6.41l7.32,34.04c-8.6-1.92-7.35-13.6-13.37-19.28-5.66,3.73-4.74,1.88-8.21,1.36-7.97-7.53-20.1-10.67-26.99-22.84.99,1.74-30.85-30.38-32.36-21.22-23.43-7.6-20.11-19.73-35.85-14.71-2.67-2.41-6.98-8.8-15.29-7.82,5.4-6.72,3.98-7.06,2.12-10.5-5.02-9.29-9.83-6.74-32.02-4.48-21.52,2.19-44.46-.55-64.59,6.88-12.23,4.52-11.98,27-28.11,34.75l-8.72-17.94c-3.4,6.01-8.19,6.3-14.32,9.17,2.3,6.04,8.14,7.29,10.3,12.05,1.13,2.49-3.77,4.86-5.33,3.95-1.12-.65-1.97-2.85-4.22-2.09-.84.29-1.85.06-2.73.06h-2.74c.4-1.81-.93-3.14-2.74-2.74-3.65,1.65-7.35-.22-10.97-1.85.61-2.07-.39-3.96-2.74-3.63-.9.12-1.83-.06-2.74,0,.39-1.85-.92-3.07-2.74-2.74-.89.16-1.84-.01-2.74,0-1.04.02-2.09-.02-3.12.19-.9-1.96-3.58-2.17-5-4.33-2.12-3.24-2.05,1.37-4.76,1.4-8.86.07-6.75,14.18-5.45,19.19,1.62,6.26-2.05,12.87-.87,19.19-6.46,5.78-4.79,15.45-5.77,24.84-1.06,10.18-8,20.75-7.94,30-3.43,1.97-7.17,5.47-5.48,10.97-.67-1.87-14.18,15.1-13.71,19.19-9.02,5.35-17.8,14.19-24.68,21.93-70.91,31.13-69.91-4.75-120.64,8.23,3.35-8.5,10.64-14.64,18.52-19.21l10.78-6.26c2.7-1.57,10.44-.11,14.68-3.16,5.45,3.09,7.72-2.16,3.69-3.63-49.63-7.77-10.08,1.47-45.08,6.05-16.92,2.21-32.53,6.63-43.72,17.99-.63,8.76-15.1,15.75-21.89,35.47-2.65-.54-4.58-4.28-5.55-1.25-.32.99-.71,3.61-2.46,4.04-4.37,1.09-8.16.36-11.57-1.82,6.81-32.22-3.64-20.41,25.01-44.43,4.2,1.73,5.44-3.37,8.99-4.85l75.19-31.29c5.95-2.48,9.22-6.56,11.79-10.72,8.47-1.02,17.42-11.31,19.19-19.19,5.16,8.21,32.78-59.12,32.14-54.8.99-6.7,1.99-12.02,8-16.29-.02-3.67-2.8-8.4-1.76-11.16-.85-6.85,3.46-7.25,7.41-9.58,5.25-3.1,8.25,2.49,12.36,3.07,13.85,1.94,26.11,5.91,40.88,6.45-2.94-6.11-10.87-2.79-14.4-7.51-1.29-1.73,1.48-7.18.09-8.71-3.59-3.97-5.61,18.43-4.52-19.5,7.62,2.63,9.81,7.96,15.19,4.43-3.46-16.65-29.07-9.46-20.1-23.64,1.74-2.75,5.2-3.77,8.96-3.02,2.52-2.3,3.62-2,3.77-3.31.16-1.49-1.2-6.05-1.86-8.11l-17.43,1.7c-2.39,6.35,2.72,10.95-2.15,16.77-9.1-10.31-4.21-19.99-2.78-28.81,4.69.95,10.95-.77,15.73-4.98,16.31-14.35,34.42-24.72,50.98-37.48,11.51-8.87,22.83-9.49,41.9-8.33,30.73,1.87,61.51-20.77,92.63,11.07,9.64,9.87,27.95,1.34,35.59-6.82,3.37.9,8.16,2.96,10.63,3.18,6.25.57,3.2-4.5,4.5-8.25,3.18-9.17,14.96-21.82,13.92-31.06l-.97-8.61c-.21-1.86,2.04-8.09,6.09-5.62,46.97,28.63,100.79,117.24,101.71,146.85Z"/>
        <path class="st0" d="M217.28,644.56c-4.95-6.47-14.43-.97-21.1-.66-34.29,1.6-14.56,9.71-38.55,11.65,11.19-11.36,26.8-15.78,43.72-17.99,35-4.58-4.55-13.81,45.08-6.05,4.03,1.48,1.75,6.72-3.69,3.63-4.24,3.06-11.98,1.6-14.68,3.16l-10.78,6.26Z"/>
        <path class="st0" d="M679.74,523.5c6.95.79,4.99,6.88,3.06,8.6-6.24-5.41-9.79-9.37-12.38-16.14,5.97-1.82,7.38,3.57,9.31,7.54Z"/>
      </g>
      <path class="st0" d="M1967.28,268.97c-7.73,7.32-16.15,13.8-26.11,20.7-9.41,6.52-24.52,8.71-30.39,21.06-3.1,6.52-7.93,4.93-14.92,2.88-3.24,3.28-2.04,8.15-2.62,13.62-43.66,39.14-45.72,65.41-73.7,100.01-10.1,12.49-8.7,27.26-12.86,38.55-2.15,5.85-22.5,40.03-26.19,41.91-2.34,1.19-10.93,4.43-10.74-.22.67-15.97,2.17-32.27,5.45-46.66,11.2-49.21,22.25-111.65,69.87-139.04,2.74-1.58-1-8.6,3-9.1-2.66.33,32.38-3.42,22.08-7.07-9.6-10.2-24.47-24.92-29.38-38.65,1.52-2.71,6.89-7.94,9.54-9.08,12.71-5.47,51.16,16.43,93.39-8.83,4.04-2.41,4.98-10.84,10.4-11.39,5.96-.6,12.23,1.12,18.67,2.66,9.17,2.19,19.33-5.46,30.85-3.45-.31,12.75-28.73,22.16-36.35,32.08Z"/>
      <path class="st0" d="M1760.88,211.31c-2.16-1.36-3.12.99-2.09,2.65-3.31,1.45-20.98,18.26-18.25,23.19l6.7,12.11c11.89,21.49-21.32,69.25-25.81,104.48l-8.42,66.06c-2.95,23.17-7.47,45.51-16.8,65.52-2.25,4.82-30.51,26.47-30.6,26.68-.7,1.7,2.42,4.72,1.76,6.04-3.32,6.68-11.96,12.7-17.84,13.81-8.92,1.68-20.26-1.71-25.12-7.67,8.33,6.19,24.97-24.62,30.08-31.01,1.93,1.49,4.62,3.54,5.95,2.9,1.09-.53,4.03-2.74,1.3-4.76-1.22-.9-2.85-3.31,2.02-2.51,10.84-32.86,16.18-66.66,21.37-101.86.53-3.2,1.33-4.78.09-5.28-1.55-.63-5.27-1.82-6.21-.72,3.1-8.65,4.7-23.41,6.6-33.26,9.87-51.04,24.78-99.56,63.27-138.06,2.48-2.48,5.79-3.74,8.54-3.63,1.74.07,2.96,3.46,3.46,5.33Z"/>
      <path class="st0" d="M1564.72,488.78c-8.49-.71-16.66-7.35-24.76-9.8,2.78-7.23-5.91-8.33-9.94-11.8-6.67-5.76,2.89-14.8,4.94-20.72,5.69-16.42-3.04-38.73,8.13-51.24l26.57-29.77c10.88-12.19,19.39-37.46,35.1-37.75,3.98-.08,7.86-11.5,13.75-5.95,10.62,10.01,2.77,107.9-23.05,138.23l-21.06,24.75c-1.74,2.05-8.43,1.05-9.67,4.07Z"/>
      <path class="st0" d="M1624.42,524.17c-4.56,1.04-8.97-3.64-11.64-6.16-2.08-2.69.78-5.29,3.6-7.8,37.82-33.61,47.53-87.06,62.64-129.29.93-1.11,4.66.09,6.21.72,1.23.5.44,2.07-.09,5.28-5.19,35.21-10.53,69.01-21.37,101.86-4.87-.8-3.24,1.6-2.02,2.51,2.73,2.02-.21,4.23-1.3,4.76-1.32.65-4.02-1.41-5.95-2.9-5.11,6.39-21.75,37.2-30.08,31.01Z"/>
      <path class="st0" d="M151.81,289.05c-5.66,2.22-10.51,5.41-19.62,4.62-1.67-3.19-1.62-7.56-2.51-10.83,3.09-5.55,4.78-13.84.61-19.51-2.85-3.87-9.45-4.63-17.77-2.33-7.23-1.09-2.1-2.64,1.88-4.93,14.12-6.27,49.5,21.37,37.41,32.98Z"/>
      <g>
        <path class="st0" d="M1466.23,462.91c18.77.86,53.75,10.03,73.74,16.07,8.1,2.45,16.26,9.09,24.76,9.8,15.04,9.36,32,22.75,48.05,29.23,2.67,2.52,7.08,7.2,11.64,6.16,4.86,5.96,16.2,9.36,25.12,7.67,5.88-1.11,14.52-7.13,17.84-13.81.66-1.32-2.47-4.34-1.76-6.04.09-.21,28.35-21.86,30.6-26.68,5.59.58-1.32,3.54.08,10.48,7.67,2.44,13.89-4.97,21.38-4.14,4.67.52,8.87,2.8,15.37-.81,2.6,3.97-1.5,3.27-4.84,3.46,22.82,10.74,13.46,17.15,30.98,15.83,1.26,4.55-.23,7.8,2.49,12.08,6.44,10.15-9.09,45.46,5.61,34.98-1.79,4.15-4.49,9.96-8.18,13.25-15.98,14.22-37.97,45.93-62.32,29.72,7.75-3.6,5.58-29.19.77-34.34-8.78-9.39-20.21-21.83-33.76-17.91-6.03,1.74-9.09,13.51-17.86,11.28.1-5.76.41-18.25-7.76-20.5-7.67-2.12-16.13-.13-22.45-6.53-11.97-12.13-29.45-18.14-41.18-28.39-12.18-10.65-25.81-11.7-37.64-17.8-25.59-13.18-55.5-18.5-85.13-16.77,1.11-2.2-3.45-3.4-2.52-4.43,4.49-4.97,12.16,2.72,13.51.29.59-1.07,2.16-2.21,3.45-2.15Z"/>
        <path class="st0" d="M1696.06,527c1.8,8.14,12.79,9.36,15.79,18.79,4.7,14.79,18.49-20.31,19.3-8.04,2.09,5.56-2.8,17.96-7.67,18.59-26.98-.31-17.04-17.5-44.74-19.4,3.59-7.81,10.76-10.14,17.32-9.94Z"/>
        <path class="st0" d="M1731.15,537.75c-.81-12.27-14.61,22.83-19.3,8.04-3-9.42-13.99-10.64-15.79-18.79,12.31-6.3,29.94-2.96,35.09,10.74Z"/>
      </g>
      <g>
        <path class="st0" d="M2027.94,266.16c-3.67,3.74-11.66,6.52-16.81,6.61-7.39.13-6.61,3.72-9.2,6.78-4.2,4.97,3.12,9.57,2.45,13.83-4.91,31.1.25,77.19-9.66,88.2-.2-4.78-1.58-9.42-6.14-13.16,2.76-1.91,3.31-3.68,3.02-4.74-.25-.92-2.51-2.23-2.9-1.09l-8.88,26.27c-.61,1.81-4.76,1.25-3.48,3.87.6,1.23.94,2.8,1.45,4.31-19.88,1.62-38.86-22.05-52.74-33.02,3.4-2.75,6.25-1.39,6.21-2.9-.27-11.77-22.72-9.19-35.26-2.23-5.83,3.23-11.8,4.16-17.93,10.48-60.06,61.93-61.79,131.77-110.8,187.86-14.71,10.48.82-24.83-5.61-34.98-2.72-4.29-1.23-7.53-2.49-12.08-5.25-5.37-.03-9.88,3.96-16.33,1.24-2.01-2.29-7.18-.54-8.08.98-.5,4.36-.13,4.23-3.96-.11-3.26-6.06-.62-5.82-5.69-.1,2.05,9.8-15.7,7.9-14.93,1.56-.64,4.31-.28,6.29-.31-3.27,14.38-4.77,30.69-5.45,46.66-.2,4.65,8.4,1.41,10.74.22,3.69-1.88,24.04-36.06,26.19-41.91,4.15-11.29,2.76-26.06,12.86-38.55,27.98-34.6,30.03-60.87,73.7-100.01.58-5.47-.63-10.34,2.62-13.62,6.99,2.05,11.82,3.64,14.92-2.88,5.87-12.36,20.98-14.54,30.39-21.06,9.96-6.9,18.38-13.38,26.11-20.7,1.14,2.73-1.31,5.74,1.05,7.92,10.83-8.51,23.18-10.02,34.28-16.81,5.98-3.65,26.14-.61,26.16-.71l-.82,6.78Z"/>
        <path class="st0" d="M1994.72,381.57c-.94,1.05-.55,4.37-.6,5.78-5.36,3.87-9.5,9.12-16.31,9.67-.51-1.51-.85-3.08-1.45-4.31-1.28-2.62,2.87-2.05,3.48-3.87l8.88-26.27c.38-1.14,2.65.18,2.9,1.09.29,1.06-.26,2.84-3.02,4.74,4.56,3.74,5.93,8.38,6.14,13.16Z"/>
        <path class="st0" d="M1955.2,348.28c-4.95-1.95-10.43-4.13-15.38-7.38,2.15-7.56,4.17-14.08-2.71-18.44,4.6-2.67,7.29-3.32,7.7-5.57.71-3.94-.08-6.68,0-9.86,11.93-10.24,26.11-15.75,40.81-20.89-2.01,1.38-1.07,1.82.68,3.43,1.29,1.19,2.04,1.68,3.07-.58.38-.83-.33-2.53,2.26-4.02,0-5.79,3.04-5.38,4.61-1.05-4.75,5.77-1.03,14.11-7.3,19.12-3.83-1.41-3.45-8.23-7.82-5.77-15.18,8.56-17.52,18.26-14.47,32.52,1.62,7.57-8.54,13.11-11.45,18.5Z"/>
        <path class="st0" d="M1944.8,307.02c-.07,3.18.71,5.92,0,9.86-.41,2.26-3.1,2.9-7.7,5.57,6.88,4.36,4.86,10.88,2.71,18.44,4.96,3.25,10.43,5.43,15.38,7.38-1.9,3.52,3.56,6.59-2.96,5.69,13.89,1.9-36.46-10.03-26.4-9.94,2.9-1.84,5.91.06,5.74-3.77-7.48.22-13.37.04-19.02.94,1.49,7.07-4.12,6.2-6.92,7.28-1.53.59-5.56-1.26-5.01-3.9,1.52-7.28,11.96-8.01,16.83-12.64,17.96-17.09,15.45-38.7,10.79-25.2,1.9-5.5,8.2-5.19,11.57-7.02-.16,1.52.24,3.76.74,5.78.32,1.29,2.46,1.85,4.24,1.53Z"/>
        <path class="st0" d="M1985.61,286.13c-14.7,5.15-28.89,10.66-40.81,20.89-1.78.32-3.93-.25-4.24-1.53-.5-2.02-.9-4.26-.74-5.78l23.8-12.94c7.97-4.33,16.11-7.81,25.68-6.73-.98,3.15-3.53,3.82-3.69,6.1Z"/>
      </g>
    </g>
  </g>
</svg>