<?xml version="1.0" encoding="UTF-8"?>
<svg id="_レイヤー_1" data-name="レイヤー_1" xmlns="http://www.w3.org/2000/svg" version="1.1" viewBox="0 0 2560 871.61">
  <!-- Generator: Adobe Illustrator 30.1.0, SVG Export Plug-In . SVG Version: 2.1.1 Build 136)  -->
  <defs>
    <style>
      .st0 {
        fill: #fff;
      }

      .st1 {
        display: none;
      }
    </style>
  </defs>
  <g class="st1">
    <g>
      <path d="M0,425.13V-281.87h2560V799.18c-4.35.16-7.7,3.25-11.54,5.24-4.3,2.23-8.26,3.21-10.9,7.38-1.9,3-3.52,5.71-1.29,9.17l6.78,10.5-4.32,1.18c-.83.23-1.04,2.8-.28,3.45,6.36,5.48,5.71,14.01,11.47,11.72,3.64-1.45,3.58-3.92,2.64-7.34l-.69-2.48c-.13-.48,1.91-.1,2.41-.19,1.82-.33,4.23-.76,5.73-.81v211.13h-1317.89c-.06-2.28,0-6.16.39-8.2,2.65-1.57,6.89-3.1,8-4.99,6.07-11.72,11.29-1.16,23.02-6.12,4.19-3.41,7.74-5.31,13.57-5.92l11.3-1.19c9.89,3.42,10.55,2.08,23.07,5.31,1.87.48,5.54,3.46,7.41,3.07,5.87-1.24,11.53-2.86,17.2-3.37,3.25-.29,8.68.77,9.73-3.54-2.49-6.37-5.32-14.73-4.51-21.22l4.55-2.81c.95-.59-.49-3.52-.76-4.86,1.91-.73,4.78-.2,6.41,1.04l5.25,3.97c3.4,4.79,6.78,8.33,11.74,11.91l-2.47,5.74c.23,2.86,3.29,7.88,6.26,9.88,2.78,1.88,8.43,1.72,10.86,1.04.14-2.95.07-6.12,1.6-7.32,1.42-1.12,3.79-1.67,6.28-2.59,2.99-1.1,6.13-3.9,9.21-5.67,7.41-4.26,3.37-11.66,7.05-10.42,1.08.37,2.86,1.34,4.76,2.41,4.77-6.12,11.99-7.52,18.94-8.38,32.99-4.04,17.55,4.55,33.43,1.61,2.51-.46,5.91.03,8.77.16l10.87.47,9.26-9.58c5.46.47,10.22.79,15.67.53s10.42,1.22,15.76,2.06c5.23.82,11.05-.46,16.67,1.52,3.32,1.17,7.37-.06,9.78-1.89,4.11-3.11,7.42,2.72,10.15,2.64l13.75-.37c3.44-.09,6.51.84,9.25,2.26,1.74.17,5.44-.32,7.2.64s3.37,3.72,4.67,6.05c4.66,8.36-2.35,9.68.14,13.09.46.63,1.83,1.67,2.61,1.92l12.18,3.9c2.58.83,6.14,1.42,8.12,2.96,4.58,3.57,8.59,3.51,14,2.78,8.94-1.21,17.58-2.64,25.94-6.43,2.7-1.23,7.26-3.9,8.15-6.31,4.3-11.72,5.39-19.33,14.93-25.73,5.05-3.39,3.67-14.42,14.1-12.58,4.12-6.14,10.59-9.89,17.33-11.92,4.17-1.26,6.54-5.59,12.57-3.6,4.4,1.45,9.51-1.62,10.29-6.52.59-3.65,2.83-6.05,5.76-8.3l2.1-6.2c.5-1.49,5.06-1.29,6.35-2.49,16.53-15.36,14.68,11.32,43.91-19.83,1.87-1.99,4.12-3.64,7.02-3.85,4.47-.33,9.42-2.9,9.7-7.84.18-3.15-1.92-8.56,1.48-11.09,4.35-3.24,9-7.08,12.88-10.5,4.04,1.67,18.29,5.51,20.25,5.35,1.3-.11,2.79-2.95,3.91-3.96,2.97-2.66,7.65-4.67,9.47-8.14,1.46-2.79,2.63-5.48,4.81-7.36,4.42-3.82,6.69-10.24,2.53-14.93-2.09-2.35-3.17-5.23-2.77-8.76.54-4.79,6.95-4.56,14.79-9.51,10.04-6.33,9.78-14.52,12.88-26.47,1.23-4.73,7.34-3.28,10.23-4.48,5.15-2.13,10.12-3.04,14.38.8,4.59,4.13,11.18-7.33,12.42-9.81,1.45-2.9,1.03-4.93,4.48-6.28,3.18-1.24,5.57-9.56,6.35-13.31,11.17-1.7,5.73-9.32,11.18-13.53,4.39-3.39,3.84-7.68.42-12.14l9.92-3.47,3.68,1.59c.86.37,2.83-1.39,3.83-1.52l10-1.34,10.39,14.01c1.38,1.86,2.54,4.26,4.09,4.93,8.06,3.47,8.17-5.96,17.39-.18,5.93,3.71,15.19,5.62,22.01,3.41s12.36-4,19.38-3.66l13.27-7.69,4.61,5.4c6.12-1.22,12.28-10.55,17.94-8.97,2.5.7,6.5,1.92,8.28-.58.93-1.31.34-4.6-.5-5.88-1.04-1.59-4.17-3.22-6.12-3.08l-10.73.75-2.02,2.67c-.43.57-2.24-1.47-2.64-2.09-1.36-2.08-1.45-7.4,2.12-7,1.48.53,4.12,2.52,5.63,2.67,5.54.52,5.62-4.52,11.91-6.32,5.31-1.52,11.77,1.18,11.85,7.25.03,2.01-.17,7.21,3.43,6.33,2.71-.66,6.04-1.92,8.23-2.82l1.48-3.65c.31-.76,2.55,1.64,2.93,2.37,7.88,15.22,14.06,10.65,15.04,13.07l2.19,5.38c.38.93,2.63,1.92,3.07,2.76,1.13,2.18-3.45,7.69,1.21,9.55,1.31.52,4.19-.79,5.65-.87,4.42-.23,8.3-.37,13.04-2.41,1.65-.71,4.51,2.6,6.38,3.64,3.52,1.97,7.86-1.76,12.37-2.03,1.99-.12,3.36,4.18,4.51,6.94,2.34-.08,5.11-2.41,7.76-4.56s11.31,3.18,11.88,7.19c.24,1.69-1.25,3.99-2.17,5.59l-3.15,5.5c-.79,1.39.83,3.74,2.03,5.01,7.45,7.89,18.25,7.55,28.74,7.06,2.75-.13,6.43.72,8.8-.69,6.99-4.17,11.34,2.39,20.4,8.8l3.88,2.74c1.27.9,6.18-3.65,6.97-1.84l1.31,3c3.57,8.18-9.81,8.44-8.35,17.16.29,1.71,3.49,4.07,5.07,5.25,1.14,7.07,7.7,10.39,14.33,11.41,1.82.27,5.23,4.09,6.97,3.25,3.99-1.94,8.16-4.58,12-1.92,1.86,1.29,4.48,5.24,6.63,5.66,11.87,2.34-.5-.4,14.9,8.66,2.55,1.5,4.2,2.74,7.17,2.06,6.17-1.4,5.72,6.7,10.27,10.98,1.82,1.71,5.44-1.16,7.12-.93,7.05.97,14.29,1.16,19.78-4.29,7.85-1.06,12.02,8.25,19.62,1.6,3.46-3.03,7.94-3.81,12.31-5.65,2.84-2.19,6.14-6.16,8.75-9.22-1.71-5.48-1.1-13.1,4.91-14.96l7.78-2.41c2.7-.83,5.55-.31,6.28,2.6.32,1.29,4.23,3.7,5.08,2.64,2.51-3.11.02-8.6-3.33-10.31-2.35-1.2-3.92-3.36-3.81-5.96s5.58-6.31,7.87-7.56c1.02-.56,3.2,1.17,4.1,2.67,2.52,4.2,7.49-2.89,13.07.07s8.64,1.14,12.6-1.89c5.15-3.95,11.35-7,14.06-13.14.8-1.8,2.01-2.68,4.43-2.91,6.41-.62-.96-8.95,2.3-9.93,2.87-1.84,4.6-4.53,4.59-7.89v-1.98c0-1.17-4.41.06-7.74-3.28-1.18-1.18-1.73-4.89-.98-6.35,2.68-2.17,3.31-4.89,2.71-8.7-.29-1.79.52-6.03-1.02-8.01-1.98-2.54.81-7.21,1.58-10.74,1.18-5.46,1.71-10.89,7.22-14.63.99-.67-.46-3.75-.97-4.86l-9.61-20.62,2.67-7.55c-.3-1.12-1.91-3.7-1.3-4.57.81-1.15,1.34-3.32.62-4.09-9.43-9.97-3.56-8.24-15.91-18.86-7.44,1.92-12.49-1.55-17.9-5.91-3.73-3.01-9.5-5.31-12.29-9.29-3.01-4.3-6.23-9.81-12.94-8.24-2.03.48-4.95,3.04-7.36,5.14-1.1.95-4.04-.55-5.3-1.57-1.69-1.37-4.97,3.21-12.44,4.13-.45.45-1.44,1.52-1.83,1.93-1.46,1.55-4.87-3.61-5.66-4.96-7.07-12.2-8.69-2.38-20.16-14.14-3.87-3.97-8.76-9.72-14.26-10.84-2.97-.61-10.66,1.73-10.27-3.81.24-3.43,1.02-6.44-1.15-9.18-2.33-2.94-5.62-4.53-9.45-4.02l-23.23,3.09c-2.21.29-6.86-.91-9.25-1.23-.78-7.42-5.11-10.78-11.57-11.97-3.36-.62-6.21-.47-9.51.49l-9,2.62c-5.4-1.33-12.89-3.05-18.01-5.43l-6.25-5.68c-2.45-2.23-5.7-2.5-8.84-1.29-6.06,2.34-4.45-2.54-17.29-3.88-5.06,3.86-11.28,6.36-17.29,4.34-4.07-1.36-7.77-1.64-11.78-2.08l-9.04-.98c-10.78-1.17-7.75,10.86-13.22,13.66-11.54,5.9-15.89,5.05-20.17,10.28-1.39,1.7-6.35,3.47-8.17,2.08-3.32-2.55-5.19-5.86-7.49-8.82-2.48-3.19-3.74-5.83-4.32-10.02-.55-3.94-7-5.45-9.75-2.14-3.5,4.22-5.63-3.64-10.31-2.92-4.89.74-3.89,9.44-7.75,4.25l-2.89-3.89c.28.37-21.84,2.85-21.42,5.09-2.15,1.89-3.74,4.58-6.4,5.45l-9.3,3.05c-6.64,2.18-11.59,2.92-17.29-1.68-4.15-3.35-8.37-6.77-8.62-13.45l-12.81-2.13c-4.66-.78-4.78-8.23-7.03-10.7-4.16-4.57-12.12-1.97-17.05.06-5.27,2.17.68-7.44-21.7.15-3.12,1.06-5.71,2.93-8.62,4.43-4.47,2.31-9.18,5.1-8.86,11.27l-5.14,6.82-7.24,2.74c-2.97,1.13-5.13,1.87-8.97,3.05l-2.05,10.26c-.73,1.39-4.05,3.18-5.83,4.07-6.5-1.77-12.97-.68-18.79,3.47-3.73-2.2-7.63-5.26-11.6-6.38-12.9-3.67-6.7-11.41-13.62-10.18-2.02.36-4.18-.2-6.22-1-3.67-1.45-7.32-2.15-11.01-3.23l-9.31-2.72-6.36,6.09c-1.05,1.01-4.56-1.39-6.03-1.5l-10.31-.75c-.46-7.35-5.67-11.48-11.46-13.4-3.95-6.05-15.05-1.29-18.05,1.17-3.96,3.25-3.33,6.45-1.36,10.16l-.24,8.57c-.08,2.78-.91,5.09-3.49,6.45-4.5,2.37-9.11-5.74-14.98-5.47-2.84.13-5.47,3.34-7.87,4.66-3.28,1.8-6.82,2.91-9.41,5.69-4.22,4.52-7.13,10.1-9.16,16.22-6.29,7.6-13.63,6.62-22.88,9.01-1.94,2-1.62,7.21-2.16,9.61-.9,4.05-6.94,2.56-9.03.42-2.86-2.93-5.59-2.75-9.36-2.36-1.87.19-6.38-.69-7.31.83l-1.68,10.02c-.29,1.7-.61,3.26-1.37,4.06s-4.04.94-4.91.3l-4.68-3.47c-5.83-4.32-11.87-8.52-13.42-16.49s-5.39-18.99-15.01-21.18c-3.21-.73-8.06-.1-10.16-3.93-4.73-2.13-15.64,4.06-18.77-6.06-2.28-7.39-9.08-10.88-16.79-8.62-5.99,1.75-4.32,3.75-15.52,10.56-3.3,2.01-5.97,3.13-10.6,2.56-4.26-.52-2.86,5.84-5.81,10.03-17.52,4.53-19.28-4.06-23.95-3.77-1.28.08-3.86,2.94-3.68,4.29.45,3.42,1.52,10.03.29,13.88-.54,1.68-5.4,3.01-6.82,2.02-.87-.6-1.88-2.98-2.77-2.9l-4.02.35c-.51.04-1.71-.04-2.12-.09-.62-.08-1.26-2.43-.89-2.93l4.44-5.97c-3.88-11.75,2.06-9.8-3.82-18.51-1.02-1.51-.71-5.36-1.93-7.36l-5.69-9.35c-2.63-4.32-3.7-5.64-7.66-7.96s-7.47-4.1-12.42-4.84c-17.71-2.65-13.06,4.53-25.92,10.39l-4.58,10.26c-8.67,2.24-25.34,11.94-23.61,22.3-4.71,10.02-5.06,10.89-13.8,18.12l-7.8,6.46c-1.69,1.4-4.05,4.96-5.82,7.05-2.1,1.85-1.78,9.84-6.56,9.63-2.94-.13-8.27.88-9.5,3.87l-2.71,6.59c-1.6,3.88-10.1-7.6-12.48-6.22l-12.13.61c-1.21.06-3.54.35-4.33.6-1.59,4.88-3.96,9.15-6.94,13.22l-4.54,6.2c-.27.37-2.85.44-3.08.04l-1.39-2.36c-.39-.67-2.48-.86-3.26-.56l-8.4,3.29c-5.65,2.21-7.64-8.74-13.73-4.39l-12.22,8.73-.84,6.74c-.51,4.12,3.22,2.46,3.55,8.07.09,1.46-2.61,3.15-4.34,4.38-11.43,32.14-12.55,17.18-21.36,24.92l-6.6,5.81c-1.37,1.21-5,3.25-6.67,4.05-11.06,1.75-2.13.92-16.72,8.56-8.51,4.46-13.02,6.01-23.31,5.5-5.61-.28-11.11-.72-16.75-1.66-4.81-.8-9.15-.71-11.81,4.37-3.46,6.61-12.03,2.55-10.54,6.41l1.46,3.8c-5.97,5.64-4.8-3.99-19.49.85-4.7,1.55-6.85,4.08-6.84,9.36l-4.71,8.16c-.45.78-2.25,1.88-3.02,2.04l-5.81,1.2c-.4.08-1.38,2.1-1.83,2.89-4.99.36-10.58.65-15.78.17-10.96-1.01-8.75,7.07-12.19,4.35l-11.07-8.75c-11.35-8.97,2.12-13.61-6.4-21.96-4.98-4.88-3.28-8.92-12.22-14.79-2.99-1.96-6.08-.53-9.25.16-9.81,2.14-8.74-2.86-18.52,6.48-1.67,1.6-3.38,3.74-4.85,4.22-1.9.63-5.28-1.18-7.18-1.64-5.09-1.22-9.52-2.23-11.42-7.98l-3.33-10.11c-7.67-6.92-9.25-7.75-19.49-11.16-2.2-.49-7.04.85-9.28.68-10.58-3.59-11.36-.09-26.22-1.79-2.57-.3-7.84-1.85-10.08-3.16l-15.37-8.99c-2.25-3.93-10.63-17.08-15.58-18.36l-5-9.34c-.3-.56-2.37-1.9-2.76-1.42s-.99,1.26-1.54,2.11l-2.61,4c-.59.91-3.43-1.13-4.33-1.89-8.63-7.22,1.21-15.27-12.61-19.38-2.1-3.8-4.07-8.77-6.87-11.87-15.04-16.61,5.64-14.3-24.44-24.49-7.45,2.97-14.15.84-16.71,2.7s.62,5.03-3.58,9.28c-3.17,3.21-6.65-6.67-10.88-8.22l-1.97-6.1c-10.4-8.8-11.33-3.27-19.28-11.84-3.24-3.5-6.2,2.01-8.09,2.77-3.22,1.29-4.88-8.66-13.01-9.09-3.12-.16-4.93-5.67-19.3-4.89l-6.17-10.86-5.34-1.67c-2.72-2.73-5.58-6.4-8.79-8.27-3.6-2.09-8.93-1.83-10.33-6.72l-3.8-13.27c-.51-1.77-3.45-4.71-5.22-4.09l-6.6,2.28c-.73.25-2.1.31-2.69-.02-.73-.41-1.52-2.8-1.04-3.46,6.01-8.22,5.79-2.74,5.6-11.19-.21-9.67,1.21-13.15-7.06-18.35-5.05-3.18,1.28-8.83-2.67-16.31-5.54-10.46,6.39-11.89,7.53-21.1.29-2.36-.54-7.73-1.8-9.72-1.57-2.49-4.64-5.13-6.66-7.35l-.16-7.63-7.06-13.14c-1.15-2.14-4.15-1.86-6.56-1.49-4.07.63-6.49-5.07-9.09-7.72l-5.88-5.99-1.98-9.57,4.53-15.28c6.19-20.88-4.23-12.36-3.28-34.72.32-7.39-1.82-13.88-7.69-18.18-4.26-3.12-7.69-7.59-11.9-11.05-3.23-2.66-8.53-4.63-10.99-7.76-10.4-13.25-11.9-2.89-18.94-12.35-4.05-5.44-4.77-.49-21.48-4.48-4.48-1.07-8.24,3.42-8.7,7.76-.3,2.79-3.09,5.93-5.62,7.1-6.86,3.17-13.7,1.96-20.67.04-7.58-2.09-7.09-10.69-9.41-20.96-1.33-5.9-11.36-5.81-15.87-4.14l-8.25,3.06c-3.87-2.02-7.09-1.34-10.86.19-9.42,3.8-4.04,21.39-11.84,21.92-2.18.15-4.29-1.39-5.19-3.43l-5.37-12.08c-2.21-4.97-13-7.51-18.63-8.12l-10.72-12.42c-1.51-1.75-4.49-3.94-6.46-5.5-11.38,1.96-11.18-7.28-27.93-9.43-2.94-.38-6.04.62-8.24-1.31-4.7-4.13-9.99-3.87-12.76-1.1-1.01,1.01-1.1,3.76-1.23,6.43s-4.28,4.85-6.71,5.51c-6.06,1.65-16.32-8.21-20.62-11.49-5.96-4.55-28.4-8.46-22.82-27.31.37-1.25-.4-4.28-.39-5.33.09-9.13.71-16.2-9.14-21.04-5.35-2.64.35-5.49.46-14.46l.15-12.37c.08-6,.07-11.56-.86-17.8-.52-3.48.58-5.9,2.52-8.82s2.28-9.01.82-12.44c-2.06-4.85-6.73-13.24-9.7-16.46l-10-10.87c-9.08-9.87-8.75.63-13.91-8.26l-3.3-5.69c-2.69-4.63-7.09-5.98-12.48-5.63-15.53,1.02-11.43-4.68-18.38-2.65-7.76,2.27-11.82,2.34-18.12,4.41l-21.81,7.18c-12.1,3.98-8.49,4.09-16.62,12.29l-5.48,5.53c-5.93,5.98-16.61,17.72-8.46,25.58l-.58,4.43c-4.29,1.94-8.45.09-12.86-1.35s-9.28,2.25-13.26,3.7c-4.73,1.73-9.45,2.63-13.94,4.59-6.71,2.93-13.55.27-23.48-.11l-8.39-.32c-5.55-.21-5.03,5.14-13.52,3.91-4.48-.65-7.96.54-9.07,5.27-.99,4.21-5.56,7.93-8.61,7.26s-8.68-2.64-11.14-.67c-5.69,4.57-11.41,3.88-17.54,6.78l-13.55,6.42c-3.09,1.47-24.28.89-36.14,10.85l-6,5.04-1.2,1.02c-.6.51-.88,2.83-.32,3.48,10.61,12.37,3.28,11.19,1.5,23.24l6.69,14.26c.88,1.88-1.16,6.01-1.65,7.81-.94,3.45-2.69,5.62-5.59,7.57-7.2,4.83-11.37-.37-12.18,2.4-1.14,3.91,2.52,11.4-6.87,16.63-1.34.74-3.47,2.81-4.7,2.51-1.77-.44-3.97-1.93-5.2-3.19l-2.2-2.25c-.46-.47-5.96,4.41-1.61,10.55-4.17,2.27-6.5,8.93-4.26,11.72.19.23,1.51,1.02,1.66,1.13l2.27,1.71c.67.5-1.41,2.38-2.24,2.27l-1.73-.23-1.41-.2c-.19-.03-1.36.01-1.51.11l-2.05,1.38c-.66.44-.55,3.07.15,3.47l3.32,1.89c.69.39,1.02,2.55,1.08,3.9l-8.21,4.59c-9.14,5.11-4.06.03-8.36,4.76-.98,1.08-3.46,4.34-2.56,5.35,8.19,4.74-5.04,25.36-7.73,25.7-4.23.54-7.12-3.82-14.03-.56-6.3,2.98-.95,9.26-2.17,16.29l-9.12,2.98c-1.25.41-4.22.5-4.85-.68l-2.75-5.14c-.52-.98-3.16-1.56-4.14-1.06l-3.06,1.57Z"/>
      <path class="st0" d="M1242.11,1048.13h-357.13c-1.74-3.71-5.91-6.81-9.56-9-6,6.67-8.57,4.29-8.43,9h-24.33c-.27-1.08-.38-2.83-.21-4.13l.69-5.42c-12.88,1.91-8.69-11.55-17.35-6.3-10.07,6.1-19.57-10.35-22.46-18.52l-9.35-9.6c4.58-21.21-5.29-17.75-6.21-27.68-.24-2.57-.8-5.6-3.56-5.2-5.21.75-14.94.76-17.62-1.3-2.5-1.93,1.62-4.38.66-9.38-.6-3.14-15.94-2.06-17.28-2.11l-14.65-.59-8.48,15.1c-1.39,2.47-4.34,5.8-5.41,7.98-7.46,15.1-3.9,4.89-10.76,18.98-1.37,2.82-2.07,7.61-3.22,10.86-.35.98-10.45,8.96-10.56,9.02-1.34.77-4.84-.5-6.53-1.23-3.93-1.68-7.98,1.38-11.77,1.91l-13.73,1.93c-2,.28-5.82-1.53-7.99-.71l-8.2,3.09c-4.06,1.53-10.04-.84-14.21.97-2.37,1.03-5.53,2.48-7.32,1.99-2.89-.79-4.68-2.9-6.28-5.6l-7.95-2.53c-8.72,4.26-6.26,11.77-10.85,16.53-3.89-2.24-3.94-5.39-2.3-9.64l-6.97-7.22c-4.66-.51-7.77-2.41-9.7-6.34-10.82,4.47-6,.03-16.78,6.28-1.79,1.03-7.43,1.46-9.14,1-3.3-.89-1.21-14.11-13.04-21.31-10.75-6.54-6.65.59-19.78-5.14-4.68-2.04-19.71-5.16-24.27-4.66-6.97.77-12.59-1.23-15.34-8.35l-12.54,2.69-14.14-3.13c-2.98-.66-5.96-3.63-10.3-1.92-5.32-4.51-7.94-12.35-8.81-19.23-.81-6.33-7.74-21.57-11.54-28.01l-7.38,4.38c-26.22-3.53-19.39,10.49-30.35,11.43-18.01,1.53-11.61.01-21.93,9.16-10.04-5.24-13.18,8.75-26.61-1.98-6.85-5.47-4.44,7.41-17.26,5.37l-9.83-1.57c-9.89-1.58-19.45-.44-27.65,5.87-16.44,1.55-11.34.08-18.78-5.25-16-11.44-3.23-14.74-8.66-19.42s-10.44,4.18-15.48-.85l-10.14-.27c-1.61-2.97-3.37-5.81-5.74-7.19-4.02-2.34-4.08-5.84-1.85-9.43l-.15-8.4-9.92,1.03c-2.03.21-4.12-4.07-3.53-6.22,1.96-7.15,10.29-2.37,11.94-8.39.71-2.59-1.03-4.86-3.29-6.13l-8.5-4.79c-15.73-1.31-7.86.3-22.06-6.31-3.99-6.64-9.36-6.82-16.16-7.6-5.2-.6-9.83-4.22-15.36-1.95l-16.43,6.74c-2.48,1.02-8.43.82-11.29.73-1.7-.05-3.69-3.92-4.93-5.02-4.11-3.67-8.59-7.72-13.26-10.66-5.12-3.22-10.39-6.52-10.86-13.55,3.65-12.84,8.87-10.91,12.63-24.41l7.42-2.46c2.93-.97,8.11-1.53,10.49.52,4.37,3.75,22.48,20.02,28.11,15.6,1.07-.84,1.62-4.23,1.22-5.66l-2.66-9.6c-.95-3.42-2.5-8.05-3.58-11.02-8.77-8.23,2.35-.31-9.2-21.05l-6.18-11.1c-7.74-13.91-1.33-21.63-5.71-24.62-5.93-4.04-9.53,3.35-17.83-2.64-12.55-9.06-17.06,3.52-30.22-.74-3.38-1.09-6.37-3.91-9.12-5.89l-9.02-6.52c-6.11-4.42-9.87-17.69-16.75-24.9l-11.19-.53c-4.8-9.48-13.67-12.9-22.6-16.72-3.85-1.65-14.61-10.74-17.77-9.06v-193c3-1.04,5.54-3.2,5.11-6.44-.4-2.96-2.21-6.11-5.11-6.56v-59l3.06-1.57c.98-.5,3.62.08,4.14,1.06l2.75,5.14c.63,1.18,3.61,1.09,4.85.68l9.12-2.98c1.22-7.03-4.13-13.32,2.17-16.29,6.91-3.26,9.81,1.1,14.03.56,2.69-.35,15.92-20.97,7.73-25.7-.9-1.01,1.58-4.28,2.56-5.35,4.3-4.72-.79.36,8.36-4.76l8.21-4.59c-.07-1.35-.39-3.51-1.08-3.9l-3.32-1.89c-.7-.4-.81-3.03-.15-3.47l2.05-1.38c.14-.1,1.32-.14,1.51-.11l1.41.2,1.73.23c.84.11,2.92-1.77,2.24-2.27l-2.27-1.71c-.15-.11-1.48-.9-1.66-1.13-2.24-2.78.09-9.44,4.26-11.72-4.35-6.14,1.15-11.01,1.61-10.55l2.2,2.25c1.23,1.26,3.43,2.75,5.2,3.19,1.23.3,3.37-1.76,4.7-2.51,9.38-5.23,5.73-12.73,6.87-16.63.81-2.77,4.98,2.43,12.18-2.4,2.9-1.95,4.65-4.11,5.59-7.57.49-1.81,2.53-5.93,1.65-7.81l-6.69-14.26c1.78-12.05,9.11-10.87-1.5-23.24-.56-.65-.28-2.98.32-3.48l1.2-1.02,6-5.04c11.86-9.95,33.05-9.38,36.14-10.85l13.55-6.42c6.13-2.9,11.84-2.22,17.54-6.78,2.46-1.97,7.96-.03,11.14.67s7.62-3.04,8.61-7.26c1.11-4.73,4.59-5.92,9.07-5.27,8.49,1.23,7.96-4.12,13.52-3.91l8.39.32c9.92.38,16.76,3.04,23.48.11,4.49-1.96,9.21-2.86,13.94-4.59,3.98-1.45,8.86-5.13,13.26-3.7s8.57,3.29,12.86,1.35l.58-4.43c-8.15-7.86,2.52-19.6,8.46-25.58l5.48-5.53c8.13-8.2,4.52-8.31,16.62-12.29l21.81-7.18c6.29-2.07,10.35-2.14,18.12-4.41,6.95-2.03,2.85,3.66,18.38,2.65,5.39-.35,9.79,1,12.48,5.63l3.3,5.69c5.16,8.88,4.83-1.61,13.91,8.26l10,10.87c2.97,3.22,7.64,11.61,9.7,16.46,1.46,3.43,1.19,9.42-.82,12.44s-3.04,5.34-2.52,8.82c.94,6.24.94,11.8.86,17.8l-.15,12.37c-.11,8.97-5.81,11.83-.46,14.46,9.85,4.85,9.22,11.91,9.14,21.04,0,1.05.76,4.07.39,5.33-5.58,18.85,16.86,22.76,22.82,27.31,4.3,3.29,14.57,13.15,20.62,11.49,2.43-.66,6.6-2.95,6.71-5.51s.22-5.42,1.23-6.43c2.77-2.77,8.06-3.02,12.76,1.1,2.2,1.93,5.3.93,8.24,1.31,16.75,2.15,16.55,11.4,27.93,9.43,1.98,1.56,4.95,3.75,6.46,5.5l10.72,12.42c5.64.61,16.43,3.15,18.63,8.12l5.37,12.08c.91,2.04,3.01,3.58,5.19,3.43,7.8-.53,2.42-18.12,11.84-21.92,3.77-1.52,6.98-2.21,10.86-.19l8.25-3.06c4.51-1.67,14.54-1.76,15.87,4.14,2.32,10.27,1.83,18.87,9.41,20.96,6.97,1.92,13.81,3.13,20.67-.04,2.53-1.17,5.33-4.31,5.62-7.1.46-4.34,4.22-8.83,8.7-7.76,16.71,3.98,17.43-.97,21.48,4.48,7.04,9.47,8.54-.89,18.94,12.35,2.46,3.13,7.76,5.11,10.99,7.76,4.21,3.45,7.64,7.93,11.9,11.05,5.87,4.3,8.01,10.79,7.69,18.18-.96,22.36,9.46,13.85,3.28,34.72l-4.53,15.28,1.98,9.57,5.88,5.99c2.6,2.65,5.02,8.36,9.09,7.72,2.4-.37,5.41-.65,6.56,1.49l7.06,13.14.16,7.63c2.03,2.22,5.09,4.86,6.66,7.35,1.26,1.99,2.09,7.36,1.8,9.72-1.14,9.21-13.07,10.64-7.53,21.1,3.96,7.47-2.38,13.12,2.67,16.31,8.26,5.2,6.84,8.68,7.06,18.35.18,8.45.4,2.98-5.6,11.19-.48.66.31,3.05,1.04,3.46.58.33,1.95.28,2.69.02l6.6-2.28c1.78-.61,4.72,2.32,5.22,4.09l3.8,13.27c1.4,4.89,6.74,4.63,10.33,6.72,3.2,1.86,6.06,5.54,8.79,8.27l5.34,1.67,6.17,10.86c14.38-.78,16.18,4.73,19.3,4.89,8.13.43,9.79,10.38,13.01,9.09,1.89-.76,4.84-6.27,8.09-2.77,7.95,8.58,8.88,3.04,19.28,11.84l1.97,6.1c4.24,1.55,7.71,11.43,10.88,8.22,4.2-4.25.97-7.37,3.58-9.28s9.26.27,16.71-2.7c30.08,10.19,9.4,7.88,24.44,24.49,2.8,3.1,4.77,8.07,6.87,11.87,13.81,4.11,3.97,12.16,12.61,19.38.91.76,3.74,2.8,4.33,1.89l2.61-4c.55-.84,1.15-1.63,1.54-2.11s2.46.87,2.76,1.42l5,9.34c4.94,1.29,13.33,14.43,15.58,18.36l15.37,8.99c2.23,1.31,7.51,2.86,10.08,3.16,14.86,1.71,15.65-1.79,26.22,1.79,2.25.17,7.09-1.17,9.28-.68,10.24,3.42,11.82,4.24,19.49,11.16l3.33,10.11c1.9,5.75,6.33,6.76,11.42,7.98,1.89.45,5.27,2.26,7.18,1.64,1.47-.49,3.18-2.62,4.85-4.22,9.77-9.34,8.71-4.34,18.52-6.48,3.17-.69,6.26-2.12,9.25-.16,8.94,5.87,7.23,9.91,12.22,14.79,8.52,8.34-4.95,12.98,6.4,21.96l11.07,8.75c3.44,2.72,1.23-5.37,12.19-4.35,5.2.48,10.79.19,15.78-.17.45-.79,1.43-2.81,1.83-2.89l5.81-1.2c.77-.16,2.57-1.26,3.02-2.04l4.71-8.16c0-5.28,2.14-7.81,6.84-9.36,14.69-4.84,13.52,4.79,19.49-.85l-1.46-3.8c-1.49-3.86,7.08.19,10.54-6.41,2.66-5.07,7-5.17,11.81-4.37,5.65.94,11.14,1.38,16.75,1.66,10.29.51,14.8-1.04,23.31-5.5,14.59-7.64,5.66-6.81,16.72-8.56,1.68-.8,5.3-2.84,6.67-4.05l6.6-5.81c8.81-7.74,9.93,7.22,21.36-24.92,1.73-1.24,4.43-2.92,4.34-4.38-.33-5.61-4.06-3.95-3.55-8.07l.84-6.74,12.22-8.73c6.1-4.36,8.08,6.6,13.73,4.39l8.4-3.29c.78-.3,2.87-.11,3.26.56l1.39,2.36c.23.4,2.81.33,3.08-.04l4.54-6.2c2.98-4.08,5.35-8.34,6.94-13.22.79-.26,3.12-.54,4.33-.6l12.13-.61c2.38-1.39,10.88,10.1,12.48,6.22l2.71-6.59c1.23-3,6.56-4,9.5-3.87,4.77.21,4.46-7.79,6.56-9.63,1.78-2.1,4.14-5.66,5.82-7.05l7.8-6.46c8.74-7.23,9.09-8.1,13.8-18.12-1.72-10.36,14.94-20.06,23.61-22.3l4.58-10.26c12.86-5.86,8.22-13.04,25.92-10.39,4.95.74,8.53,2.56,12.42,4.84s5.03,3.65,7.66,7.96l5.69,9.35c1.22,2.01.91,5.85,1.93,7.36,5.88,8.71-.06,6.77,3.82,18.51l-4.44,5.97c-.37.5.27,2.85.89,2.93.41.05,1.61.14,2.12.09l4.02-.35c.9-.08,1.91,2.3,2.77,2.9,1.42.99,6.28-.34,6.82-2.02,1.23-3.86.16-10.46-.29-13.88-.18-1.36,2.4-4.21,3.68-4.29,4.67-.29,6.43,8.29,23.95,3.77,2.95-4.19,1.55-10.55,5.81-10.03,4.63.57,7.3-.55,10.6-2.56,11.19-6.81,9.52-8.81,15.52-10.56,7.71-2.25,14.51,1.24,16.79,8.62,3.12,10.12,14.03,3.93,18.77,6.06,2.1,3.83,6.95,3.2,10.16,3.93,9.63,2.19,13.4,12.84,15.01,21.18s7.59,12.17,13.42,16.49l4.68,3.47c.87.64,4.15.51,4.91-.3s1.08-2.36,1.37-4.06l1.68-10.02c.93-1.52,5.44-.64,7.31-.83,3.78-.39,6.5-.57,9.36,2.36,2.09,2.14,8.13,3.63,9.03-.42.54-2.4.22-7.61,2.16-9.61,9.26-2.4,16.6-1.41,22.88-9.01,2.03-6.12,4.94-11.7,9.16-16.22,2.59-2.78,6.13-3.89,9.41-5.69,2.39-1.32,5.03-4.53,7.87-4.66,5.86-.27,10.48,7.83,14.98,5.47,2.58-1.36,3.41-3.67,3.49-6.45l.24-8.57c-1.97-3.71-2.6-6.91,1.36-10.16,3-2.46,14.1-7.22,18.05-1.17,5.79,1.92,11.01,6.05,11.46,13.4l10.31.75c1.47.11,4.98,2.51,6.03,1.5l6.36-6.09,9.31,2.72c3.69,1.08,7.34,1.78,11.01,3.23,2.03.8,4.2,1.36,6.22,1,6.92-1.24.72,6.51,13.62,10.18,3.96,1.13,7.86,4.19,11.6,6.38,5.82-4.15,12.29-5.24,18.79-3.47,1.77-.89,5.09-2.68,5.83-4.07l2.05-10.26c3.84-1.17,6-1.92,8.97-3.05l7.24-2.74,5.14-6.82c-.31-6.16,4.39-8.96,8.86-11.27,2.91-1.5,5.5-3.37,8.62-4.43,22.38-7.59,16.43,2.02,21.7-.15,4.93-2.03,12.9-4.63,17.05-.06,2.25,2.47,2.37,9.93,7.03,10.7l12.81,2.13c.25,6.67,4.47,10.1,8.62,13.45,5.7,4.6,10.65,3.86,17.29,1.68l9.3-3.05c2.66-.87,4.26-3.56,6.4-5.45-.43-2.24,21.69-4.71,21.42-5.09l2.89,3.89c3.86,5.19,2.86-3.51,7.75-4.25,4.68-.71,6.81,7.14,10.31,2.92,2.75-3.31,9.21-1.8,9.75,2.14.58,4.19,1.85,6.83,4.32,10.02,2.3,2.96,4.17,6.27,7.49,8.82,1.82,1.39,6.78-.38,8.17-2.08,4.28-5.24,8.63-4.38,20.17-10.28,5.47-2.8,2.44-14.83,13.22-13.66l9.04.98c4.01.44,7.7.71,11.78,2.08,6.01,2.02,12.23-.48,17.29-4.34,12.84,1.34,11.23,6.22,17.29,3.88,3.14-1.21,6.39-.94,8.84,1.29l6.25,5.68c5.12,2.38,12.6,4.09,18.01,5.43l9-2.62c3.3-.96,6.15-1.11,9.51-.49,6.46,1.19,10.79,4.54,11.57,11.97,2.39.32,7.04,1.52,9.25,1.23l23.23-3.09c3.83-.51,7.12,1.07,9.45,4.02,2.17,2.74,1.39,5.75,1.15,9.18-.4,5.54,7.3,3.21,10.27,3.81,5.5,1.12,10.39,6.87,14.26,10.84,11.47,11.76,13.09,1.94,20.16,14.14.79,1.36,4.2,6.51,5.66,4.96.38-.41,1.37-1.48,1.83-1.93,7.46-.91,10.74-5.49,12.44-4.13,1.26,1.02,4.2,2.53,5.3,1.57,2.41-2.09,5.33-4.66,7.36-5.14,6.7-1.57,9.93,3.94,12.94,8.24,2.79,3.98,8.56,6.29,12.29,9.29,5.4,4.36,10.46,7.82,17.9,5.91,12.35,10.62,6.48,8.89,15.91,18.86.72.77.19,2.94-.62,4.09-.61.87.99,3.45,1.3,4.57l-2.67,7.55,9.61,20.62c.52,1.11,1.97,4.18.97,4.86-5.52,3.74-6.04,9.16-7.22,14.63-.76,3.53-3.56,8.2-1.58,10.74,1.54,1.98.73,6.22,1.02,8.01.61,3.81-.03,6.53-2.71,8.7-.75,1.46-.2,5.17.98,6.35,3.33,3.34,7.73,2.11,7.73,3.28v1.98c0,3.36-1.71,6.05-4.59,7.89-3.25.99,4.11,9.32-2.3,9.93-2.42.23-3.63,1.1-4.43,2.91-2.72,6.14-8.91,9.19-14.06,13.14-3.95,3.03-7.04,4.84-12.6,1.89s-10.54,4.14-13.07-.07c-.9-1.5-3.08-3.23-4.1-2.67-2.29,1.25-7.76,4.93-7.87,7.56s1.46,4.76,3.81,5.96c3.35,1.71,5.84,7.2,3.33,10.31-.86,1.06-4.76-1.35-5.08-2.64-.73-2.91-3.58-3.44-6.28-2.6l-7.78,2.41c-6.02,1.86-6.62,9.49-4.91,14.96-2.6,3.06-5.91,7.03-8.75,9.22-4.36,1.84-8.84,2.61-12.31,5.65-7.6,6.66-11.77-2.65-19.62-1.6-5.49,5.45-12.73,5.26-19.78,4.29-1.68-.23-5.31,2.63-7.12.93-4.55-4.28-4.09-12.37-10.27-10.98-2.98.67-4.62-.56-7.17-2.06-15.4-9.06-3.03-6.32-14.9-8.66-2.14-.42-4.76-4.37-6.63-5.66-3.84-2.66-8.01-.02-12,1.92-1.74.84-5.15-2.97-6.97-3.25-6.63-1.02-13.2-4.34-14.33-11.41-1.57-1.19-4.78-3.54-5.07-5.25-1.46-8.72,11.92-8.98,8.35-17.16l-1.31-3c-.79-1.81-5.7,2.74-6.97,1.84l-3.88-2.74c-9.06-6.41-13.41-12.97-20.4-8.8-2.37,1.41-6.05.56-8.8.69-10.49.49-21.29.83-28.74-7.06-1.2-1.27-2.82-3.62-2.03-5.01l3.15-5.5c.92-1.6,2.41-3.9,2.17-5.59-.57-4.01-9.3-9.28-11.88-7.19s-5.42,4.48-7.76,4.56c-1.15-2.76-2.52-7.05-4.51-6.94-4.51.26-8.85,3.99-12.37,2.03-1.87-1.05-4.73-4.35-6.38-3.64-4.74,2.04-8.62,2.18-13.04,2.41-1.46.08-4.34,1.39-5.65.87-4.66-1.86-.08-7.37-1.21-9.55-.44-.85-2.69-1.83-3.07-2.76l-2.19-5.38c-.98-2.42-7.16,2.15-15.04-13.07-.38-.73-2.62-3.13-2.93-2.37l-1.48,3.65c-2.18.9-5.52,2.16-8.23,2.82-3.6.88-3.4-4.32-3.43-6.33-.08-6.07-6.54-8.77-11.85-7.25-6.28,1.8-6.36,6.84-11.91,6.32-1.51-.14-4.15-2.14-5.63-2.67-3.57-.4-3.48,4.93-2.12,7,.4.62,2.21,2.65,2.64,2.09l2.02-2.67,10.73-.75c1.96-.14,5.08,1.49,6.12,3.08.83,1.27,1.43,4.56.5,5.88-1.78,2.5-5.78,1.27-8.28.58-5.66-1.58-11.81,7.75-17.94,8.97l-4.61-5.4-13.27,7.69c-7.02-.34-12.85,1.54-19.38,3.66s-16.08.31-22.01-3.41c-9.22-5.78-9.33,3.65-17.39.18-1.55-.67-2.71-3.06-4.09-4.93l-10.39-14.01-10,1.34c-1,.13-2.97,1.89-3.83,1.52l-3.68-1.59-9.92,3.47c3.42,4.46,3.97,8.75-.42,12.14-5.46,4.21-.01,11.83-11.18,13.53-.78,3.75-3.18,12.07-6.35,13.31-3.45,1.35-3.03,3.38-4.48,6.28-1.24,2.48-7.84,13.94-12.42,9.81-4.26-3.83-9.24-2.93-14.38-.8-2.89,1.2-9-.25-10.23,4.48-3.1,11.95-2.85,20.13-12.88,26.47-7.84,4.95-14.25,4.72-14.79,9.51-.4,3.53.68,6.41,2.77,8.76,4.17,4.69,1.89,11.11-2.53,14.93-2.18,1.88-3.35,4.57-4.81,7.36-1.82,3.47-6.51,5.48-9.47,8.14-1.12,1-2.62,3.85-3.91,3.96-1.95.16-16.21-3.68-20.25-5.35-3.88,3.42-8.53,7.26-12.88,10.5-3.4,2.53-1.31,7.94-1.48,11.09-.28,4.94-5.23,7.51-9.7,7.84-2.9.21-5.14,1.86-7.02,3.85-29.24,31.15-27.38,4.47-43.91,19.83-1.29,1.2-5.85,1.01-6.35,2.49l-2.1,6.2c-2.92,2.26-5.17,4.65-5.76,8.3-.79,4.9-5.9,7.97-10.29,6.52-6.03-1.99-8.4,2.34-12.57,3.6-6.73,2.03-13.21,5.78-17.33,11.92-10.43-1.84-9.05,9.19-14.1,12.58-9.54,6.39-10.62,14-14.93,25.73-.89,2.42-5.44,5.08-8.15,6.31-8.36,3.79-17,5.22-25.94,6.43-5.41.73-9.42.79-14-2.78-1.98-1.54-5.54-2.13-8.12-2.96l-12.18-3.9c-.78-.25-2.15-1.29-2.61-1.92-2.49-3.41,4.52-4.73-.14-13.09-1.3-2.33-2.84-5.05-4.67-6.05s-5.46-.46-7.2-.64c-2.74-1.42-5.81-2.35-9.25-2.26l-13.75.37c-2.72.07-6.04-5.76-10.15-2.64-2.41,1.83-6.46,3.06-9.78,1.89-5.62-1.98-11.45-.7-16.67-1.52-5.34-.83-10.17-2.32-15.76-2.06s-10.21-.06-15.67-.53l-9.26,9.58-10.87-.47c-2.87-.12-6.27-.62-8.77-.16-15.89,2.94-.44-5.65-33.43-1.61-6.95.85-14.17,2.25-18.94,8.38-1.9-1.07-3.68-2.05-4.76-2.41-3.69-1.25.36,6.15-7.05,10.42-3.07,1.77-6.22,4.57-9.21,5.67-2.49.91-4.86,1.47-6.28,2.59-1.53,1.2-1.46,4.36-1.6,7.32-2.43.68-8.08.84-10.86-1.04-2.96-2-6.02-7.02-6.26-9.88l2.47-5.74c-4.96-3.58-8.34-7.12-11.74-11.91l-5.25-3.97c-1.63-1.23-4.5-1.76-6.41-1.04.27,1.34,1.71,4.28.76,4.86l-4.55,2.81c-.81,6.49,2.02,14.85,4.51,21.22-1.06,4.31-6.49,3.25-9.73,3.54-5.67.5-11.34,2.13-17.2,3.37-1.87.39-5.53-2.58-7.41-3.07-12.52-3.23-13.18-1.89-23.07-5.31l-11.3,1.19c-5.83.62-9.37,2.51-13.57,5.92-11.73,4.96-16.95-5.6-23.02,6.12-1.1,1.89-5.35,3.42-8,4.99-.39,2.04-.45,5.92-.39,8.2ZM335.27,236.62c.92-1.99,1.73-3.71,2.19-4.93.64-1.69-9.35-9.83-16.43-8.1-3.92.95-6.52,8.62-4.44,11.92l9.32,14.85c1.4,2.23,4.8,3.65,7.18,2.71,7.42-2.93.55-12.88,2.19-16.45ZM607.25,388.47c1.26-1.78.69-4.87-.22-5.71s-3.86-2.35-4.7-1.43c-1.08,1.18-.55,4.88.57,5.96.87.83,3.64,2.18,4.35,1.19ZM609.29,393.6c-.33-.52-1.81-.64-2.45-.48-1.59,2.7-3.51,7.85-3.21,10.9,4.61,1.52,7.11-8.14,5.67-10.42ZM190.07,838.06c-2.16-4.17-6.46-5.39-11.64-7.29l-.48,11.33c11.77-1.35,8.09,6.3,12.65,8.54,3,1.48,2.3-7.14-.53-12.58ZM1813.81,884.69c.82.46,3.89.67,4.22-.02l1.45-3.07c1.41-2.99.52-8.92-3.8-9.1-2.09-.09-5.33.77-8,1.48.11,4.38,2.52,8.68,6.14,10.71ZM1345.53,983.74c2.55-3.01,5.1-6.8,3.92-10.03-.78-2.13-6.27-1.26-8-2.31-3.47-2.1-7.4-3.16-11.72-1.93l-6.96,1.98c.17,6.36,5.02,4.51,8.04,5.84l14.73,6.46Z"/>
      <path d="M842.67,1048.13H0v-358c3.16-1.67,13.91,7.41,17.77,9.06,8.93,3.82,17.79,7.24,22.6,16.72l11.19.53c6.88,7.21,10.64,20.48,16.75,24.9l9.02,6.52c2.74,1.98,5.74,4.8,9.12,5.89,13.16,4.27,17.67-8.32,30.22.74,8.3,5.99,11.9-1.41,17.83,2.64,4.38,2.99-2.03,10.71,5.71,24.62l6.18,11.1c11.55,20.74.43,12.83,9.2,21.05,1.08,2.97,2.63,7.59,3.58,11.02l2.66,9.6c.4,1.43-.15,4.82-1.22,5.66-5.62,4.42-23.74-11.85-28.11-15.6-2.38-2.04-7.56-1.49-10.49-.52l-7.42,2.46c-3.77,13.5-8.98,11.57-12.63,24.41.47,7.03,5.74,10.33,10.86,13.55,4.67,2.94,9.15,6.99,13.26,10.66,1.23,1.1,3.23,4.97,4.93,5.02,2.86.09,8.81.29,11.29-.73l16.43-6.74c5.54-2.27,10.17,1.35,15.36,1.95,6.8.78,12.17.96,16.16,7.6,14.2,6.62,6.33,5,22.06,6.31l8.5,4.79c2.25,1.27,4,3.54,3.29,6.13-1.66,6.02-9.98,1.25-11.94,8.39-.59,2.14,1.5,6.43,3.53,6.22l9.92-1.03.15,8.4c-2.23,3.58-2.18,7.08,1.85,9.43,2.37,1.38,4.14,4.22,5.74,7.19l10.14.27c5.04,5.02,10.21-3.7,15.48.85s-7.34,7.98,8.66,19.42c7.45,5.32,2.34,6.8,18.78,5.25,8.2-6.31,17.76-7.45,27.65-5.87l9.83,1.57c12.82,2.04,10.41-10.84,17.26-5.37,13.43,10.73,16.57-3.25,26.61,1.98,10.32-9.14,3.92-7.62,21.93-9.16,10.96-.93,4.13-14.96,30.35-11.43l7.38-4.38c3.8,6.43,10.73,21.68,11.54,28.01.88,6.88,3.49,14.73,8.81,19.23,4.34-1.7,7.32,1.26,10.3,1.92l14.14,3.13,12.54-2.69c2.75,7.13,8.37,9.12,15.34,8.35,4.56-.5,19.59,2.62,24.27,4.66,13.13,5.73,9.03-1.4,19.78,5.14,11.82,7.2,9.74,20.41,13.04,21.31,1.72.46,7.36.04,9.14-1,10.78-6.24,5.95-1.81,16.78-6.28,1.93,3.93,5.04,5.83,9.7,6.34l6.97,7.22c-1.65,4.26-1.59,7.4,2.3,9.64,4.58-4.75,2.13-12.27,10.85-16.53l7.95,2.53c1.6,2.7,3.4,4.81,6.28,5.6,1.79.49,4.95-.96,7.32-1.99,4.17-1.81,10.15.56,14.21-.97l8.2-3.09c2.18-.82,5.99,1,7.99.71l13.73-1.93c3.79-.53,7.84-3.59,11.77-1.91,1.69.72,5.19,1.99,6.53,1.23.11-.06,10.21-8.03,10.56-9.02,1.15-3.26,1.85-8.04,3.22-10.86,6.86-14.09,3.3-3.89,10.76-18.98,1.07-2.18,4.02-5.5,5.41-7.98l8.48-15.1,14.65.59c1.34.05,16.68-1.03,17.28,2.11.96,5-3.16,7.45-.66,9.38,2.68,2.06,12.41,2.05,17.62,1.3,2.75-.4,3.32,2.63,3.56,5.2.92,9.93,10.78,6.47,6.21,27.68l9.35,9.6c2.89,8.18,12.38,24.63,22.46,18.52,8.66-5.24,4.47,8.21,17.35,6.3l-.69,5.42c-.17,1.3-.06,3.06.21,4.13Z"/>
      <path class="st0" d="M2560,799.18v37.82c-1.5.05-3.91.48-5.73.81-.5.09-2.54-.29-2.41.19l.69,2.48c.95,3.42,1.01,5.89-2.64,7.34-5.75,2.3-5.1-6.24-11.47-11.72-.76-.65-.54-3.22.28-3.45l4.32-1.18-6.78-10.5c-2.23-3.46-.61-6.17,1.29-9.17,2.64-4.17,6.6-5.15,10.9-7.38,3.84-1.99,7.19-5.08,11.54-5.24Z"/>
      <path d="M884.98,1048.13h-17.98c-.14-4.71,2.43-2.33,8.43-9,3.64,2.19,7.82,5.29,9.56,9Z"/>
      <path d="M0,497.13v-13c2.9.46,4.72,3.61,5.11,6.56.43,3.23-2.11,5.4-5.11,6.44Z"/>
      <path d="M335.27,236.62c-1.64,3.57,5.24,13.52-2.19,16.45-2.38.94-5.78-.48-7.18-2.71l-9.32-14.85c-2.07-3.3.52-10.97,4.44-11.92,7.08-1.72,17.08,6.41,16.43,8.1-.46,1.21-1.27,2.94-2.19,4.93Z"/>
      <path d="M1345.53,983.74l-14.73-6.46c-3.03-1.33-7.88.52-8.04-5.84l6.96-1.98c4.32-1.23,8.25-.17,11.72,1.93,1.74,1.05,7.22.18,8,2.31,1.18,3.23-1.37,7.02-3.92,10.03Z"/>
      <path d="M190.07,838.06c2.82,5.45,3.53,14.06.53,12.58-4.56-2.24-.88-9.89-12.65-8.54l.48-11.33c5.18,1.89,9.48,3.12,11.64,7.29Z"/>
      <path d="M1813.81,884.69c-3.62-2.03-6.03-6.32-6.14-10.71,2.67-.71,5.91-1.57,8-1.48,4.32.18,5.21,6.11,3.8,9.1l-1.45,3.07c-.32.69-3.39.48-4.22.02Z"/>
      <path d="M609.29,393.6c1.45,2.28-1.05,11.94-5.67,10.42-.3-3.05,1.62-8.19,3.21-10.9.64-.17,2.12-.04,2.45.48Z"/>
      <path d="M607.25,388.47c-.7.99-3.48-.35-4.35-1.19-1.12-1.08-1.66-4.78-.57-5.96.84-.91,3.79.6,4.7,1.43s1.48,3.93.22,5.71Z"/>
    </g>
  </g>
  <g id="_生成オブジェクト" data-name="生成オブジェクト">
    <path class="st0" d="M616.31,175.95c18.05,19.38,67.76,45.86,87.35,69.99l18.36,22.63c9.13,18.48,18.38,36.81,25.95,57.47,13.77,37.59,36.64,68.9,62.76,98.53l19.56,22.2c4.48,5.09,60.5,65.4,58.66,40.47,3.21,11.71,13.65,24.67,27.19,25.43,10.69.6,20.11-3.41,30.37-3.64l77.4-1.75c5.88-.13,11.73-2.48,17.2-1.35.73.15,1.58.15,2.31,0,15.31-3.06,31.8-2.18,46-8.4-.76,2.07,2.84,2.61,4.16,3.08,29.33,3.37,57.54,11.08,83.88,26.42,10.86,6.33,22.02,11.42,32.49,18.72,37.9,26.41,77.5,46.14,122.11,54.38,1.61.3,2.39,2.1,2.49,3.75.09,1.44-.43,2.5-2.79,3.73l-24.36,12.81c14.55-10.55-37.54,5.96-30.5,1.67l-18.63,11.35c-6.53,3.98-16.21-3.48-22.47.87-8.56,5.95-18.61,2.46-28.82,2.64-8.23.14-3.24,9.48-16.85,12.36-.8.17-.31,1.76-2.91,4.37-.36-5.06-1.22-7.9-5.46-10.16-10.26-5.5-7.5,5.41-22.83,3.71-2.53,11.13-12.46,13.35-20,19.26-15.45,12.11-24,11.97-26.15,16.55-4.01,8.58,18.2-4.12,19.02.93-4.32,2.26-8.03,3.16-7.38,9.14,4.97-1.59,9.56-.75,13.85,2.34,5.51-.72,4.94,1.08-.25,3.83-6.21-8.25-11.85-1.79-15.8-1.82-20.57-.14-59.07,13.43-74.46,30.83-18.05,20.4-37.05,32.44-58.34,46.91-3.87,2.63-8.33,4.36-9.12,10.79,3.31,1.41,5.65-1.24,8.33-.86,48.82-27.86-80.34,51.46-34.97,27.41-22.55,7.52-45.57,17.09-71.67,16.11-41.01-1.54-77.61-22.18-98.31-56.56-1.23-2.04-1.08-4.5-.55-6.42.23-.84,2.36-.47,2.54-2.87-9.19-18.11-12.59-36.51-15.82-55.57l-12.6-74.42c7.92,4.65-10.04-47.98-11.84-55.31-2.96-12.03-10.59-21.71-12.3-35.46-.28-2.25-6.07-2.07-4.54-6.95,5.23-2.27,2.06-6.21-1.92-1.99-6.97-23.17-14.85-18.16-21.58-32.68-5.63-12.13-15.88-12.12-15.1-22.25-1.54-.2-2.97,2.86-3.69,2.52-10.88-5.23,11.84-4.82-50.42-28.94-8.13-3.15-21.69-2.97-29.75-.18l-30.86,10.67c7.14-19.64,12.01-40.65,27.42-57.96,5.11-5.74,15.58-10.43,11.95-18.48l-16.6-36.83c-15.8-35.06-24.64-133.17-16.31-172.76,3.08-3.24,6.03-9.48,9.35-14.11l25.24,13.85Z"/>
    <path class="st0" d="M734.55,152.82c.69,1.17.3,1.19.18,2.31-1.25,10.83,17.23,34.05,24.85,39.23-.73,3.27.84,3.69,3.14,6.33,37.58,43.23,74.45,48.93,121.52,70.14,7.79,3.51,14.78,10.59,23.03,11.22,12.15,9.95,25.25,20.33,39.23,27.69,1.81,4.07,6.78,9.83,11.54,9.23,2.98,6.63,49.77,44.06,55.38,43.85,2.73,2.9,7.13,7.16,11.54,6.92,2.23,9.08,45.36,17.62,63.12,15.08,29.29-4.18,54.69-18.68,70.98-45.21,2.91-4.74,3.51-6.65,4.36-11.41,1.46-1.95,4.97-2.08,5.36-6.97.46-5.78,4.72-10.7,3.57-16.11-.63-2.97.3-8.12,1.21-11.12,4.54-15.05-4.62-28.08-12.34-42.67-1.8-4.82,9.39-4.01,13.29-5.17,7.05-2.1,22.52,2.53,25.42,10.61,9.11,25.39,2.39,51.34.48,76.02-8.72,23.12-18.02,45.96-36.64,64.93-14.65,14.92-31.47,28.29-51.09,30.58l-46.64,5.45c-2.13.25-1.96-2.38-1.9-3.05.06-.81-1.73-.75-2.41-.86-15.04-2.38-43.71-8.02-59.84-12.13l-55.66-20.62c-1.02-20.57,16.66-22.08,7.08-36.6-9.12-13.82-23.36-15.16-37.19-17.16-77.33-11.15-107.06-53.79-153.47-113.05-3.14,3.89-5.4,6.89-6.07,9.73l-18.25-22.8c-4.45-5.56-9.13-9.45-16.57-13.34-4.84-2.53-7.86-9.28-13.8-11.48-30.48-11.32-57.06-28.02-84.62-42.42,1.68-16.28.66-33.43-10.86-46.37-13.53-15.2-33.08-18.27-54.99-19.93,31.19-28.83,99.86-75.52,135.42-51.08,4.24,2.91,13.13,10.38,8.41,15.54-25.57,27.93-9.42,30.43-22.56,39.96-.67,1.53,3.38,5.64,4.02,4.51l12.68-22.34c2.02-3.57,6.74-6.82,11.81-9.05,2.33,3.41,5.05,6.34,8.39,7.74,12.17,5.1,3.83-7.44,20.07,0,7.45,3.41,10.77-19.12-22.62-38.43-53.63-31-118.77,18.04-161.58,53.17l-40.96,6.65-23.48,5.37c-2.83.65-5.62,1.6-8.44,2.31,7.32-14.28,33.09-25.56,46.88-40.82,5.37-5.94,10.69-8.53,17-13.28,37.94-28.55,83.6-47.07,131.84-39.86,37.04,5.54,74.76,24.25,82.21,64.13,6.48,34.71-38.03,57.43-22.03,84.64Z"/>
    <path class="st0" d="M1765.86,667.04c7.05,6.5,13.46,16.6,22.74,21.34,8.07,15.13,19.9,28.91,33.86,40.21.93-6.96-10.66-8.35-6.9-12.54,5.28-1.99,4.77-4.18,3.5-5.82-2.27-2.92-4.83-3.53-7.06-6.92,4.51-2.74,8.32,1.37,14.1.06-1.44-3.62-4.72-4.28-2.82-7.29,1.41-2.25,10.7-5.82,15.01-7.55,3.89-1.57,1.09-5.55,2.57-7.3,14.88-17.65,23.95,6.35,29.93-16.13,11.14,9.57.46,27.7-5.24,33.84,6.03-.5,2.74,4.94,6.48,6.4,10.44-11.67,13.64-26.38,12.92-41.11-.09-1.84,7.85-1.52,5.6-6.43-1.69-3.69,2.99-13.1,6.89-11.54,10.02,4.01,17.09,8.29,24.87,10.71,1.27-5.19,7.28-3.91,10.13-5.02-.41,4.58-3.35,5-4.11,5.54s1.19,1.16,1.35,3.97c.17,3.04,2.46-.89,4.59-.99,6.96-.33,14.17,4.05,19.74-.47,3.49-2.83,11.72,4.16,17.26,1.05l-15.5,36.97c-7.67,18.3-11.02,37.98-23.33,52.48-7.91,3.6-12.04,12.18-19.92,17.74-2.23,1.58-5.96,1.95-6.01,5.34-4.24.33-11,2.79-12.19,6.76-5.08,4.83-19.18,6.4-26.62,6.64.39-5.13,6.59-7.54,8.45-13.07-2.5-1.87-6.64-1.79-6.46-4.53,2.96-.62,1.53-2.05,1.78-5.99.05-3.37,15.29-.09,17.55-.38s1.19-4.44,2.42-5.02c6.05-2.82,9.58-6.9,10.85-14.96,4.75,3.79.67,7.59.29,13.45,21.63-12.28,34.76-37.24,39.53-61.32-12.35,6.11-11.53,14.7-22.32,28.07-.36.57,1.34,1.61,1.92,2.01,1.84,1.25-1.03,2.34-1.34,3.46-.86,3.06-3.52-2.31-4.37-1.23-9.39,12.01-42.98,27.63-57.93,21.19,2.16,4.16,5.75,7.08,3.24,9.98-9.42-.75-22.95-.07-30.81-5.76-3.31-2.4-36.56-30.22-40.94-28.52-.55-1.25-1.57-4.99-3.17-6.49-41.43-38.8-64.61-81.53-125.68-77.86-5.96.42-2.07,3.22,3.46,2.54-2.18,5.78-7.56,1.17-11.67.6-8.63-1.2-40.63,8.56-48.67,17.21-6.57,19.91-2.47-8.07-20.02,16.9-1.17-4.9-3.63,1.12-8.27.04-2.92,2.78-4.12,9.49-6.7,14.38-8.41-2.97-8.26,2.2-10.76,6.02-7.63,11.62-19.04,19.74-28.94,29.66-6.98,7-9.53,21.5-20.78,23.32-3.39-.79-7.23.9-7.51-.46l-1.94-9.22c1.41,6.22-6.57,5.61-8.38,8.4-13.04,20.15-25.92,39.74-44.16,55.73-5.38,4.72-14.54,4.23-20.68.48,8.57-10.05,16.78-18.26,26.74-27.79.79-5.35-1.56-9.73-.24-16.31.48-2.37,2.82-1.5,4.21-2.82.76-.72-2.69-1.76-3.63-2.38-.57-.38-.39,1.54-3.01.81-10.06,12.8-31.75,29.88-44.93,40.98-2.01,1.69-1.59,7.92-5.39,9.25-2.37.83-7.67-1.35-8.9.84-2.54,4.98-14.99,9.43-20.32,10.64-2.68.61-1.55,8.12,1.95,7.86,8.44-.62,22.39-.8,25.48-3.71,1.86.89.85,2.5.95,3.7-11.77,7.21-20.79,7.93-18.1,13.91-1.44,0-2.45-2.09-5.59-.49-1.73.88-1.38-3.05-2.73-2.95s-2.92-.17-3.5.46c-.68.75-.34,3.73-1.05,4.42-12.92,2.83-24.17-8.18-31.61-3.86-1.37-1.41.87-3.75-.91-4.19-1.31-.32-2.39-1.54-3.49-2.03-39.25-17.56-56.16-60.03-38.94-99.72,5.24-12.07-8.25-14.2-6.39-19.59,2.94-8.51-21.63-15.9-26.95-11.91-12.5,9.39-4.74,27.11,1.17,37.62l11.52,20.47c-10.06-3.55-22.96-29.49-25.16-38.77,2.58-7.66.44-18.07,8.49-24.57,11.32-9.14,23.15-19.57,35.35-25.76,2.22,4.94,6.58-3.4,9.25-3.31,7.97.28,12.32-1.94,18.27-7.84,7.83-7.76,18.42,0,27.1,2.73,39.6,12.5,37.23,13.01,55.52,47.94-3.35-9.41-4.88,18.04-6.98,29.94-.38,2.16,4.81,2.61,5.29,4.32,1.12,3.9-6.18,6.02-4.98,12.47.34,1.84,3.39,3.02,4.99,6.21,2.06,4.12,15.1,3.33,18.88-1.22,2.88-3.48,7.28-6.6,8.07-12.39.35-2.52,3.25-5.65,1.62-7.48-2.39-2.68-9.38-2.43-9.77-7.91-.15-2.06,3.9-2.44,2.35-7.6,2.33,3.95,5.81,4.24,11.66,5.64-2.52,5.42-3.53,7.63-1.62,8.91,2.93,1.95,6.85,2.35,8.6-.23,8.15-12.03-7.61,12.49,17.57-10.3,1.82-1.65,3.78-3.81,4.37-6.26,11.39-6.46,17.84-20.77,31.1-25.19l-25.9,29.35c-2.58,2.92,2.6,5.66,5.32,4.71-1.31.46,15.94-20.16,26.37-24.07,6.06-2.27,7.86-10.28,15.34-7.42-1.14-2.63.58-3.43,1.48-4.45,1.03-1.17,3.76-2.06,5.28,1.2,4.72-4.68,7.96-10.42,13.38-14.8,30.32-24.48,61.85-44.86,98.44-59.49,36-14.39,74.92-10.76,103.25,15.38l30.88,28.49Z"/>
    <path class="st0" d="M1342.9,148.22c-.74,1.21-2.67,3.5-1.36,4.87,39.45,41.27,58.41,51.69,89.13,103.71-1.44-.25-2.57.1-3.99,1.25-1.58,1.28-1.19,1.76-.54,4.14l6.64,24.55c-3.48,1.72-6.18-.98-9.13-1.09-6.95-7.52-19.18-13.57-22.33-23.97-4.01-38.83-60.1-54.15-91.73-54.4-14.15-.11-30.09,3.53-39.24,14.41-6.79,8.07-10.44,17.07-7.97,25.78-7.68,6.04-.34,15.34-3.85,39.29-1.36,9.27,5.55,17.27,4.74,25.99-2.79,2.04-2.81.34-1.72-4.89-4.29-1.77-3.18,2.64-3.63,5.3-.6,3.56.45,5.85,4.73,7.14-3.34,3.89-2.46,3.84-3.22,3.57-2.51-.91-5.95,1.48-3.25,4.29,2.83-.14,2.14.29,2.65,1.06.71,1.07,2.41,3.18.36,3.76-1.42.4-2.99-.83-5.09-2.21-2.2,12.73-2.01,15.81-9.99,26.24-7.26,9.49-23.91,14.69-27.36,24.39l-3.03,8.51c-4.79,13.44-28.42,19.87-43.48,25.73l.72-9.69c.24-3.25-1.5-4.9-3.73-8.37,20.25-3.57,27.85-43.4,34.12-56.12,1.51-3.06,1.39-7.31-.94-8.65,1.91-24.68,8.63-50.63-.48-76.02-2.9-8.09-18.37-12.71-25.42-10.61-3.9,1.16-15.09.35-13.29,5.17,7.73,14.58,16.89,27.62,12.34,42.67-1.28-.15-3.31,2.08-4.9,1.07-25.9-16.42-40.22-44.24-40.31-75.53-.12-39.02,18.13-75.56,47.07-100.35,33.89-29.02,75.11-27.91,110.47-6.12l57.03,35.14Z"/>
    <path class="st0" d="M406.72,203.43c6.06,21.47,22.9,36.52,43.02,44.93,25.76,10.77,57.13,7.76,72.96-21.98.74-1.38-.94-5.42,1.08-6.21,21.84,40.45,12.28,111.06-1.49,154.61-11.58,36.61-34.97,63.24-62.71,87.27-6.65-1-14.59,13.58-49.07,13.56-8.91-7.37-19-13.5-22.47-25.09,12.87-6.07,12.87,10.33,33.22,3.37,10.25-3.51,14.62-10.49,17.42-19.93,3.52-11.84,1.5-23.98-12.25-31.89-5.69-3.27-15.54-7.76-22.36-7.02l-1.36-8.98c-.48-3.16,13.92-32.8,8-39.4-2.9-3.23.07-5.88.28-9.22,7.14,2.05,5.76-50.88-.07-48.46-.37-2.86-.14-6.94-.77-9.23,2.94-8.91.63-17.55-2.42-26.86-3.39-10.34-.26-24.6-8.54-33.14-.31-.93-.38-1.22-.19-2.31,1.31-7.54,3.69-29.3,2.7-37.07,5.07-.67-.39,3.91,5.02,23.06Z"/>
    <path class="st0" d="M1288.32,247.53c-5.55,10.31-10.47,20.51-12.41,34.52-5.26,37.86-17.06,71.97-35.41,105.75,10.88,6.17,33.05-32.47,37.09-26.06l-54.08,56.16c-1.82,1.89-.39,7.64.94,7.27.85-.23,2.19-.47,3.47,0,.13.78.16,1.57.12,2.36-1.2.6-2.18.44-2.22,2.24l-2.39-.02c.62-2.69-2.04-2.12-4.3-2.66-.47-3.59-.6-3.29-1.41-2.88-1.93.97-3.88,1.56-3.82,2.96.06,1.58,2.5,2.35,5.32,4.1-31.36,17.59-62.63,40.61-88.1,51.57-.82-1.66,2.42-2.54,2.16-3.54-.34-1.33-2.74-.97-3.36-1.14-1.42-.38-4.72.45-2.36,2.32.61.48,2.04,1.72,1.22,2.78-8.73,5.51,9.86,17.48,26,18.53,9.99.65,15.07,9.82,22.09,12.97,9.29,4.16,15.16,10.54,21.95,16.79,20.75,19.1,47.37,32.75,73.15,45.5,19.56,9.67,39.23,14.91,59.91,16.57,1.55.12,3.41-.47,4.87.02,9.36,3.17,17.97.6,27.49-4.36l71.64-37.32c28.78-14.99,59.61-23.99,92.1-22.18l45.66,2.54c3.88.22,8.65.26,12.49.56,32.56,2.53,62.76-9.94,81.7-37.98,1.91,5.79-19.74,29.66-23.25,32.76-12.98,11.48-29.86,10.81-44.55,14.04-29,6.39-95.4-20.42-175.4,29.52,8.55-5.34-16.82,20.91-9.3,17.86-5.27-2.34-5.12-2.62-12.19-.13-2.63.93-10.94-.33-10.55,4.47.15,1.88,5.36,6.35,1.56,8.01-6.74,2.95-16.26.42-22.66.25-2.66,15.34-10.46,11.62-9.07,16.76,1.15,4.26,6.83,10.72,11.63,12.98,18.65,8.78,33.01,21.79,45.01,39.82,11.43-5.07-7.19-19.93-.09-19.99,1.71-.02,2.81,3.33,5.38,3.5,3.37.22,3.67-3.41,5.16-3.76,11.17-2.68.89,7.52,12.37,4.99.05,4.88-2.78,10.15-.96,16.07,4.24,13.83,8.79,26.43,11.18,39.43.83,4.51-.83,9.31,2.06,13.98,2.84-.88,4.68-2.03,6.73-2.11-.59,2.45-2.55,4.62-4.37,6.26-2.99.96-7.27.7-10.1,0-5.03-1.24-.65-8.39-2.1-11.42-8.54-17.8,1.33-8.55-5.86-26.09-1.18-2.88-4.45.51-6.18.93-.83.2-6.24,16.33-16.84,23.42-3.73-29.98-20.67-52.22-44.36-67.03-14.36-8.97-18.85-16.27-45.01-6.87-14.51,5.21-30.22,11.25-35.38,27.17-12.2,6.18-24.04,16.62-35.35,25.76-8.05,6.5-5.9,16.91-8.49,24.57-10.99-8.43-5.03-22.12,4.44-31.64,5.24-5.27,12.08-7.93,15.37-13.31-4.33-2.09-7.8-4.79-8.27-6.59-1.22-4.74,8.88-1.6,17.29-11.59,2.44-2.9-3.31-7.12-2.89-10.62.62-5.08,8.74-9.77,13.37-11.97,8.77-4.17,14.05-10.14,21.2-13.9l24.36-12.81c2.35-1.24,2.87-2.29,2.79-3.73-.1-1.65-.88-3.46-2.49-3.75-44.61-8.24-84.21-27.97-122.11-54.38-10.47-7.3-21.62-12.4-32.49-18.72-26.35-15.34-54.55-23.05-83.88-26.42-1.33-.46-4.92-1-4.16-3.08l6.94-3.04c1.91-.84,4.18.33,4.72-1.17.31-.87-.05-2.17.03-3.57,6.6,3.82,15.77-.74,21.29-6.61-8.92-.8-14.84,5.14-21.29,6.61-5.68,1.29-66.59,10.72-57.69,16.18-.73.15-1.58.15-2.31,0,.9-4.12-.86-4.2-3.44-4.9-3.56-.96-5.3,2.35-7.78,2.41-17.3.42-33.2-1.16-49.35-3.22-14.12-1.8-35.5.07-36.37-4.63s16.52-12.3,20.92-17.26c6.8,15.73,28.48,16.57,45.66,11.67,6.86-1.96,13.62,4.31,17.68,2.69,5.48-2.19,37.89-2.44,46.26-6.24,10.97-4.98,21.12-7.52,32.51-9.07,7.7-1.04,15.03-4.59,22.91-6.97,6.5-1.97,13.91.65,20.36-4.74,14.21-11.88,33.73-18.32,47.24-33.27,6.44-7.12,10.79-14.25,18.93-21.44,4.3-3.8,41.79-57.12,27.47-53.95,7.98-10.43,7.79-13.51,9.99-26.24,2.11,1.38,3.67,2.61,5.09,2.21,2.05-.58.36-2.69-.36-3.76-.51-.77.18-1.2-2.65-1.06-2.7-2.81.74-5.2,3.25-4.29.76.27-.12.32,3.22-3.57-4.28-1.29-5.33-3.58-4.73-7.14.45-2.66-.66-7.07,3.63-5.3-1.09,5.23-1.07,6.93,1.72,4.89.81-8.72-6.1-16.72-4.74-25.99,3.51-23.95-3.83-33.25,3.85-39.29,3.18-2.5,8.11-2.93,8.42-8.85,2.31,7.76,6.83,5.3,9.96,4.44,1.81-.5,24.47-30.51,32.04-22.02,4.71,5.28-9.91-.56-24.48,26.5Z"/>
    <path class="st0" d="M1742.69,689.26c-.45,8.44-34.26,5.99-52.06,10.29-15.17,3.66-29.75,15.07-47.73,21.28,1.48,5.12,4.73,1.43,6.32,3.62,1.1,1.51,1.93,3.11-.1,4.52-4.26.49-9.16,3.22-10.32,7.69-3.89-.87-5.54,1.65-6.92,4.62-5.64,1.03-13.62,3.9-16.15,9.23-2.58.54-4.56.56-6.92,2.31-.74.13-1.59-.21-2.31,0-18.93,5.43-38.45,9-59.99,2.79l-27.36-7.89c36.08-45.32,102.54-110.34,167.88-93.54,23.74,6.1,39.66,20.61,55.67,35.09Z"/>
    <path class="st0" d="M1789.55,724.36c2.05,4.69,12.13,10.24,12.15,18.29l-59.02-53.39c-16-14.48-31.93-28.99-55.67-35.09-65.34-16.8-131.8,48.22-167.88,93.54-.8,1-2.52,1.24-1.01,2.58-2.25-.4-3.89,2.7-5.55,5.09l-22.17,31.85c-9.65,13.85-20.42,26.62-33.89,36.67l-29.26,21.83c-15.88,11.85-93.65,18.45-120.71,16.7-44.72-2.9-70.37-29.61-90.65-63.46-28.33-36.26,29.71,34.08,14.28,15.45,1.61,1.94,2.32-5.48,4.54-4.51,5.05,2.2,6.61,9.11,10.61,7.12,4.58-2.28,7.21-5.48,5.49-11.13l-5.71-18.85c2.26.72,4.13-1.69,5.54-1.05-1.25,4.3-.48,10.94,3.77,9.3.91,12.15,7.92,22.18,16.91,32.23,4.18-1.64,5.64-.26,3.53,2.02,3.58,4.45,11.76,2.87,17.61,5.52,3.93,1.78,7.63,4.96,12.78,5.05,7.89.14,24,1.94,30.76-1.98,7.44-4.32,18.69,6.69,31.61,3.86.71-.7.37-3.67,1.05-4.42.58-.64,2.18-.36,3.5-.46s1,3.82,2.73,2.95c3.14-1.59,4.14.49,5.59.49,34.56-.02,12.24-10.91,40.75-10.12-4.88,6.63-12.27,3.12-13.64,12.06,5.21-3.4,11.29-3.45,14.78-9.14,4.21-6.85,12.87-9.25,15.34-18.12-17.45-10.24-20.07-.29-39.14,11.41-.1-1.2.92-2.8-.95-3.7-3.09,2.92-17.05,3.09-25.48,3.71-3.5.26-4.63-7.25-1.95-7.86,5.32-1.21,17.77-5.66,20.32-10.64,1.23-2.19,6.53-.02,8.9-.84,3.8-1.33,3.38-7.56,5.39-9.25,13.18-11.1,34.88-28.18,44.93-40.98,2.61.73,2.43-1.18,3.01-.81.94.62,4.39,1.66,3.63,2.38-1.4,1.32-3.74.46-4.21,2.82-1.32,6.57,1.03,10.96.24,16.31-9.96,9.53-18.17,17.74-26.74,27.79,6.14,3.76,15.3,4.24,20.68-.48,18.24-15.99,31.12-35.58,44.16-55.73,1.81-2.79,9.8-2.18,8.38-8.4l1.94,9.22c.29,1.36,4.12-.33,7.51.46,11.26-1.82,13.8-16.32,20.78-23.32,9.9-9.92,21.31-18.04,28.94-29.66,2.5-3.81,2.35-8.98,10.76-6.02,2.58-4.89,3.78-11.6,6.7-14.38,4.65,1.08,7.1-4.94,8.27-.04,17.55-24.97,13.45,3.01,20.02-16.9,8.04-8.65,40.04-18.42,48.67-17.21,4.11.57,9.48,5.18,11.67-.6-5.53.68-9.41-2.12-3.46-2.54,61.07-3.67,84.24,39.06,125.68,77.86,1.6,1.5,2.62,5.24,3.17,6.49Z"/>
    <path class="st0" d="M1223.42,429.74c-.09,2.37-.13,4.67.53,6.92.8,2.74,1.08,6.52.11,9.23.01-.03-3.95,22.67,3.97,23.08.84,3.01-2.21,8.53,2.31,9.23-.07.76.14,1.56,0,2.31-.28,1.53.76,2.64,2.31,2.31-.1.66-.24,1.71,0,2.31,3.75,9.31,35.49,45.16,41.35,48.44,8.48,4.75,66.15,46.25,57.88,60.02-20.69-1.67-40.36-6.9-59.91-16.57-25.78-12.75-52.4-26.4-73.15-45.5-6.79-6.25-12.67-12.64-21.95-16.79-7.02-3.14-12.1-12.32-22.09-12.97-16.14-1.05-34.73-13.02-26-18.53.6-.66,1.7-.14,2.34-.41,25.47-10.96,56.74-33.97,88.1-51.57-2.83-1.75-5.26-2.52-5.32-4.1-.06-1.4,1.89-1.99,3.82-2.96.81-.4.94-.71,1.41,2.88,2.26.54,4.92-.02,4.3,2.66Z"/>
    <path class="st0" d="M1320,378.2c-1.53.55-2.61.98-4.08,1.13-8.75.93-17.29,6.94-23.27,13.23-1.28.19-3.22-.57-4.62.18l-60.12,32.43c-1.29-.48-2.63-.24-3.47,0-1.33.37-2.76-5.38-.94-7.27l54.08-56.16c-4.04-6.41-26.21,32.23-37.09,26.06,18.35-33.78,30.15-67.89,35.41-105.75,1.95-14.01,6.86-24.21,12.41-34.52,23.06,15.57,10.77,6.83,22.4,9.53l20.3,4.73c1.48.34,2.27,5.19,4.07,4.2,9.16-5.04,5.28-16.33,16.88-27.36,8.37,5.56,15.9,16.28,14.68,26.52-.2,1.65-6.59,2.73-6.1,4.17,3.34,9.72-9.03,9.73-25.34,21.45l-6.86,4.93c-11.51,8.27-17.39,22.31-22.92,36-6.95,17.22,14,35.66,14.57,46.5Z"/>
    <path class="st0" d="M1401.31,261.68c-4.99,5.95-20.08-.06-30.08,2.18-.87,8.83-5.11,15.51-12.24,19.9-8.19,5.05-12.81,13.07-19.52,19.8-7.89,7.91-15.47,14.78-15.73,27.41-.06,2.79-4.65,5.98-3.18,9.72.84,2.12,3.37,3.74,5.28,6.6,12.83,19.25,16.51-.93,20.44,15.85l2.33,9.94c.81,3.45-3.09,2.55-5.39,5.52-15.43.26-4.31-7.24-23.23-.41-.57-10.84-21.52-29.28-14.57-46.5,5.53-13.69,11.41-27.73,22.92-36l6.86-4.93c16.31-11.73,28.68-11.73,25.34-21.45-.49-1.43,5.9-2.51,6.1-4.17,1.22-10.23-6.31-20.95-14.68-26.52-11.61,11.03-7.73,22.33-16.88,27.36-1.8.99-2.59-3.86-4.07-4.2l-20.3-4.73c-11.63-2.71.66,6.04-22.4-9.53,14.57-27.06,29.19-21.22,24.48-26.5-7.57-8.48-30.23,21.52-32.04,22.02-3.13.86-7.65,3.32-9.96-4.44-.31,5.92-5.24,6.36-8.42,8.85-2.47-8.71,1.18-17.71,7.97-25.78,9.15-10.88,25.1-14.52,39.24-14.41,31.63.25,87.72,15.56,91.73,54.4Z"/>
    <path class="st0" d="M1430.67,256.8c8.22,13.91,14.4,28.53,20.82,44.22,6.52,15.94,13.39,31.16,12.17,48.27.46,3.15-2.02,4.34-3.82,4.32-3.92-.04-8.38.92-8.45-3.47,4.54-2.49,1.78-4.4-.98-3.24-4.65,6.2-10.18,10.51-16.67,11.18-3.64-9.45-58.14,6.9-63.68,15.62-.57,8.74,9.31,14.4,13.84,19.44,8.15,9.06,18.17,9.54,28.6,9.51-1,1.51.95,1.76,1.92,3.41-16.71,10.1-27.74,1.77-27.15,7.7-11.04-.83-19.69-6.72-27.15-14.44,12.87-.78-16.81-17.91-2.36-41.88-.33,3.94,56.69-19.39,53.45-24.34-10.19,3.12-47.33,5.76-40.41-7.18,4.09-3.38,8.51-7.56,11.9-11.59.37.83-1.09,2.95-.31,3.18s2.45,2.78,4.71,2.89c16.19.81,40.96-2.21,42.61-20.93.36-4.09-3.67-12.34-8.27-13.58.52-1.64,1.2-.27,2.2-.24,2.95.11,5.65,2.81,9.13,1.09l-6.64-24.55c-.64-2.38-1.04-2.87.54-4.14,1.43-1.15,2.55-1.51,3.99-1.25Z"/>
    <path class="st0" d="M586.02,325.7c1.63,9.69.36,19.29,3.76,30.76-12.15,10.71-14.86,25.55-19.32,38.94-6,17.96-9.28,37.01-6.53,57.18.12.89,2.83-.39,4.1,1.14.52.63-.63,1.56-3.43,1.39-.81-.05-1.17.57-.02,2.23,2.76,1.78,3.27,5.81,4.92,5.96s4.22-.52,5.75-1.05l30.86-10.67c8.06-2.79,21.62-2.97,29.75.18,62.26,24.12,39.55,23.71,50.42,28.94.72.35,2.15-2.72,3.69-2.52-.78,10.13,9.47,10.12,15.1,22.25,6.73,14.52,14.61,9.51,21.58,32.68,3.98-4.22,7.15-.28,1.92,1.99-1.53,4.88,4.26,4.7,4.54,6.95,1.71,13.75,9.35,23.43,12.3,35.46,1.8,7.33,19.76,59.95,11.84,55.31-10.74-63.41-63.12-194.71-155.91-176.47-8.43,1.66-19.17,6.43-26.46,9.8-3.98,11.47-10.68,19.55-15.7,28.22l-1.56-10.38c-6.29,5.72-12.88,10.8-18.49,16.61l5.27-9.09-11.14-6.09c-5.03-2.75-11.06,4.29-16.62.28,10.63-12.31,18.68-23.91,24.06-36.53-2.19-1.57-3.27-3.31-4.45-1.56,14.53-27.56,18.73-71.95,20.88-104.54l1.74-26.49c.32-4.81,4.11-10.1,6.87-14.28,3.95,19.95,2.41,38.33,3.11,58.55.1,2.88,5.3,2.17,7.12,1.57,10.77-3.55,6.38-39.61,10.04-36.7Z"/>
    <path class="st0" d="M1480.32,328.82c-.71,2.14-.76,6.29-1.17,8.79-2.49.61-2.41-.07-1.69-.89,1.77-2.02,2.94-6.16-.79-4.27-2.41,1.22-.33,14.15-13.01,16.81,1.22-17.11-5.65-32.33-12.17-48.27-6.42-15.68-12.6-30.3-20.82-44.22-30.71-52.02-49.68-62.44-89.13-103.71,32.64,15.88,61.13,41.6,89.76,66.46,17.6,15.28,58.95,79.47,49.02,109.28Z"/>
    <path class="st0" d="M1423.65,285.65c-1.01-.04-1.68-1.4-2.2.24-5.17-1.39-10.71-4.58-15.79-5.51-8.02-1.47-18.68-2.34-27.09,1.16s-16.51,18.09-13.59,26.54c2.5,7.24,3.19,12.68,5.83,17.83-6.92,12.94,30.22,10.3,40.41,7.18,3.24,4.95-53.78,28.28-53.45,24.34-14.44,23.97,15.23,41.1,2.36,41.88-5.3-5.49-11.86-10.49-10.35-20.81l-6.54.11c2.3-2.97,6.2-2.07,5.39-5.52l-2.33-9.94c-3.93-16.78-7.61,3.4-20.44-15.85-1.91-2.86-4.44-4.48-5.28-6.6-1.47-3.73,3.12-6.93,3.18-9.72.26-12.63,7.84-19.5,15.73-27.41,6.71-6.73,11.33-14.76,19.52-19.8,7.13-4.39,11.37-11.07,12.24-19.9,10-2.24,25.08,3.77,30.08-2.18,3.15,10.4,15.38,16.45,22.33,23.97Z"/>
    <path class="st0" d="M1789.55,724.36c4.38-1.7,37.64,26.12,40.94,28.52-20.68,5.04,22.68,19.97,39.18,16.51-.17,2.74,3.96,2.66,6.46,4.53-1.86,5.52-8.06,7.94-8.45,13.07-30.26.98-55.68-14.88-78.54-34.09-47.88-70.08-104.39-34.61-112.27-36.33-1.51-.33-1.98,2.38-2.84,3.13-1.63,1.43-3.02-.21-4.55-1.71-.67,4.09-2.31,5.93-4.65,6.74-4.07,1.4-10.21,2.26-13.93,4.75-.28-1.57-.8-1.27-1.79-.48,2.03-1.41,1.2-3.02.1-4.52-1.6-2.19-4.84,1.5-6.32-3.62,17.97-6.21,32.55-17.62,47.73-21.28,17.81-4.3,51.61-1.85,52.06-10.29l59.02,53.39c-.02-8.05-10.1-13.6-12.15-18.29Z"/>
    <path class="st0" d="M1122.23,697.47c16.13,6.37,35.01,10.07,47.79,22.7,7.1,7.02,11.08,19.66,15.55,28.27l7.47,14.4-4.3,1.39c-10.35-13.25-24.02-23.3-42.3-28.51-1.65-.47,3.68-4.02,3.02-5.01-1.29-1.93-9.89-1.57-6.6,2.32-1.38.83-3.06-.98-4.54-.79.72-4.07-2.89-5.74-7-6.99-41.66-12.65-60.85,2.09-92.43,28.01-16.44,13.49-33.38,22.28-50.24,31.9-2.68-.39-5.02,2.27-8.33.86.79-6.43,5.24-8.16,9.12-10.79,21.28-14.47,40.29-26.51,58.34-46.91,15.4-17.41,53.89-30.97,74.46-30.83Z"/>
    <path class="st0" d="M539.14,500.59c-36.08,37.34-45.72,19.84-61.45,31.13-7.18,5.16-17.26,7.91-15.01,19.83,23.28-.56,44.68-7.43,62.21-21.97,1.39-1.15,2.93-.63,4.13-.31-18.85,20.87-46.97,24.34-73.99,26.57.07-2.1-.65-3.01-1.77-3.62-1.23-.67-6.65.62-7.38-.6-8.96-15.04-22.91-9.7-16.35-24.25-9.13-6.29-20.94-1.43-30.32-10.07,25.2,5.62,48.36,1.93,71.97-9.52,22.48-10.9,41.88-22.41,57.1-41.58,4.93-6.21,4.98-12.89,7.99-18.59,1.18-1.75,2.26-.01,4.45,1.56-5.38,12.63-13.44,24.22-24.06,36.53,5.56,4.01,11.59-3.03,16.62-.28l11.14,6.09-5.27,9.09Z"/>
    <path class="st0" d="M1245.12,787.06l5.71,18.85c1.71,5.66-.91,8.86-5.49,11.13-4,1.99-5.56-4.91-10.61-7.12-2.22-.97-2.93,6.45-4.54,4.51,15.43,18.62-42.61-51.71-14.28-15.45l-27.16-34.76,4.3-1.39-7.47-14.4c-4.47-8.61-8.44-21.25-15.55-28.27-.29-2.24,6.28-3.95,7.9-2.61,11.52,9.51,33.11,7.58,28.78,6.3,13.95,4.14,23.03,20.33,27.69,33.31l10.74,29.9Z"/>
    <path class="st0" d="M1698.56,432.38c-3.89,7.89-4.92,17.62-9.65,25.05-5.71,8.96-12.57,19.69-16.05,29.58-2.05,1.42-6.2,4.28-5.02,7.86-18.94,28.03-49.14,40.5-81.7,37.98,6.42-13.67,15.49-1.73,37.1-33.27,1.75-2.55,6.27-3.43,4.03-7.53,3.15.79,6.85-1.57,6.89-4.93.02-1.44.37-2.47,2.06-1.99,5.44-4.34,13.44-9.42,16.44-16.15,5.32-3.52,10.46-8.4,13.85-13.85,4.55-2.72,8.93-6.96,11.73-11.54,2.96-4.85,7.41-10.78,12.29-14.22,2.3,1.48,4.96,4.72,8.05,3.02Z"/>
    <path class="st0" d="M378.61,664.97c-.6-7.73-2.18-14.79,3.07-22.64-3.41-.58-4.24,3.67-5.18,1.29-5.73-14.55-22.13-34.84-35.43-23.43-5.93,5.08-5.94,19.68-16.27,19-5.9-18.75-11.71-44.82,10.69-58.72,7.2-4.47,18.94-2.89,25.93,2.4,26.04,19.71,36.74,65.53,17.19,82.1Z"/>
    <path class="st0" d="M1138.32,732.23c-16.08,2.06-32.56,2.3-48.75,9.58-53.67,24.14-62.51,46.27-135.89,70.74-45.37,24.05,83.79-55.26,34.97-27.41,16.86-9.62,33.8-18.41,50.24-31.9,31.58-25.92,50.77-40.66,92.43-28.01,4.11,1.25,7.72,2.91,7,6.99Z"/>
    <path class="st0" d="M115.28,344.53c-6.52-.47-14.35-8.48-17.61-3.66-1.76,2.61,18.48,19.4,6.52,33.98-4.39,5.36-10.06,9.44-9.84,17.04-29.39,7.71-7.6,16.09-34.57,22.85-3.9,3.06-5.36.4.12-1.54,3.64-.89-1.42-2.41-3.02-1.92-1.26.38-2.24-3.81-.16-4.1,1.52-.21,3.1,3.17,5.23,2.7,6.88-1.5.55-5.58,2.44-16.56.57-3.31,7.09-4.4,9.56-3.74,3.25.87,8.01,2.66,11.74.32,9.52-5.99,1.44-17.25,13.86-28.06,6.03-5.25-4.18-15.67-10.95-17.42-10.48-2.71-17.73-.96-26.02,2.54l-11.83,5.01c-2.85,1.21-7.02-1.48-8.95-.61-2.6,1.17-5.13,2.15-9.86,2.1-3.5-.04-4.36,7.55-8.13,7.11-4.16-.49-7.02-3.43-9.4-.46,1.57-1.74-1.7-1.96-2.32-3.74l8.14-18.32c12.85-11.49,27.63-19.97,47.36-15.18,17.29,4.2,33.95,11.67,47.69,21.68Z"/>
    <path class="st0" d="M399.07,555.32c-13.1-1.75-25.76,1.13-39.29-10-12.61-10.38-28.09-23.35-32.38-39.42-4.06-15.21-11.12-29.13-20.24-43.64-.7-1.12.5-5.2-1.86-6.22-1.74-.75,5.74-2.18,7.51.5,12.65,19.15,26.12,36.34,40.22,54.51,13.03,16.79,30.38,29.12,48.63,39.28-1.42,1.35-4,2.83-2.58,4.99Z"/>
    <path class="st0" d="M378.61,664.97c-.86.73-.37,3.17-1.86,2.9-6.61,2.89-13.82,7.98-20.38,2.93,7.59.45,5.24-6.15,3.89-7.75.73-2.96,3.46-5.62-.09-8.11-1.87-1.32-4.61-2.34-6.74-3.3-.71-1.27-1.65-5.79-3.49-5.02-1.58.66-7.53,1.11-8.99,3.07-5.67,7.6,5.1,16.98,11.56,21.87-2.32,4.31-6.28,7.47-6.23,11.87-12.89-10.88-21.51-26.6-21.48-44.23,10.33.68,10.34-13.92,16.27-19,13.31-11.41,29.7,8.88,35.43,23.43.94,2.38,1.76-1.86,5.18-1.29-5.25,7.84-3.67,14.91-3.07,22.64Z"/>
    <path class="st0" d="M559.2,494.37c-7.5,12.96-16.26,27.65-30.18,34.91-1.2-.32-2.74-.85-4.13.31-17.53,14.54-38.93,21.41-62.21,21.97-2.25-11.92,7.83-14.68,15.01-19.83,15.73-11.3,25.37,6.2,61.45-31.13,5.61-5.81,12.2-10.89,18.49-16.61l1.56,10.38Z"/>
    <path class="st0" d="M1479.15,337.62c-2.17,13.39-8.88,25.58-18.43,36.36l-18.32,20.68c-11.86,13.38-26.85,17.74-42.62,20.61-5.59,1.02-8.16-1.2-12.52-1.52-.59-5.93,10.43,2.4,27.15-7.7-.97-1.65-2.93-1.91-1.92-3.41,12.33-.05,28.56-17.25,28.36-25-.2-7.84.83-14.6-7.12-19.56,6.49-.66,12.02-4.98,16.67-11.18,2.76-1.15,5.52.75.98,3.24.07,4.39,4.53,3.43,8.45,3.47,1.81.02,4.28-1.17,3.82-4.32,12.68-2.66,10.6-15.6,13.01-16.81,3.73-1.89,2.57,2.25.79,4.27-.71.81-.8,1.5,1.69.89Z"/>
    <path class="st0" d="M353.42,651.63c-2.83,2.99-3.89,5.63-.19,8.18,2.27,1.57,4.24,3.16,7.02,3.23,1.35,1.6,3.71,8.2-3.89,7.75,6.56,5.05,13.77-.04,20.38-2.93,1.15,2.23,2.44,3.6,2.59,5.29.51,5.75-7.93,4.67-8.25,9.24-.13,1.84,2.35,2.83,3.99,6.13-4.35,3.89-9.09-.62-13.85,4.64,17.16,11.28,36.5,19.48,56.89,15.65,3.78-.71,8.81-5.45,12.01-.03-22.41,10.46-46.33,7.9-69.23.25,1.96-4.07,4.87-1.25,8.86-4.53-11.05-5.17-16.27-15.01-23.47-21.09-.05-4.4,3.91-7.56,6.23-11.87-6.46-4.89-17.24-14.27-11.56-21.87,1.46-1.95,7.41-2.4,8.99-3.07,1.84-.77,2.78,3.75,3.49,5.02Z"/>
    <path class="st0" d="M265.91,344.32c-12.92-3.13-26.71-1.61-39.3-7.39l4.28-4.75c-14.99,16.63,21.88-34.32,22.07-23.57,3.21,4.5,16.24,33.47,12.94,35.71Z"/>
    <path class="st0" d="M23.59,416.24c-5.5,15.28-10.28,30.61-13.72,46.41-.72-8.1-4.7-17.24-2.39-26.01l7.14-27.17c3.91.7,6.08,4.74,8.97,6.77Z"/>
    <path class="st0" d="M958.03,318.98c-4.75.6-9.73-5.16-11.54-9.23,4.63,2.44,8.9,3.35,11.54,9.23Z"/>
    <path class="st0" d="M1013.42,362.82c-5.61.21-52.4-37.22-55.38-43.85,4.04-.51,5.48,2.1,8.73,5.2,15.02,14.35,33.11,24.28,46.65,38.64Z"/>
    <path class="st0" d="M410.16,279.74c-1.41-5.17-9.86-50.67-10.96-60,8.27,8.53,5.15,22.8,8.54,33.14,3.05,9.31,5.35,17.96,2.42,26.86Z"/>
    <path class="st0" d="M1638.8,736.67c-1.06,4.06-3.45,3.98-6.92,4.62,1.38-2.96,3.03-5.48,6.92-4.62Z"/>
    <path class="st0" d="M734.55,152.82c-16-27.21,28.52-49.93,22.03-84.64-7.45-39.88-45.18-58.59-82.21-64.13-48.24-7.21-93.9,11.31-131.84,39.86-6.31,4.75-11.63,7.34-17,13.28-13.8,15.26-39.56,26.55-46.88,40.82-20.5,5.21-4.81,1.48-22.35,11.96-13.29,7.94-30.06,18.68-38.25,31.74l-7.01,11.16c-3.96,6.31-10.08,21.52-9.32,27.5.99,7.77-1.39,29.53-2.7,37.07-8.16-40.22,3.1-71.43,37.84-98.78,5.47-4.31,10.85-8.1,17.43-10.33,5.89-2,8.53-7,12.34-9.88l32.03-24.28,17.96-16.78c11.39-10.65,25.36-17.27,38.14-25.86,37.6-25.27,73.3-35.81,123.17-29.94,28.99,3.42,54.24,17.27,72.45,40.13,7.38,9.26,8.57,19.12,10.48,29.29,2.4,12.74-3.76,25.34-10.49,35.63l-4.59,7.02c-8.22,12.56-14.11,24.87-11.2,39.16Z"/>
    <path class="st0" d="M1024.96,369.74c2.32-.13,7.47.99,9.29,2.03l6.92,2.77c.83,4.42,6.26-4.31,6.67,2.37,10.14,6.76,33.77,3.87,48.15,4.1,1.13.02-.14-4.61,1.65-4.48,1.48.11,2.89-.27,4.14,2.32,3.64,1.49,3.38-1.36,5.01-4.35,1.28.62,3.02,3.45,4.83,2.23,1.45-.98.46-2.93,1.8-4.44.63-.66,3.81,3.5,3.57,1.26-.57-5.3,1.76-1.74,3.22-2.32,19.74-7.88,31.02-26.69,43.22-43.04-.85,4.77-1.45,6.68-4.36,11.41-16.29,26.52-41.69,41.03-70.98,45.21-17.76,2.53-60.89-6-63.12-15.08Z"/>
    <path class="st0" d="M1232.65,482.82c-1.55.33-2.59-.78-2.31-2.31,1.57-.33,2.54.77,2.31,2.31Z"/>
    <path class="st0" d="M1163.42,328.21c1.42-8,6.08-15.69,8.93-23.08,1.15,5.41-3.11,10.33-3.57,16.11-.39,4.89-3.9,5.01-5.36,6.97Z"/>
    <path class="st0" d="M1649.12,728.98c.98-.78,1.51-1.09,1.79.48-3.3,2.21-6.39,8.48-12.11,7.2,1.16-4.46,6.06-7.2,10.32-7.69Z"/>
    <path class="st0" d="M1904.18,339.74c-8.85,4.94-17.82,8.85-27.69,11.54-2.32-2.59,26.4-16.95,27.69-11.54Z"/>
    <path class="st0" d="M1606.49,752.82c-17.83,17.88-68.33,5.68-88.36-2.53-1.52-1.34.21-1.58,1.01-2.58l27.36,7.89c21.54,6.21,41.06,2.65,59.99-2.79Z"/>
    <path class="st0" d="M2111.86,501.79c-4.46-2.98-3.69-6.03-5.55-10.73l-6-15.16c1.01.49,1.57-.42,3.84-2.39,1.55,9.75,7.65,18.28,7.7,28.28Z"/>
    <path class="st0" d="M1636.21,485.13c4.71-5.94,10.05-11.93,16.44-16.15-3,6.74-11,11.81-16.44,16.15Z"/>
    <path class="st0" d="M404.07,395.04c-13.91,1.51-26.3-1.67-39.11-4.87-4.01-5.02,27.02,2.86,30.48,2.31l8.56-20.88c.56-1.38-4.02-3.5-2.29-5.42.81-.91,3.97-.5,4.67-3.22.6-2.34-3.44-3.43-2.35-5.89.55-1.25,3.6-.75,4.43-3.03s.24-4.42.31-5.97c.04-.87.02-1.82,1.95-1.42,5.91,6.6-8.48,36.24-8,39.4l1.36,8.98Z"/>
    <path class="st0" d="M1228.03,468.97c-7.92-.41-3.96-23.11-3.97-23.08,2.74,7.21,1.87,15.5,3.97,23.08Z"/>
    <path class="st0" d="M1876.49,351.28c-5.18,1.41-10.11,3.3-16.27,2.4-1.22-2.09,1.19-2.27,2.14-2.95,4.26-3.96,9.41.31,14.13.55Z"/>
    <path class="st0" d="M907.26,282.05c-8.26-.63-15.24-7.71-23.03-11.22-47.07-21.21-83.95-26.91-121.52-70.14-2.29-2.64-3.86-3.06-3.14-6.33,9.54,6.48,30.97,32.94,56.05,43.69l70.99,30.44c4.41,1.89,8.18,6.23,12.95,7.25s5.65,4.64,7.7,6.31Z"/>
    <path class="st0" d="M1230.34,478.21c-4.52-.7-1.47-6.22-2.31-9.23,3.04.16,1.24,2.47,3.48,4.51,2.06,1.88-.94,2.22-1.17,4.72Z"/>
    <path class="st0" d="M1789.14,752.89c.25,1.43-2.32,3.1-4.55,2.13-37.24-16.11-86.93-7.2-119.75-30.31,2.35-.81,3.99-2.64,4.65-6.74,1.53,1.5,2.92,3.14,4.55,1.71.86-.75,1.33-3.45,2.84-3.13,7.88,1.72,64.39-33.75,112.27,36.33Z"/>
    <path class="st0" d="M1615.72,750.51c-.93,1.96-1.3,1.95-4.4,3.34-1.02.46-2.47,2.34-2.52-1.03,2.36-1.75,4.34-1.76,6.92-2.31Z"/>
    <path class="st0" d="M2084.18,429.74c-4.7.11-3.94-5.52-5.3-7.96l-15.08-27.05c-17.8-31.94-46.47-62.77-83.34-69.12-11.02-1.9-19.36-3.13-30.36.21l-45.92,13.93c22.05-12.32,48.95-21.04,74.94-17.53,6.73.91,14.55,1.99,18.97,3.99,44.67,20.25,67.12,59.91,86.97,100.79-1.04,1.59-.94,2.38-.89,2.74Z"/>
    <path class="st0" d="M1024.96,369.74c-4.4.24-8.81-4.03-11.54-6.92,4.05-.15,10.53,2.81,11.54,6.92Z"/>
    <path class="st0" d="M1666.49,455.13c2.81-4.53,6.9-9.15,11.73-11.54-2.79,4.58-7.17,8.82-11.73,11.54Z"/>
    <path class="st0" d="M759.57,194.36c-7.62-5.18-26.1-28.4-24.85-39.23,2.72,9.05,25.61,35.81,24.85,39.23Z"/>
    <path class="st0" d="M1631.88,741.28c-2.54,5.44-10.52,8.04-16.15,9.23,2.53-5.33,10.52-8.2,16.15-9.23Z"/>
    <path class="st0" d="M1315.92,379.33c-6.26,6.06-14.5,11.96-23.27,13.23,5.98-6.29,14.52-12.3,23.27-13.23Z"/>
    <path class="st0" d="M1228.03,427.53c.05-.79.01-1.58-.12-2.36l60.12-32.43c.7,1.82-2.85,2.02-2.06,5.74l-57.94,29.04Z"/>
    <path class="st0" d="M1336.75,593.61c-1.46-.49-3.32.11-4.87-.02,8.27-13.78-49.4-55.28-57.88-60.02-5.86-3.28-37.6-39.12-41.35-48.44,2.71-.75,4.1.64,5.88,2.21s.99,4.57,2.76,6.99c31.39,42.67,74.57,58.1,94.5,90.91,1.4,2.31.89,6.03.96,8.37Z"/>
    <path class="st0" d="M1480.32,328.82c9.93-29.8-31.42-93.99-49.02-109.28-28.63-24.86-57.11-50.58-89.76-66.46-1.31-1.37.61-3.66,1.36-4.87,62.5,38.51,140.21,98.91,143.77,179.32-2.73.64-4.86,2.04-6.35,1.28Z"/>
    <path class="st0" d="M14.62,409.47l-7.14,27.17c-2.31,8.77,1.68,17.91,2.39,26.01-.62,2.83-2.52,6.22-3.75,9.04-9.57-22.49,3.06-47.41,5.74-64.97,1.78-1.28,3.04,1.02,2.76,2.75Z"/>
    <path class="st0" d="M411,337.44l1.36-21.52c.61-9.74-.33-18.36-1.43-26.94,5.83-2.41,7.21,50.51.07,48.46Z"/>
    <path class="st0" d="M1586.13,532.85c-3.84-.3-8.6-.34-12.49-.56-.25-1.55-.55-2.66-1.52-2.2-1.02.49-4.08.33-4.88-2.5,39.5-6.85,23.41-10.5,41.76-19.46,7.89-3.85,11.58-12.39,18.26-16.09,2.24,4.1-2.29,4.98-4.03,7.53-21.61,31.54-30.68,19.6-37.1,33.27Z"/>
    <path class="st0" d="M1666.49,455.13c-3.38,5.45-8.53,10.33-13.85,13.85,2.35-5.26,5.21-11.15,11.54-13.85h2.31Z"/>
    <path class="st0" d="M2100.34,471.28c-3.61-.87-15.41-36.67-16.15-41.54,2.38-.05,16.31,31.91,16.15,41.54Z"/>
    <path class="st0" d="M1223.95,436.67c-.66-2.26-.63-4.55-.53-6.92l2.39.02c-.25,2.33,1.27,6.39-1.85,6.9Z"/>
    <path class="st0" d="M946.5,309.74c-13.98-7.36-27.08-17.74-39.23-27.69,7.07.54,36.45,21.46,39.23,27.69Z"/>
    <path class="st0" d="M1627.26,492.05c1.94-1.07,4.08-4.45,6.89-4.93-.04,3.36-3.74,5.72-6.89,4.93Z"/>
    <path class="st0" d="M1906.49,773.59c.04-3.39,3.77-3.76,6.01-5.34,7.87-5.56,12-14.14,19.92-17.74.47-.55-12.58,22.04-25.92,23.08Z"/>
    <path class="st0" d="M1906.49,773.59c-.08,6.62-9.49,4.2-12.19,6.76,1.18-3.97,7.95-6.43,12.19-6.76Z"/>
    <path class="st0" d="M1307.4,620.42c-7.15,3.76-12.43,9.73-21.2,13.9-4.63,2.2-12.75,6.89-13.37,11.97-.42,3.5,5.33,7.72,2.89,10.62-8.41,9.99-18.51,6.85-17.29,11.59.46,1.8,3.94,4.5,8.27,6.59-3.29,5.38-10.13,8.04-15.37,13.31-9.46,9.52-15.42,23.2-4.44,31.64,2.2,9.29,15.1,35.23,25.16,38.77l-11.52-20.47c-5.91-10.51-13.67-28.23-1.17-37.62,5.32-4,29.89,3.39,26.95,11.91-1.86,5.38,11.63,7.51,6.39,19.59-17.23,39.7-.31,82.17,38.94,99.72,1.09.49,2.18,1.71,3.49,2.03,1.78.44-.45,2.78.91,4.19-6.76,3.92-22.87,2.12-30.76,1.98-5.15-.09-8.85-3.27-12.78-5.05-5.85-2.65-14.03-1.07-17.61-5.52,2.11-2.28.65-3.66-3.53-2.02-8.99-10.05-16-20.08-16.91-32.23-4.25,1.64-5.02-5-3.77-9.3-1.4-.64-3.28,1.77-5.54,1.05l-10.74-29.9c-4.66-12.98-13.74-29.17-27.69-33.31,4.33,1.29-17.26,3.21-28.78-6.3-1.62-1.34-8.18.37-7.9,2.61-12.78-12.62-31.66-16.32-47.79-22.7,3.95.03,9.6-6.43,15.8,1.82,5.19-2.74,5.77-4.54.25-3.83-4.29-3.09-8.88-3.94-13.85-2.34-.65-5.98,3.07-6.87,7.38-9.14-.82-5.05-23.03,7.64-19.02-.93,2.14-4.58,10.69-4.44,26.15-16.55,7.54-5.91,17.47-8.13,20-19.26,15.33,1.7,12.56-9.21,22.83-3.71,4.24,2.27,5.09,5.11,5.46,10.16,2.6-2.61,2.11-4.21,2.91-4.37,13.61-2.87,8.62-12.22,16.85-12.36,10.2-.18,20.26,3.32,28.82-2.64,6.26-4.35,15.94,3.11,22.47-.87l18.63-11.35c-7.04,4.29,45.05-12.22,30.5-1.67Z"/>
    <path class="st0" d="M756.57,240.02l36.96,54.74,35.39,49.52c8.9,12.45,62.2,65.12,74.24,54.44,1.75-1.55,3.82-4.91,1.56-7.89-1.02-1.34-3.77-4.57-3.08-6.07.95-2.06,4.94-1.51,7.04-.78l37.53,13.1,55.66,20.62c-1.41.09-2.5,2.57-3.58,2.08-9.76-4.42-54.31-22.35-51.79-.4-11.19-5.33-23.82-8.5-36.89-13.31-4.24-1.56-6.95-1.7-9.41,1.34-6.56,8.12,8.57,3,4.6,22.01-3.86-1.92-15.11-3.03-16.91.89-5.78,12.6-1.82,46.49,1.04,56.91,1.84,24.93-54.18-35.38-58.66-40.47l-19.56-22.2c-26.12-29.64-48.99-60.94-62.76-98.53-7.57-20.66-16.82-38.99-25.95-57.47,1.95-1.37,4.36,3.86,6.27,1.46l3.19-3.99c6.58,2.3,6.38,11.36,8.56,18.01,3.78,11.54,11.52,21.17,9.72,33.88-.99,6.99,6.19,16.74,10.47,23.81.76,1.26,3.92-3.18,5.22-2.93,4.25.8,5.17,6.64,6.85,7.2,1.58.52,2.8-2.23,5.64-4.46,15.14,20.98,30.51,41.3,51.11,57.81,11.81,9.47,51.52,36.86,61.68,21.62,2.24-3.36,5.9-10.82,1.2-15.07-3.13-2.82-8-1.65-10.06-6.46-1.67-3.91-36.71-25.7-32.52-22.05-19.9-17.38-35.71-37.24-50.04-58.99l-26.56-40.31c-10.01-15.2-19.74-30.71-33.15-43.68,1.69-3.26,3.92-4.76,4.2-6.03,1.11-5.07-12.63-10.34-5.5-11.17l18.25,22.8Z"/>
    <path class="st0" d="M904.82,429.44c6.14,3.05,18.13,1.28,24.37,2.25,9.55,1.49,16.84,8.26,25.5,3.98,3.36,2.23,3.8-.31,2.06-4.18,4.65-5.02,9.46-.25,12.78.71-.97,3.53-5.88,3.69-6.31,10.19,26.9,8.46,44.18,5.11,68.65,5.79-.51,1.31,1.59,3,3.34,4.44,2.17-2.77,5.24-2.2,8.28-1.59,4.24,10.47-65.79-7.25-74.07,5.67-3.04,4.74.25,16.45-4.34,21.64s-21.81,12.46-20.92,17.26,22.26,2.83,36.37,4.63c16.15,2.05,32.06,3.64,49.35,3.22,2.48-.06,4.22-3.37,7.78-2.41,2.58.7,4.34.78,3.44,4.9-5.47-1.13-11.32,1.21-17.2,1.35l-77.4,1.75c-10.26.23-19.68,4.24-30.37,3.64-13.53-.76-23.98-13.72-27.19-25.43-2.85-10.41-6.82-44.31-1.04-56.91,1.8-3.92,13.04-2.81,16.91-.89Z"/>
    <path class="st0" d="M581.72,176.21c-8.32,39.59.51,137.7,16.31,172.76-12.24-3.54,5.71,13.42,3.32,21.95-3.43,12.25-16.25.83-30.9,24.48,4.47-13.39,7.18-28.22,19.32-38.94-3.4-11.47-2.14-21.07-3.76-30.76-1.4-8.36-4.8-16.77-5.69-25.92l-1.81-18.55c-4.08,2.58-5.65,3.59-8.44,2.55-4.25-1.59-4.36-3.84-4.34-8.81.13-33.53-8.37-65.62-20.71-96.55-.89-2.23.65-4.96.79-7.58.02-.34,16.41-1.54,15.49-1.85,7.71,2.6,2.73,16.07,9.79,16.95,1.9.24,4.89,1.78,5.32-.47l1.64-8.71c.41-2.18,1.28-3.32,1.59-4.33.58-1.93,1.78-1.04,2.3.06.8,1.68.71,2.95-.22,3.7Z"/>
    <path class="st0" d="M632.58,171.4c2.27,1.15,5.04,4.53,8.35,5.65,1.84.62,4.6.41,6.53,1.2,2.87,1.18,3.08,6.09,4.98,5.72,3.25-.66,11.07,2.64,12.97,5.21,2.25,7.91,12.02,6.8,15.68,9.6,48.73,37.29,15.06-4.09,50.4,67.25l-3.19,3.99c-1.91,2.4-4.33-2.83-6.27-1.46l-18.36-22.63c-19.59-24.13-69.3-50.61-87.35-69.99.78-7.86,17.75.85,16.27-4.55Z"/>
    <path class="st0" d="M598.04,348.98l16.6,36.83c3.63,8.06-6.85,12.75-11.95,18.48-15.41,17.31-20.28,38.32-27.42,57.96-1.53.53-4.16,1.19-5.75,1.05s-2.17-4.19-4.92-5.96c-1.15-1.65-.8-2.28.02-2.23,2.8.17,3.96-.76,3.43-1.39-1.27-1.54-3.98-.25-4.1-1.14-2.76-20.16.53-39.21,6.53-57.18,14.65-23.65,27.46-12.23,30.9-24.48,2.39-8.53-15.56-25.48-3.32-21.95Z"/>
    <path class="st0" d="M1101.11,489.74c-.08,1.4.28,2.7-.03,3.57-.54,1.5-2.81.34-4.72,1.17l-6.94,3.04c-14.2,6.22-30.69,5.34-46,8.4-8.9-5.46,52.01-14.89,57.69-16.18Z"/>
    <path class="st0" d="M738.32,217.22c-7.13.83,6.61,6.09,5.5,11.17-.28,1.27-2.51,2.77-4.2,6.03,13.41,12.97,23.13,28.48,33.15,43.68l26.56,40.31c14.33,21.76,30.14,41.61,50.04,58.99-4.19-3.66,30.85,18.14,32.52,22.05,2.05,4.81,6.93,3.64,10.06,6.46,4.71,4.24,1.05,11.7-1.2,15.07-10.17,15.24-49.88-12.16-61.68-21.62-20.6-16.52-35.97-36.84-51.11-57.81-2.84,2.23-4.06,4.98-5.64,4.46-1.69-.56-2.6-6.4-6.85-7.2-1.3-.24-4.46,4.19-5.22,2.93-4.29-7.07-11.46-16.82-10.47-23.81,1.8-12.71-5.94-22.34-9.72-33.88-2.18-6.65-1.98-15.71-8.56-18.01-35.34-71.34-1.67-29.95-50.4-67.25-3.66-2.8-13.43-1.69-15.68-9.6-1.9-2.57-9.72-5.86-12.97-5.21-1.89.37-2.1-4.54-4.98-5.72-1.93-.79-4.69-.58-6.53-1.2-3.31-1.12-6.07-4.51-8.35-5.65-7.11-3.58-13.66-7.02-22.21-9.98,5.01-7.24,8.96-8.81,12.96-11.44,27.56,14.4,54.14,31.11,84.62,42.42,5.94,2.21,8.95,8.95,13.8,11.48,7.43,3.89,12.12,7.78,16.57,13.34Z"/>
    <path class="st0" d="M916.11,343.34c-2.23,4.89,8.91,1.54,7.54,16.19-.32,3.42-3.42,4.93-7.55,8.08-3.61,2.76-5.2,12.86-11.23,13.78-20.55-5.36-40.35-15.13-57.5-28.19-6.46-4.92-11.72-8.28-18.45-8.91l-35.39-49.52-36.96-54.74c.67-2.84,2.93-5.84,6.07-9.73,46.41,59.26,76.14,101.89,153.47,113.05Z"/>
    <path class="st0" d="M518.38,121.22c-2.17-.21-3.64,1.02-5.01,1.46-1.03.33-4.36-20.97-43.49,7.91-11.71,8.64-25.99,12.38-34.51,25.97-2.26-1.53-3.29-1.87-3.49-1.43-7.9,7.9-12.35,18.77-11.66,30.97,1.33,23.45,28.45,27.99,21.02,37.88-25.67-13.46-22.07-31.51-34.52-20.54-5.4-19.15.06-23.73-5.02-23.06-.76-5.98,5.36-21.2,9.32-27.5l7.01-11.16c8.2-13.06,24.97-23.8,38.25-31.74,17.54-10.48,1.85-6.75,22.35-11.96,2.82-.72,5.62-1.67,8.44-2.31-.12,2.17-1.91,4.32,0,7.12,17.15-7.07,33.65-12.53,53.97-11.64-5.05,13.26-15.76,20.29-22.66,30.05Z"/>
    <path class="st0" d="M946.22,397.1l-37.53-13.1c-2.1-.73-6.1-1.28-7.04.78-.69,1.5,2.06,4.73,3.08,6.07,2.26,2.98.2,6.34-1.56,7.89-12.05,10.68-65.35-41.99-74.24-54.44,6.73.63,11.98,3.98,18.45,8.91,17.15,13.07,36.95,22.83,57.5,28.19,6.03-.92,7.62-11.02,11.23-13.78,4.13-3.16,7.23-4.66,7.55-8.08,1.37-14.65-9.78-11.3-7.54-16.19,13.83,1.99,28.07,3.34,37.19,17.16,9.58,14.52-8.1,16.03-7.08,36.6Z"/>
    <path class="st0" d="M1170.24,415.63c-26.66,10.37-52.56,22.68-80.6,31.8-15.93,5.18-31.07,6.6-46.14,3.59-3.04-.61-6.11-1.18-8.28,1.59-1.74-1.44-3.84-3.12-3.34-4.44,13.97.39,27.84-5.1,41.48-7.24,3.65-.58,38.1-4.15,39.31-12.62,19.61-2.29,36.44-15.65,51.09-30.58,18.62-18.97,27.92-41.81,36.64-64.93,2.33,1.34,2.45,5.59.94,8.65-6.26,12.71-13.87,52.54-34.12,56.12,2.24,3.47,3.97,5.12,3.73,8.37l-.72,9.69Z"/>
    <path class="st0" d="M713.1,30.51c33.39,19.3,30.07,41.84,22.62,38.43-16.23-7.44-7.89,5.1-20.07,0-3.34-1.4-6.06-4.33-8.39-7.74-5.06,2.23-9.78,5.49-11.81,9.05l-12.68,22.34c-.64,1.13-4.7-2.98-4.02-4.51,13.15-9.53-3-12.03,22.56-39.96,4.72-5.16-4.17-12.62-8.41-15.54-.25-1.32-1.74-2.33-1.08-5.61,7.07-.1,25.01,9.64,21.28,3.53Z"/>
    <path class="st0" d="M1001.88,417.72c16.12,4.1,44.8,9.75,59.84,12.13,3.05,14.43-101.58-3.95-108.56-7.28l-6.64-3.16c-2.52-21.96,42.03-4.03,51.79.4,1.08.49,2.17-1.98,3.58-2.08Z"/>
    <path class="st0" d="M1061.72,429.84c.68.11,2.48.05,2.41.86-.05.67-.22,3.3,1.9,3.05l46.64-5.45c-1.21,8.47-35.66,12.05-39.31,12.62.88-1.58-.98-2.19-2.2-3.03,1.89,1.29-73.24,2.51-101.63-5.71-3.32-.96-8.13-5.74-12.78-.71,1.74,3.87,1.3,6.41-2.06,4.18-.75-4.71-5.73-8.96-1.54-13.11,6.98,3.33,111.61,21.71,108.56,7.28Z"/>
    <path class="st0" d="M518.38,121.22c-9.42,13.31-15.22,3.69-17.19,25.11-.38,4.18-18.16,15.2-15.17,14.69-1.11.19-2.67-1.54-4.48-3.67-20.97,22.54-7.92,34.93-26.8,35.53,4.31,2.68,10.73,2.96,10.86,7.53.15,5.15,3.41,13.1-3.84,14.29-13.88,2.29-32.69-7-35.98-20.16-5.57-22.25,5.94-30,6.1-39.44.2-.44,1.23-.1,3.49,1.43,8.51-13.59,22.79-17.32,34.51-25.97,39.12-28.88,42.46-7.58,43.49-7.91,1.38-.44,2.84-1.67,5.01-1.46Z"/>
    <path class="st0" d="M441.24,223.97c6.04,3.16,10.82,4.76,17.67,6.12,18.58,3.69,39.68-4.54,49.12-22.24,1.65-3.09,1.41-7.38,6.1-6.5,4.97,5.43,6.28,12.57,9.65,18.81-2.01.79-.34,4.83-1.08,6.21-15.83,29.74-47.2,32.75-72.96,21.98-20.12-8.41-36.96-23.46-43.02-44.93,12.45-10.97,8.85,7.08,34.52,20.54Z"/>
    <path class="st0" d="M438.68,433.95c-2.81,9.44-7.18,16.43-17.42,19.93-20.34,6.96-20.35-9.44-33.22-3.37-4.04-13.49,2.52-29.24,15.97-36.72-.32-5.18,1.94-6.29,3.89-.78,7.65-2.83,15.76,2.94,19.99,8.18.94,1.17,5.43-1.2,6.73,1.99s.8,8.33,4.06,10.76Z"/>
    <path class="st0" d="M73.94,389.57c-3.36-19.7-19.62-16.43-15.78-34.17,2.22-2.69,5.03-5.2,4.41-8.45,8.29-3.51,15.53-5.25,26.02-2.54,6.77,1.75,16.98,12.17,10.95,17.42-12.41,10.81-4.33,22.08-13.86,28.06-3.73,2.35-8.5.55-11.74-.32Z"/>
    <path class="st0" d="M514.14,201.36c-4.7-.87-4.45,3.41-6.1,6.5-9.44,17.7-30.54,25.93-49.12,22.24.21-5.11,5.7-4.65,10.07-6.5,21.6-9.16,26.48-30.76,32.67-33.85,6.83-3.41,9.32,8.14,12.49,11.61Z"/>
    <path class="st0" d="M14.41,360.1c2.37-2.97,5.23-.03,9.4.46,3.77.44,4.62-7.14,8.13-7.11,4.73.05,7.26-.93,9.86-2.1-1.07,1.81,2.72,2.38,2.73,3.43s-2.98,3.06-4.08,4.33c5.77,4.95-8.93,21.92-10.58,22.39-8.69,2.52-17.1-1.67-17.15-1.78.31.59-3.86-20.29,1.69-19.62Z"/>
    <path class="st0" d="M459.57,462.05c-9.44,8.17-19.5,13.18-33.78,18.61-12.26,4.66-26.45-2.88-39.81-4.04-2.37-.21-3.23-3.82-7.45-3.89,14.48-5.02-.45,2.86,31.97,2.88,34.47.02,42.42-14.56,49.07-13.56Z"/>
    <g>
      <path class="st0" d="M713.1,30.51c3.73,6.11-14.21-3.63-21.28-3.53-.66,3.28.84,4.29,1.08,5.61-35.56-24.43-104.23,22.25-135.42,51.08,21.91,1.66,41.46,4.73,54.99,19.93,11.52,12.95,12.54,30.1,10.86,46.37-4,2.64-7.96,4.21-12.96,11.44,8.55,2.96,15.09,6.4,22.21,9.98,1.48,5.4-15.49-3.31-16.27,4.55l-25.24-13.85c-3.32,4.64-6.27,10.87-9.35,14.11.93-.75,1.02-2.02.22-3.7-.53-1.1-1.72-1.98-2.3-.06-.31,1.01-1.18,2.15-1.59,4.33l-1.64,8.71c-.42,2.25-3.41.7-5.32.47-7.06-.88-2.08-14.35-9.79-16.95.92.31-15.47,1.51-15.49,1.85-.15,2.62-1.68,5.35-.79,7.58,12.34,30.93,20.84,63.01,20.71,96.55-.02,4.97.09,7.22,4.34,8.81,2.79,1.04,4.36.03,8.44-2.55l1.81,18.55c.89,9.14,4.29,17.56,5.69,25.92-3.66-2.91.73,33.15-10.04,36.7-1.81.6-7.02,1.3-7.12-1.57-.7-20.22.84-38.6-3.11-58.55-2.76,4.18-6.56,9.47-6.87,14.28l-1.74,26.49c-2.14,32.59-6.34,76.98-20.88,104.54-3.01,5.7-3.06,12.38-7.99,18.59-15.22,19.17-34.61,30.69-57.1,41.58-23.62,11.45-46.77,15.13-71.97,9.52,9.38,8.65,21.19,3.79,30.32,10.07-6.55,14.56,7.4,9.21,16.35,24.25.72,1.22,6.15-.08,7.38.6,1.13.62,1.84,1.52,1.77,3.62-18.9,1.56-36.6,2.07-55.97-.52-1.41-2.16,1.16-3.63,2.58-4.99-18.25-10.17-35.61-22.5-48.63-39.28-14.1-18.17-27.57-35.37-40.22-54.51-1.77-2.68-9.25-1.24-7.51-.5,2.36,1.02,1.16,5.1,1.86,6.22,9.12,14.51,16.18,28.43,20.24,43.64-2.96-.75-3.99-4.41-5.55-7.53-13.53-27.15-25.99-54.49-42.72-79.22-29.16-43.12-83.72-29.63-108.46-34.56-12.09-2.41-23.81-.02-36.65-.88-3-.2-5.77-3-9.7-.26-5.63-.19-3.8,4.05,2.41,1.73-1.98,19.21-18.08,27.9-36.19,32.93-37.03,10.28-30.76,5.46-66.95-1.87-2.89-2.03-5.06-6.08-8.97-6.77.29-1.73-.97-4.03-2.76-2.75-18.13-27.33-15.59-47.26,8.37-68.69l-8.14,18.32c.61,1.78,3.88,2,2.32,3.74-5.55-.66-1.38,20.22-1.69,19.62.06.11,8.46,4.3,17.15,1.78,1.64-.47,16.35-17.44,10.58-22.39,1.09-1.27,4.09-3.24,4.08-4.33s-3.8-1.63-2.73-3.43c1.93-.87,6.1,1.82,8.95.61l11.83-5.01c.62,3.25-2.2,5.76-4.41,8.45-3.83,17.75,12.43,14.48,15.78,34.17-2.46-.66-8.99.43-9.56,3.74-1.89,10.99,4.44,15.07-2.44,16.56-2.13.46-3.7-2.92-5.23-2.7-2.08.29-1.1,4.48.16,4.1,1.6-.48,6.66,1.03,3.02,1.92-5.48,1.94-4.02,4.6-.12,1.54,26.97-6.76,5.19-15.14,34.57-22.85-.22-7.59,5.44-11.68,9.84-17.04,11.96-14.58-8.28-31.37-6.52-33.98,3.26-4.82,11.09,3.19,17.61,3.66,10.26.74,20.77,5.6,31.74,1.39,13.41-5.15,25.54-13.96,40.39-14.98,13.11-.9,27.92.81,39.2,5.99,12.59,5.78,26.37,4.26,39.3,7.39,24.38,5.91,58.2,35.66,99.05,45.86,12.81,3.2,25.2,6.38,39.11,4.87,6.82-.74,16.68,3.75,22.36,7.02,13.75,7.91,15.76,20.05,12.25,31.89-3.26-2.43-2.7-7.44-4.06-10.76s-5.79-.83-6.73-1.99c-4.23-5.23-12.34-11.01-19.99-8.18-1.95-5.52-4.21-4.4-3.89.78-13.45,7.48-20.01,23.22-15.97,36.72,3.47,11.59,13.56,17.73,22.47,25.09-32.42-.02-17.49-7.9-31.97-2.88,4.22.07,5.08,3.69,7.45,3.89l-.58,8.24c.05-.65-3.81,2.7-2.12,4.78,1.04,1.28,3.14.11,4.74.11-.64,3.13.15,5.19,3.45,4.67,2.32-.37,5.94,1.14,5.78-2.36,3.23.81,4.93.47,2.48,4.98,8.69,4.8,55.08,5.58,55.31-4.62.18-8.03,7.8-9.75,12.59-13.54,30.05-25.44,55.95-60.96,60.92-103.42-14.99,29.79-27.84,57.9-54.72,77.64-4.8,3.53-7.88,9.92-14.28,8.95,27.74-24.03,51.13-50.66,62.71-87.27,13.78-43.55,23.33-114.16,1.49-154.61-3.37-6.24-4.68-13.39-9.65-18.81-3.17-3.46-5.66-15.02-12.49-11.61-6.19,3.09-11.06,24.69-32.67,33.85-4.37,1.85-9.85,1.39-10.07,6.5-6.85-1.36-11.63-2.96-17.67-6.12,7.43-9.89-19.69-14.42-21.02-37.88-.69-12.2,3.75-23.07,11.66-30.97-.16,9.44-11.66,17.19-6.1,39.44,3.29,13.16,22.1,22.45,35.98,20.16,7.25-1.2,3.99-9.14,3.84-14.29-.13-4.58-6.55-4.86-10.86-7.53,18.87-.6,5.82-12.99,26.8-35.53,1.81,2.13,3.37,3.85,4.48,3.67-2.99.5,14.79-10.52,15.17-14.69,1.97-21.42,7.77-11.8,17.19-25.11,6.9-9.76,17.61-16.79,22.66-30.05-20.32-.89-36.82,4.56-53.97,11.64-1.91-2.8-.11-4.95,0-7.12l23.48-5.37,40.96-6.65c42.81-35.13,107.96-84.17,161.58-53.17Z"/>
      <g>
        <path class="st0" d="M245,375.53c-4.59,11.38-32.4,8.02-43.28,6.79-20.92-2.37-41.19-.22-62.92-1.23-22.77-1.05,7.77-39.15,45.99-45.61,13.41-2.27,30.3-.26,38.87,8.61,13.19,13.65,25.72,20.6,21.35,31.44Z"/>
        <path class="st0" d="M377.69,408.76c-12.08,15.16-13.25,32.19-8.69,52.75-22.44-13.73-33.46-33.76-48.38-52.21l-35.9-44.36c9.52-5.61,14.05,1.26,20.1,4.46,21.16,11.22,41.42,20.16,62.91,27.88,1.34.48,5.7,2.23,5.79,3.59.12,1.72-4.2,4.58,4.17,7.89Z"/>
        <path class="st0" d="M397.27,492.05l-9.23-2.31c-1.6,0-3.69,1.17-4.74-.11-1.69-2.07,2.16-5.43,2.12-4.78l.58-8.24c13.36,1.17,27.54,8.7,39.81,4.04,14.28-5.43,24.34-10.44,33.78-18.61,6.4.97,9.48-5.43,14.28-8.95,26.88-19.74,39.73-47.85,54.72-77.64-4.97,42.46-30.87,77.97-60.92,103.42-4.79,3.79-12.41,5.51-12.59,13.54-.23,10.19-46.62,9.41-55.31,4.62,2.45-4.51.75-4.17-2.48-4.98Z"/>
        <path class="st0" d="M597.28,104.16c-21.34,16.91-23.52,6.36-50.54,10.19-4.42.63-9.77.8-13.94-3.23,7.51-7.47,13.39-20.48,22.96-22.83,14.78-3.63,31.46,4.18,41.53,15.86Z"/>
        <path class="st0" d="M512.39,167.83c-2.9,3.67-.26,7.79-3.73,11.37-3.01-1.8-2.69-5.53-3.88-7.34-.7-1.06-4.7,2.16-3.47-1.54,1.48-2.99.23-3.87.3-6.47.08-3.26-1.92-.32-5.28.51,1.6-9.82,7.97-14.88,10.7-23.6,2.58,3.63-.91,6.24,2.6,7.61,1.62-4.22,3.18-6.31,5.49-8.45-2.81-.97-3.36-3.06-3.13-4.45.21-1.28,1.39-2.51,3.5-2.64,1.41-.08,1.52,3.61,3.99,4.37,5.31,1.63,5.23-6.61,13.64-4.84,2.59-.42-16.78,16.27-12.37,15.88l5.22-.46c.3,3.43,1.78,35.61,2.29,34.81-1.31,2.09-6.94,5.03-8.75,2.47-4.08-5.79-2.71-12.57-7.12-17.24Z"/>
        <path class="st0" d="M397.27,492.05c.15,3.5-3.46,1.99-5.78,2.36-3.3.52-4.09-1.54-3.45-4.67l9.23,2.31Z"/>
      </g>
    </g>
    <path class="st0" d="M1696.85,506.84c2.23-.47,4.26-.65,6.55-.97,4.81,5.44,13.57.62,20.31,5.11,1,.67-.1,3.5,1.55,4.25-10.48-4.77,16.54-4.21,29.16,18.25.8,1.42-3.52,4.6-2.01,5.5.95.57,2.82,2.34,4.51,2.8,10.47,2.84,14.37,10.43,10.44,22.34-3.48,10.54-25.31,7.37-31.26,2.74-2.28,6.75-11.04,7.51-9.99,13-6.82.38-15.12,1.33-21.77,7.68.54,1.91,22.36-4.61,21.77-7.68,2.63-.14,6.25,1.31,9.41.52-18.29,8.81-35.95,19.01-59.07,25.33,33.97,6.53,59.55,21.18,81.8,45.61,1.32,1.45,4.28,3.34,6.51,2.18,1.54-.8.43-4.21.24-6.97,2.04-2.02,2.17-.57,2.74,0,1.33,1.31,3.77-1.95,5.35-2.11-3.51,1.3,24.67,13.41,16.49,11.74,6.89,1.41,4.22-6.26,10.93-7.26.86,3.09,1.01,11.99-2.52,13.07-4.03.69-6.17-.87-7.61,1.27-2.37,3.52-6.37,6.3-.44,7.21,1.91-1.87.68-5.43,2.31-5.33,1.22.08,3.28-.82,5.82.98l-10.82,10.01c-.19-4.3-4.28-5.77-3.12-8.08.43-.85,2.72.09,1.98-3.18-12.15,8.96-18.22-10.19-20.25,2.19l-30.88-28.49c-28.32-26.13-67.25-29.76-103.25-15.38-36.6,14.62-68.13,35-98.44,59.49-5.42,4.38-8.66,10.12-13.38,14.8-1.52-3.26-4.25-2.37-5.28-1.2-.9,1.02-2.63,1.82-1.48,4.45-7.48-2.86-9.28,5.15-15.34,7.42-10.43,3.91-27.68,24.53-26.37,24.07-2.72.96-7.9-1.78-5.32-4.71l25.9-29.35c-13.25,4.41-19.71,18.73-31.1,25.19-2.05.08-3.89,1.23-6.73,2.11-2.89-4.67-1.23-9.47-2.06-13.98,20.9,1.99,37.25-25.42,57.28-32.13-.45,1.21-.4,2.39-.06,3.57-2.17-.79-4.17,1.63-7.67,2.94-2.52.94.36,2.1.97,4.69-2.46.11-5.23-.79-6.95,1.09-1.33,1.45-3.78,2.51-1.45,6.14,2.37-3.19,5.91-4.43,8.4-7.23,1.84-2.06,7.87-3.57,6.7-7.62,9.28-3.84,17.37-13.27,24.06-20.91,12.47-4.41,25.3-12.16,33.86-22.24,1.39-.6,4.22.42,5.78,0,1.45-.39,1.79-2.8.59-4.6-2,2.18-6.12,1.58-6.37,4.6-4.03-1.5-30.39,18.27-33.86,22.24-.59-1.43-1.3-1.44-2.1-.15.33-5.59-6.84-.62-10.29-2.24l-4.07-1.91-5.16,2.62c-27.91,14.2-61.3-13.93-66.78-10.35-2.07,1.35-3.13,3.54-3.1,6-11.49,2.54-1.21-7.66-12.37-4.99-1.49.36-1.79,3.99-5.16,3.76-2.57-.17-3.67-3.52-5.38-3.5-7.11.06,11.51,14.93.09,19.99-12.01-18.03-26.36-31.04-45.01-39.82-4.81-2.26-10.48-8.73-11.63-12.98-1.39-5.13,6.4-1.41,9.07-16.76,6.4.17,15.92,2.7,22.66-.25,3.79-1.66-1.41-6.13-1.56-8.01-.39-4.8,7.92-3.55,10.55-4.47,7.07-2.49,6.91-2.21,12.19.13,19.42,8.6,16.78,27.32,27.18,31.9.76,19.65,21.31,34.7,40.5,38.43,25.43,4.95,76.37-22.62,100.34-36.55-4.74-2.46-5.89-3.74-.19-4.05.3-2.25.08-3.25,1.29-4.46,1.31-1.31,3.17-3.3,3.53-1,.5,3.24.6,5.23-2.26,6.01.1,2.4-.16,2.45.6,2.4,1.38-.1,2.84-.22,3.41-.69-18.74,15.35,25.08-32.29,14.55-18.29.94,3.41,6.11-1.3,9.59-.1l65.59-36.39c12.86-7.14,33.98-23.32,55.91-32.46-21.14-14.63-57.16-1.63-71.9,16.05-4.42-3.73,2.57-8.02,1.5-10.46-2.31-5.21-7.44-1.85-10.97.27-4.89,2.93-12.12,3.35-15.15,7.59-14.4,1.9-30.53,6.09-45.96,7.17-11.05.77-21.98-2.07-31.81,1.06-9.74,3.11-19.62-1.22-28.88,2.56-6.08,2.49-12.73-.61-18.09,1.21-6.76-5.9,41.75-8.1,45.2-8.31l38.25-2.38c3.39-.21,2.67-4.98,2.47-6.94,14.69-3.24,31.57-2.56,44.55-14.04,3.51-3.1,25.16-26.97,23.25-32.76-1.18-3.58,2.98-6.44,5.02-7.86,3.14,2.55-1.39,4.6-1.4,6.23s4.71,5.08,6.33,3.98c6.34-4.32,6.98-11.86,14.88-15.24,3.8,5.15-22.46,29.07-7.88,29.19,5.11.04,8.31-3.53,12.07-4.33Z"/>
    <path class="st0" d="M1456.55,729.59c-25.18,22.79-9.42-1.73-17.57,10.3-1.75,2.58-5.67,2.17-8.6.23-1.92-1.27-.91-3.48,1.62-8.91-5.85-1.39-9.33-1.69-11.66-5.64,1.55,5.15-2.5,5.54-2.35,7.6.4,5.48,7.38,5.23,9.77,7.91,1.64,1.83-1.27,4.96-1.62,7.48-3.35-.96-4.8,3.66-8.09,4.56s-5.69-1.2-6.12-2.53c-.4-1.19,5.09-24.89,1.3-13.82l1.99-5.8c.64-1.87-3.13-2.49-4.49-4.75,2.98-3.41.62-3.73-3.75-2.58-3.25-5.14-3.76-9.92-6.11-14.41-18.3-34.93-15.93-35.44-55.52-47.94-8.68-2.74-19.27-10.49-27.1-2.73-5.95,5.9-10.3,8.13-18.27,7.84-2.67-.09-7.03,8.25-9.25,3.31,5.15-15.92,20.87-21.96,35.38-27.17,26.16-9.4,30.65-2.1,45.01,6.87,23.69,14.81,40.63,37.05,44.36,67.03,10.6-7.09,16-23.22,16.84-23.42,1.72-.41,5-3.81,6.18-.93,7.2,17.54-2.67,8.29,5.86,26.09,1.45,3.02-2.93,10.18,2.1,11.42,2.83.69,7.11.96,10.1,0Z"/>
    <path class="st0" d="M1400.87,709.23c2.35,4.49,2.86,9.27,6.11,14.41,4.36-1.16,6.73-.84,3.75,2.58,1.36,2.26,5.13,2.88,4.49,4.75l-1.99,5.8c3.79-11.07-1.69,12.63-1.3,13.82.44,1.32,2.68,3.46,6.12,2.53s4.73-5.52,8.09-4.56c-.79,5.79-5.19,8.91-8.07,12.39-3.77,4.55-16.82,5.34-18.88,1.22-1.59-3.19-4.64-4.36-4.99-6.21-1.2-6.45,6.09-8.57,4.98-12.47-.49-1.71-5.68-2.16-5.29-4.32,2.11-11.9,3.63-39.36,6.98-29.94Z"/>
    <path class="st0" d="M1380.5,840.57c-2.69-5.98,6.33-6.69,18.1-13.91,19.07-11.69,21.69-21.65,39.14-11.41-2.47,8.86-11.13,11.26-15.34,18.12-3.49,5.69-9.58,5.74-14.78,9.14,1.37-8.94,8.76-5.43,13.64-12.06-28.51-.79-6.2,10.1-40.75,10.12Z"/>
    <path class="st0" d="M965.08,478.33c4.6-5.19,1.31-16.91,4.34-21.64,8.28-12.92,78.31,4.8,74.07-5.67,15.08,3.01,30.21,1.59,46.14-3.59,28.04-9.12,53.93-21.43,80.6-31.8,15.07-5.86,38.7-12.29,43.48-25.73l3.03-8.51c3.45-9.7,20.1-14.9,27.36-24.39,14.32-3.17-23.17,50.16-27.47,53.95-8.15,7.18-12.5,14.31-18.93,21.44-13.5,14.95-33.03,21.39-47.24,33.27-6.45,5.4-13.87,2.78-20.36,4.74-7.88,2.38-15.21,5.93-22.91,6.97-11.39,1.54-21.54,4.09-32.51,9.07-8.37,3.8-40.78,4.05-46.26,6.24-4.06,1.62-10.82-4.65-17.68-2.69-17.18,4.91-38.86,4.06-45.66-11.67Z"/>
    <path class="st0" d="M1802.27,642.14c0,2.03-1.54,4.59-1.76,6.75-6.71,1-4.04,8.68-10.93,7.26,8.19,1.68-19.99-10.44-16.49-11.74-1.57.16-4.02,3.42-5.35,2.11-.57-.56-.7-2.02-2.74,0,.18,2.77,1.3,6.17-.24,6.97-2.23,1.16-5.19-.73-6.51-2.18-22.25-24.43-47.82-39.08-81.8-45.61,23.13-6.32,40.78-16.52,59.07-25.33-3.9,1.88,52.96-16.66,61.7,11.44,5.3,17.05,5.07,33.94,5.03,50.32Z"/>
    <g>
      <path class="st0" d="M2188.47,720.66c2.3.25,1.96-2.28,1.97-3.86,4.74-.73,8.13.68,11.65-.4,55.26,5.39,103.76,37.69,152.27,48.11,60.36,12.96,110.67-26.98,96.88-40.01-5.23-4.94-20.56-10.15-27.41-4.82-22.9,17.83-48.26,25.13-75.03,16.09-15.09-5.1-29.46-11.52-41.34-24.03-11.1-11.7-21.49-23.21-29.61-35.68-14.89-22.87-22.28-15.94-16.49-30.61-18.76-8.12-44.52-1.6-64.61.07-41.05-12.69-56.46-66.37-70.04-102.11-8.13-21.39-3.02,7.28-5.11-21.63,21.4-12.77,28.64-26.69,42.05-48.75.37-1.93-.87-3.05-.09-4.29,1.43-2.27,4.29-.99,5.6-2.57,11.85-14.25,26.85-28.17,46.52-27.76,22.75.47,38.01,18.68,42.46,39.67,12.88,60.68,32.97,119.74,102.12,117.14l33.63,31.29c39.86,37.09,76.43,6.4,107.84.7,27.79-5.05,51.76,11.37,57.69,38.5.76,1.88.76,2.24-.12,2.9-1.08.8-2.81.3-2.26-.21.58-.53.62-3.29-.55-5.52-6.8,5.99-5.54,13.43-6.05,22.94-1.46,27.38-12,52.24-26.54,76.29-10.02,16.57-26.1,29.05-41.17,40.46-21.16,16.02-47.82,19.92-73.1,12.3-40.2-12.13-91.83-7.03-132.9-25.22-33.11-14.66-70.91-39.79-88.29-68.99Z"/>
      <path class="st0" d="M1689.13,224.65c-.66,18.08-22.25,15.56-13.5,37.17,6.07-1.72,2.76-10.24,11.6-9.47-9.2,7.26-9.61,39.92-15.1,54.37-5.18,13.64-19.39,18.9-30.33,27.42-9.09,7.08,11.56,26.35,15.49,29.01-2.68,29.19,9.83,13.27,2.49,25.53l-10.57,17.64c-.93-.14-3.07-2.96-4.55-3.27-.86-.18-1.83.67-2.94,1.04-6.42-10.39-17.16-16.55-30.81-15.96-40.28,1.75-69.36-29.49-69.2-70.03.14-36.78,20.15-72.79,50.09-94.19,40.26-28.78,66.55,13.94,85.11,9,5.17-1.38,7.51-7.74,12.2-8.25Z"/>
      <path class="st0" d="M2084.18,429.74c.74,4.87,12.55,40.67,16.15,41.54-.02,1.43-.54,3.3-.02,4.62l6,15.16c1.86,4.7,1.09,7.75,5.55,10.73,0,1.78-.16,2.24-3.9,2.36,3.5,4.64,6.88,12.18,2.38,18.11-19.41-33.88-33.91-68.13-70.59-82.47-27.65-10.82-44.73,14.05-69.27-15.56-40.13-48.43-83.45-47.49-103.19-63.83-4.9-4.06-12.26-2.05-16.19-6.81,3.09,1.27,6.27-.18,9.12.09,6.16.9,11.09-.99,16.27-2.4,9.87-2.69,18.84-6.59,27.69-11.54l45.92-13.93c11.01-3.34,19.34-2.11,30.36-.21,36.87,6.35,65.54,37.18,83.34,69.12l15.08,27.05c1.36,2.44.6,8.07,5.3,7.96Z"/>
      <path class="st0" d="M1973.8,582.27l-5.21,34.09c1.04,5.56,11.17,4.79,15.45,4.01,15.87-2.87,9.32-37.46,44.14-38.78-6.62,19.41,3.54,4.7-.26,15.05-.46,1.24-2.69,3.67-4.42,1.11-1.38-2.05.13-10.61-4.11-9.71-20.78,4.38-23.75,38.04-37.2,57.24l32.08,2.89c9.85.89,21.51,1.13,31.05-.03-.11-3.76-.19-5.87,1.77-7.46,1.73-1.4,3.64.45,5.42,3.37l8.64,14.17c4.3,7.05,15.35,10.33,20.07,18.24,1.66,2.78,1.86,5.74,5.08,6.07,4.47.45,4.69.43,6.63,1.77l26.86,18.58c5.9,4.08,13.92,3.98,19.86,9.87,4.27,4.23,34.48,4.59,41.88-3.71,6.53.81,16.13,2.72,20.54,7.35-3.52,1.08-6.91-.34-11.65.4,0,1.58.33,4.11-1.97,3.86-4.97-10.49-30.81,6.78-49.01,6.46-14.17-.26-27.72-6.5-39.04-15.43l-48.19-38.04c-22.33-17.63-48.08-20.93-74.59-15.45-2.75-3.55,1.7-6.81,2.36-12.74l-13.8,6.82c-4.87,2.41-5.74-10.2-6.04-15.54-5.13,1.9-1.73,5.39-7.21,4.19-3.79-.82-10.11,1.65-13.41-4.02,13.99-15.03,15.33-56.98,3.28-73.36-3.08-4.19-5.77-8.19-10.61-12.25-1.76-1.48.28-5.86-2.61-7.28-11.2-5.48-15.36-1.43-16.1-5.97-.27-1.65,3.46-3.41,2.57-5.91,33.08.52,61.72,24.13,57.74,50.15Z"/>
      <path class="st0" d="M1690.14,387.87c2.16-.39,5.57.44,5.83,2.22l1.34,9.02c1.14,7.7,2.41,14.8,10.27,16.46-.18,7.09-6.44,11.59-9.02,16.83-3.09,1.71-5.75-1.54-8.05-3.02-4.88,3.45-9.33,9.38-12.29,14.22-4.83,2.39-8.92,7.01-11.73,11.54h-2.31c-1.15-3.24,5.43-12.86,6.62-13.84,6.9-5.69,7.08-13.04,14.01-19.5-4.28-4.79-10.43.28-15.78.29-12.79.03-21.66-8.87-27.3-18,1.1-.37,2.08-1.21,2.94-1.04,1.48.31,3.62,3.13,4.55,3.27l10.57-17.64c7.34-12.26-5.17,3.67-2.49-25.53,17.26,11.67.44,10.81,11.15,17.21,3.18,1.9,8.57.63,13,1.14,4,.45,4.43,7.15,8.69,6.37Z"/>
      <path class="st0" d="M2116.06,797.56c-10.44,9-26.22,15.89-37.43,6.66,14.98-.57,27.28-.09,37.66-11.03,2.86,1.61,3.06,3.26-.23,4.36Z"/>
      <path class="st0" d="M1793.33,492.44c8.84-8.67,6.73-23.16,6.8-35.14,5.01,3.12,13.17,3.46,15.55,13.07,3.35-.6,5.88-2.59,6.74-1.36-1.03-1.48,5.15,9.1,5.58,10.38.69,2.06,2.94.38,2.43-.3s.96-5.05.22-5.64c-22.64-17.88-10.09-31.99-23.23-41.37-1.34-.96-4.77,3.43-6.34,1.53-4.54-5.48-7.81-9.04-15.04-7.85-14.39-25.7.52,3.19-25.5-25.44-5.78-6.36-10.96-11.68-9.57-21.09-3.99,4.54-.99,4.13-1.12,5.08-.39,3.01-2.57,4.8-5.71,1.61-.21-2.59-.32-3.7-1.05-4.93-1.27-2.15-6.58-.98-8.03-2.15-6.36-5.15-13.01-9.79-23.51-5.13-4.01,1.78-1.44,9.71-1.76,14.44-.38,5.7-3.58,11.13.36,16.23,2.9,3.75-2.49,7.76-2.57,11.18-7.86-1.65-9.13-8.75-10.27-16.46l-1.34-9.02c-.26-1.78-3.68-2.61-5.83-2.22,3.36-.76-.89-28.89-2.37-30.38-2.44-2.46-4.49-7.61-.5-10.99,7.22-6.12,10.48-20.53,17.08-25.35,16.59-12.11,19.89-7.31,39.63-2.98,4.23.93,9.98,5.71,13.07,7.5l7.03,17.7c.86,2.17,10.92-1.35,12.02,2.14l6.86,21.91c13.5-16.53,9.73,13.21,22.3,15.13,11.97,1.83,3.71,18.4,8.62,25.65,4.46,6.58,10.94,4.15,20.14,9.06,14.57,22.47,12.95,1.94,25.25,23.43,3.26,5.69,12.12,13.25,9.18,20.12-6.74,15.79-18.86,26.99-31.9,37.28,1.52-1.2,9.09,10.98-21.5,2.5-8.25-2.29-15.12-5.76-21.74-8.15Z"/>
      <path class="st0" d="M2028.19,581.59c-34.83,1.32-28.27,35.91-44.14,38.78-4.28.78-14.42,1.55-15.45-4.01l5.21-34.09c16.02,3.58,26.69-13.2,55.2-11.46,3.72.23,3.05,10.43-.82,10.78Z"/>
      <path class="st0" d="M2277.86,676.05l-16.79-9.96c-9.4-5.58-22.47.99-34.14-.98-4.08-.69-35.39-13.81-30.18-19.59,20.09-1.68,45.85-8.2,64.61-.07-5.79,14.66,1.61,7.74,16.49,30.61Z"/>
      <path class="st0" d="M1916.06,532.12c.89,2.51-2.84,4.26-2.57,5.91.75,4.54,4.91.49,16.1,5.97,2.89,1.42.85,5.8,2.61,7.28,4.85,4.07,7.53,8.06,10.61,12.25l-.13,15.35c-.08,9.51-20.93-15.18-31.2-15.75.65-1.84-.1-3.55-1.26-4.2-5.76-3.21-3.39-2.47-5.32-23.84-.54-5.95,7.59-3.04,11.15-2.99Z"/>
      <path class="st0" d="M1874.92,560.85c-9.13,8.03-11.58,25.07-18.21,25.79-3.36.37-8.02,1.4-9.93-3.44-1.22-3.08,1.47-8.25-2.53-8.14,1.04-5.56,3.5-10.69,8.08-14.88,2.84-2.6,30.14-4.07,22.59.67Z"/>
      <g>
        <path class="st0" d="M1862.36,350.73c-.95.68-3.36.86-2.14,2.95-2.84-.27-6.02,1.18-9.12-.09.25-1.47-.54-2.32-1.39-2.31-2.08.03-5.19-.97-5.7,1.81,3.28,1.07,5.16.32,7.09.5,3.93,4.76,11.29,2.75,16.19,6.81,19.73,16.34,63.06,15.4,103.19,63.83,24.53,29.61,41.62,4.74,69.27,15.56,36.68,14.35,51.18,48.59,70.59,82.47,4.5-5.93,1.12-13.47-2.38-18.11,3.74-.12,3.91-.58,3.9-2.36l9.75,20c2.08,28.91-3.02.24,5.11,21.63,13.58,35.74,28.99,89.42,70.04,102.11-5.21,5.78,26.1,18.9,30.18,19.59,11.67,1.97,24.74-4.6,34.14.98l16.79,9.96c8.12,12.47,18.5,23.98,29.61,35.68,11.88,12.52,26.25,18.94,41.34,24.03,26.77,9.04,52.13,1.74,75.03-16.09,6.84-5.33,22.18-.12,27.41,4.82,13.79,13.03-36.52,52.96-96.88,40.01-48.52-10.41-97.01-42.72-152.27-48.11-4.41-4.63-14.01-6.55-20.54-7.35-7.4,8.3-37.61,7.94-41.88,3.71-5.94-5.9-13.96-5.79-19.86-9.87l-26.86-18.58c-1.94-1.34-2.16-1.32-6.63-1.77-3.23-.33-3.43-3.29-5.08-6.07-4.72-7.91-15.77-11.19-20.07-18.24l-8.64-14.17c-1.78-2.92-3.69-4.77-5.42-3.37-1.96,1.59-1.88,3.7-1.77,7.46-9.55,1.16-21.2.91-31.05.03l-32.08-2.89c13.45-19.2,16.42-52.86,37.2-57.24,4.25-.89,2.73,7.66,4.11,9.71,1.73,2.55,3.96.13,4.42-1.11,3.81-10.35-6.35,4.35.26-15.05,3.86-.35,4.54-10.55.82-10.78-28.51-1.74-39.18,15.04-55.2,11.46,3.98-26.02-24.66-49.63-57.74-50.15-3.55-.06-11.68-2.96-11.15,2.99,1.92,21.37-.44,20.62,5.32,23.84,1.16.65,1.91,2.36,1.26,4.2-20.76-1.15-6.27-7.24-36.58-2.3,7.55-4.74-19.74-3.28-22.59-.67-4.59,4.2-7.04,9.33-8.08,14.88-.46,2.44-2.13,4.96-3.58,6.92-3.54,4.79-4.17-2.89-13.81,2.38-1.15.63-1.27-4.4-2.68-4.22-8.88,1.16-9.28-5.54-11.38-8.41l-13.41-18.34c11.88,16.25-40.76-45.78-30.87-34.82-1.22-1.35,2.19-4.3,1.64-5.55-4.11-9.46-10.71-15.97-14.05-25.94,2.46-3.71,5.44-6.21,10.71-10.67,8.73,9.55,17.32,12.72,26.49,16.02,6.62,2.39,13.49,5.86,21.74,8.15,30.59,8.48,23.02-3.7,21.5-2.5,13.05-10.29,25.16-21.5,31.9-37.28,2.94-6.87-5.92-14.43-9.18-20.12-12.3-21.48-10.68-.95-25.25-23.43-9.2-4.91-15.69-2.48-20.14-9.06-4.91-7.25,3.35-23.82-8.62-25.65-12.57-1.92-8.81-31.66-22.3-15.13l-6.86-21.91c-1.09-3.49-11.15.03-12.02-2.14l-7.03-17.7c-3.09-1.79-8.84-6.57-13.07-7.5-19.75-4.33-23.05-9.13-39.63,2.98-6.6,4.82-9.86,19.23-17.08,25.35-3.99,3.38-1.95,8.52.5,10.99,1.48,1.5,5.73,29.62,2.37,30.38-4.26.77-4.69-5.92-8.69-6.37-4.43-.5-9.82.76-13-1.14-10.72-6.4,6.11-5.54-11.15-17.21-3.93-2.66-24.58-21.93-15.49-29.01,10.94-8.51,25.15-13.77,30.33-27.42,5.49-14.46,5.9-47.11,15.1-54.37-8.85-.77-5.53,7.76-11.6,9.47-8.75-21.61,12.83-19.09,13.5-37.17,12.91-19.72,37.5-30,61.41-29.66,22.74.33,44.42,12.45,59.36,31.82,28.5,36.95,24.08,85.73,52.47,123.92Z"/>
        <path class="st0" d="M1839.75,348.7c-5.38-.03-9.42-2.14-11.9-6.37,5.38.03,9.42,2.14,11.9,6.37Z"/>
        <path class="st0" d="M1851.11,353.59c-1.92-.18-3.8.57-7.09-.5.51-2.77,3.61-1.78,5.7-1.81.85-.01,1.64.83,1.39,2.31Z"/>
      </g>
      <path class="st0" d="M1869.67,769.38c-16.49,3.46-59.86-11.46-39.18-16.51,7.86,5.7,21.39,5.01,30.81,5.76,2.51-2.89-1.08-5.81-3.24-9.98,14.96,6.44,48.54-9.19,57.93-21.19.85-1.08,3.51,4.29,4.37,1.23.31-1.11,3.18-2.2,1.34-3.46-.58-.4-2.29-1.44-1.92-2.01,10.78-13.36,9.96-21.95,22.32-28.07-4.77,24.09-17.9,49.05-39.53,61.32.38-5.87,4.47-9.67-.29-13.45-1.27,8.06-4.8,12.13-10.85,14.96-1.23.58-.19,4.72-2.42,5.02s-17.51-2.98-17.55.38c-.25,3.93,1.17,5.37-1.78,5.99Z"/>
      <path class="st0" d="M1788.59,688.39c-9.28-4.74-15.69-14.84-22.74-21.34,2.03-12.38,8.1,6.77,20.25-2.19.73,3.27-1.56,2.33-1.98,3.18-1.16,2.31,2.94,3.78,3.12,8.08l10.82-10.01c-2.54-1.8-4.6-.91-5.82-.98-1.63-.1-.4,3.46-2.31,5.33-5.93-.91-1.93-3.69.44-7.21,1.44-2.14,3.58-.59,7.61-1.27,3.54-1.08,3.39-9.97,2.52-13.07.21-2.16,1.75-4.72,1.76-6.75,1.04-1.61,1.3-2.5,2.16-3.25.6-.53,12.69,5.12,11.45,8.1,6.14-.13,8.37-6.24,13.42-3.2-4.21,5.3-14.84,4.39-14.66,9.84l.75,22.33c.12,3.5-.37,5.33,1.41,6.52,2.8,1.88,5.27.9,10.33,2.63-2.62,3.85-8.2,3.54-12.8,4.58l-16.07,3.63-9.66-4.93Z"/>
      <path class="st0" d="M1800.13,457.3c-36.95-23.04-25.99-39.32-50.59-47.41-.12-.04-30.3-12.61-32.24-5.64-.27,7.41.98,17.05,3.96,22.98-2.26.87-4.82-.89-6.88-1.39-5.58-1.35-3.29,7.48-6.19,7.07-8.93-1.26-7.38,21.86-19.28,24.53,4.74-7.44,5.77-17.16,9.65-25.05,2.58-5.24,8.84-9.74,9.02-16.83.09-3.42,5.47-7.43,2.57-11.18-3.94-5.1-.74-10.53-.36-16.23.32-4.73-2.25-12.66,1.76-14.44,10.5-4.66,17.15-.02,23.51,5.13,1.45,1.17,6.76,0,8.03,2.15.72,1.23.84,2.34,1.05,4.93,3.14,3.18,5.32,1.4,5.71-1.61.12-.95-2.88-.54,1.12-5.08-1.4,9.41,3.78,14.73,9.57,21.09,26.03,28.63,11.11-.26,25.5,25.44,7.23-1.19,10.5,2.37,15.04,7.85,1.57,1.9,5.01-2.48,6.34-1.53,13.14,9.38.59,23.49,23.23,41.37.75.59-.71,4.97-.22,5.64s-1.74,2.36-2.43.3c-.43-1.28-6.61-11.86-5.58-10.38-.86-1.24-3.39.75-6.74,1.36-2.38-9.61-10.54-9.95-15.55-13.07Z"/>
      <path class="st0" d="M1721.26,427.22c7.36,14.66,11.01,30.9,16.57,46.27-16.25-4.34-38.66,16.89-40.98,33.34-3.76.8-6.96,4.37-12.07,4.33-14.58-.12,11.68-24.04,7.88-29.19-7.9,3.38-8.55,10.92-14.88,15.24-1.61,1.1-6.34-2.36-6.33-3.98s4.55-3.68,1.4-6.23c3.48-9.89,10.34-20.62,16.05-29.58,11.91-2.67,10.35-25.79,19.28-24.53,2.9.41.62-8.42,6.19-7.07,2.06.5,4.62,2.26,6.88,1.39Z"/>
      <path class="st0" d="M1737.83,473.5c3.71,10.27,11.59,19.7,16.07,30.28-1.17,1.99-3.31,5.75.8,2.7,6.03,5.32,7.32,14.67,10.34,20.52,5.77-2.27,10.78,8.03,5.81,13.65-25-22.87-36.36-39.05-67.43-34.78-2.29.31-4.32.5-6.55.97,2.32-16.45,24.73-37.69,40.98-33.34Z"/>
      <g>
        <path class="st0" d="M1800.13,457.3c-.07,11.98,2.05,26.47-6.8,35.14-9.17-3.31-17.76-6.48-26.49-16.02-5.27,4.46-8.26,6.96-10.71,10.67,3.33,9.97,9.93,16.47,14.05,25.94.54,1.25-2.86,4.2-1.64,5.55-9.9-10.96,42.75,51.07,30.87,34.82l13.41,18.34c2.1,2.87,2.49,9.57,11.38,8.41,1.42-.18,1.54,4.85,2.68,4.22,9.64-5.27,10.27,2.41,13.81-2.38,1.45-1.96,3.12-4.48,3.58-6.92,4-.11,1.31,5.06,2.53,8.14,1.92,4.84,6.57,3.81,9.93,3.44,6.63-.72,9.08-17.76,18.21-25.79,30.31-4.94,15.81,1.14,36.58,2.3,10.27.57,31.12,25.25,31.2,15.75l.13-15.35c12.05,16.39,10.71,58.34-3.28,73.36,3.3,5.67,9.62,3.19,13.41,4.02,5.48,1.19,2.08-2.29,7.21-4.19.3,5.34,1.16,17.95,6.04,15.54l13.8-6.82c-.66,5.93-5.11,9.19-2.36,12.74-2.14.44-4.58,1.85-6.39,2.87-5.54,3.11-13.77-3.88-17.26-1.05-5.57,4.51-12.78.14-19.74.47-2.13.1-4.43,4.03-4.59.99-.16-2.81-2.09-3.44-1.35-3.97s3.7-.96,4.11-5.54c-2.85,1.11-8.86-.17-10.13,5.02-7.78-2.43-14.85-6.7-24.87-10.71-3.91-1.56-8.58,7.85-6.89,11.54,2.25,4.91-5.69,4.59-5.6,6.43.72,14.74-2.48,29.44-12.92,41.11-3.74-1.46-.45-6.89-6.48-6.4,5.7-6.14,16.38-24.27,5.24-33.84-5.98,22.48-15.05-1.52-29.93,16.13-1.47,1.75,1.32,5.73-2.57,7.3-4.31,1.74-13.59,5.31-15.01,7.55-1.89,3.02,1.39,3.67,2.82,7.29-5.78,1.31-9.59-2.79-14.1-.06,2.23,3.4,4.79,4.01,7.06,6.92,1.27,1.64,1.78,3.83-3.5,5.82-3.76,4.19,7.84,5.58,6.9,12.54-13.95-11.3-25.79-25.08-33.86-40.21l9.66,4.93,16.07-3.63c4.61-1.04,10.19-.73,12.8-4.58-5.05-1.73-7.53-.75-10.33-2.63-1.78-1.2-1.3-3.02-1.41-6.52l-.75-22.33c-.18-5.45,10.45-4.54,14.66-9.84-5.05-3.04-7.28,3.07-13.42,3.2,1.24-2.98-10.85-8.64-11.45-8.1-.85.76-1.12,1.65-2.16,3.25.04-16.39.27-33.27-5.03-50.32-8.74-28.1-65.61-9.56-61.7-11.44-3.16.79-6.78-.66-9.41-.52-1.05-5.49,7.71-6.26,9.99-13,5.95,4.63,27.78,7.81,31.26-2.74,3.93-11.9.02-19.5-10.44-22.34-1.69-.46-3.56-2.23-4.51-2.8-1.51-.9,2.81-4.08,2.01-5.5-12.63-22.46-39.65-23.02-29.16-18.25-1.65-.75-.55-3.58-1.55-4.25-6.74-4.49-15.5.33-20.31-5.11,31.08-4.27,42.44,11.9,67.43,34.78,4.98-5.62-.04-15.91-5.81-13.65-3.02-5.86-4.31-15.21-10.34-20.52-4.11,3.06-1.97-.7-.8-2.7-4.48-10.59-12.35-20.01-16.07-30.28-5.56-15.38-9.21-31.62-16.57-46.27-2.98-5.93-4.22-15.57-3.96-22.98,1.94-6.98,32.12,5.6,32.24,5.64,24.59,8.1,13.63,24.38,50.59,47.41Z"/>
        <path class="st0" d="M1935.48,612.4c4.59,3.76.83,8.6-1.28,10.41-3.18,2.73-7.43,4-11.43.52-3.57-3.09-6.28-4.02-7.12-8.37s-1.51-11.04,5.52-11.03c4.46,0,10.59,5.41,14.31,8.46Z"/>
      </g>
    </g>
    <path class="st0" d="M1600.03,541.68c.2,1.96.92,6.73-2.47,6.94l-38.25,2.38c-3.45.21-51.96,2.41-45.2,8.31-15.97,5.44-32.15,8.42-46.58,20.25-12.47,10.22-25.68,24.63-25.03,41.41-10.4-4.58-7.76-23.3-27.18-31.9-7.52,3.05,17.85-23.2,9.3-17.86,80-49.95,146.41-23.13,175.4-29.52Z"/>
    <path class="st0" d="M1531.31,661.83c-7.22,5.38-13.05,14.52-21.9,17.49-20.03,6.71-36.38,34.12-57.28,32.13-2.39-13-6.94-25.6-11.18-39.43-1.81-5.91,1.01-11.19.96-16.07-.03-2.47,1.03-4.65,3.1-6,5.48-3.59,38.87,24.55,66.78,10.35l5.16-2.62,4.07,1.91c3.45,1.62,10.61-3.35,10.29,2.24Z"/>
    <path class="st0" d="M1101.11,489.74c6.46-1.47,12.38-7.41,21.29-6.61-5.52,5.86-14.69,10.42-21.29,6.61Z"/>
    <path class="st0" d="M1131.11,482.82c-.64.28-1.73-.25-2.34.41.81-1.06-.61-2.3-1.22-2.78-2.36-1.87.94-2.7,2.36-2.32.62.17,3.01-.19,3.36,1.14.26,1-2.98,1.88-2.16,3.54Z"/>
    <path class="st0" d="M1433.73,358.07c7.95,4.97,6.92,11.72,7.12,19.56.19,7.76-16.03,24.96-28.36,25-10.43.04-20.45-.44-28.6-9.51-4.53-5.04-14.41-10.7-13.84-19.44,5.54-8.72,60.04-25.07,63.68-15.62Z"/>
    <path class="st0" d="M1421.44,285.89c4.6,1.24,8.63,9.48,8.27,13.58-1.66,18.72-26.43,21.73-42.61,20.93-2.26-.11-3.93-2.66-4.71-2.89s.68-2.35.31-3.18c3.76-4.46,8.75-7.6,13.58-12.68,2-2.11-3.29-6.66-1.72-9.03,7.19-10.83,12.63-4.99,11.1-12.24,5.08.93,10.62,4.12,15.79,5.51Z"/>
    <path class="st0" d="M1405.65,280.37c1.53,7.25-3.91,1.4-11.1,12.24-1.57,2.36,3.73,6.92,1.72,9.03-4.83,5.08-9.82,8.22-13.58,12.68-3.4,4.03-7.81,8.21-11.9,11.59-2.64-5.14-3.33-10.58-5.83-17.83-2.92-8.45,4.78-22.88,13.59-26.54s19.07-2.63,27.09-1.16Z"/>
    <path class="st0" d="M360.25,663.04c-2.78-.07-4.75-1.67-7.02-3.23-3.7-2.55-2.64-5.19.19-8.18,2.12.95,4.87,1.98,6.74,3.3,3.55,2.5.82,5.16.09,8.11Z"/>
    <path class="st0" d="M946.51,419.4l6.64,3.16c-4.18,4.14.79,8.39,1.54,13.11-8.66,4.28-15.95-2.49-25.5-3.98-6.24-.97-18.22.81-24.37-2.25,3.97-19.02-11.17-13.89-4.6-22.01,2.46-3.05,5.17-2.9,9.41-1.34,13.06,4.81,25.69,7.98,36.89,13.31Z"/>
    <path class="st0" d="M1073.36,440.93c-13.64,2.15-27.51,7.63-41.48,7.24-24.47-.68-41.75,2.67-68.65-5.79.43-6.5,5.34-6.66,6.31-10.19,28.39,8.22,103.51,7,101.63,5.71,1.22.84,3.08,1.45,2.2,3.03Z"/>
    <path class="st0" d="M1638.86,547.29c2.67,8.82-21,37.43-25.77,43.78l-8.8,11.7c10.53-14-33.3,33.64-14.55,18.29-.57.47-2.03.59-3.41.69-.77.05-.5,0-.6-2.4,2.86-.78,2.76-2.77,2.26-6.01-.35-2.3-2.22-.3-3.53,1-1.21,1.21-.99,2.21-1.29,4.46-5.71.31-4.55,1.59.19,4.05-23.97,13.93-74.91,41.49-100.34,36.55-19.19-3.73-39.74-18.78-40.5-38.43-.65-16.78,12.56-31.18,25.03-41.41,14.43-11.83,30.61-14.81,46.58-20.25,5.36-1.83,12.01,1.27,18.09-1.21,9.26-3.78,19.14.55,28.88-2.56,9.82-3.14,20.76-.29,31.81-1.06,15.42-1.08,31.56-5.28,45.96-7.17Z"/>
    <path class="st0" d="M1604.29,602.77l8.8-11.7c4.77-6.34,28.44-34.95,25.77-43.78,3.03-4.24,10.26-4.66,15.15-7.59,3.53-2.12,8.66-5.48,10.97-.27,1.08,2.44-5.91,6.73-1.5,10.46,14.74-17.68,50.77-30.68,71.9-16.05-21.93,9.13-43.05,25.32-55.91,32.46l-65.59,36.39c-3.49-1.21-8.66,3.51-9.59.1Z"/>
    <path class="st0" d="M1567.26,639.74c-8.56,10.07-21.39,17.83-33.86,22.24,3.47-3.97,29.82-23.74,33.86-22.24Z"/>
    <path class="st0" d="M1533.4,661.98c-6.68,7.64-14.78,17.07-24.06,20.91-.34-1.18-.4-2.36.06-3.57,8.86-2.97,14.69-12.1,21.9-17.49.8-1.3,1.5-1.28,2.1.15Z"/>
    <path class="st0" d="M1726.12,579.86c.59,3.07-21.23,9.59-21.77,7.68,6.65-6.35,14.95-7.3,21.77-7.68Z"/>
    <path class="st0" d="M1509.35,682.89c1.17,4.05-4.86,5.56-6.7,7.62-.6-2.59-3.48-3.74-.97-4.69,3.5-1.31,5.5-3.73,7.67-2.94Z"/>
    <path class="st0" d="M1502.65,690.51c-2.49,2.8-6.03,4.04-8.4,7.23-2.33-3.63.13-4.69,1.45-6.14,1.72-1.88,4.49-.98,6.95-1.09Z"/>
    <path class="st0" d="M1567.26,639.74c.26-3.01,4.38-2.41,6.37-4.6,1.2,1.8.86,4.22-.59,4.6-1.56.41-4.39-.6-5.78,0Z"/>
  </g>
</svg>