<?xml version="1.0" encoding="UTF-8"?>
<svg id="_レイヤー_1" xmlns="http://www.w3.org/2000/svg" version="1.1" viewBox="0 0 2560 927">
  <!-- Generator: Adobe Illustrator 30.1.0, SVG Export Plug-In . SVG Version: 2.1.1 Build 136)  -->
  <defs>
    <style>
      .st0 {
        fill: #fff;
      }

      .st1 {
        display: none;
      }
    </style>
  </defs>
  <g class="st1">
    <g>
      <path d="M0,457.27V-249.73h2560V831.32c-4.35.16-7.7,3.25-11.54,5.24-4.3,2.23-8.26,3.21-10.9,7.38-1.9,3-3.52,5.71-1.29,9.17l6.78,10.5-4.32,1.18c-.83.23-1.04,2.8-.28,3.45,6.36,5.48,5.71,14.01,11.47,11.72,3.64-1.45,3.58-3.92,2.64-7.34l-.69-2.48c-.13-.48,1.91-.1,2.41-.19,1.82-.33,4.23-.76,5.73-.81v211.13h-1317.89c-.06-2.28,0-6.16.39-8.2,2.65-1.57,6.89-3.1,8-4.99,6.07-11.72,11.29-1.16,23.02-6.12,4.19-3.41,7.74-5.31,13.57-5.92l11.3-1.19c9.89,3.42,10.55,2.08,23.07,5.31,1.87.48,5.54,3.46,7.41,3.07,5.87-1.24,11.53-2.86,17.2-3.37,3.25-.29,8.68.77,9.73-3.54-2.49-6.37-5.32-14.73-4.51-21.22l4.55-2.81c.95-.59-.49-3.52-.76-4.86,1.91-.73,4.78-.2,6.41,1.04l5.25,3.97c3.4,4.79,6.78,8.33,11.74,11.91l-2.47,5.74c.23,2.86,3.29,7.88,6.26,9.88,2.78,1.88,8.43,1.72,10.86,1.04.14-2.95.07-6.12,1.6-7.32,1.42-1.12,3.79-1.67,6.28-2.59,2.99-1.1,6.13-3.9,9.21-5.67,7.41-4.26,3.37-11.66,7.05-10.42,1.08.37,2.86,1.34,4.76,2.41,4.77-6.12,11.99-7.52,18.94-8.38,32.99-4.04,17.55,4.55,33.43,1.61,2.51-.46,5.91.03,8.77.16l10.87.47,9.26-9.58c5.46.47,10.22.79,15.67.53s10.42,1.22,15.76,2.06c5.23.82,11.05-.46,16.67,1.52,3.32,1.17,7.37-.06,9.78-1.89,4.11-3.11,7.42,2.72,10.15,2.64l13.75-.37c3.44-.09,6.51.84,9.25,2.26,1.74.17,5.44-.32,7.2.64s3.37,3.72,4.67,6.05c4.66,8.36-2.35,9.68.14,13.09.46.63,1.83,1.67,2.61,1.92l12.18,3.9c2.58.83,6.14,1.42,8.12,2.96,4.58,3.57,8.59,3.51,14,2.78,8.94-1.21,17.58-2.64,25.94-6.43,2.7-1.23,7.26-3.9,8.15-6.31,4.3-11.72,5.39-19.33,14.93-25.73,5.05-3.39,3.67-14.42,14.1-12.58,4.12-6.14,10.59-9.89,17.33-11.92,4.17-1.26,6.54-5.59,12.57-3.6,4.4,1.45,9.51-1.62,10.29-6.52.59-3.65,2.83-6.05,5.76-8.3l2.1-6.2c.5-1.49,5.06-1.29,6.35-2.49,16.53-15.36,14.68,11.32,43.91-19.83,1.87-1.99,4.12-3.64,7.02-3.85,4.47-.33,9.42-2.9,9.7-7.84.18-3.15-1.92-8.56,1.48-11.09,4.35-3.24,9-7.08,12.88-10.5,4.04,1.67,18.29,5.51,20.25,5.35,1.3-.11,2.79-2.95,3.91-3.96,2.97-2.66,7.65-4.67,9.47-8.14,1.46-2.79,2.63-5.48,4.81-7.36,4.42-3.82,6.69-10.24,2.53-14.93-2.09-2.35-3.17-5.23-2.77-8.76.54-4.79,6.95-4.56,14.79-9.51,10.04-6.33,9.78-14.52,12.88-26.47,1.23-4.73,7.34-3.28,10.23-4.48,5.15-2.13,10.12-3.04,14.38.8,4.59,4.13,11.18-7.33,12.42-9.81,1.45-2.9,1.03-4.93,4.48-6.28,3.18-1.24,5.57-9.56,6.35-13.31,11.17-1.7,5.73-9.32,11.18-13.53,4.39-3.39,3.84-7.68.42-12.14l9.92-3.47,3.68,1.59c.86.37,2.83-1.39,3.83-1.52l10-1.34,10.39,14.01c1.38,1.86,2.54,4.26,4.09,4.93,8.06,3.47,8.17-5.96,17.39-.18,5.93,3.71,15.19,5.62,22.01,3.41s12.36-4,19.38-3.66l13.27-7.69,4.61,5.4c6.12-1.22,12.28-10.55,17.94-8.97,2.5.7,6.5,1.92,8.28-.58.93-1.31.34-4.6-.5-5.88-1.04-1.59-4.17-3.22-6.12-3.08l-10.73.75-2.02,2.67c-.43.57-2.24-1.47-2.64-2.09-1.36-2.08-1.45-7.4,2.12-7,1.48.53,4.12,2.52,5.63,2.67,5.54.52,5.62-4.52,11.91-6.32,5.31-1.52,11.77,1.18,11.85,7.25.03,2.01-.17,7.21,3.43,6.33,2.71-.66,6.04-1.92,8.23-2.82l1.48-3.65c.31-.76,2.55,1.64,2.93,2.37,7.88,15.22,14.06,10.65,15.04,13.07l2.19,5.38c.38.93,2.63,1.92,3.07,2.76,1.13,2.18-3.45,7.69,1.21,9.55,1.31.52,4.19-.79,5.65-.87,4.42-.23,8.3-.37,13.04-2.41,1.65-.71,4.51,2.6,6.38,3.64,3.52,1.97,7.86-1.76,12.37-2.03,1.99-.12,3.36,4.18,4.51,6.94,2.34-.08,5.11-2.41,7.76-4.56s11.31,3.18,11.88,7.19c.24,1.69-1.25,3.99-2.17,5.59l-3.15,5.5c-.79,1.39.83,3.74,2.03,5.01,7.45,7.89,18.25,7.55,28.74,7.06,2.75-.13,6.43.72,8.8-.69,6.99-4.17,11.34,2.39,20.4,8.8l3.88,2.74c1.27.9,6.18-3.65,6.97-1.84l1.31,3c3.57,8.18-9.81,8.44-8.35,17.16.29,1.71,3.49,4.07,5.07,5.25,1.14,7.07,7.7,10.39,14.33,11.41,1.82.27,5.23,4.09,6.97,3.25,3.99-1.94,8.16-4.58,12-1.92,1.86,1.29,4.48,5.24,6.63,5.66,11.87,2.34-.5-.4,14.9,8.66,2.55,1.5,4.2,2.74,7.17,2.06,6.17-1.4,5.72,6.7,10.27,10.98,1.82,1.71,5.44-1.16,7.12-.93,7.05.97,14.29,1.16,19.78-4.29,7.85-1.06,12.02,8.25,19.62,1.6,3.46-3.03,7.94-3.81,12.31-5.65,2.84-2.19,6.14-6.16,8.75-9.22-1.71-5.48-1.1-13.1,4.91-14.96l7.78-2.41c2.7-.83,5.55-.31,6.28,2.6.32,1.29,4.23,3.7,5.08,2.64,2.51-3.11.02-8.6-3.33-10.31-2.35-1.2-3.92-3.36-3.81-5.96s5.58-6.31,7.87-7.56c1.02-.56,3.2,1.17,4.1,2.67,2.52,4.2,7.49-2.89,13.07.07s8.64,1.14,12.6-1.89c5.15-3.95,11.35-7,14.06-13.14.8-1.8,2.01-2.68,4.43-2.91,6.41-.62-.96-8.95,2.3-9.93,2.87-1.84,4.6-4.53,4.59-7.89v-1.98c0-1.17-4.41.06-7.74-3.28-1.18-1.18-1.73-4.89-.98-6.35,2.68-2.17,3.31-4.89,2.71-8.7-.29-1.79.52-6.03-1.02-8.01-1.98-2.54.81-7.21,1.58-10.74,1.18-5.46,1.71-10.89,7.22-14.63.99-.67-.46-3.75-.97-4.86l-9.61-20.62,2.67-7.55c-.3-1.12-1.91-3.7-1.3-4.57.81-1.15,1.34-3.32.62-4.09-9.43-9.97-3.56-8.24-15.91-18.86-7.44,1.92-12.49-1.55-17.9-5.91-3.73-3.01-9.5-5.31-12.29-9.29-3.01-4.3-6.23-9.81-12.94-8.24-2.03.48-4.95,3.04-7.36,5.14-1.1.95-4.04-.55-5.3-1.57-1.69-1.37-4.97,3.21-12.44,4.13-.45.45-1.44,1.52-1.83,1.93-1.46,1.55-4.87-3.61-5.66-4.96-7.07-12.2-8.69-2.38-20.16-14.14-3.87-3.97-8.76-9.72-14.26-10.84-2.97-.61-10.66,1.73-10.27-3.81.24-3.43,1.02-6.44-1.15-9.18-2.33-2.94-5.62-4.53-9.45-4.02l-23.23,3.09c-2.21.29-6.86-.91-9.25-1.23-.78-7.42-5.11-10.78-11.57-11.97-3.36-.62-6.21-.47-9.51.49l-9,2.62c-5.4-1.33-12.89-3.05-18.01-5.43l-6.25-5.68c-2.45-2.23-5.7-2.5-8.84-1.29-6.06,2.34-4.45-2.54-17.29-3.88-5.06,3.86-11.28,6.36-17.29,4.34-4.07-1.36-7.77-1.64-11.78-2.08l-9.04-.98c-10.78-1.17-7.75,10.86-13.22,13.66-11.54,5.9-15.89,5.05-20.17,10.28-1.39,1.7-6.35,3.47-8.17,2.08-3.32-2.55-5.19-5.86-7.49-8.82-2.48-3.19-3.74-5.83-4.32-10.02-.55-3.94-7-5.45-9.75-2.14-3.5,4.22-5.63-3.64-10.31-2.92-4.89.74-3.89,9.44-7.75,4.25l-2.89-3.89c.28.37-21.84,2.85-21.42,5.09-2.15,1.89-3.74,4.58-6.4,5.45l-9.3,3.05c-6.64,2.18-11.59,2.92-17.29-1.68-4.15-3.35-8.37-6.77-8.62-13.45l-12.81-2.13c-4.66-.78-4.78-8.23-7.03-10.7-4.16-4.57-12.12-1.97-17.05.06-5.27,2.17.68-7.44-21.7.15-3.12,1.06-5.71,2.93-8.62,4.43-4.47,2.31-9.18,5.1-8.86,11.27l-5.14,6.82-7.24,2.74c-2.97,1.13-5.13,1.87-8.97,3.05l-2.05,10.26c-.73,1.39-4.05,3.18-5.83,4.07-6.5-1.77-12.97-.68-18.79,3.47-3.73-2.2-7.63-5.26-11.6-6.38-12.9-3.67-6.7-11.41-13.62-10.18-2.02.36-4.18-.2-6.22-1-3.67-1.45-7.32-2.15-11.01-3.23l-9.31-2.72-6.36,6.09c-1.05,1.01-4.56-1.39-6.03-1.5l-10.31-.75c-.46-7.35-5.67-11.48-11.46-13.4-3.95-6.05-15.05-1.29-18.05,1.17-3.96,3.25-3.33,6.45-1.36,10.16l-.24,8.57c-.08,2.78-.91,5.09-3.49,6.45-4.5,2.37-9.11-5.74-14.98-5.47-2.84.13-5.47,3.34-7.87,4.66-3.28,1.8-6.82,2.91-9.41,5.69-4.22,4.52-7.13,10.1-9.16,16.22-6.29,7.6-13.63,6.62-22.88,9.01-1.94,2-1.62,7.21-2.16,9.61-.9,4.05-6.94,2.56-9.03.42-2.86-2.93-5.59-2.75-9.36-2.36-1.87.19-6.38-.69-7.31.83l-1.68,10.02c-.29,1.7-.61,3.26-1.37,4.06s-4.04.94-4.91.3l-4.68-3.47c-5.83-4.32-11.87-8.52-13.42-16.49s-5.39-18.99-15.01-21.18c-3.21-.73-8.06-.1-10.16-3.93-4.73-2.13-15.64,4.06-18.77-6.06-2.28-7.39-9.08-10.88-16.79-8.62-5.99,1.75-4.32,3.75-15.52,10.56-3.3,2.01-5.97,3.13-10.6,2.56-4.26-.52-2.86,5.84-5.81,10.03-17.52,4.53-19.28-4.06-23.95-3.77-1.28.08-3.86,2.94-3.68,4.29.45,3.42,1.52,10.03.29,13.88-.54,1.68-5.4,3.01-6.82,2.02-.87-.6-1.88-2.98-2.77-2.9l-4.02.35c-.51.04-1.71-.04-2.12-.09-.62-.08-1.26-2.43-.89-2.93l4.44-5.97c-3.88-11.75,2.06-9.8-3.82-18.51-1.02-1.51-.71-5.36-1.93-7.36l-5.69-9.35c-2.63-4.32-3.7-5.64-7.66-7.96s-7.47-4.1-12.42-4.84c-17.71-2.65-13.06,4.53-25.92,10.39l-4.58,10.26c-8.67,2.24-25.34,11.94-23.61,22.3-4.71,10.02-5.06,10.89-13.8,18.12l-7.8,6.46c-1.69,1.4-4.05,4.96-5.82,7.05-2.1,1.85-1.78,9.84-6.56,9.63-2.94-.13-8.27.88-9.5,3.87l-2.71,6.59c-1.6,3.88-10.1-7.6-12.48-6.22l-12.13.61c-1.21.06-3.54.35-4.33.6-1.59,4.88-3.96,9.15-6.94,13.22l-4.54,6.2c-.27.37-2.85.44-3.08.04l-1.39-2.36c-.39-.67-2.48-.86-3.26-.56l-8.4,3.29c-5.65,2.21-7.64-8.74-13.73-4.39l-12.22,8.73-.84,6.74c-.51,4.12,3.22,2.46,3.55,8.07.09,1.46-2.61,3.15-4.34,4.38-11.43,32.14-12.55,17.18-21.36,24.92l-6.6,5.81c-1.37,1.21-5,3.25-6.67,4.05-11.06,1.75-2.13.92-16.72,8.56-8.51,4.46-13.02,6.01-23.31,5.5-5.61-.28-11.11-.72-16.75-1.66-4.81-.8-9.15-.71-11.81,4.37-3.46,6.61-12.03,2.55-10.54,6.41l1.46,3.8c-5.97,5.64-4.8-3.99-19.49.85-4.7,1.55-6.85,4.08-6.84,9.36l-4.71,8.16c-.45.78-2.25,1.88-3.02,2.04l-5.81,1.2c-.4.08-1.38,2.1-1.83,2.89-4.99.36-10.58.65-15.78.17-10.96-1.01-8.75,7.07-12.19,4.35l-11.07-8.75c-11.35-8.97,2.12-13.61-6.4-21.96-4.98-4.88-3.28-8.92-12.22-14.79-2.99-1.96-6.08-.53-9.25.16-9.81,2.14-8.74-2.86-18.52,6.48-1.67,1.6-3.38,3.74-4.85,4.22-1.9.63-5.28-1.18-7.18-1.64-5.09-1.22-9.52-2.23-11.42-7.98l-3.33-10.11c-7.67-6.92-9.25-7.75-19.49-11.16-2.2-.49-7.04.85-9.28.68-10.58-3.59-11.36-.09-26.22-1.79-2.57-.3-7.84-1.85-10.08-3.16l-15.37-8.99c-2.25-3.93-10.63-17.08-15.58-18.36l-5-9.34c-.3-.56-2.37-1.9-2.76-1.42s-.99,1.26-1.54,2.11l-2.61,4c-.59.91-3.43-1.13-4.33-1.89-8.63-7.22,1.21-15.27-12.61-19.38-2.1-3.8-4.07-8.77-6.87-11.87-15.04-16.61,5.64-14.3-24.44-24.49-7.45,2.97-14.15.84-16.71,2.7s.62,5.03-3.58,9.28c-3.17,3.21-6.65-6.67-10.88-8.22l-1.97-6.1c-10.4-8.8-11.33-3.27-19.28-11.84-3.24-3.5-6.2,2.01-8.09,2.77-3.22,1.29-4.88-8.66-13.01-9.09-3.12-.16-4.93-5.67-19.3-4.89l-6.17-10.86-5.34-1.67c-2.72-2.73-5.58-6.4-8.79-8.27-3.6-2.09-8.93-1.83-10.33-6.72l-3.8-13.27c-.51-1.77-3.45-4.71-5.22-4.09l-6.6,2.28c-.73.25-2.1.31-2.69-.02-.73-.41-1.52-2.8-1.04-3.46,6.01-8.22,5.79-2.74,5.6-11.19-.21-9.67,1.21-13.15-7.06-18.35-5.05-3.18,1.28-8.83-2.67-16.31-5.54-10.46,6.39-11.89,7.53-21.1.29-2.36-.54-7.73-1.8-9.72-1.57-2.49-4.64-5.13-6.66-7.35l-.16-7.63-7.06-13.14c-1.15-2.14-4.15-1.86-6.56-1.49-4.07.63-6.49-5.07-9.09-7.72l-5.88-5.99-1.98-9.57,4.53-15.28c6.19-20.88-4.23-12.36-3.28-34.72.32-7.39-1.82-13.88-7.69-18.18-4.26-3.12-7.69-7.59-11.9-11.05-3.23-2.66-8.53-4.63-10.99-7.76-10.4-13.25-11.9-2.89-18.94-12.35-4.05-5.44-4.77-.49-21.48-4.48-4.48-1.07-8.24,3.42-8.7,7.76-.3,2.79-3.09,5.93-5.62,7.1-6.86,3.17-13.7,1.96-20.67.04-7.58-2.09-7.09-10.69-9.41-20.96-1.33-5.9-11.36-5.81-15.87-4.14l-8.25,3.06c-3.87-2.02-7.09-1.34-10.86.19-9.42,3.8-4.04,21.39-11.84,21.92-2.18.15-4.29-1.39-5.19-3.43l-5.37-12.08c-2.21-4.97-13-7.51-18.63-8.12l-10.72-12.42c-1.51-1.75-4.49-3.94-6.46-5.5-11.38,1.96-11.18-7.28-27.93-9.43-2.94-.38-6.04.62-8.24-1.31-4.7-4.13-9.99-3.87-12.76-1.1-1.01,1.01-1.1,3.76-1.23,6.43s-4.28,4.85-6.71,5.51c-6.06,1.65-16.32-8.21-20.62-11.49-5.96-4.55-28.4-8.46-22.82-27.31.37-1.25-.4-4.28-.39-5.33.09-9.13.71-16.2-9.14-21.04-5.35-2.64.35-5.49.46-14.46l.15-12.37c.08-6,.07-11.56-.86-17.8-.52-3.48.58-5.9,2.52-8.82s2.28-9.01.82-12.44c-2.06-4.85-6.73-13.24-9.7-16.46l-10-10.87c-9.08-9.87-8.75.63-13.91-8.26l-3.3-5.69c-2.69-4.63-7.09-5.98-12.48-5.63-15.53,1.02-11.43-4.68-18.38-2.65-7.76,2.27-11.82,2.34-18.12,4.41l-21.81,7.18c-12.1,3.98-8.49,4.09-16.62,12.29l-5.48,5.53c-5.93,5.98-16.61,17.72-8.46,25.58l-.58,4.43c-4.29,1.94-8.45.09-12.86-1.35s-9.28,2.25-13.26,3.7c-4.73,1.73-9.45,2.63-13.94,4.59-6.71,2.93-13.55.27-23.48-.11l-8.39-.32c-5.55-.21-5.03,5.14-13.52,3.91-4.48-.65-7.96.54-9.07,5.27-.99,4.21-5.56,7.93-8.61,7.26s-8.68-2.64-11.14-.67c-5.69,4.57-11.41,3.88-17.54,6.78l-13.55,6.42c-3.09,1.47-24.28.89-36.14,10.85l-6,5.04-1.2,1.02c-.6.51-.88,2.83-.32,3.48,10.61,12.37,3.28,11.19,1.5,23.24l6.69,14.26c.88,1.88-1.16,6.01-1.65,7.81-.94,3.45-2.69,5.62-5.59,7.57-7.2,4.83-11.37-.37-12.18,2.4-1.14,3.91,2.52,11.4-6.87,16.63-1.34.74-3.47,2.81-4.7,2.51-1.77-.44-3.97-1.93-5.2-3.19l-2.2-2.25c-.46-.47-5.96,4.41-1.61,10.55-4.17,2.27-6.5,8.93-4.26,11.72.19.23,1.51,1.02,1.66,1.13l2.27,1.71c.67.5-1.41,2.38-2.24,2.27l-1.73-.23-1.41-.2c-.19-.03-1.36.01-1.51.11l-2.05,1.38c-.66.44-.55,3.07.15,3.47l3.32,1.89c.69.39,1.02,2.55,1.08,3.9l-8.21,4.59c-9.14,5.11-4.06.03-8.36,4.76-.98,1.08-3.46,4.34-2.56,5.35,8.19,4.74-5.04,25.36-7.73,25.7-4.23.54-7.12-3.82-14.03-.56-6.3,2.98-.95,9.26-2.17,16.29l-9.12,2.98c-1.25.41-4.22.5-4.85-.68l-2.75-5.14c-.52-.98-3.16-1.56-4.14-1.06l-3.06,1.57-.03.05Z"/>
      <path class="st0" d="M1242.11,1080.27h-357.13c-1.74-3.71-5.91-6.81-9.56-9-6,6.67-8.57,4.29-8.43,9h-24.33c-.27-1.08-.38-2.83-.21-4.13l.69-5.42c-12.88,1.91-8.69-11.55-17.35-6.3-10.07,6.1-19.57-10.35-22.46-18.52l-9.35-9.6c4.58-21.21-5.29-17.75-6.21-27.68-.24-2.57-.8-5.6-3.56-5.2-5.21.75-14.94.76-17.62-1.3-2.5-1.93,1.62-4.38.66-9.38-.6-3.14-15.94-2.06-17.28-2.11l-14.65-.59-8.48,15.1c-1.39,2.47-4.34,5.8-5.41,7.98-7.46,15.1-3.9,4.89-10.76,18.98-1.37,2.82-2.07,7.61-3.22,10.86-.35.98-10.45,8.96-10.56,9.02-1.34.77-4.84-.5-6.53-1.23-3.93-1.68-7.98,1.38-11.77,1.91l-13.73,1.93c-2,.28-5.82-1.53-7.99-.71l-8.2,3.09c-4.06,1.53-10.04-.84-14.21.97-2.37,1.03-5.53,2.48-7.32,1.99-2.89-.79-4.68-2.9-6.28-5.6l-7.95-2.53c-8.72,4.26-6.26,11.77-10.85,16.53-3.89-2.24-3.94-5.39-2.3-9.64l-6.97-7.22c-4.66-.51-7.77-2.41-9.7-6.34-10.82,4.47-6,.03-16.78,6.28-1.79,1.03-7.43,1.46-9.14,1-3.3-.89-1.21-14.11-13.04-21.31-10.75-6.54-6.65.59-19.78-5.14-4.68-2.04-19.71-5.16-24.27-4.66-6.97.77-12.59-1.23-15.34-8.35l-12.54,2.69-14.14-3.13c-2.98-.66-5.96-3.63-10.3-1.92-5.32-4.51-7.94-12.35-8.81-19.23-.81-6.33-7.74-21.57-11.54-28.01l-7.38,4.38c-26.22-3.53-19.39,10.49-30.35,11.43-18.01,1.53-11.61.01-21.93,9.16-10.04-5.24-13.18,8.75-26.61-1.98-6.85-5.47-4.44,7.41-17.26,5.37l-9.83-1.57c-9.89-1.58-19.45-.44-27.65,5.87-16.44,1.55-11.34.08-18.78-5.25-16-11.44-3.23-14.74-8.66-19.42s-10.44,4.18-15.48-.85l-10.14-.27c-1.61-2.97-3.37-5.81-5.74-7.19-4.02-2.34-4.08-5.84-1.85-9.43l-.15-8.4-9.92,1.03c-2.03.21-4.12-4.07-3.53-6.22,1.96-7.15,10.29-2.37,11.94-8.39.71-2.59-1.03-4.86-3.29-6.13l-8.5-4.79c-15.73-1.31-7.86.3-22.06-6.31-3.99-6.64-9.36-6.82-16.16-7.6-5.2-.6-9.83-4.22-15.36-1.95l-16.43,6.74c-2.48,1.02-8.43.82-11.29.73-1.7-.05-3.69-3.92-4.93-5.02-4.11-3.67-8.59-7.72-13.26-10.66-5.12-3.22-10.39-6.52-10.86-13.55,3.65-12.84,8.87-10.91,12.63-24.41l7.42-2.46c2.93-.97,8.11-1.53,10.49.52,4.37,3.75,22.48,20.02,28.11,15.6,1.07-.84,1.62-4.23,1.22-5.66l-2.66-9.6c-.95-3.42-2.5-8.05-3.58-11.02-8.77-8.23,2.35-.31-9.2-21.05l-6.18-11.1c-7.74-13.91-1.33-21.63-5.71-24.62-5.93-4.04-9.53,3.35-17.83-2.64-12.55-9.06-17.06,3.52-30.22-.74-3.38-1.09-6.37-3.91-9.12-5.89l-9.02-6.52c-6.11-4.42-9.87-17.69-16.75-24.9l-11.19-.53c-4.8-9.48-13.67-12.9-22.6-16.72-3.85-1.65-14.61-10.74-17.77-9.06v-193c3-1.04,5.54-3.2,5.11-6.44-.4-2.96-2.21-6.11-5.11-6.56v-59l3.06-1.57c.98-.5,3.62.08,4.14,1.06l2.75,5.14c.63,1.18,3.61,1.09,4.85.68l9.12-2.98c1.22-7.03-4.13-13.32,2.17-16.29,6.91-3.26,9.81,1.1,14.03.56,2.69-.35,15.92-20.97,7.73-25.7-.9-1.01,1.58-4.28,2.56-5.35,4.3-4.72-.79.36,8.36-4.76l8.21-4.59c-.07-1.35-.39-3.51-1.08-3.9l-3.32-1.89c-.7-.4-.81-3.03-.15-3.47l2.05-1.38c.14-.1,1.32-.14,1.51-.11l1.41.2,1.73.23c.84.11,2.92-1.77,2.24-2.27l-2.27-1.71c-.15-.11-1.48-.9-1.66-1.13-2.24-2.78.09-9.44,4.26-11.72-4.35-6.14,1.15-11.01,1.61-10.55l2.2,2.25c1.23,1.26,3.43,2.75,5.2,3.19,1.23.3,3.37-1.76,4.7-2.51,9.38-5.23,5.73-12.73,6.87-16.63.81-2.77,4.98,2.43,12.18-2.4,2.9-1.95,4.65-4.11,5.59-7.57.49-1.81,2.53-5.93,1.65-7.81l-6.69-14.26c1.78-12.05,9.11-10.87-1.5-23.24-.56-.65-.28-2.98.32-3.48l1.2-1.02,6-5.04c11.86-9.95,33.05-9.38,36.14-10.85l13.55-6.42c6.13-2.9,11.84-2.22,17.54-6.78,2.46-1.97,7.96-.03,11.14.67s7.62-3.04,8.61-7.26c1.11-4.73,4.59-5.92,9.07-5.27,8.49,1.23,7.96-4.12,13.52-3.91l8.39.32c9.92.38,16.76,3.04,23.48.11,4.49-1.96,9.21-2.86,13.94-4.59,3.98-1.45,8.86-5.13,13.26-3.7s8.57,3.29,12.86,1.35l.58-4.43c-8.15-7.86,2.52-19.6,8.46-25.58l5.48-5.53c8.13-8.2,4.52-8.31,16.62-12.29l21.81-7.18c6.29-2.07,10.35-2.14,18.12-4.41,6.95-2.03,2.85,3.66,18.38,2.65,5.39-.35,9.79,1,12.48,5.63l3.3,5.69c5.16,8.88,4.83-1.61,13.91,8.26l10,10.87c2.97,3.22,7.64,11.61,9.7,16.46,1.46,3.43,1.19,9.42-.82,12.44s-3.04,5.34-2.52,8.82c.94,6.24.94,11.8.86,17.8l-.15,12.37c-.11,8.97-5.81,11.83-.46,14.46,9.85,4.85,9.22,11.91,9.14,21.04,0,1.05.76,4.07.39,5.33-5.58,18.85,16.86,22.76,22.82,27.31,4.3,3.29,14.57,13.15,20.62,11.49,2.43-.66,6.6-2.95,6.71-5.51s.22-5.42,1.23-6.43c2.77-2.77,8.06-3.02,12.76,1.1,2.2,1.93,5.3.93,8.24,1.31,16.75,2.15,16.55,11.4,27.93,9.43,1.98,1.56,4.95,3.75,6.46,5.5l10.72,12.42c5.64.61,16.43,3.15,18.63,8.12l5.37,12.08c.91,2.04,3.01,3.58,5.19,3.43,7.8-.53,2.42-18.12,11.84-21.92,3.77-1.52,6.98-2.21,10.86-.19l8.25-3.06c4.51-1.67,14.54-1.76,15.87,4.14,2.32,10.27,1.83,18.87,9.41,20.96,6.97,1.92,13.81,3.13,20.67-.04,2.53-1.17,5.33-4.31,5.62-7.1.46-4.34,4.22-8.83,8.7-7.76,16.71,3.98,17.43-.97,21.48,4.48,7.04,9.47,8.54-.89,18.94,12.35,2.46,3.13,7.76,5.11,10.99,7.76,4.21,3.45,7.64,7.93,11.9,11.05,5.87,4.3,8.01,10.79,7.69,18.18-.96,22.36,9.46,13.85,3.28,34.72l-4.53,15.28,1.98,9.57,5.88,5.99c2.6,2.65,5.02,8.36,9.09,7.72,2.4-.37,5.41-.65,6.56,1.49l7.06,13.14.16,7.63c2.03,2.22,5.09,4.86,6.66,7.35,1.26,1.99,2.09,7.36,1.8,9.72-1.14,9.21-13.07,10.64-7.53,21.1,3.96,7.47-2.38,13.12,2.67,16.31,8.26,5.2,6.84,8.68,7.06,18.35.18,8.45.4,2.98-5.6,11.19-.48.66.31,3.05,1.04,3.46.58.33,1.95.28,2.69.02l6.6-2.28c1.78-.61,4.72,2.32,5.22,4.09l3.8,13.27c1.4,4.89,6.74,4.63,10.33,6.72,3.2,1.86,6.06,5.54,8.79,8.27l5.34,1.67,6.17,10.86c14.38-.78,16.18,4.73,19.3,4.89,8.13.43,9.79,10.38,13.01,9.09,1.89-.76,4.84-6.27,8.09-2.77,7.95,8.58,8.88,3.04,19.28,11.84l1.97,6.1c4.24,1.55,7.71,11.43,10.88,8.22,4.2-4.25.97-7.37,3.58-9.28s9.26.27,16.71-2.7c30.08,10.19,9.4,7.88,24.44,24.49,2.8,3.1,4.77,8.07,6.87,11.87,13.81,4.11,3.97,12.16,12.61,19.38.91.76,3.74,2.8,4.33,1.89l2.61-4c.55-.84,1.15-1.63,1.54-2.11s2.46.87,2.76,1.42l5,9.34c4.94,1.29,13.33,14.43,15.58,18.36l15.37,8.99c2.23,1.31,7.51,2.86,10.08,3.16,14.86,1.71,15.65-1.79,26.22,1.79,2.25.17,7.09-1.17,9.28-.68,10.24,3.42,11.82,4.24,19.49,11.16l3.33,10.11c1.9,5.75,6.33,6.76,11.42,7.98,1.89.45,5.27,2.26,7.18,1.64,1.47-.49,3.18-2.62,4.85-4.22,9.77-9.34,8.71-4.34,18.52-6.48,3.17-.69,6.26-2.12,9.25-.16,8.94,5.87,7.23,9.91,12.22,14.79,8.52,8.34-4.95,12.98,6.4,21.96l11.07,8.75c3.44,2.72,1.23-5.37,12.19-4.35,5.2.48,10.79.19,15.78-.17.45-.79,1.43-2.81,1.83-2.89l5.81-1.2c.77-.16,2.57-1.26,3.02-2.04l4.71-8.16c0-5.28,2.14-7.81,6.84-9.36,14.69-4.84,13.52,4.79,19.49-.85l-1.46-3.8c-1.49-3.86,7.08.19,10.54-6.41,2.66-5.07,7-5.17,11.81-4.37,5.65.94,11.14,1.38,16.75,1.66,10.29.51,14.8-1.04,23.31-5.5,14.59-7.64,5.66-6.81,16.72-8.56,1.68-.8,5.3-2.84,6.67-4.05l6.6-5.81c8.81-7.74,9.93,7.22,21.36-24.92,1.73-1.24,4.43-2.92,4.34-4.38-.33-5.61-4.06-3.95-3.55-8.07l.84-6.74,12.22-8.73c6.1-4.36,8.08,6.6,13.73,4.39l8.4-3.29c.78-.3,2.87-.11,3.26.56l1.39,2.36c.23.4,2.81.33,3.08-.04l4.54-6.2c2.98-4.08,5.35-8.34,6.94-13.22.79-.26,3.12-.54,4.33-.6l12.13-.61c2.38-1.39,10.88,10.1,12.48,6.22l2.71-6.59c1.23-3,6.56-4,9.5-3.87,4.77.21,4.46-7.79,6.56-9.63,1.78-2.1,4.14-5.66,5.82-7.05l7.8-6.46c8.74-7.23,9.09-8.1,13.8-18.12-1.72-10.36,14.94-20.06,23.61-22.3l4.58-10.26c12.86-5.86,8.22-13.04,25.92-10.39,4.95.74,8.53,2.56,12.42,4.84s5.03,3.65,7.66,7.96l5.69,9.35c1.22,2.01.91,5.85,1.93,7.36,5.88,8.71-.06,6.77,3.82,18.51l-4.44,5.97c-.37.5.27,2.85.89,2.93.41.05,1.61.14,2.12.09l4.02-.35c.9-.08,1.91,2.3,2.77,2.9,1.42.99,6.28-.34,6.82-2.02,1.23-3.86.16-10.46-.29-13.88-.18-1.36,2.4-4.21,3.68-4.29,4.67-.29,6.43,8.29,23.95,3.77,2.95-4.19,1.55-10.55,5.81-10.03,4.63.57,7.3-.55,10.6-2.56,11.19-6.81,9.52-8.81,15.52-10.56,7.71-2.25,14.51,1.24,16.79,8.62,3.12,10.12,14.03,3.93,18.77,6.06,2.1,3.83,6.95,3.2,10.16,3.93,9.63,2.19,13.4,12.84,15.01,21.18s7.59,12.17,13.42,16.49l4.68,3.47c.87.64,4.15.51,4.91-.3s1.08-2.36,1.37-4.06l1.68-10.02c.93-1.52,5.44-.64,7.31-.83,3.78-.39,6.5-.57,9.36,2.36,2.09,2.14,8.13,3.63,9.03-.42.54-2.4.22-7.61,2.16-9.61,9.26-2.4,16.6-1.41,22.88-9.01,2.03-6.12,4.94-11.7,9.16-16.22,2.59-2.78,6.13-3.89,9.41-5.69,2.39-1.32,5.03-4.53,7.87-4.66,5.86-.27,10.48,7.83,14.98,5.47,2.58-1.36,3.41-3.67,3.49-6.45l.24-8.57c-1.97-3.71-2.6-6.91,1.36-10.16,3-2.46,14.1-7.22,18.05-1.17,5.79,1.92,11.01,6.05,11.46,13.4l10.31.75c1.47.11,4.98,2.51,6.03,1.5l6.36-6.09,9.31,2.72c3.69,1.08,7.34,1.78,11.01,3.23,2.03.8,4.2,1.36,6.22,1,6.92-1.24.72,6.51,13.62,10.18,3.96,1.13,7.86,4.19,11.6,6.38,5.82-4.15,12.29-5.24,18.79-3.47,1.77-.89,5.09-2.68,5.83-4.07l2.05-10.26c3.84-1.17,6-1.92,8.97-3.05l7.24-2.74,5.14-6.82c-.31-6.16,4.39-8.96,8.86-11.27,2.91-1.5,5.5-3.37,8.62-4.43,22.38-7.59,16.43,2.02,21.7-.15,4.93-2.03,12.9-4.63,17.05-.06,2.25,2.47,2.37,9.93,7.03,10.7l12.81,2.13c.25,6.67,4.47,10.1,8.62,13.45,5.7,4.6,10.65,3.86,17.29,1.68l9.3-3.05c2.66-.87,4.26-3.56,6.4-5.45-.43-2.24,21.69-4.71,21.42-5.09l2.89,3.89c3.86,5.19,2.86-3.51,7.75-4.25,4.68-.71,6.81,7.14,10.31,2.92,2.75-3.31,9.21-1.8,9.75,2.14.58,4.19,1.85,6.83,4.32,10.02,2.3,2.96,4.17,6.27,7.49,8.82,1.82,1.39,6.78-.38,8.17-2.08,4.28-5.24,8.63-4.38,20.17-10.28,5.47-2.8,2.44-14.83,13.22-13.66l9.04.98c4.01.44,7.7.71,11.78,2.08,6.01,2.02,12.23-.48,17.29-4.34,12.84,1.34,11.23,6.22,17.29,3.88,3.14-1.21,6.39-.94,8.84,1.29l6.25,5.68c5.12,2.38,12.6,4.09,18.01,5.43l9-2.62c3.3-.96,6.15-1.11,9.51-.49,6.46,1.19,10.79,4.54,11.57,11.97,2.39.32,7.04,1.52,9.25,1.23l23.23-3.09c3.83-.51,7.12,1.07,9.45,4.02,2.17,2.74,1.39,5.75,1.15,9.18-.4,5.54,7.3,3.21,10.27,3.81,5.5,1.12,10.39,6.87,14.26,10.84,11.47,11.76,13.09,1.94,20.16,14.14.79,1.36,4.2,6.51,5.66,4.96.38-.41,1.37-1.48,1.83-1.93,7.46-.91,10.74-5.49,12.44-4.13,1.26,1.02,4.2,2.53,5.3,1.57,2.41-2.09,5.33-4.66,7.36-5.14,6.7-1.57,9.93,3.94,12.94,8.24,2.79,3.98,8.56,6.29,12.29,9.29,5.4,4.36,10.46,7.82,17.9,5.91,12.35,10.62,6.48,8.89,15.91,18.86.72.77.19,2.94-.62,4.09-.61.87.99,3.45,1.3,4.57l-2.67,7.55,9.61,20.62c.52,1.11,1.97,4.18.97,4.86-5.52,3.74-6.04,9.16-7.22,14.63-.76,3.53-3.56,8.2-1.58,10.74,1.54,1.98.73,6.22,1.02,8.01.61,3.81-.03,6.53-2.71,8.7-.75,1.46-.2,5.17.98,6.35,3.33,3.34,7.73,2.11,7.73,3.28v1.98c0,3.36-1.71,6.05-4.59,7.89-3.25.99,4.11,9.32-2.3,9.93-2.42.23-3.63,1.1-4.43,2.91-2.72,6.14-8.91,9.19-14.06,13.14-3.95,3.03-7.04,4.84-12.6,1.89s-10.54,4.14-13.07-.07c-.9-1.5-3.08-3.23-4.1-2.67-2.29,1.25-7.76,4.93-7.87,7.56s1.46,4.76,3.81,5.96c3.35,1.71,5.84,7.2,3.33,10.31-.86,1.06-4.76-1.35-5.08-2.64-.73-2.91-3.58-3.44-6.28-2.6l-7.78,2.41c-6.02,1.86-6.62,9.49-4.91,14.96-2.6,3.06-5.91,7.03-8.75,9.22-4.36,1.84-8.84,2.61-12.31,5.65-7.6,6.66-11.77-2.65-19.62-1.6-5.49,5.45-12.73,5.26-19.78,4.29-1.68-.23-5.31,2.63-7.12.93-4.55-4.28-4.09-12.37-10.27-10.98-2.98.67-4.62-.56-7.17-2.06-15.4-9.06-3.03-6.32-14.9-8.66-2.14-.42-4.76-4.37-6.63-5.66-3.84-2.66-8.01-.02-12,1.92-1.74.84-5.15-2.97-6.97-3.25-6.63-1.02-13.2-4.34-14.33-11.41-1.57-1.19-4.78-3.54-5.07-5.25-1.46-8.72,11.92-8.98,8.35-17.16l-1.31-3c-.79-1.81-5.7,2.74-6.97,1.84l-3.88-2.74c-9.06-6.41-13.41-12.97-20.4-8.8-2.37,1.41-6.05.56-8.8.69-10.49.49-21.29.83-28.74-7.06-1.2-1.27-2.82-3.62-2.03-5.01l3.15-5.5c.92-1.6,2.41-3.9,2.17-5.59-.57-4.01-9.3-9.28-11.88-7.19s-5.42,4.48-7.76,4.56c-1.15-2.76-2.52-7.05-4.51-6.94-4.51.26-8.85,3.99-12.37,2.03-1.87-1.05-4.73-4.35-6.38-3.64-4.74,2.04-8.62,2.18-13.04,2.41-1.46.08-4.34,1.39-5.65.87-4.66-1.86-.08-7.37-1.21-9.55-.44-.85-2.69-1.83-3.07-2.76l-2.19-5.38c-.98-2.42-7.16,2.15-15.04-13.07-.38-.73-2.62-3.13-2.93-2.37l-1.48,3.65c-2.18.9-5.52,2.16-8.23,2.82-3.6.88-3.4-4.32-3.43-6.33-.08-6.07-6.54-8.77-11.85-7.25-6.28,1.8-6.36,6.84-11.91,6.32-1.51-.14-4.15-2.14-5.63-2.67-3.57-.4-3.48,4.93-2.12,7,.4.62,2.21,2.65,2.64,2.09l2.02-2.67,10.73-.75c1.96-.14,5.08,1.49,6.12,3.08.83,1.27,1.43,4.56.5,5.88-1.78,2.5-5.78,1.27-8.28.58-5.66-1.58-11.81,7.75-17.94,8.97l-4.61-5.4-13.27,7.69c-7.02-.34-12.85,1.54-19.38,3.66s-16.08.31-22.01-3.41c-9.22-5.78-9.33,3.65-17.39.18-1.55-.67-2.71-3.06-4.09-4.93l-10.39-14.01-10,1.34c-1,.13-2.97,1.89-3.83,1.52l-3.68-1.59-9.92,3.47c3.42,4.46,3.97,8.75-.42,12.14-5.46,4.21-.01,11.83-11.18,13.53-.78,3.75-3.18,12.07-6.35,13.31-3.45,1.35-3.03,3.38-4.48,6.28-1.24,2.48-7.84,13.94-12.42,9.81-4.26-3.83-9.24-2.93-14.38-.8-2.89,1.2-9-.25-10.23,4.48-3.1,11.95-2.85,20.13-12.88,26.47-7.84,4.95-14.25,4.72-14.79,9.51-.4,3.53.68,6.41,2.77,8.76,4.17,4.69,1.89,11.11-2.53,14.93-2.18,1.88-3.35,4.57-4.81,7.36-1.82,3.47-6.51,5.48-9.47,8.14-1.12,1-2.62,3.85-3.91,3.96-1.95.16-16.21-3.68-20.25-5.35-3.88,3.42-8.53,7.26-12.88,10.5-3.4,2.53-1.31,7.94-1.48,11.09-.28,4.94-5.23,7.51-9.7,7.84-2.9.21-5.14,1.86-7.02,3.85-29.24,31.15-27.38,4.47-43.91,19.83-1.29,1.2-5.85,1.01-6.35,2.49l-2.1,6.2c-2.92,2.26-5.17,4.65-5.76,8.3-.79,4.9-5.9,7.97-10.29,6.52-6.03-1.99-8.4,2.34-12.57,3.6-6.73,2.03-13.21,5.78-17.33,11.92-10.43-1.84-9.05,9.19-14.1,12.58-9.54,6.39-10.62,14-14.93,25.73-.89,2.42-5.44,5.08-8.15,6.31-8.36,3.79-17,5.22-25.94,6.43-5.41.73-9.42.79-14-2.78-1.98-1.54-5.54-2.13-8.12-2.96l-12.18-3.9c-.78-.25-2.15-1.29-2.61-1.92-2.49-3.41,4.52-4.73-.14-13.09-1.3-2.33-2.84-5.05-4.67-6.05s-5.46-.46-7.2-.64c-2.74-1.42-5.81-2.35-9.25-2.26l-13.75.37c-2.72.07-6.04-5.76-10.15-2.64-2.41,1.83-6.46,3.06-9.78,1.89-5.62-1.98-11.45-.7-16.67-1.52-5.34-.83-10.17-2.32-15.76-2.06s-10.21-.06-15.67-.53l-9.26,9.58-10.87-.47c-2.87-.12-6.27-.62-8.77-.16-15.89,2.94-.44-5.65-33.43-1.61-6.95.85-14.17,2.25-18.94,8.38-1.9-1.07-3.68-2.05-4.76-2.41-3.69-1.25.36,6.15-7.05,10.42-3.07,1.77-6.22,4.57-9.21,5.67-2.49.91-4.86,1.47-6.28,2.59-1.53,1.2-1.46,4.36-1.6,7.32-2.43.68-8.08.84-10.86-1.04-2.96-2-6.02-7.02-6.26-9.88l2.47-5.74c-4.96-3.58-8.34-7.12-11.74-11.91l-5.25-3.97c-1.63-1.23-4.5-1.76-6.41-1.04.27,1.34,1.71,4.28.76,4.86l-4.55,2.81c-.81,6.49,2.02,14.85,4.51,21.22-1.06,4.31-6.49,3.25-9.73,3.54-5.67.5-11.34,2.13-17.2,3.37-1.87.39-5.53-2.58-7.41-3.07-12.52-3.23-13.18-1.89-23.07-5.31l-11.3,1.19c-5.83.62-9.37,2.51-13.57,5.92-11.73,4.96-16.95-5.6-23.02,6.12-1.1,1.89-5.35,3.42-8,4.99-.39,2.04-.45,5.92-.39,8.2l.04-.06ZM335.27,268.76c.92-1.99,1.73-3.71,2.19-4.93.64-1.69-9.35-9.83-16.43-8.1-3.92.95-6.52,8.62-4.44,11.92l9.32,14.85c1.4,2.23,4.8,3.65,7.18,2.71,7.42-2.93.55-12.88,2.19-16.45h-.01ZM607.25,420.61c1.26-1.78.69-4.87-.22-5.71s-3.86-2.35-4.7-1.43c-1.08,1.18-.55,4.88.57,5.96.87.83,3.64,2.18,4.35,1.19h0ZM609.29,425.74c-.33-.52-1.81-.64-2.45-.48-1.59,2.7-3.51,7.85-3.21,10.9,4.61,1.52,7.11-8.14,5.67-10.42h0ZM190.07,870.2c-2.16-4.17-6.46-5.39-11.64-7.29l-.48,11.33c11.77-1.35,8.09,6.3,12.65,8.54,3,1.48,2.3-7.14-.53-12.58ZM1813.81,916.83c.82.46,3.89.67,4.22-.02l1.45-3.07c1.41-2.99.52-8.92-3.8-9.1-2.09-.09-5.33.77-8,1.48.11,4.38,2.52,8.68,6.14,10.71h0ZM1345.53,1015.88c2.55-3.01,5.1-6.8,3.92-10.03-.78-2.13-6.27-1.26-8-2.31-3.47-2.1-7.4-3.16-11.72-1.93l-6.96,1.98c.17,6.36,5.02,4.51,8.04,5.84l14.73,6.46h-.01Z"/>
      <path d="M842.67,1080.27H0v-358c3.16-1.67,13.91,7.41,17.77,9.06,8.93,3.82,17.79,7.24,22.6,16.72l11.19.53c6.88,7.21,10.64,20.48,16.75,24.9l9.02,6.52c2.74,1.98,5.74,4.8,9.12,5.89,13.16,4.27,17.67-8.32,30.22.74,8.3,5.99,11.9-1.41,17.83,2.64,4.38,2.99-2.03,10.71,5.71,24.62l6.18,11.1c11.55,20.74.43,12.83,9.2,21.05,1.08,2.97,2.63,7.59,3.58,11.02l2.66,9.6c.4,1.43-.15,4.82-1.22,5.66-5.62,4.42-23.74-11.85-28.11-15.6-2.38-2.04-7.56-1.49-10.49-.52l-7.42,2.46c-3.77,13.5-8.98,11.57-12.63,24.41.47,7.03,5.74,10.33,10.86,13.55,4.67,2.94,9.15,6.99,13.26,10.66,1.23,1.1,3.23,4.97,4.93,5.02,2.86.09,8.81.29,11.29-.73l16.43-6.74c5.54-2.27,10.17,1.35,15.36,1.95,6.8.78,12.17.96,16.16,7.6,14.2,6.62,6.33,5,22.06,6.31l8.5,4.79c2.25,1.27,4,3.54,3.29,6.13-1.66,6.02-9.98,1.25-11.94,8.39-.59,2.14,1.5,6.43,3.53,6.22l9.92-1.03.15,8.4c-2.23,3.58-2.18,7.08,1.85,9.43,2.37,1.38,4.14,4.22,5.74,7.19l10.14.27c5.04,5.02,10.21-3.7,15.48.85s-7.34,7.98,8.66,19.42c7.45,5.32,2.34,6.8,18.78,5.25,8.2-6.31,17.76-7.45,27.65-5.87l9.83,1.57c12.82,2.04,10.41-10.84,17.26-5.37,13.43,10.73,16.57-3.25,26.61,1.98,10.32-9.14,3.92-7.62,21.93-9.16,10.96-.93,4.13-14.96,30.35-11.43l7.38-4.38c3.8,6.43,10.73,21.68,11.54,28.01.88,6.88,3.49,14.73,8.81,19.23,4.34-1.7,7.32,1.26,10.3,1.92l14.14,3.13,12.54-2.69c2.75,7.13,8.37,9.12,15.34,8.35,4.56-.5,19.59,2.62,24.27,4.66,13.13,5.73,9.03-1.4,19.78,5.14,11.82,7.2,9.74,20.41,13.04,21.31,1.72.46,7.36.04,9.14-1,10.78-6.24,5.95-1.81,16.78-6.28,1.93,3.93,5.04,5.83,9.7,6.34l6.97,7.22c-1.65,4.26-1.59,7.4,2.3,9.64,4.58-4.75,2.13-12.27,10.85-16.53l7.95,2.53c1.6,2.7,3.4,4.81,6.28,5.6,1.79.49,4.95-.96,7.32-1.99,4.17-1.81,10.15.56,14.21-.97l8.2-3.09c2.18-.82,5.99,1,7.99.71l13.73-1.93c3.79-.53,7.84-3.59,11.77-1.91,1.69.72,5.19,1.99,6.53,1.23.11-.06,10.21-8.03,10.56-9.02,1.15-3.26,1.85-8.04,3.22-10.86,6.86-14.09,3.3-3.89,10.76-18.98,1.07-2.18,4.02-5.5,5.41-7.98l8.48-15.1,14.65.59c1.34.05,16.68-1.03,17.28,2.11.96,5-3.16,7.45-.66,9.38,2.68,2.06,12.41,2.05,17.62,1.3,2.75-.4,3.32,2.63,3.56,5.2.92,9.93,10.78,6.47,6.21,27.68l9.35,9.6c2.89,8.18,12.38,24.63,22.46,18.52,8.66-5.24,4.47,8.21,17.35,6.3l-.69,5.42c-.17,1.3-.06,3.06.21,4.13h0Z"/>
      <path class="st0" d="M2560,831.32v37.82c-1.5.05-3.91.48-5.73.81-.5.09-2.54-.29-2.41.19l.69,2.48c.95,3.42,1.01,5.89-2.64,7.34-5.75,2.3-5.1-6.24-11.47-11.72-.76-.65-.54-3.22.28-3.45l4.32-1.18-6.78-10.5c-2.23-3.46-.61-6.17,1.29-9.17,2.64-4.17,6.6-5.15,10.9-7.38,3.84-1.99,7.19-5.08,11.54-5.24h0Z"/>
      <path d="M884.98,1080.27h-17.98c-.14-4.71,2.43-2.33,8.43-9,3.64,2.19,7.82,5.29,9.56,9h-.01Z"/>
      <path d="M0,529.27v-13c2.9.46,4.72,3.61,5.11,6.56.43,3.23-2.11,5.4-5.11,6.44Z"/>
      <path d="M335.27,268.76c-1.64,3.57,5.24,13.52-2.19,16.45-2.38.94-5.78-.48-7.18-2.71l-9.32-14.85c-2.07-3.3.52-10.97,4.44-11.92,7.08-1.72,17.08,6.41,16.43,8.1-.46,1.21-1.27,2.94-2.19,4.93h.01Z"/>
      <path d="M1345.53,1015.88l-14.73-6.46c-3.03-1.33-7.88.52-8.04-5.84l6.96-1.98c4.32-1.23,8.25-.17,11.72,1.93,1.74,1.05,7.22.18,8,2.31,1.18,3.23-1.37,7.02-3.92,10.03h.01Z"/>
      <path d="M190.07,870.2c2.82,5.45,3.53,14.06.53,12.58-4.56-2.24-.88-9.89-12.65-8.54l.48-11.33c5.18,1.89,9.48,3.12,11.64,7.29Z"/>
      <path d="M1813.81,916.83c-3.62-2.03-6.03-6.32-6.14-10.71,2.67-.71,5.91-1.57,8-1.48,4.32.18,5.21,6.11,3.8,9.1l-1.45,3.07c-.32.69-3.39.48-4.22.02h0Z"/>
      <path d="M609.29,425.74c1.45,2.28-1.05,11.94-5.67,10.42-.3-3.05,1.62-8.19,3.21-10.9.64-.17,2.12-.04,2.45.48h0Z"/>
      <path d="M607.25,420.61c-.7.99-3.48-.35-4.35-1.19-1.12-1.08-1.66-4.78-.57-5.96.84-.91,3.79.6,4.7,1.43s1.48,3.93.22,5.71h0Z"/>
    </g>
  </g>
  <g id="_生成オブジェクト">
    <path class="st0" d="M694.56,171.17c7.99-5.99,16.31-11.01,25.68-16.68,48.93-29.61,122.22-31.74,160.39,19.98,7.23,9.81,14.67,20.14,25.1,27.82,4.09,3.02,16.38,6.59,20.08,3,19.82-19.23,46.23-23.21,67.89-4.32,25.27,22.03,37.85,57.71,33.2,90.12-12.79,3.89-.95,38.68-13.06,51.72-18.08,7.81-29.99,19.76-36.98,40.97-15.88-18.66-34.8-28.12-57.33-27.1-33.51-14.13-69.45-7.45-96.57,14.2-7.36-12.06-9.1-11.27-20.86-27.93-3.15-4.46-11.72-.43-15.64-5.3-16.59-20.6-24.44,1.8-45.67-6.54-4.5-1.77-13.07-.42-14.57,3.69-3.46,1-5.82-.16-1.63-2.79-.09-2.73-.69-6.33-1.72-6.29l-6.62.28c-7.59,12.64-21.75,19.39-36.18,23.12-16.6,4.3-30.84-5.15-44.32-13.45l-11.54,2.57c-1.36,12.88,13.08,2.92,5.31,35.37-3.53.74-11.26,1.07-14.36-.88-1.97-5.42-10.05-4.18-12.65-6.48-11.71-17.57-21.63-3.3-44.65-10.98-.32-1.25.08-3.61,1.57-3.19s2.94-.76,3.14-2.88c-30.47-11.03-24.53-29.27-41.58-26.7-3.14-9.26-4.51-19.76-1.55-29.16,4.58-14.56,12.46-28.41,29.12-32.82-12.75-13.83,9.26-24.8,18.64-32.07-6.52-6.61-7.13-13.77-5.79-21.35,3.24-18.29,16.39-29.74,33.97-32.75,17.69-3.03,36.08,8.18,39.07,26.55,4.56,4.01,10.79,8.34,16.27,12.31,6.58,4.77,14.06-15.45,29.34-29.13,2.49,2.21,11.45-10.18,14.5-12.89v-.02Z"/>
    <path class="st0" d="M688.58,170.74c-.53-7.02-.51-12.8.04-18.6,4.59,6.04-.97,13.84,3.87,19.14-.78-.1-3.25.59-3.91-.54Z"/>
    <path class="st0" d="M520.99,322.5c17.05-2.57,11.11,15.67,41.58,26.7-.19,2.12-1.68,3.28-3.14,2.88s-1.89,1.94-1.57,3.19c-3.51-1.17-6.95-2.62-10.86-3.15.52,2.77,1.24,4.49,1.97,6.14-14.08-6.33-23.06-21.28-27.98-35.76h0Z"/>
    <path class="st0" d="M629.54,373.63c7.77-32.45-6.67-22.49-5.31-35.37l11.54-2.57c13.47,8.29,27.72,17.75,44.32,13.45,14.43-3.74,28.59-10.48,36.18-23.12l6.62-.28c1.03-.05,1.63,3.55,1.72,6.29-4.19,2.63-1.83,3.79,1.63,2.79l-2.12,5.8-7.33,2.46c-10.43,3.5-22.5,26.11-40.37,23.15-2.11,11.59,6.11,2.63,7.82,15.39-2.12-1.62-5.95,1.26-8.6,1.14l-18.71-.86c12.78.58-25.61-3.19-26.84-5.55-.4-.77,1.21-1.66-.57-2.74l.02.02Z"/>
    <g>
      <path class="st0" d="M181.58,448.91c-7.12,1.78-12.97-3.44-20.47-5.29-27.63-6.81-48.47-36.6-38.21-62.36,3.08-7.73,9.78-15.99,12.07-24.84,3.54-13.65,15.42-21.52,25.4-29.29l23.64-18.41c11.81-9.19,12.31-26.33,12.66-40.48.23-9.36-3.19-66.94,20.6-70.24l36.99-5.13c4.59-.64,11.75-4.63,15.61-8.15l26.04-23.7c21.46-19.53-20.06,4.23,18.77-12.81,2.19-.96-.79-3.11-.54-4.78,4.87-16.38,13.03-31.67,25.54-43.79,13.29-12.87,24.21-30.03,39.55-39.69,35.03-22.05,74.96-22.8,113.99-15.19,5.75.27,2.63-1.35-1.01-3.13,3.71-9.41,12.38-11.26,16.84-18.31,4.55-7.21,9.16-14.32,15.26-20.43,65.82,12.17,124.3,46.16,154.36,109.27,2.9,6.1,4.83,14.33,7.72,21.42,2.4,5.89-1.57,13.57,2.23,18.58-8.88,8.44,6.38,18.55-8.56,31.93-15.27,13.68-22.76,33.9-29.34,29.13-5.49-3.98-11.71-8.31-16.27-12.31-2.98-18.37-21.37-29.58-39.07-26.55-17.59,3.01-30.74,14.46-33.97,32.75-1.34,7.59-.73,14.74,5.79,21.35-9.38,7.27-31.39,18.24-18.64,32.07-16.65,4.42-24.53,18.27-29.12,32.82-4.01-5.91-27.35-8.23-31.4-6.27-5.08,2.46,3.24,9.89-2.69,14.32-1.19.89-3.46,1.38-5.11.58-6.62-1.76-7.58-18.31-26.33-16.88-16.99,1.3-13.78,36.27-50.52,64-31.25,23.58-15.32,46.41-17.06,54.71-1.2,5.72-3.49,6.77-9.25,10.11-8.88,5.15-16.21,16.54-15.5,27.21.82,12.3,10.79,22.68,21.16,29.15l28.45,17.75c7.73,4.82,8.27,14.22,2.54,20.38-20.36,21.88-37.56,12.31-31.09,20.03.58.68.91-2.57,3.21-2.01,3.07.75.5,2.95-.42,3.48-7.54,4.32-22.8,1.05-36.56,10.75-5.45,3.84-11.14,3.1-15.62-1.32-7.36-7.27,10.26-22.94,2.07-25.36,8.39-3.91,12.26-10.86,11.08-21.11-.8-6.92-2.61-7.89-8.41-11.22-33.47-19.25-28.56-24.15-53.72-39.54-2.09,5.3-38.28,8.56-44.29,5.66-4.45-2.16-9.27-.35-14.49-1.3-3.96-.72-7.45-6.05-12.43-5.62-7.46.64-13.52,7.48-20.98,6.98-4.23-.28-6.87.13-10.51,1.04v.04Z"/>
      <path class="st0" d="M480.23,301.96c1.65.8,3.92.31,5.11-.58,5.93-4.43-2.39-11.86,2.69-14.32,4.05-1.96,27.4.36,31.4,6.27-2.96,9.4-1.59,19.9,1.55,29.16,4.91,14.48,13.89,29.43,27.98,35.76,14.5,32.81,24.05,16.05,27.4,21.23,6.59,10.16-3.55,6.44-22.99,16.15-16.54,8.27-23.68,25.56-14.72,41.15,19.2,33.44,50.01,33.37,81.44,53.38,12.25,7.8,43.99,24.88,55.48,23.81-2.53,2.31,10.32,17.86,12.99,19.49,4.78,2.91,18.79-1.08,24.71-2.55,8.61,4.31,6.94,12.47,5.03,21.13-3.72,16.82,5.78,36.1,20.46,41.86-1.22,1.91,2.16,4.03,1.78,5.36-.73,2.55-10.57-.5-12.36,3.6-2.92,6.71,16.7,12.9,21.22,12.49,3.79-2.16,6.39,3.05,1.94,3.62-5.15,1.69-47.21-12.35-41.45-11.98,3.43-.84,1.8-5.13,1.69-8.04-.05-1.29-32.44-28.14-71.89-9.76l-27.35,12.74c-26.65,12.42-47.6,29.59-39.68,61.66,3.71,15.01,13.97,24.35,24.26,37.43,6.14,7.79,18.18,13.36,28.26,12.63,12.02-.86,20.15-9.37,30.45-13.48,7.52-3,17.48-2.66,26.25-3.18,12.34-.73,21.58,7.25,31.2,13.29,3.01,1.89,9.33,1.72,9.01,6.81-.61,9.6,18.54,15.88,16.84,16.42,3.52-1.11,1.68-2.41,2.72-5.13,2.14,2.62,3.04,3.89,5.09,2.74-.17,1.54.76,3.66,1.47,3.53.81-.15,1.62-1.75,2.24-2.11,1.14-.66.4-2.08-.34-2.06-1.5.03-3.08.1-3.37.64.44-1.51.73-2.63,1.86-2.77,1.41-.17,4.01,1.85,5.13,1.46l20.31-7.12c8.08-2.83,14.75-8.58,21.72-11.35,8.06-3.21,13.62-7.51,20.66-12.22,9.56-6.41,24.66-10.44,32.98-20.89,2.12-2.66,11.22-.77,8.24-6.45-2.71-11.96-26.61-18.57-36.44-20.66-.33-1.21-2.2-2.45-3.44-2.32-.71.08-1.98,1.88-3.02,1.27-5.69-3.5-12.07-1.9-15.41-6.58,2.31-1.19,3.81,1.21,5.67,1.05,2.04-.18,3.48,1.32,3.06-2.07-2.77-.4-3.6-.83-4.13-1.54-1.32-1.76-.07-1.84,2.15-4.5-9.32,1.74-16.26-5.6-25.16-8.15-8.59-2.46-17.66-2.12-23.6-7.71.06-2.04,1.33-21.03,4.22-20.04,25.48,21.42,16.95,12.38,32.59,17.85.92.32,1.27-2.88,4.01-2.87,2.69-2.3,2.37-7.14,5.86-9-.8,4.15-.29,8.25-2.81,11.18-1.61,2.4,3.46,7.55,6.55,7.58,2.84.02,10.95.37,10.84-4.06-.06-2.37-6.17-5.11-3.54-8.04,1.78.04,6.98.71,7.64-1.74.49-1.83,1.13-6.47-1.74-7.2-2.07-.52-4.1,1.63-5.49,1.71-1.12.07-1-4.56-2.91-3.81-3.63,1.43-4.97,5.82-8.54,4.39,3.83-2.03,5.62-7.31,8.29-10.52-.47,2.04.98,3.48,3.11,2.59,1.03-.43,2.08-1.49,3.59-2.45-.21,2.07,1.67,3.54,3.09,4.01,1.7.56,5.64.64,5.06-2.3-.61-3.05-6.18-2.15-8.15-1.71-.47-4.74,2.28-8.21,7.59-12.12,2.13-1.57-3.54-3.27-3.87-4.65-1.55-6.52,2.55-11.72.93-16.81,6.42,2.06,3.61-3.39,7.92-4.76-2.99,28.24,13.01,9,1.96,35.92,7.13,7.91,7.81-16.89,27.46-26.78.27,1.7.61,3.56,1.21,4.98,1.14,2.71-3.86,2.44-4.25,4.62-.91,5.06-5.06,11.18-8.48,16.18-2.39-.12-5.64-1.61-7.68.26-3.2,2.92-2.67,5.45-3.41,7.9-2.29,7.53-19.77,13.43-14.19,21.98,1.54,2.36,6.26-1.05,7.1,2.69-2.8.2-5.02.01-6.26,3.18-1.92,4.91,8.68,6.28,8.24,8.64-.15.85-3.77,1.93.05,3.08,4.18,1.25,8.26,11.06,11.71,2.45,2.07,8.05,42.06,29.02,55.51,32.41.71,4.25-.29,7.16,1.11,9.01,5.95-1.22,6.87,4.73,11.87,4.35,1.76-.13,3.14-3.59,3.9-1.32.23.68,2.23,1.63,2.08,2.26-.8,3.45-27.59-4.75-29.27-4.05-15.9,6.59,25.33,9.66,31.72,10.02-9.12,2.74-18.71,1.81-27.55-.45-32.06-8.2-27.32-2.04-44.25,6.49-34.18,17.21,2.15,8.95-25.1,22.39.09-2.38-2.78-2.82-4.53-3.67-1.67-.86.66-2.13,1.35-2.45.75-.35.57.23,3.32-.26-1.16-4.2-1.29-7.35-4.01-11.77-4.49,4.08-10.99,3.37-13.2,8.28-1.24,2.73-3.22-.98-4.36.46-2.26,2.84-1.95,3.76-3.55,4.39-11.9,4.7-23.54,10.41-36.59,16.8-1.02,8.4,14.86-2.09,12.8,7.35-3.56,1.15-1.83,4.86-1.73,7.96-8.4.34-34.34-6.98-34.09-8.68l.83-5.71c-17.96,5.21-37.43,10.11-55.14,4.58l-29.58-9.24c-10.65-3.33-26.76-1.92-31.93,9.53-7.67,16.98,15.95,42.44,44.88,42.6l18.37.1,2.42,9.29c-5.95-.86-12.3,4.31-11.49,10.09.53,3.77,6.18,6.87,5.06,10.95-3.04,3.27-7.66,11.06-5.64,13.97l6.1,8.8c-44.54,51.74-116.19,80.51-184.84,62.62-32.9-8.58-59.46-29.71-71.77-62.59-24.94-13.82-41.75-35.12-54.97-58.48.15-.71.02-1.42.12-2.11.18-1.24-.28-3.14-1.98-2.28.01-2.62-1.14-5.7-.51-8.21,1.98-3.29,15.77,11.74,16.02,13.14,3.72,20.99,17.86,30.31,30.64,44.51,12.54,13.92-9.18-40.47,1.97-34.73,16.21,12.46,30.5,27.31,50.29,36.21,11.04-5.59,13.61,2.41,15.94.82,3.14-2.13,14.88-2.28,29.81-8.63-10.62-7.26-23.41-11.8-37.62-14.62-8.93-1.77-17.34-8.07-26.77-8.23-8.75-.14-15.9-1.22-21.88-9.29-4.57-6.18-10.8-9.94-10.54-19.54.12-4.19-14.49-20.69-9.66-24.86.76.4,1.61.47,2.43.22,8.82,13.12,17.5,27.67,30.81,37.81,9.08,6.91,19.56,8.14,29.8,10.14,6.26,1.22,53.84,12.33,53.46,12.61,1.92-1.4,1.68-4.91,1.21-6.66-.32-1.18-1.27-1.85-4.42-4.77l9.45-6.13c2.43-.1,6.93,1.81,9.59.85,14.21,12.36,11.5,12.39,31.26,12.37-2.35-3.72,2.11-7.82,1.47-10.45l-.98-4.02c1.93-.04,6.29-1.55,6.43,3.29,2.63,2.16,1.54-1.87,2.19-2.6,1.36-1.54,3.93,1.77,7.04,1.65,1.51-2.74-4.36-4.89-4.2-8.01,1.03-5.15-4.33-6.54-5.64-10.18-4.42-12.29-9.94-22.34-19.4-33.33-1.31-1.53-1.44,2.6-2.55,2.16-3.1-1.23-5.31-1.71-5.67-5.62-2.01,1.3-1.13,3.42-2.75,4.22-.68.33-59.84-16.99-65.3-53.82-8.11-54.71,2.37-41.44,2.88-53.09.52-11.84,13.49-20.82,24.72-22.34,1.77-2.22.62-5.66,3.04-6.96,18.56-10.02,11.1-25.76,25.56-39.95-6.67-6.7-5.47-14.12-1.79-21.06,3.92-7.39-5.14-32.61-5.36-33.99-1.45-9.32,1.59-18.31-6.64-27.55-1.34-2.67-6.4-.77-8.34-3.21.56-8.11-6.82-13.5-11.18-18.95-1.27-1.59-5.11,1.15-6.3.13-6.76-5.75-17.38-14.5-27-16.72-3.2-.73-6.79,1.58-9.71-1.12-3.79-.46-3.83,1.34-1.51,3.78-6.03-.45-11.91,2.64-15.76,8.52-3.38,1.13-7.57-5.64-10.73-.1-3.37-8.17-13.19-13.61-14.81-22.39l-4.75-25.74c-1.24-6.73,2.48-12.68,2.8-18.99.47-9.27,4.32-13.73,10-20.65,11.2-13.64,20.82-30.7,37.3-38.23,5.93-2.72,7.6-8.48,11.8-12.52,2.47-2.37,4.7-4.19,3.2-7.74h0Z"/>
      <path class="st0" d="M215.76,503.68l6.31-15.66-55.88-1.82c-52.19-1.69-94.84-25.5-112.48-76.51-9.09-26.28,13.44-46.59-7.3-72.24l-17.53-21.69c-6.97-8.62-15.43-16.48-19.62-26.86-26.47-65.53,7.64-115.94,54.02-157.84,5.61-5.07,11.05-8.78,16.24-14.44,11.96-13.03,22.08-56.56,57.76-65.58,11.42-2.89,23.65-3.15,33.89,4.34,26.91,19.68,30.75,48.72,39.84,71.17-15.45,4.07-39.47-1.03-50.43,16.92-6.04,9.89-10.98,25.43-14.54,36.69-3.03,9.58-3.17,20.51-4.9,31.1-7.48,45.78,12.07,57.95,12.32,90.75.06,7.73-25.05-10.9-23.69-9.57-9.59-9.42-17.13-22.47-22.95-34.17-14.91-8.22-23.79-7.73-38.57-10.62-.22-6.46,4.85-8.41,8.66-12.99-8.57-4.24-19.32,31.11-12.48,43.04,3.34,5.82,3,13.82,6.94,18.52,9.52,11.34,22.24,29.63,22.28,42.4-4.1,1.35-2.32,3.65,1.26,3.57-13.46,16.91-27.98,45.79-23.53,69.04,3.4,17.76,8.86,36.2,24.26,47.46,3.22,2.36,6.54,8.06,10.11,9.39,24.14,9.03,50.7,3,71.2-10.81,3.56-2.4,5.71-5.73,4.62-8.41,3.64-.92,6.28-1.32,10.51-1.04,7.46.5,13.52-6.34,20.98-6.98,4.98-.43,8.47,4.9,12.43,5.62,5.22.95,10.04-.85,14.49,1.3,6.02,2.9,42.2-.36,44.29-5.66,25.16,15.39,20.25,20.29,53.72,39.54,5.8,3.33,7.61,4.3,8.41,11.22,1.19,10.25-2.69,17.21-11.08,21.11-6.59,3.06-14.38,6.92-19.72,12.15l-20.21,19.8c3.61-9.54,13.8-18.02,21.82-24.75,1.74-.57,4.84-2.55,5.57-5.47-10.6-10.32-25.42-14.68-39.8-16.66-.58,2.42-1.03,3.06-1.32,3.78,3.11-7.76-34.8,13.58-46.98,27.61.51-4.93-15.4-19.8-18.9-26.74h-.02Z"/>
      <path class="st0" d="M211.03,126.54c3.64,9,9.67,15.53,17.01,18.32,10.99,4.18,18.93,2.14,29.35-1.43,30.9-10.6,39.42-63.69,108.82-109.61C391.27,17.24,439.74.47,467.46.12c20.47-.26,39.06-.56,56.85,2.73-6.1,6.11-10.71,13.23-15.26,20.43-4.46,7.06-13.13,8.91-16.84,18.31,3.64,1.79,6.76,3.41,1.01,3.13-39.04-7.62-78.96-6.86-113.99,15.19-15.34,9.66-26.26,26.82-39.55,39.69-12.51,12.13-20.67,27.41-25.54,43.79-.24,1.67,2.73,3.82.54,4.78-38.84,17.04,2.69-6.72-18.77,12.81l-26.04,23.7c-3.87,3.52-11.03,7.51-15.61,8.15l-36.99,5.13c-23.78,3.3-20.37,60.88-20.6,70.24-.36,14.15-.85,31.29-12.66,40.48l-23.64,18.41c-9.98,7.78-21.86,15.64-25.4,29.29-2.3,8.85-8.99,17.11-12.07,24.84-10.26,25.76,10.58,55.55,38.21,62.36,7.5,1.85,13.35,7.08,20.47,5.29,1.09,2.67-1.05,6.01-4.62,8.41-20.5,13.81-47.06,19.84-71.2,10.81-3.56-1.34-6.88-7.03-10.11-9.39-15.41-11.26-20.86-29.7-24.26-47.46-4.45-23.25,10.07-52.13,23.53-69.04-3.58.08-5.36-2.22-1.26-3.57-.04-12.77-12.76-31.06-22.28-42.4-3.94-4.7-3.6-12.7-6.94-18.52-6.84-11.93,3.91-47.28,12.48-43.04-3.81,4.58-8.89,6.53-8.66,12.99,14.77,2.9,23.65,2.4,38.57,10.62,5.82,11.7,13.37,24.75,22.95,34.17-1.35-1.33,23.75,17.3,23.69,9.57-.25-32.8-19.8-44.97-12.32-90.75,1.73-10.59,1.87-21.52,4.9-31.1,3.56-11.25,8.5-26.8,14.54-36.69,10.96-17.95,34.98-12.85,50.43-16.92v-.02Z"/>
      <path class="st0" d="M1013.86,800.63c6.97-8.85,10.85-18.85,14.73-30.09,1.79,1-.03,2.42.39,3.19-17.21-31.8,32.8,47.64,11.97,18.63,6.78,9.44,1.24,17.28.13,26.18-2.67,21.42-13.62,37.18-26.68,52.96-4.52,5.46-11.11,8.85-16.94,14.36-13.42,12.68-29.13,18.51-46.79,24.28l-10.58,3.46c-19.44,6.35-40.08-.2-60.43-5.28l-76.48-19.09c-25.32-6.32-38.86.1-64.29-4.22l-7.11-1.21c-7.16-1.21,5.14-17.38,16.57-20.39l.76-31.11c6.83-1.63,10.55,5.58,14.69,9.41,7.5,6.94,17.35,10.64,25.96,17.48,12.34,9.8,30,10.36,44.31,15.7,4.75,1.77,8.81,8.27,16.55,4.61,13.55-6.41,22.94-20.16,26.09-35.38,1.63-7.86,4.37-15.1,4.39-23.06.04-17.18,9.68-23.08,11.12-38.65,13.9-2.88,25.69,2.38,38.16,3.91,2.14.26,36.98,5.19,32.72,11.78-1.29,1.98-3.17,2.28-5.83,2.43-2.24.13-1.78,3.06-.76,4.03.72.69,1.74,2.16,3.53,2.73l15.99,5.08c15.41,4.9,28.72-.18,37.83-11.75h0Z"/>
      <path class="st0" d="M740.87,832.05c-43.08,34.68-64,60.63-119.51,80.28-45.17,15.99-83.56,18.77-129.97,9-61.27-12.9-105.4-60.13-117.85-121.84-1.32-6.54-2.32-13.26-.78-20.55,13.22,23.35,30.03,44.66,54.97,58.48,12.3,32.89,38.87,54.02,71.77,62.59,68.65,17.88,140.3-10.89,184.84-62.62l33.03-24.76c8.56,5.4,15.47,13.19,23.49,19.42h.01Z"/>
      <path class="st0" d="M370.38,766.34c-5.84-13.16-4.38-41.27-16.26-54.94-18.72-21.55-24.77-18.34-53.02-16.62-8.94.55-18.19,1.43-27.12-.55-32.84-7.29-58.87-29.4-71.18-55.72-3.34-7.14-10.02-13.15-8.98-21.91.24-2.01-1.79-1.94-2.49-2.71-.86-.95,1.25-4.14.23-4.6-6.8-3.04-.99-11.53-2.47-14.83-4.9-10.9-1.74-40.6,4.22-50.89,2.82-4.86-1.78-4.81,14.85-30.24,1.36-2.08.71-5.04,1.73-6.78,1.25-2.14,3.81-2.35,5.89-2.86,3.51,6.93,19.42,21.8,18.9,26.74-9.25,10.65-19.32,28.17-18.16,40.75l2.59,28.19c1.8,19.6,11.41,37.24,27.65,49.48,2.66,2.01,8.13-.08,9.92,1.62,2.59,2.45,1.8,7.52,4.39,9.1,17.42,10.62,23.85,10.17,33.78,5.86,9.68.28,19.34,2.18,27.05,10.76l-33.3,3.01,44.38,3.07c6.28.43,43.15,12.36,40.03,21.14-2.19.68-2.84,3.89-5.41,2.89-5.87-2.28-16.75-18.17-27.27-11.82,31.28,9.5,45.08,42.77,63.09,71.28,5.08,8.04,11.39,15.71,15.59,23.5-11.15-5.74,10.57,48.65-1.97,34.73-12.79-14.19-26.92-23.51-30.64-44.51-.25-1.41-14.03-16.43-16.02-13.14h0Z"/>
      <path class="st0" d="M680.06,184.07c14.94-13.38-.31-23.49,8.56-31.93-.55,5.8-.57,11.58-.04,18.6.65,1.14,3.13.45,3.91.54.6.08,1.4,0,2.07-.09-3.05,2.71-12.01,15.11-14.5,12.89h0Z"/>
      <path class="st0" d="M370.89,774.55c1.69-.87,2.16,1.04,1.98,2.28-1.81.34-1.98-.85-1.98-2.28Z"/>
      <path class="st0" d="M883.82,743.09c-2.88-.73-3.22-4.51-5.87-4.81-5.83,3.93-10.61-1.41-17.09.52,1.74-11.49,2.08-21.81,7.51-32.09,22.68,7.02,29.36,24.42,53.34,34.67,8.35,3.58,17.6,5.69,24.57,13.14,5.05,2.29,16.26,2.44,22.22.56,1.86-.09,3.7,6.08,1.07,6.77-33.81,8.86-13.02-3.63-35.72-6.22-1.72-.2-3.82-1.98-5.03-1.77-1.71.3-.44,5.42-1.62,5.73-5.44,1.42-11.6-2.47-17.14-5.83.28-2.76,3.04-1.8,5.54-2.69-1.49-2.37-6.3-3.74-6.99-2.56l-2.6,4.42c-8.86-.7-14.64-7.95-22.17-9.86l-.02.02Z"/>
      <path class="st0" d="M683.86,814.63c8.2-8.81,15.8-17,27.8-12.74,1.83,4.11-3.49,1.08-4.01,3.81,3,3.01,6.77,5.09,9.71,6.94l-33.03,24.76-6.1-8.8c-2.02-2.91,2.6-10.7,5.64-13.97h-.01Z"/>
      <path class="st0" d="M976.04,812.37c.89-2.53-2.91-4.97-1.72-7.39.82-1.66,2.83-6.82,7.18-3.45,1.24-7.88,7.1-11.54,16.09-10.16,2.26-1.84,4.73-4.72,8.53-5.78l2.04,14.17c.58,1.28,4.54,1,5.7.86-9.11,11.57-22.42,16.65-37.83,11.75h0Z"/>
      <path class="st0" d="M335.33,513.99c8.18,2.41-9.43,18.08-2.07,25.36,4.48,4.42,10.18,5.16,15.62,1.32,13.76-9.7,29.02-6.43,36.56-10.75.91-.52,3.49-2.73.42-3.48-2.3-.56-2.64,2.69-3.21,2.01-6.48-7.72,10.73,1.85,31.09-20.03,5.74-6.16,5.19-15.56-2.54-20.38l-28.45-17.75c-10.37-6.47-20.34-16.84-21.16-29.15-.72-10.67,6.62-22.05,15.5-27.21,5.76-3.34,8.05-4.39,9.25-10.11,1.74-8.3-14.19-31.12,17.06-54.71,36.75-27.74,33.53-62.71,50.52-64,18.75-1.43,19.71,15.13,26.33,16.88,1.5,3.55-.74,5.37-3.2,7.74-4.2,4.05-5.87,9.81-11.8,12.52-16.48,7.53-26.11,24.59-37.3,38.23-5.68,6.92-9.53,11.38-10,20.65-.32,6.32-4.04,12.26-2.8,18.99l4.75,25.74c1.62,8.78,11.44,14.22,14.81,22.39,3.16-5.54,7.35,1.23,10.73.1,3.84-5.88,9.72-8.96,15.76-8.52,4.93-.02,9.62,1.88,13.12,6.49,5.69,7.48,15.89,10.61,20.02,19.1,3.41,7.01,12.06,10.43,14.49,16.86,2.63,6.93,6.81,9.58,10.24,14.8,4.64,7.07,6.93,14.53,9.89,20.76,3.48,7.32.87,12.64-.19,18.49-1.79,9.82,1.98,21.32-6.11,31.22-3.49-1.28-6.64-.48-1.76,2.26-6.2,14.39-16.75,26.8-28.57,38.47-8.37,8.26-10.68,20.39-16.37,29.91-4.54,7.59-2.29,16.39-2.98,24.79-2.39,28.95,22.87,43.32,16.52,61.73-2.08,6.03-2.25,10.28-5.42,14.43.11-2.97-1.51-5.95-4.25-8.25-18.19-15.25-30.46-34.71-38.46-56.85-21.68-60.01,23.16-55.42-35.35-105.73-28.01-24.09-81.24-1.35-110.41,17.69-3.47,2.27-9.47,6.07-13.24.9-4.14-15.07,7.85-27.34,13.01-40.97l20.21-19.8c5.35-5.24,13.14-9.09,19.72-12.15h.02Z"/>
      <path class="st0" d="M774.05,722.71c-21.18-27.97-12.88-18.15-32.04-25.63l-20.93-8.17c-6.33-2.47-9.98-3.17-15.04-4.38-10.38-2.47-18.88-6.98-30.53-2-5.02,2.14-51.23,4.87-55.01,4.39-7.74-.98-17.86,1.81-20.34-3.91-5.31-12.23-15.61-7.1-15.74-28.86-.18-30.98,26.3-46.4,53.2-55.76,12.33-4.29,41.49,1.28,53.97,5.49,6.81,2.3,11.8,2.71,18.31,3.13-5.75-.36,36.31,13.67,41.45,11.98.2,3.98,3.97,1,5.98,1.61,5.94,5.59,15,5.25,23.6,7.71,8.9,2.55,15.83,9.89,25.16,8.15-2.22,2.66-3.47,2.74-2.15,4.5.54.71,1.37,1.15,4.13,1.54.43,3.39-1.02,1.89-3.06,2.07-1.86.16-3.37-2.25-5.67-1.05,3.33,4.68,9.72,3.08,15.41,6.58,1.04.61,2.31-1.2,3.02-1.27,1.24-.13,3.11,1.11,3.44,2.32,1.27.75.55,2.07-1.4,3.5-2.77-3.13-5.86-.07-3.84,2.57-25.23,13.68-25.99,25.38-20.2,54.14-6.98,2.78-13.65,8.52-21.72,11.35h0Z"/>
      <path class="st0" d="M461.16,439.78c-2.32-2.44-2.28-4.24,1.51-3.78,2.92,2.69,6.51.38,9.71,1.12,9.62,2.22,20.25,10.97,27,16.72,1.19,1.02,5.03-1.72,6.3-.13,4.36,5.45,11.74,10.84,11.18,18.95,1.94,2.44,7.01.54,8.34,3.21,8.23,9.24,5.19,18.23,6.64,27.55.22,1.38,9.28,26.61,5.36,33.99-3.68,6.93-4.88,14.35,1.79,21.06-14.46,14.19-6.99,29.93-25.56,39.95-2.42,1.31-1.27,4.74-3.04,6.96-11.23,1.52-24.2,10.51-24.72,22.34-.51,11.64-10.99-1.63-2.88,53.09,5.46,36.83,64.62,54.15,65.3,53.82,1.62-.8.74-2.92,2.75-4.22.36,3.91,2.57,4.39,5.67,5.62,1.11.44,1.23-3.69,2.55-2.16,9.46,10.99,14.98,21.04,19.4,33.33,1.31,3.64,6.67,5.03,5.64,10.18-.16,3.12,5.71,5.27,4.2,8.01-3.11.13-5.68-3.19-7.04-1.65-.64.73.45,4.76-2.19,2.6-.14-4.84-4.5-3.34-6.43-3.29-11.22.27-30.46-16.28-29.33-4.47.31,3.27-1.64,4.93-2.42,6.58-2.66.95-7.16-.95-9.59-.85l-9.45,6.13c3.15,2.91,4.1,3.59,4.42,4.77.47,1.76.71,5.26-1.21,6.66.38-.27-47.2-11.39-53.46-12.61l4.56-5.84c3.78-4.86-15.34-13.85,7.91-44.31,3.17-4.15,3.34-8.4,5.42-14.43,6.35-18.41-18.91-32.78-16.52-61.73.7-8.4-1.56-17.2,2.98-24.79,5.69-9.51,8-21.64,16.37-29.91,11.82-11.66,22.37-24.08,28.57-38.47-4.87-2.73-1.72-3.54,1.76-2.26,8.1-9.9,4.32-21.4,6.11-31.22,1.07-5.85,3.68-11.17.19-18.49-2.96-6.22-5.25-13.69-9.89-20.76-3.43-5.22-7.62-7.87-10.24-14.8-2.43-6.43-11.08-9.85-14.49-16.86-4.13-8.49-14.33-11.61-20.02-19.1-3.5-4.61-8.19-6.51-13.12-6.49l-.03-.02Z"/>
      <path class="st0" d="M746.75,731.14c-2.05,1.15-2.95-.12-5.09-2.74-1.05,2.72.8,4.02-2.72,5.13,1.7-.54-17.45-6.82-16.84-16.42.32-5.09-6-4.92-9.01-6.81-9.63-6.04-18.86-14.02-31.2-13.29-8.77.52-18.73.18-26.25,3.18-10.3,4.11-18.43,12.62-30.45,13.48-10.09.72-22.13-4.84-28.26-12.63-10.29-13.08-20.55-22.42-24.26-37.43-7.93-32.07,13.03-49.24,39.68-61.66l27.35-12.74c39.46-18.38,71.84,8.47,71.89,9.76.11,2.92,1.74,7.21-1.69,8.04-6.51-.42-11.5-.83-18.31-3.13-12.48-4.21-41.63-9.78-53.97-5.49-26.9,9.36-53.38,24.78-53.2,55.76.13,21.76,10.43,16.63,15.74,28.86,2.48,5.72,12.6,2.93,20.34,3.91,3.78.48,49.99-2.24,55.01-4.39,11.64-4.98,20.15-.48,30.53,2,5.06,1.21,8.71,1.91,15.04,4.38l20.93,8.17c19.15,7.48,10.85-2.34,32.04,25.63l-20.31,7.12c-1.12.39-3.72-1.63-5.13-1.46-1.13.14-1.42,1.26-1.86,2.77h0Z"/>
      <path class="st0" d="M857.65,671.81c2.98,5.67-6.12,3.79-8.24,6.45-8.32,10.44-23.42,14.48-32.98,20.89-12.13-21.96,7.45-12.21,4.35-34.09-.26-1.82.91-4.46-.24-6.74-.63-1.25-2.78-.6-4.57-1.1-2.02-2.64,1.07-5.69,3.84-2.57,1.95-1.43,2.67-2.74,1.4-3.5,9.84,2.09,33.74,8.71,36.44,20.66Z"/>
      <path class="st0" d="M815.97,657.21c1.79.5,3.94-.14,4.57,1.1,1.15,2.28-.02,4.92.24,6.74,3.1,21.89-16.48,12.13-4.35,34.09-7.04,4.72-12.6,9.02-20.66,12.22-5.79-28.75-5.02-40.45,20.2-54.14h0Z"/>
      <path class="st0" d="M776.28,743.15c2.07-9.44-13.81,1.05-12.8-7.35,13.05-6.39,24.69-12.1,36.59-16.8,1.6-.63,1.29-1.54,3.55-4.39,1.14-1.44,3.13,2.27,4.36-.46,2.21-4.91,8.71-4.21,13.2-8.28,2.72,4.42,2.85,7.58,4.01,11.77-2.75.49-2.57-.09-3.32.26-.69.32-3.02,1.59-1.35,2.45l-18.09,9.84c-8.95,4.87-17.07,10.04-26.14,12.96h-.01Z"/>
      <path class="st0" d="M776.29,743.15c9.07-2.93,17.19-8.09,26.14-12.96l18.09-9.84c1.75.85,4.62,1.29,4.53,3.67-31.17,39.84-23.45,26.02-50.49,27.09-.11-3.09-1.83-6.81,1.73-7.96h0Z"/>
      <path class="st0" d="M675.59,513.98c14.02-1.31,14.47-.61,32.55-2.43.24,6.27,2.85,13.99,5.15,19.37-5.92,1.47-19.93,5.46-24.71,2.55-2.67-1.62-15.52-17.18-12.99-19.49h0Z"/>
      <path class="st0" d="M738.78,593.91c2.45-.88,6.21.25,8.97-1.41,7.07-4.26,10.15,4.98,13.8,8.05-2.89-.99-4.16,18-4.22,20.04-2.01-.6-5.79,2.37-5.98-1.61,4.46-.57,1.85-5.78-1.94-3.62-4.52.41-24.14-5.78-21.22-12.49,1.79-4.1,11.64-1.05,12.36-3.6.37-1.33-3.01-3.45-1.78-5.36h0Z"/>
      <path class="st0" d="M540.91,785.18c.78-1.65,2.73-3.32,2.42-6.58-1.13-11.82,18.11,4.74,29.33,4.47l.98,4.02c.64,2.62-3.82,6.73-1.47,10.45-19.76.02-17.05-.01-31.26-12.37h0Z"/>
      <path class="st0" d="M746.75,731.14c.29-.54,1.87-.61,3.37-.64.74-.01,1.48,1.41.34,2.06-.62.36-1.43,1.96-2.24,2.11-.71.13-1.65-2-1.47-3.53h0Z"/>
      <path class="st0" d="M335.84,667.02c6.7-3.33,11.15,3.22,14.81,5.37,7.48,4.38,27.81,15.93,29.28,26.97.32,2.44-.14,5.43-2.55,6.52-1.19.54-3.06-2.88-4.37-2.47,3.12-8.78-33.75-20.71-40.03-21.14l-44.38-3.07,33.3-3.01c-7.71-8.59-17.37-10.48-27.05-10.76,6.97-3.03,45.99-9.07,40.99,1.59Z"/>
      <path class="st0" d="M656.92,381.9l18.71.86c2.66.12,6.48-2.76,8.6-1.14,1.17,8.78-17.47,20.38-27.98,13.71-3.36-2.13-6.57-5.06-5.6-8.34.79-2.67,3.29-4.48,6.28-5.09h-.01Z"/>
      <g>
        <path class="st0" d="M831.29,625.56c7.85-.56,13.85-6.2,21.29-8.44l52.84,26.5c94.78,47.53,109.92-39.76,139.7,1.74,11.07-1.79,16.79,17.73,16.79,17.79-1.07,7.57-19.04,18.31-22.35,21.1-11.66,9.85-21.98,19.32-33.33,26.82l6.64.31c.72.03,1.63,1.35.68,2.58l-3.31,4.31c-1.95,2.54-4.12,3.45-5.51,6.73-1.07,2.53,1.88,3.69,4.03,7.86-11.67,10.85-26.43,17.84-40.25,22.21-5.95,1.89-17.17,1.74-22.22-.56-6.97-7.46-16.22-9.57-24.57-13.14-23.98-10.25-30.66-27.65-53.34-34.67-5.43,10.29-5.77,20.6-7.51,32.09,6.47-1.93,11.26,3.41,17.09-.52,2.64.3,2.99,4.08,5.87,4.81-.43,9.54-2.68-4.96-24.53,7.81-7.13,4.16-13.48,12.68-19.37,15.22-14.4,3.89-28.16,6.02-41.88,5.1-.16,2.77-1.2,2.86-3.37,3.88-3.49,1.65-2.6-4.18-4.89-3.82-7.3,1.14-15.76,4.06-20.26,9.02-1.39,1.76-1.05-.51-2.38-1.33-.61-.38-2.02,3.25-2.65,3.69-4.29,2.96,4.49-2.3,3.57,2.61-5.79-2.3-10.03.34-14.43,2.13.97-1.6-6.08-2.66,12.96-13.9-26.79,4.87-52.54,10.95-78.72,10.8l-18.37-.1c-28.93-.17-52.56-25.62-44.88-42.6,5.17-11.45,21.28-12.86,31.93-9.53l29.58,9.24c17.71,5.54,37.18.64,55.14-4.58l-.83,5.71c-.25,1.7,25.69,9.01,34.09,8.68,27.04-1.07,19.32,12.75,50.49-27.09,27.25-13.43-9.08-5.18,25.1-22.39,22.8,9.5,4.99-8.69,36.98,7.64,3.52,4.7,8.6,9.73,14.09,10.21,2.66.23,3.98-4.67,3.32-6.53-3.6-10.19-11.99-5.65-10.13-17.82,8.85,2.26,18.43,3.19,27.55.45-6.39-.36-47.62-3.43-31.72-10.02,1.69-.69,28.47,7.5,29.27,4.05.15-.63-1.85-1.58-2.08-2.26-.75-2.27-2.13,1.19-3.9,1.32-5,.38-5.91-5.57-11.87-4.35-1.4-1.85-.4-4.77-1.11-9.01-13.45-3.39-53.44-24.36-55.51-32.41-3.46,8.61-7.54-1.19-11.71-2.45-3.82-1.15-.21-2.23-.05-3.08.44-2.36-10.16-3.73-8.24-8.64,1.24-3.16,3.46-2.98,6.26-3.18h.01Z"/>
        <path class="st0" d="M850.15,701.62c16.93-8.53,12.19-14.7,44.25-6.49-1.86,12.17,6.53,7.63,10.13,17.82.65,1.86-.66,6.76-3.32,6.53-5.49-.48-10.57-5.51-14.09-10.21-31.99-16.33-14.18,1.86-36.98-7.64h0Z"/>
        <path class="st0" d="M827.44,751.35c-4.28,1.85-12.45-.36-10.33-5.91,2.95-7.71,10.83-13.46,18.76-17.12,2.6,6.92,5.44,10.92,9.81,15.76,3.63,4.01-4.01,8.53-6.79,11.19-5.08,4.88-8.1-5.35-11.45-3.91h0Z"/>
      </g>
      <g>
        <path class="st0" d="M234.68,530.45c12.18-14.03,50.09-35.36,46.98-27.61.28-.72.74-1.36,1.32-3.78,14.39,1.98,29.21,6.34,39.8,16.66-.73,2.92-3.83,4.9-5.57,5.47-8.02,6.73-18.21,15.21-21.82,24.75-5.16,13.63-17.15,25.9-13.01,40.97,3.77,5.17,9.77,1.37,13.24-.9,29.16-19.04,82.4-41.77,110.41-17.69,58.51,50.31,13.67,45.73,35.35,105.73,8,22.13,20.27,41.6,38.46,56.85,2.74,2.3,4.35,5.28,4.25,8.25-23.25,30.47-4.12,39.46-7.91,44.31l-4.56,5.84c-10.23-2-20.72-3.23-29.8-10.14-13.31-10.14-21.98-24.7-30.81-37.81.22-2.29-.66-5.48-4.25-6.69-1.39,3.75,1.82,4.26,1.82,6.47-4.84,4.17,9.77,20.66,9.66,24.86-.27,9.6,5.96,13.36,10.54,19.54,5.98,8.07,13.13,9.14,21.88,9.29,9.43.16,17.84,6.46,26.77,8.23,14.21,2.83,27,7.36,37.62,14.62-14.93,6.35-26.67,6.5-29.81,8.63-2.33,1.58-4.89-6.41-15.94-.82-19.8-8.9-34.08-23.75-50.29-36.21-4.2-7.79-10.51-15.46-15.59-23.5-18.01-28.51-31.81-61.78-63.09-71.28,10.52-6.35,21.4,9.54,27.27,11.82,2.57,1,3.22-2.2,5.41-2.89,1.3-.41,3.17,3.01,4.37,2.47,2.41-1.09,2.87-4.09,2.55-6.52-1.47-11.04-21.81-22.58-29.28-26.97-3.66-2.15-8.11-8.7-14.81-5.37,5-10.66-34.02-4.61-40.99-1.59-9.93,4.31-16.36,4.76-33.78-5.86-2.58-1.57-1.8-6.65-4.39-9.1-1.79-1.7-7.26.39-9.92-1.62-16.24-12.25-25.85-29.88-27.65-49.48l-2.59-28.19c-1.15-12.58,8.92-30.1,18.16-40.75h0Z"/>
        <path class="st0" d="M408.57,741.12c0-2.21-3.22-2.72-1.82-6.47,3.59,1.21,4.47,4.4,4.25,6.69-.82.25-1.67.17-2.43-.22h0Z"/>
        <path class="st0" d="M321.34,602.21c-.71-.08-1.59-1.74-2.23-2.11-1.19-.68-.38-2.13.35-2.01,1.15.19,4.37-.73,4.23.73-.2,2.04-1.64,3.47-2.35,3.39Z"/>
      </g>
    </g>
    <g>
      <path class="st0" d="M2319.91,720.47c7.21-10.81,33.43-.63,43,8.23,19.8,18.33,29.6,35.04,37.27,41.6,13.26,11.34,25.61,24.01,42.06,30.09,32.09,11.86,44.16,27.75,65.11,39.32,1.76,5.96-4.61,9.08-6.58,14.91-1.99,5.89-9.2,6.71-10.63,12.03l-14.65-7.1c-15.69-7.61-31.48-15.83-48-20.59-10.46-3.01-39.95-8.59-48.57-6.87l-29.53,5.89c-8.42,1.68-16.88,3.24-24.9,1.4-29.86-6.86-64.82,17.57-99.38,3.31-9.09-3.75-39.94-14.35-41.29-21.58,8.34,2.71,17.44,0,26.82,0s16-2.28,20.94-10.62c15.66-26.46,50.95-19.78,57.73-15.48,27.77,17.63,52.63,15.86,82.2,23.27l45.28,11.35c7.83,1.97,14.36,6.76,23.33,4.88,2.6-.55,6.61,6.03,9.34,1.61-1.24,7.5,4.53,6.91,3.1.6,1.3-2.74,2.92-5.19,2.47-6.9-.31-1.16-2.6-3.78-4.46-3.6-8.44.81-12.23-4.71-18.02-7.87l-19.12-10.42c-22.86-12.46-24.48-17.49-32.61-21.89-37.38-20.24-18.94-15.25-33.41-32.35-8.21-9.71-15.29-20.94-12.46-33.41-6.29-.11-10.45-.98-15.05.21v-.02Z"/>
      <path class="st0" d="M1495.96,667.12c1.58-2.99,7.45-.62,9.87-.66,6.87-.12,15.88-8.2,22.99-6.9l21.79,11.91c31.61,17.28,18.99,50.06,49.57,84.92,6.6,7.53,15.44,15.94,26.36,13.11,3.66,2.05,5.47,7.63,9.9,9.56,1.01,13.86-28.59-2.94-25.25,3.77-32.32-15.8-26.49-34.16-48.76-54.18,10.85-4.51-30.27-19.34-35.92-10.62-1.85,2.86-2.95,3.18-5.84,2.54-4.14-.92-5.18-3.06-4.5-6.25-6.73,2.94-12.22-.2-18.16-3.33,10.09-7.27,39.76-3.62,36.16-10.92-.85-1.72-3.7-5.04-6.33-6.2l-34.08-15.09c-1.33,5.45-2.14,2.42-2.85.45s-3.48-.36-6.03-2.2c4.92-2.64,8.74-5.49,11.09-9.92h-.01Z"/>
      <path class="st0" d="M1752.41,785.26c12.12,3.81,26.66,18.69,42.65,6.52,10.52-8,6.85-14.79,10.5-32.65,1.57-7.64,17.44-8.56,22.63-3.56l5.76,5.55c-2.85,4.74.75,2.18.9-1.14,15.56,7.85,25.47,21.4,36.86,33.11-3.29-1.74-4.84,4.63-6.91,3.95-4.76-1.56-9.75-1.18-13.45-3.36-4.65-2.74-7.26-5.24-10.85-3.78-8.89,3.63.28,6.03-14.01,26.64-7.96,11.48-26.34,17.96-39.13,11.14-12.72-6.78-37.34-26.3-34.94-42.42h-.01Z"/>
      <path class="st0" d="M2038.15,688.5c13.22-5.68,26.57-1.36,37.59,8.93,7.71,7.2,19.87,6.04,30.55,7.65l.8,14.75c-8.85,2.15-22.26-.22-25.37,7.66-3.51,8.91-12.75,16.88-22.38,15.8-29.11-3.27-26.09-16.48-56.5-29.18,4-6.39,9.93-1.77,13.53-3.12,1.07-1.82,1.98-5.84,4.75-7.85,2.67.08,5.96-.26,6.52-4.11.87.17,2.49-.02,1.83-2-.26-.75.01-1.36.15-2.1,2.69-2.04,6.57-3.6,8.53-6.41v-.02Z"/>
      <path class="st0" d="M1731.13,759.65c2.8-9.64-17.86-7.95-11.73-14.3,1.59-1.64,3.07-3.92,6.02-3.14,4.67,1.23,7.96,5.9,12.26,6.1,1.51.07,3.92.68,3.67,2.22-.16.97-3.43,4.52,1.03,1.28,5.84,4.87,19.4,6.32,21.79-2.41,1.99-7.27-1.08-14.17,5.91-18.85,18.67-12.49,34.07-2.76,48.12,11.08-6.92,6.07-12.26-.62-17.31-2.37-12.31,17.82-28.27,17.54-30.31,35-6.37-2.09-10.28-2.88-13.64.71-.63-4.64-.75-3.98-3.21-3.85-1.95.1-5.54-.71-1.66,1.93,4.81-1.56,1.74,3.63.85,4.82-.55.74-2.17.14-3.21-.35-1.35-.25-2.42-1.17-2.01-2.6,1.47-2.91-1.44-6.22-1.96-1.74,1.39,4.23-7.17-6.09-4.39-4.57.52-2.28-2.12-4.46-4.24-4.27-3.05.27-3.43-3.87-5.97-4.69h0Z"/>
      <path class="st0" d="M2490.13,866.68c1.44-5.32,8.64-6.14,10.63-12.03,1.97-5.83,8.34-8.96,6.58-14.91,16.81,9.28,33.06,18.86,50.12,29.87,3.92,2.53,3.11,14.47-.94,16.57-14.05,7.3-26.52-1.86-38.6-5.37-11.15-3.24-18.9-9.84-27.78-14.14h-.01Z"/>
      <path class="st0" d="M1451.37,753.08c1.53-.58,1.41-1.72,2.05-2.49,1.09-1.32-2.03-3.88-1.53-5.47,1.28-4.08,5.35-9.32,8.5-9.71,6.55-.18,12.08,2.48,12.88,7.89,2.25-2.05,3.3-2.65,4.27-3.35,2.54,2.57,3.05,5.71,5.49,7.2-.03.71-.27,1.48-.09,2.18-2.16-.9-1.84,1.17-1.66,2.46.24,1.77.85,5.81-.84,7.49-5.37,5.32-12.52,6.67-19.95,4.48-5.08-1.51-11.17-5.53-12.9-11.95.62.17,1.31.36,1.93.07-.45,1.6.61,2.18,1.85,1.19h0Z"/>
      <path class="st0" d="M1102.49,709.71c-7.4-2.82-16.96-5.51-19.92-13.65,1.47-2.16,4.74-3.35,6.17-3.93,1.78-.72,2.01-4.23.84-5.83,9.7,9.07,22.1,10.03,18.57,23.19-1.98-1.83-1.4-4.37-3.26-4.13-1.37.17,1.17,2.39.5,2.75-.76.41-3.27.77-2.9,1.61h0Z"/>
      <path class="st0" d="M2027.64,699.04c-.56,3.85-3.85,4.18-6.52,4.11.08-2.93,3.88-4.63,6.52-4.11Z"/>
      <path class="st0" d="M2029.47,697.04c.67,1.97-.96,2.17-1.83,2,.17-1.19.05-2.58,1.83-2Z"/>
      <path class="st0" d="M1747.7,774.92c-1.39.74-2.8-.24-1.96-1.74.51-4.48,3.43-1.17,1.96,1.74Z"/>
      <path class="st0" d="M2038.15,688.52c-1.96,2.81-5.84,4.38-8.53,6.41.91-4.72,5.4-5.07,8.53-6.41Z"/>
      <path class="st0" d="M1737.11,764.34c2.12-.19,4.75,1.99,4.24,4.27-1.52-.82-4.05-2.23-4.24-4.27Z"/>
      <path class="st0" d="M726.27,334.82c1.5-4.11,10.06-5.46,14.57-3.69,21.23,8.34,29.09-14.06,45.67,6.54,3.92,4.87,12.49.84,15.64,5.3,11.76,16.66,13.5,15.87,20.86,27.93-2.42,5.73-8.55,10.77-10.57,16.9-26.46,13.02-19.83,7.62-34.78,30.73l-1,9.05c-2.6-.56-5.16.91-9.63,2.05-2.78-9.37-4.78-23.37-15.06-26.44-5.22-1.56-8.22-5.64-12.57-5.44-2.03.09-3.68,3.63-5.92,3.14-22.03-4.82,2.87,1.54-18.57-.73-2.73,2.31-4.69,8.13-5.86,12.42-4.5-1.72-7.18,1.17-8.62,3.37-2.72,4.13-1.36,6.13,1.4,7.77,5.19,3.07,18.08.6,20.28,1.73,2.9,1.49,1.93,5.47,6.14,5.78-1.71-.12,19.26-.66,17.63,7.66-.73,3.76-3.45,10.62.96,12.99-.51-.27,10.3,8.71,13.05,6.52,4.19-3.34-1.08-8.19,16.76-7.77,0,5.72,5.72,12.04,8.52,17.24,6.47,12.03,17.09,16.11,30.05,18.01,4.73.69,5.43-3.33,7.33-7.08,21.89,4.78,41.05,1.5,48.86,6.16,22.26,13.28,33.16,39.31,27.59,64.64,4.42,3.76,18.83,4.83,21.12-.13,3.82-8.29,1.5-18.24,3.79-27.02.06-2.3-.64-4.8,1.99-4.27,2.17,2.15,4.07,7.24,4.36,10.31,1.6,17.21-1.46,38.29-19.75,45.28-13.69,5.23-26.48-5.98-35.38-15.25-7.64-7.94-13.53-17.67-12.87-31.28-1.66.97-3.05,3.46-4.8,3.05-2.04-.48-4.83-3.57-7.09-4.82l-18.75,11.77c-1.16.73-2.46,3.49-3.29,3.15-1.41-.58-.79-4.07-4.64-3.28,2.46,4,.85,6.37.3,8.64-1.31,5.41-4.41,5.64-8.99,6.93-1.26,1.62.03,6.06-1.11,8.46-1.89,3.99-9.7,3.4-11.99,7.38.7-1.21-.42,18.21,9.53,17.97,1.45,2.41.69,7.12.86,9.52-2.67,3.21-4.46,8.49-8.29,10.52-3.5,1.86-3.18,6.7-5.86,9-2.74-.01-3.09,3.19-4.01,2.87-15.64-5.47-7.12,3.56-32.59-17.85-3.66-3.07-6.73-12.3-13.8-8.05-2.75,1.66-6.52.53-8.97,1.41-14.68-5.76-24.18-25.04-20.46-41.86,1.91-8.65,3.58-16.82-5.03-21.13-2.3-5.38-4.91-13.1-5.15-19.37-18.08,1.82-18.54,1.12-32.55,2.43-11.49,1.08-43.23-16.01-55.48-23.81-31.43-20.01-62.24-19.94-81.44-53.38-8.96-15.59-1.83-32.88,14.72-41.15,19.44-9.71,29.58-5.98,22.99-16.15-3.35-5.18-12.9,11.58-27.4-21.23-.73-1.65-1.45-3.37-1.97-6.14,3.91.53,7.35,1.98,10.86,3.15,23.01,7.67,32.94-6.59,44.65,10.98,2.6,2.3,10.68,1.06,12.65,6.48,3.1,1.95,10.83,1.61,14.36.88,1.78,1.08.17,1.97.57,2.74,1.23,2.36,39.62,6.14,26.84,5.55-2.99.62-5.5,2.43-6.28,5.09-.97,3.28,2.24,6.21,5.6,8.34,10.52,6.66,29.16-4.93,27.98-13.71-1.7-12.76-9.93-3.81-7.82-15.39,17.87,2.96,29.94-19.65,40.37-23.15l7.33-2.46,2.12-5.8h.04Z"/>
      <path class="st0" d="M1279.47,631.37c7.7,4.23,14.59.87,22.58-4.51,1.62-1.09,6.46,2.67,8.49-.71,1.18-1.97,1.2-6.02.1-9.84,5.12-3.14,12.81-6.95,10.79-14.64-.43-1.63-4.94-2.34-4.41-4.62,1.04-4.49,14.36-15.34,26.3-14.92,6.08.21,16.65,4.23,19.2,11.9,2.68,8.06-.43,17.13,3.91,24.63,3.79,6.55,12.67,8.22,20.56,6.29,14.04-3.42,13.02-22.09,17.46-26.86,1.86,3.23.92,7.81,3.63,9.84,6.57,1.8,13.13.49,19.76.51.52-7.02,3.66-11.86,6.81-16.54,8.22,1.47,15.72,6.21,25.73,6.03,2.28.53,1.71,2.51-.54,2.35-28.08,1.89-9.31,3.38-10.53,5.91-3.04,6.29-10.32,10.11-11.13,17.09-.43,3.7,4.99,3.81,6.88,4.11,1.07,3.56.26,7.6,2.8,10.61-26.08-3.94-20.03-.1-33.96,8.16l-26.79,15.89c-2.29,1.36-1.33,5.77.34,6.68,1.28.7,3.86-1.96,6.39-2.06,5.84-.23,14.57,10.44,13.84,18.15-48.51,46.51-119.7,84.42-183.34,37.01-14.23-10.6-24.68-23.81-34.92-37.76-7.29.78-13.18,2.38-19.51,1.93-3.37-4.53-.78-10.13-4.27-13.99-5.54-6.12-7.39-11.5-16.42-11.4-1.92.02-3.19-5.54-2.19-7.03,3.68-5.47,7.44,5.57,18.32-9.2-17.55-13.57,17.96-3.68,17.82-16.8-.06-5.93-1.75-10.68,1.97-15.38,16.21-20.48,17.66,10.49,37.18,8.66,4.78-.44,5.17-4.08,9.19-6.05,8.14-3.99,14.06,6.72,19.81,10.88,7.86,5.69,20.31,1.38,28.16,5.69h0Z"/>
      <path class="st0" d="M925.84,518.19c-.32-11.87-6.96-23.36-11.64-36.36,3.4-2.42,9.08-1.58,11.77-5.36,4.78-6.73,12.03-3.08,17.61-3.48,6.34-.45,12.9-2.31,18.94-1.59,10.62,1.26,30.64-5.99,37.92-6.49,5.18-.35,9.06,7.86,35.66-2.96,14.33-5.83,26.02-14.83,32.69-27.92l-.45,3.75c.02-.18,32.29,9.68,27.37,15.26-16.48,16.56,9.93,30.19-8.02,54.61-.99,1.34-.13,4.42-1.86,4.59-1.14.11-3.34.57-4.51-.27-6.8-4.86-12.86-1.59-16.56,2.55-4.3,1.46-11.98-3.23-17.84,2.77.85-.87-23.98,4.42-18.19.26.53-.39,3.83-3.17,2.52-4-7.73-4.93-15.6.99-23.28,2.52-3.16.63-6.64.05-8.53,1.5-3.09,2.37-.99,7.11-2.2,8.88-9.22,13.55-24.94,8.5-37.58,5.36-10.29-2.56-20.57-.54-29.43-3.31-.29-3.07-2.19-8.16-4.36-10.31h-.03Z"/>
      <path class="st0" d="M1459.84,600.3c-.51,1.28.69,1.65,1.25,2.18,1.94,1.84,3.43-3.58,4.77-3.43,24.92,2.7,43.49-15.7,63.65-24.91,21.45-2.41,42.78,17.99,53,34.53-5,3.4-10.19,5.65-15.72,8-1.61.68-2.86-3.91-4.16-4.51,2.13.99-19.5.57-17.72,18.23.5,4.99,7.27,10.1,13.88,10.74-1.11-4.31-4.19-5.73-4.02-8.38.2-3.27,3.46-3.46,5.2-3.96,15.16-4.32-2.94,14.76,15.65,18.47-1.79,3.17-4.87.67-5.84.71-1.28.05-2.67,1.13-2.78,3.65-.07,1.64.58,3.37,2.37,3.42.87,6.89,7.49,12.81,6.72,21.44-5.05,1.27-24.09-12.79-25.48-5.01l-21.79-11.91c-7.11-1.29-16.12,6.78-22.99,6.9-2.42.04-8.29-2.32-9.87.66-4.98-5.57-2.77-13.46-.61-20.75l-7.85-8.15c-14.45-15-.63-12.48-21.49-17.18-17.76-4.01-4.74-2.78-20.94,6.36-1.89-.29-7.31-.41-6.88-4.11.81-6.98,8.09-10.8,11.13-17.09,1.22-2.53-17.55-4.02,10.53-5.91h-.01Z"/>
      <path class="st0" d="M1323.17,553.93l18.86,1.84,15.02,7.29c4.94,2.4,12.96,5.48,16.92,9.68,8.11,8.61,14.07,20.72,26.96,22.4,3.5.12,6.9-3.64,9.5-1.47.53,4.26,4.27,2.48,3.79-1.82-1.97-3.52,1.63-14.17,4.88-12.82,7.14,2.98,11.84,8.46,15.57,12.89-3.15,4.68-6.29,9.52-6.81,16.54-6.63-.03-13.2,1.29-19.76-.51-2.72-2.03-1.78-6.61-3.63-9.84-4.43,4.77-3.41,23.43-17.46,26.86-7.89,1.93-16.77.26-20.56-6.29-4.34-7.49-1.23-16.57-3.91-24.63-2.55-7.67-13.12-11.69-19.2-11.9-11.94-.42-25.26,10.43-26.3,14.92-.52,2.27,3.98,2.98,4.41,4.62,2.02,7.69-5.67,11.51-10.79,14.64,1.1,3.82,1.09,7.86-.1,9.84-2.03,3.38-6.87-.38-8.49.71-7.99,5.38-14.88,8.74-22.58,4.51-.28-2.97,1.49-5.25,4.04-7.25-6.76-2.9-26.7-9.05-27.04-15.3,6.67-1.79,18.12,5.5,19.37,5.01,9.63-3.77,5.9-13.39,8.19-17.9,5.09-10.02,16.61-15.37,22.52-24.85,4.63-7.42,9.14-13.25,16.6-17.19v.02Z"/>
      <path class="st0" d="M1663.45,596.34c2.97-2.33,3.77-2.01,6.26-.18,1.28.94,6.36-1.72,4.88,2.3-3.65.9-6.42-.52-11.27,1.93,4.35,8.89,9.46,15.57,14.25,22.99,2.53-5.12,3.76-8.71,3.49-12.76,3.69.24,5.84,3.44,8.72,5.22-1.01,13.4,4.93,25.28,5.13,28.48.3,4.84-1.5,9.24,1.61,12.7,1.44-4.26,2.53-3.83,4.18-3.89-.52.02,17.48,20.14,21.93,24.95l23.24,25.11c1.74,1.88-.01,5.41-.95,6.67-1.7,2.27-4.99-1.37-6.91-1.62-13.36-1.72-35.78-29.12-63.06-31.81-12.52-18.7-5.44-9.12-10.22-11.15-2.47-1.05,1.13-4.65.19-6.02-8.73-12.77-25.96-20.74-40.86-25.21.36-3.8-3.21-5.79-1.73-11.29l-3.62-13.61c6.54-1.35-.03-7.26.6-9.97,24.08-5.51,20.49,15.75,44.14-2.84h0Z"/>
      <path class="st0" d="M1230.33,551.53c12.63-12.62,25.52-14.94,17.22-40.14,6.16,3.61,9.86,1.54,15.03,1.07,5.62-.52,12.48,7.4,16.72,2.52,2.05-2.36,6.94-4.69,10.58-2.87,2.22,1.11,3.17,3.4,6.13,5.75,1.21,24.37,25.25,8.37,21.27,31.59-8.11.78-12.12,11.34-19.15,13.94-10.29,3.8-22.15-2.71-31.88,4.09-6.86-1.95-12.67,1.39-15.63,6.37-4.76-2.44-8.95.21-12.91-.84,4.23-11.81-12.7-18.31-7.39-21.49h.01Z"/>
      <path class="st0" d="M1784.16,590.15c-1.94-.52-2.55-.77-2.51-1.59.11-2.27-.49-3.78-1.37-3.55-3.21.84-.24,6.87-1.01,7.77-4.31,5.08-12.16,14.24-18.95,19.09-4.06-1.4-4.84-8.17-2.83-12.58,2.96-6.49-1.96-18.74-9.51-21.29-8.29-2.79-16.11,4.11-22.13,6.86-2.92-1.25-4.75-1.3-4.79-2.59l-.22-7.18c-.25-8.37-.77-15.63-8.84-17.89,4.67-1.29,3.54-2.54,4.29-5.8,2.73-11.9,26.61-7.71,19.2-20.05,26.03-1.31,45.99,21.37,44.05,48.64-.18,2.55,2.32.87,3.16,1.36,1.94,1.13.92,3.67,1.46,8.79h0Z"/>
      <path class="st0" d="M1681.05,610.63c-.1-1.61-1.94-3.86-.24-5.06,5.05-3.57,32.88,3.59,51.96-16.27,1.47-1.53,5.75-2.27,9.52-1.36,2.17.53-1.74,4.67,3.25,8.67,1.87-2.12-1.33-4.94,1.44-7.29,5.17,7.29-6.77,30.27-8.7,31.78-18.61,14.55,14.04,43.67,22.94,46.26l11.33,3.3c2.34.68,4.17,4.68,3.57,6.3-2.72,7.31-14.69-1.87-13.3,5.39-34.74-11-40.64-46.43-73.05-66.51-2.88-1.78-5.03-4.98-8.72-5.22h0Z"/>
      <path class="st0" d="M1317.28,549.44c2.39-.24,4.85,2.51,5.89,4.46-7.46,3.94-11.97,9.77-16.6,17.19-5.91,9.49-17.43,14.83-22.52,24.85-2.3,4.52,1.43,14.14-8.19,17.9-1.25.49-12.7-6.79-19.37-5.01-1.19-2.54-4.52-2.7-6.49-4.29-6.06-4.91-15.03-9.73-16.67-18.87-.9-5.01,3.17-9.31,4.37-12.66,3.96,1.05,8.15-1.6,12.91.84,2.96-4.99,8.77-8.32,15.63-6.37,9.73-6.8,21.6-.29,31.88-4.09,7.04-2.59,11.05-13.15,19.15-13.94h0Z"/>
      <path class="st0" d="M812.27,596.03c-.16-2.4.59-7.11-.86-9.52-9.95.24-8.83-19.18-9.53-17.97,2.3-3.99,10.11-3.4,11.99-7.38,1.14-2.4-.16-6.84,1.11-8.46,4.58-1.3,7.68-1.52,8.99-6.93.55-2.27,2.16-4.65-.3-8.64,3.85-.79,3.22,2.7,4.64,3.28.83.33,2.13-2.42,3.29-3.15l18.75-11.77c2.27,1.26,5.05,4.34,7.09,4.82,1.75.41,3.15-2.08,4.8-3.05-.66,13.6,5.24,23.33,12.87,31.28-2.32,1.52-4.92,5.23-7.78,5.88s-4.41,1.55-6.36,2.53c-19.66,9.89-20.33,34.69-27.46,26.78,11.05-26.92-4.95-7.68-1.96-35.92-4.31,1.37-1.5,6.82-7.92,4.76,1.62,5.09-2.48,10.29-.93,16.81.33,1.39,6,3.08,3.87,4.65-5.31,3.91-8.06,7.38-7.59,12.12-1.52.95-2.56,2.02-3.59,2.45-2.13.89-3.58-.55-3.11-2.59v.02Z"/>
      <path class="st0" d="M1230.32,551.52c-4.98-3.51,2.77-9.37,1.73-14.12-1.3-5.94,2.49-10.84,4.36-14.72-6.75-16.37-21.26-15.24-13.2-31.46,5.59,2.14,8.11-3.89,11.8-5.27,12-4.49,23.87,1.66,35.68,2.3,17.38.93,30.54,12.34,38.23,26.89-5.49.12-10.26-.5-12.92,2.71-2.96-2.35-3.91-4.64-6.13-5.75-3.64-1.81-8.53.51-10.58,2.87-4.23,4.88-11.1-3.04-16.72-2.52-5.17.47-8.87,2.54-15.03-1.07,8.31,25.2-4.59,27.53-17.22,40.14h0Z"/>
      <path class="st0" d="M776.61,427.58l1-9.05c14.95-23.11,8.32-17.72,34.78-30.73-4.69,14.25-7.88,28.08-9.68,44.23l-2.28,20.46c-1.46,13.12,9.06,23.48,22.08,26.32-1.89,3.75-2.6,7.77-7.33,7.08-12.96-1.9-23.58-5.99-30.05-18.01-2.79-5.2-8.52-11.52-8.52-17.24v-23.06s0,0,0,0Z"/>
      <path class="st0" d="M1068.83,434.02c2.75-5.39,4.67-13.5,12.97-17.02,7.09-3,21.32-4.03,27.83,1.34,8.79,7.26,8.96-9.8,33.85,28.36-22.52,16.56-35.93-5.52-47.74,6.34,4.92-5.58-27.35-15.44-27.37-15.26l.45-3.75h.01Z"/>
      <path class="st0" d="M1352.84,541.15c12.87-1.25,10.19,4.48,30.95,11.37,7.59,2.52,16.31,1.58,20.53,10.04-6.26,3.65,2.74.09,4.21,1.08,12.6,8.51-4.65,3.34,1.72,21.19,1.22,3.44-1.16,6.07.17,8.83-2.6-2.17-6,1.59-9.5,1.47-12.88-1.68-18.84-13.79-26.96-22.4-3.96-4.2-11.98-7.28-16.92-9.68l-15.02-7.29c.46-7.24,2.4,1.01,10.82-14.61h0Z"/>
      <path class="st0" d="M687.89,784.3c26.17.15,51.92-5.93,78.72-10.8-19.05,11.24-12,12.3-12.96,13.9-8.54,14.2-24.85,20.57-41.98,14.49-12-4.26-19.61,3.93-27.8,12.74,1.12-4.08-4.53-7.18-5.06-10.95-.81-5.78,5.54-10.95,11.49-10.09l-2.42-9.29h.01Z"/>
      <path class="st0" d="M1466.01,621.04c-.03.99-.74,1.55-1.33,2.34-.9,1.2.18,1.91,1.39,3,1.05.95,2.9-1.65,3.98-.53,2.18,2.26,1.73,4.63,1.5,5.88-.53,2.91,4.69,2.32,5.55,4.16l5.89,12.62c1.27,2.72,5.52,4.08,5.43,6.27l-.38,9.01-15.31,14.58c-3.45-6.57-7.66-6.52-9.91-9.53-6.37-8.53-5.43-31.36-14.95-30.83-2.54-3.01-1.73-7.05-2.8-10.61,16.19-9.14,3.17-10.36,20.94-6.36Z"/>
      <path class="st0" d="M860.94,566.94c1.95-.98,3.51-1.88,6.36-2.53,5.59,7.73-.81,15.42-4.58,23.09-4.57,9.32-5.07,20.76-10.17,29.61-7.44,2.24-13.44,7.88-21.29,8.44-.84-3.74-5.56-.33-7.1-2.69-5.58-8.55,11.9-14.45,14.19-21.98.75-2.45.22-4.98,3.41-7.9,2.04-1.86,5.29-.37,7.68-.26,3.43-5,7.57-11.12,8.48-16.18.39-2.19,5.4-1.91,4.25-4.62-.6-1.42-.94-3.28-1.21-4.98h-.02Z"/>
      <path class="st0" d="M1222.29,620.86c1.56-5.42,2.6-15.27,8.72-15.61,7.14-.39,13.2-2.95,18.97-.71,1.97,1.59,5.3,1.75,6.49,4.29.35,6.25,20.29,12.4,27.04,15.3-2.55,2.01-4.32,4.28-4.04,7.25-7.84-4.31-20.29.01-28.16-5.69-5.75-4.16-11.67-14.87-19.81-10.88-4.01,1.96-4.41,5.6-9.19,6.05h-.02Z"/>
      <path class="st0" d="M1788.33,685.78c2.86-6.37-2.5-9.32-2.71-26.5,10.26.51,17.26,5.4,25.81,6.76,1.2,2.79-3.27,6.82,3.36,8.45-4.29,4.17-7.47,8.7-11.84,15.34-5.91-1.39-9.79-4.34-14.63-4.04h.01Z"/>
      <g>
        <path class="st0" d="M1026.9,291.08l-1.57,10.96-2.4,20.68-1.7,12.49c-.4,2.92.54,6.05,1.92,7.12,3.62,2.81,34.69-1.97,35.91-2.32,28.78-8.26,40.52,15.33,44.91,16,17.16,2.63,22.37-14,44.67-29.68,8.52-5.99,15.57-13.57,25.37-19.02,15.66-8.71,33.19-20.91,54.48-22.7l20.23-1.7c18.84-1.58,40.5-5.03,59.86-.83l16.15,3.5c4.97,1.08,9.23,1.8,13.67,3.69l11.49,4.89c30.41,12.96,52.14,40.54,64.78,68.06,7.25,15.8,7.68,30.08,8.2,31.82,12.39,41.15-2.46,51.08.35,55.2,9.72,14.23,35.97,16.75,46.18,25.61,3.7,3.21,7.37,5.52,12.54,5.07,3.73-.32,7.65-1.9,11.82-6.93l7.71-9.31c11.18-13.5,23.19-19.15,40.91-17.79,16.03,1.22,29.89,13.17,38.77,26.53,3.06,4.61,8.25,6.92,11.26,12.41,2.45,4.47,9.06,6.38,13.13,4.79,6.27-2.44,5.09-8.79,21.27-19.3,43.02-27.94,95.86,1.37,109.35,39.43,1.12,3.18-2.21,12.05,1.71,13.14,25.73,7.15,46.15,25.26,49.48,52.64.54,4.43,1.41,12.06-3.19,14.56-.54-5.12.47-7.66-1.46-8.79-.84-.5-3.34,1.19-3.16-1.36,1.95-27.27-18.02-49.94-44.05-48.64,7.41,12.34-16.48,8.15-19.2,20.05-.74,3.26.38,4.51-4.29,5.8,8.06,2.26,8.58,9.52,8.84,17.89l.22,7.18c.04,1.29,1.87,1.34,4.79,2.59,6.02-2.75,13.85-9.65,22.13-6.86,7.55,2.55,12.47,14.8,9.51,21.29-2.01,4.41-1.23,11.18,2.83,12.58,6.79-4.85,14.64-14.01,18.95-19.09.77-.9-2.2-6.93,1.01-7.77.88-.22,1.48,1.29,1.37,3.55-.04.82.57,1.08,2.51,1.59,3.39,7.69-10.25,14.97-11.88,25.84-1.45,9.71,14.15-2.19,23.77,7.29-2.54,2.29-4.56,5.58-7.94,7.97,2.83,7.59,8.46,8.04,13.35,10.37,3.13,1.49,5.07,7.69,9.82,5.19,11.45,13.09,28.16,15.93,30.92,24.52-12.36.4-14.59-2.7-30.78-5.28-8.55-1.37-15.54-6.25-25.81-6.76.21,17.18,5.58,20.13,2.71,26.5-9,.55-17.51-.92-25.5-3.45-1.39-7.27,10.59,1.91,13.3-5.39.6-1.62-1.23-5.62-3.57-6.3l-11.33-3.3c-8.89-2.59-41.55-31.7-22.94-46.26,1.93-1.51,13.87-24.49,8.7-31.78-2.78,2.35.43,5.16-1.44,7.29-4.99-4-1.08-8.15-3.25-8.67-3.77-.91-8.06-.16-9.52,1.36-19.08,19.86-46.91,12.7-51.96,16.27-1.7,1.2.13,3.45.24,5.06.26,4.05-.97,7.64-3.49,12.76-4.79-7.42-9.91-14.1-14.25-22.99,4.85-2.46,7.62-1.03,11.27-1.93,11.13-2.74,23.05.14,35.3-2.08-.23-6.67-9.48-3.38-11.58-5.61-15.11-16.03-33.53-28.21-53.5-36.9-5.38-2.34-7.02-6.96-14.94-7.58-7.73-.6-17.39-12.99-26.51-9.87-8.13,2.79-15.2,4.6-23.73.6-5.84-2.73-17.7-4.2-24.93-3.17-8.82,1.25-15.29,9.88-25.77,4.8l-.16,8.23-19.27,1.77c.22,10.2-31.68,20.07-39.08,20.46-22.01,1.17-19.63,1.29-42.48-4.52-8.76-2.23-14.03-12.26-21.93-18.12-5.95-4.42-13.18-7.23-15.11-15.05-9.38,5.77-21.99-7.18-31.56-9.42-.25,4.11,3.03,4.11,6.58,5.66-3.32,2.75-8.64-.12-11.99,2.31-3.42,2.48.35,8.55-1.08,11.19-8.43,15.62-10.36,7.37-10.82,14.61l-18.86-1.84c-1.03-1.95-3.5-4.69-5.89-4.46,3.98-23.22-20.06-7.22-21.27-31.59,2.66-3.2,7.43-2.59,12.92-2.71-7.69-14.55-20.85-25.95-38.23-26.89-11.81-.64-23.68-6.79-35.68-2.3-3.69,1.38-6.21,7.41-11.8,5.27-8.06,16.22,6.45,15.09,13.2,31.46-1.87,3.88-5.66,8.78-4.36,14.72,1.04,4.75-6.7,10.61-1.73,14.12-5.31,3.18,11.62,9.68,7.39,21.49-1.2,3.35-5.27,7.65-4.37,12.66,1.64,9.14,10.61,13.96,16.67,18.87-5.77-2.24-11.83.32-18.97.71-6.12.33-7.17,10.19-8.72,15.61-19.52,1.82-20.98-29.14-37.18-8.66-3.72,4.7-2.03,9.46-1.97,15.38.14,13.12-35.37,3.23-17.82,16.8-10.88,14.77-14.64,3.73-18.32,9.2-1,1.48.27,7.05,2.19,7.03,9.03-.11,10.88,5.28,16.42,11.4,3.5,3.86.9,9.46,4.27,13.99,6.33.44,12.22-1.16,19.51-1.93,10.25,13.95,20.69,27.16,34.92,37.76,63.63,47.4,134.83,9.49,183.34-37.01.73-7.72-8-18.38-13.84-18.15-2.53.1-5.11,2.76-6.39,2.06-1.67-.92-2.63-5.32-.34-6.68l26.79-15.89c13.93-8.26,7.87-12.1,33.96-8.16,9.52-.52,8.58,22.3,14.95,30.83,2.24,3.01,6.46,2.96,9.91,9.53l15.31-14.58.38-9.01c.09-2.19-4.16-3.55-5.43-6.27l-5.89-12.62c-.86-1.84-6.08-1.24-5.55-4.16.23-1.25.68-3.62-1.5-5.88-1.09-1.13-2.93,1.47-3.98.53-1.21-1.08-2.29-1.8-1.39-3,.59-.79,1.3-1.34,1.33-2.34,20.86,4.7,7.04,2.19,21.49,17.18l7.85,8.15c-2.16,7.29-4.37,15.18.61,20.75-2.35,4.44-6.17,7.28-11.09,9.92,2.55,1.83,5.32.21,6.03,2.2s1.52,5,2.85-.45l34.08,15.09c2.63,1.16,5.48,4.48,6.33,6.2,3.6,7.3-26.07,3.65-36.16,10.92,5.94,3.12,11.43,6.26,18.16,3.33-.68,3.19.36,5.33,4.5,6.25,2.89.64,3.99.32,5.84-2.54,5.65-8.72,46.77,6.12,35.92,10.62-1.95-2.75-40.86.03-43.82,1.45-6.7,3.23-13.41-.03-20.86,1.4-3.41.66-6.71,3.35-9.98,1.44-.43-3.86-4.48-2.14-8.93-2.21.37-3.66,3.27-2.94,6.25-2.21-1.59-4.66-3.53-7.05-7.2-4.28-1.64,1.24-6.19,1.96-3.53,5.77-4.73-1.44-6.25,1.01-4.13,4.66,6.36.35,12,.48,15.71,3.48-.03,3.01-.51,6.92-2.91,8.98-2.44-1.49-2.95-4.63-5.49-7.2-.97.71-2.02,1.31-4.27,3.35-.8-5.41-6.34-8.07-12.88-7.89-3.15.39-7.21,5.62-8.5,9.71-.5,1.59,2.62,4.15,1.53,5.47-.63.77-.51,1.91-2.05,2.49.66-1.76-.68-1.73-1.85-1.19-.62.29-1.32.1-1.93-.07-5.92-21.96-47.4,12.99-56.79,21.26-26.54,23.39-56.79,40.41-91.67,46.92-48.5,9.06-108.67-13.66-135.75-60.46l-9.5-16.42c-8.47-14.64-10.93-23.46-24.14-24.39-10.05-.71-18.9-5.82-27.24-9-.37-.84,2.14-1.2,2.9-1.61.67-.36-1.87-2.57-.5-2.75,1.86-.25,1.28,2.3,3.26,4.13,3.53-13.16-8.87-14.13-18.57-23.19-1.18-1.1-2.92-2.9-3.84-3.95-1.16-1.33-2.78-4.4-4.25-5.58-3.16-2.55-4.64,1.59-6.77,3.13l-12.04,8.72c4.74-3.43-38.76,46.91-34.37,48.24.39,11.71,3.9,23.17.28,33.66-3.88,11.24-7.76,21.24-14.73,30.09-1.15.14-5.12.41-5.7-.86l-2.04-14.17c-3.8,1.06-6.27,3.94-8.53,5.78-8.98-1.38-14.84,2.28-16.09,10.16-4.35-3.37-6.36,1.79-7.18,3.45-1.19,2.43,2.62,4.86,1.72,7.39l-15.99-5.08c-1.79-.57-2.81-2.04-3.53-2.73-1.02-.97-1.48-3.9.76-4.03,2.66-.15,4.55-.44,5.83-2.43,4.26-6.59-30.58-11.52-32.72-11.78-12.47-1.53-24.26-6.79-38.16-3.91-1.44,15.57-11.08,21.47-11.12,38.65-.02,7.96-2.76,15.2-4.39,23.06-3.15,15.23-12.53,28.97-26.09,35.38-7.74,3.66-11.8-2.84-16.55-4.61-14.32-5.34-31.97-5.9-44.31-15.7-8.61-6.84-18.45-10.53-25.96-17.48-4.14-3.83-7.86-11.05-14.69-9.41-2.25.54-6.28,1.29-8.24-.24-8.02-6.23-14.93-14.02-23.49-19.42-2.93-1.85-6.7-3.94-9.71-6.94.51-2.73,5.84.3,4.01-3.81,17.13,6.09,33.44-.29,41.98-14.49,4.4-1.78,8.65-4.43,14.43-2.13.92-4.9-7.86.35-3.57-2.61.63-.43,2.04-4.07,2.65-3.69,1.33.82.99,3.08,2.38,1.33,4.5-4.96,12.96-7.88,20.26-9.02,2.29-.36,1.4,5.47,4.89,3.82,2.17-1.02,3.21-1.1,3.37-3.88,13.72.92,27.48-1.22,41.88-5.1,5.89-2.53,12.24-11.05,19.37-15.22,21.85-12.77,24.1,1.73,24.53-7.81,7.53,1.92,13.3,9.16,22.17,9.86l2.6-4.42c.69-1.18,5.5.19,6.99,2.56-2.51.89-5.26-.06-5.54,2.69,5.54,3.36,11.7,7.25,17.14,5.83,1.18-.31-.1-5.43,1.62-5.73,1.21-.21,3.32,1.57,5.03,1.77,22.7,2.59,1.91,15.08,35.72,6.22,2.62-.69.78-6.86-1.07-6.77,13.83-4.36,28.58-11.36,40.25-22.21-2.15-4.17-5.1-5.33-4.03-7.86,1.39-3.28,3.56-4.19,5.51-6.73l3.31-4.31c.95-1.23.04-2.55-.68-2.58l-6.64-.31c11.35-7.5,21.67-16.97,33.33-26.82,3.31-2.8,21.28-13.53,22.35-21.1.01-.06-5.72-19.58-16.79-17.79-29.78-41.5-44.92,45.79-139.7-1.74l-52.84-26.5c5.11-8.85,5.6-20.29,10.17-29.61,3.76-7.68,10.17-15.36,4.58-23.09,2.86-.65,5.46-4.36,7.78-5.88,8.9,9.27,21.68,20.48,35.38,15.25,18.29-6.99,21.35-28.07,19.75-45.28,8.87,2.78,19.14.75,29.43,3.31,12.64,3.14,28.35,8.18,37.58-5.36,1.2-1.77-.89-6.51,2.2-8.88,1.88-1.45,5.37-.87,8.53-1.5,7.68-1.53,15.55-7.45,23.28-2.52,1.31.84-1.99,3.62-2.52,4-5.79,4.16,19.04-1.13,18.19-.26,5.86-6,13.54-1.31,17.84-2.77,3.7-4.14,9.76-7.4,16.56-2.55,1.17.84,3.37.38,4.51.27,1.73-.17.87-3.24,1.86-4.59,17.95-24.42-8.46-38.05,8.02-54.61,11.81-11.86,25.23,10.22,47.74-6.34-24.89-38.16-25.05-21.1-33.85-28.36-6.52-5.38-20.74-4.34-27.83-1.34-8.3,3.51-10.22,11.63-12.97,17.02-6.67,13.1-18.36,22.09-32.69,27.92-26.61,10.82-30.48,2.6-35.66,2.96-7.28.5-27.31,7.75-37.92,6.49-6.04-.72-12.6,1.14-18.94,1.59-5.58.39-12.83-3.25-17.61,3.48-2.69,3.79-8.37,2.94-11.77,5.36,4.68,12.99,11.32,24.49,11.64,36.36-2.62-.53-1.93,1.97-1.99,4.27-2.29,8.77.03,18.73-3.79,27.02-2.29,4.96-16.7,3.89-21.12.13,5.57-25.33-5.32-51.36-27.59-64.64-7.8-4.66-26.97-1.38-48.86-6.16-13.02-2.84-23.54-13.19-22.08-26.32l2.28-20.46c1.8-16.15,4.99-29.99,9.68-44.23,2.01-6.12,8.15-11.16,10.57-16.9,27.12-21.65,63.06-28.33,96.57-14.2,22.54-1.02,41.45,8.45,57.33,27.1,6.99-21.21,18.9-33.16,36.98-40.97,12.12-13.04.28-47.83,13.06-51.72v-.02Z"/>
        <g>
          <path class="st0" d="M1811.29,646.79c-4.75,2.5-6.68-3.7-9.82-5.19-4.89-2.33-10.52-2.78-13.35-10.37,3.38-2.38,5.4-5.68,7.94-7.97,2.12,2.1,7.91,4.21,9.33,8.13,1.75,5.67,2.06,10.82,5.9,15.41h0Z"/>
          <path class="st0" d="M1485.94,738.15c-3.71-3.01-9.34-3.13-15.71-3.48-2.12-3.65-.6-6.1,4.13-4.66-2.66-3.81,1.88-4.53,3.53-5.77,3.66-2.76,5.61-.37,7.2,4.28-2.98-.73-5.87-1.44-6.25,2.21,4.45.07,8.5-1.65,8.93,2.21-3.01-1.27-6.71.73-2.22,2.43.06.92.39,1.89.39,2.79h0Z"/>
          <path class="st0" d="M1074.73,679.9c2.13-1.54,3.61-5.68,6.77-3.13,1.47,1.19,3.1,4.26,4.25,5.58-3.9-.2-6.91-3.27-11.02-2.44h0Z"/>
          <path class="st0" d="M1487.77,732.94c1.14,2.01-.06,3.54-2.22,2.43-4.48-1.7-.78-3.7,2.22-2.43Z"/>
          <path class="st0" d="M1482.94,749.33c.29,1.18.25,3.36-1.66,2.46-.17-1.29-.5-3.36,1.66-2.46Z"/>
          <path class="st0" d="M1226.27,369.45c3.93-.93,5.26-.58,6.23-1.42-18.24,15.8,16.13-21.53,12.21-18.79,14.26-9.99,63.34-23.26,47.37-5-17.96,20.54-10.49,38.87-27.64,26.36-2.51-1.83-25.73-1.46-27.84,8.85-5.28-3.43-7.91-5.97-10.33-10Z"/>
          <path class="st0" d="M972.24,605.3c5.71-2.15,7.2-3.5,7.39-7.08,6.36-3.82,15.31-4.08,21.47-9.03,2.99-2.4,1.76-7.46,5.54-8.14,3.34-.61,5.84-3.82,9.25.41.8-4.15-.77-8.63,2.48-10.08,28.45-12.72-4.69-5.52,29.38-16.01,6.74-2.08,37.66-7.12,46.55-5.61,1.46,1.92-30.63,12.29-29.59,11.65-6.88,4.2-15.65,7.28-22,11.79-4.55,3.22-4.64,7.23-12.14,7.42-4.91.13-8.5,9.95-13.24,12.98l-17.58,11.25c-5.21,3.34-23.9,8.01-27.52.45h0Z"/>
          <path class="st0" d="M1331.9,769.27c16-4.24,27.33-16,44.12-19.46-42.33,31.27-105.46,46.37-147.97,19.06,49.54,15.74,58.07,12.52,103.86.39h-.01Z"/>
          <path class="st0" d="M1739.93,634.04c-2.4-7.15,2.06-10.62,5.87-15.16,3.19-3.79,4.93-1.42,7.29-.96,11.22,2.21-6.77,19.64,14.39,34.64,10.18,7.21-18.55,8.28-27.55-18.53h0Z"/>
          <path class="st0" d="M1691.82,518.02c12.07-.25,21.25,7.34,25.23,16.51l-17.36,11.8c-5.7-11.5-2.45-12.77-7.87-28.31Z"/>
        </g>
      </g>
      <path class="st0" d="M803.99,606.54c3.57,1.43,4.91-2.96,8.54-4.39,1.91-.75,1.79,3.88,2.91,3.81,1.39-.08,3.42-2.23,5.49-1.71,2.87.72,2.23,5.37,1.74,7.2-.65,2.45-5.85,1.78-7.64,1.74-2.64,2.93,3.48,5.66,3.54,8.04.12,4.43-8,4.08-10.84,4.06-3.09-.03-8.15-5.18-6.55-7.58,2.51-2.93,2-7.03,2.81-11.18h0Z"/>
      <path class="st0" d="M827.12,597.85c.59,2.94-3.35,2.87-5.06,2.3-1.43-.47-3.3-1.94-3.09-4.01,1.97-.44,7.54-1.34,8.15,1.71Z"/>
      <path class="st0" d="M1624.06,634.06c-2.3-.7-20.97,2.59-24.62-1.65,3.14,3.66-4.06-33.81-9.09-37.7l-16.12-12.47c-4.21-3.25-12.61-8.71-16.2-12.9-1.1-.6-2.63,2.62-4.55,1.91-31.21-11.44-15.91,7.96-29.42-1.99-3.73-2.74.37,5.33-11.24-1.43,5.75-5.69,13.66-6.07,16.04-13.66,22.49,2.29,55.68,1.74,72.52,24.96,5.63-4.88,12.72-7.82,17.34-9.23,27.12,7,20.01,15.98,33.69,20.74,3.87,1.35,8.56,1.65,11.03,5.69-23.65,18.59-20.06-2.66-44.14,2.84-.63,2.71,5.94,8.62-.6,9.97l3.62,13.61c-1.48,5.5,2.1,7.5,1.73,11.29v.02Z"/>
      <path class="st0" d="M1569.4,655.07c.7-21.97,13.93,22.12,26.83,27.88,1.41,4.01,1.92,4.94,3.79,6.08,4.26,2.59,6.11,1.63,11.49,1.55-.88,3.46-3.62,1.77-6.53,2.55.97,2.17,4.82,3,2.47,6.89,16.79,3.28,34.96,4.36,54.47,2.63,2.11-.18,2.49,3.02,2.4,3.92-.42,4.2-7.97,3.89-15.21,4.32-13.32.8-26.97,2.9-39.54-4.61-4.43,9.05,13.27,20.22,6.1,20.25-2.36-3.52-21.37-34.15-28.86-35.01-4.03-.46-2.05,4.37-3.45,7.88l-2.77,6.94c1.02-2.55,17.08,47.79,57.8,53.69.54,3.79-1.25,8.55,2.46,10.61,3.33,1.85,7.15,4.65,8.24,8.25.41,1.92,1.17,4.46-.91,4.9-1.63.34-3.19-.23-5.69.15-3.91.59-3.37-3.71-6.04-4.87-4.43-1.93-6.24-7.5-9.9-9.56-10.91,2.83-19.75-5.58-26.36-13.11-30.58-34.86-17.96-67.64-49.57-84.92,1.39-7.79,20.43,6.28,25.48,5.01.77-8.63-5.85-14.55-6.72-21.44l.02.02Z"/>
      <path class="st0" d="M1638.38,760.02c-40.72-5.9-56.78-56.25-57.8-53.69l2.77-6.94c1.39-3.51-.59-8.35,3.45-7.88,7.49.87,26.5,31.5,28.86,35.01,13.9,20.73,21.99,11.33,35.54,10.01,8.79-.86,14.65,6.82,21.35,13.64,4.08,4.14-3.02,8.1-5.09,11.26-4.73,7.19-7.31,16.02-15,20.35-1.47-2.46-2.29-3.43-3.38-2.9-1.09-3.6-4.91-6.4-8.24-8.25-.73-3.11,2.13-9.95-2.46-10.61h0Z"/>
      <path class="st0" d="M1609.55,706.28c12.57,7.51,26.22,5.41,39.54,4.61,4.27,7.82,7.53,18.12,2.1,25.65-13.55,1.32-21.64,10.72-35.54-10.01,7.17-.03-10.52-11.19-6.1-20.25Z"/>
      <g>
        <path class="st0" d="M1352.86,541.12c1.42-2.65-2.34-8.71,1.08-11.19,3.35-2.42,8.66.44,11.99-2.31-3.55-1.55-6.83-1.55-6.58-5.66,9.57,2.24,22.17,15.18,31.56,9.42,1.93,7.82,9.16,10.64,15.11,15.05,7.9,5.86,13.17,15.89,21.93,18.12,22.85,5.81,20.47,5.69,42.48,4.52,7.41-.4,39.31-10.26,39.08-20.46l19.27-1.77.16-8.23c10.47,5.09,16.95-3.55,25.77-4.8,7.23-1.03,19.09.43,24.93,3.17,8.53,3.99,15.6,2.18,23.73-.6,9.12-3.12,18.78,9.27,26.51,9.87,7.92.61,9.56,5.24,14.94,7.58,19.96,8.69,38.39,20.87,53.5,36.9,2.1,2.23,11.35-1.06,11.58,5.61-12.25,2.22-24.17-.66-35.3,2.08,1.48-4.02-3.6-1.36-4.88-2.3-2.49-1.84-3.29-2.16-6.26.18-2.47-4.04-7.16-4.35-11.03-5.69-13.67-4.75-6.57-13.74-33.69-20.74-4.62,1.41-11.71,4.36-17.34,9.23-16.84-23.22-50.02-22.67-72.52-24.96-2.38,7.59-10.29,7.97-16.04,13.66,11.62,6.77,7.52-1.31,11.24,1.43,13.51,9.94-1.8-9.45,29.42,1.99,1.93.71,3.45-2.51,4.55-1.91,3.6,4.19,11.99,9.65,16.2,12.9l16.12,12.47c5.03,3.89,12.23,41.36,9.09,37.7,3.64,4.25,22.31.96,24.62,1.65,14.91,4.47,32.13,12.43,40.86,25.21.94,1.38-2.66,4.97-.19,6.02,4.78,2.03-2.31-7.55,10.22,11.15,27.28,2.69,49.69,30.08,63.06,31.81,1.93.25,5.21,3.89,6.91,1.62.95-1.26,2.69-4.79.95-6.67l-23.24-25.11c-4.44-4.81-22.44-24.93-21.93-24.95-1.65.06-2.74-.38-4.18,3.89-3.11-3.46-1.31-7.85-1.61-12.7-.19-3.2-6.13-15.08-5.13-28.48,32.41,20.08,38.31,55.52,73.05,66.51,7.99,2.53,16.49,4,25.5,3.45,4.84-.3,8.72,2.65,14.63,4.04,4.37-6.65,7.55-11.18,11.84-15.34-6.63-1.63-2.16-5.66-3.36-8.45,16.19,2.58,18.42,5.67,30.78,5.28,5.17-.17,15.98-.99,16.91-7.73-4.25-5.5-8.14-11.02-7.8-17.74.36-7.04,5.4-11.61,12.19-17.17,14.92-12.23,41.27-8.8,52.98,6.87,4.37,5.85,10.06,10.32,10.58,17.04.63,8.15,4.22,15.45,4.08,23.32-.47,26.48,21.37,9.86,48.59,28.33,13.15,8.93,27.28-1.49,41.37-1.1-2.77,2.01-3.68,6.03-4.75,7.85-3.6,1.35-9.53-3.27-13.53,3.12,30.41,12.7,27.39,25.92,56.5,29.18,9.62,1.08,18.87-6.9,22.38-15.8,3.11-7.89,16.52-5.51,25.37-7.66l-.8-14.75c-10.69-1.62-22.84-.45-30.55-7.65-11.02-10.3-24.37-14.61-37.59-8.93,15.67-22.46,42.5,9.26,50.12,8.8,9.49-.57,19.2,3.87,27.24,1.3,5.98-2.71-1.97-12.37-1.86-16.48.4-15.11,15.81-24.19,29.04-26.82,41.15-8.18,80.04,40.5,78.92,34.05.35,2.07,16.3,19.99,16.37,20.04,6.85,12.7,19.36,23.86,32.86,32,8.97,5.4,46.32,14.27,45.55,14.55,1.19-.44,2.15-1.35,2.66-3.23,1.6-5.92-14.6.26-18.34-18.17,4.7-5.22,12.93-11.48,19.18-14.09,4.6-1.19,8.76-.32,15.05-.21-2.83,12.47,4.24,23.7,12.46,33.41,14.47,17.1-3.97,12.11,33.41,32.35,8.13,4.4,9.75,9.43,32.61,21.89l19.12,10.42c5.79,3.16,9.58,8.68,18.02,7.87,1.85-.18,4.15,2.44,4.46,3.6.45,1.7-1.17,4.16-2.47,6.9,1.43,6.31-4.34,6.9-3.1-.6-2.73,4.42-6.74-2.16-9.34-1.61-8.97,1.88-15.5-2.92-23.33-4.88l-45.28-11.35c-29.57-7.41-54.43-5.65-82.2-23.27-6.77-4.3-42.07-10.97-57.73,15.48-4.94,8.33-11.8,10.62-20.94,10.62s-18.48,2.71-26.82,0l-30.75-23.08c-6.84-5.13-17.2,1.12-24.51-2.47,4.62-.5,10-3.29,17.48-2.44-7.9-4.51-14.41-7.81-20.83-3.97-8.47,5.06-18.53,8.92-28.22,15.44-21.47,14.43-34.3-2.15-47.61.31-2.01.37-2.35,1.81-4-.71-3.59-5.49,11.3,1.26,10.28-4.34-8.34-4.39-15.03-8.19-22.3-11.3,1.45-1.9,5.79-2.47,9.25-3.04,4.58,6.36,13.36,6.6,19.7,5.18,1.73,1.28,4.52,4.88,6.33,4.16l7.16-2.84c-25.15,9.97,44.73-8.45,33.81-6.52-.06,1.41,1.71,2.42,2.29,3.13,1.08,1.33,2.62-.72,3.26-1.54,1.13-1.47-1.08-2.54-2.4-1.89-.76.38-1.86-.2-3.15.3,6.87-9.15-8.92-4.99-12.17-16.27-1.64-5.69-.14-9.86,1.51-15.6-9.54.62-16.24,6.61-23.48,11.76-30.42,21.65-57.86,4.07-80.97-17.91-1.02,3.94,2.99,6.13,1.05,10.59-11.01-8.58-26.75-9.56-35.52,1.27-1.77,2.18-2.96,6.01-1.93,7.87-1.85-3.35,12.53,9.28,10.58,8.94,2.25.39,4.52,2.01,7.59-1.55-4.38-2.94-3.28-4.86.7-4.05,6.39,2.7,12.32,2.72,16.34-2.37.55,2.95.83,4.38,3.22,4.53,1.02.06,1.21-.44,3.82-1.41,8.09,12.42,23.12,6.56,28.93,16.63-20.35.09-34.94-5.16-47.97,6.02-4.35,3.74-12.41,2.63-14.96,9.05-1.12,2.84-6.34,4.11-7.46,7.47.95-3.78,4.26-10.5.03-12.03-4.56-1.65-9.12-3.15-11.55-6.4,1.28-1.92,4.09-2.97,4.5-4.19,1.26-3.74-19.13-8.99-22.47-7.58-2.89-18.77-9,4.68-37.36-29.55-3.94-4.75-3.03-5.05-6.69-3.7-4.2,1.55-4.39,1.72-5.6,7.87-5.98,2.61-14.32-37.1-17.58-25.8-6.8,23.53-20.69,21.29-33.98,26.5-5.19-5.01-21.07-4.09-22.63,3.56-3.65,17.86.01,24.65-10.5,32.65-15.99,12.17-30.52-2.71-42.65-6.52.04-2.99-3.38-4.62-2.71-7.73,1.04.49,2.65,1.09,3.21.35.9-1.19,3.96-6.38-.85-4.82-3.88-2.64-.29-1.83,1.66-1.93,2.45-.13,2.58-.79,3.21,3.85,3.35-3.59,7.26-2.79,13.64-.71,2.03-17.45,18-17.18,30.31-35,5.05,1.76,10.4,8.44,17.31,2.37-14.05-13.85-29.46-23.58-48.12-11.08-6.99,4.69-3.92,11.59-5.91,18.85-2.39,8.72-15.95,7.28-21.79,2.41-4.46,3.25-1.19-.31-1.03-1.28.25-1.54-2.16-2.15-3.67-2.22-4.3-.2-7.59-4.87-12.26-6.1-2.95-.78-4.43,1.5-6.02,3.14-6.13,6.34,14.53,4.66,11.73,14.3-40.73-12.25-47.67,19.93-91.48,30.72-3.79.93-5.86,2.45-9.81-1.14-19.29-.72,3.1,4.24-18.66-6.4-3.34-6.71,26.26,10.1,25.25-3.77,2.67,1.17,2.13,5.46,6.04,4.87,2.5-.37,4.06.19,5.69-.15,2.09-.44,1.32-2.98.91-4.9,1.1-.54,1.91.44,3.38,2.9,7.69-4.33,10.27-13.16,15-20.35,2.07-3.15,9.16-7.11,5.09-11.26-6.71-6.82-12.56-14.5-21.35-13.64,5.44-7.53,2.17-17.83-2.1-25.65,7.24-.43,14.8-.11,15.21-4.32.09-.9-.29-4.11-2.4-3.92-19.51,1.74-37.68.66-54.47-2.63,2.35-3.88-1.49-4.72-2.47-6.89,2.9-.78,5.65.92,6.53-2.55-5.38.09-7.23,1.04-11.49-1.55-1.88-1.14-2.39-2.07-3.79-6.08-12.9-5.75-26.13-49.85-26.83-27.88-1.79-.04-2.44-1.78-2.37-3.42.11-2.52,1.5-3.6,2.78-3.65.97-.04,4.06,2.45,5.84-.71-18.59-3.71-.49-22.79-15.65-18.47-1.74.49-4.99.69-5.2,3.96-.16,2.65,2.92,4.07,4.02,8.38-6.6-.63-13.38-5.74-13.88-10.74-1.77-17.66,19.85-17.24,17.72-18.23,1.3.61,2.54,5.2,4.16,4.51,5.53-2.34,10.72-4.6,15.72-8-10.22-16.55-31.55-36.94-53-34.53-20.16,9.21-38.73,27.61-63.65,24.91-1.34-.14-2.83,5.27-4.77,3.43-.56-.53-1.75-.9-1.25-2.18,2.24.16,2.82-1.81.54-2.35-10.01.18-17.51-4.55-25.73-6.03-3.73-4.43-8.43-9.91-15.57-12.89-3.25-1.36-6.85,9.29-4.88,12.82.49,4.3-3.26,6.08-3.79,1.82-1.32-2.77,1.05-5.39-.17-8.83-6.36-17.85,10.89-12.68-1.72-21.19-1.46-.99-10.46,2.57-4.21-1.08-4.22-8.46-12.94-7.52-20.53-10.04-20.76-6.88-18.09-12.62-30.95-11.37l.02-.03Z"/>
        <g>
          <path class="st0" d="M2033.37,788.57c7.27,3.11,13.96,6.92,22.3,11.3,1.02,5.59-13.87-1.16-10.28,4.34,1.65,2.52,1.99,1.08,4,.71,13.31-2.46,26.14,14.12,47.61-.31,9.7-6.51,19.76-10.38,28.22-15.44,6.42-3.84,12.93-.54,20.83,3.97-7.48-.86-12.86,1.94-17.48,2.44-23.76,2.57-45.48,37.6-83.94,12.71-28.21-18.26-29.63-10.36-63.3-14.36,13.03-11.18,27.61-5.92,47.97-6.02,1.66,0,2.64.05,4.07.66h0Z"/>
          <path class="st0" d="M2300.73,734.57c3.74,18.43,19.94,12.25,18.34,18.17-.51,1.88-1.47,2.79-2.66,3.23.77-.28-36.58-9.14-45.55-14.55-13.5-8.13-26.01-19.3-32.86-32,19.65,15.11,25.06,33.78,62.72,25.16h.01Z"/>
          <path class="st0" d="M2029.28,787.94c-5.8-10.07-20.84-4.21-28.93-16.63-2.62.97-2.8,1.47-3.82,1.41-2.39-.15-2.66-1.57-3.22-4.53-4.03,5.08-9.95,5.07-16.34,2.37-3.98-.81-5.08,1.11-.7,4.05-3.07,3.55-5.34,1.94-7.59,1.55,1.95.34-12.43-12.28-10.58-8.94-1.03-1.86.17-5.69,1.93-7.87,8.77-10.83,24.51-9.85,35.52-1.27,1.94-4.46-2.07-6.65-1.05-10.59,23.11,21.99,50.55,39.57,80.97,17.91,7.24-5.16,13.94-11.15,23.48-11.76-1.65,5.73-3.15,9.9-1.51,15.6,3.25,11.28,19.04,7.11,12.17,16.27,10.92-1.94-58.96,16.49-33.81,6.52l-7.16,2.84c-1.8.72-4.6-2.88-6.33-4.16-6.33,1.41-15.11,1.18-19.7-5.18-3.45.57-7.79,1.14-9.25,3.04-1.43-.62-2.41-.66-4.07-.66v.03Z"/>
          <path class="st0" d="M2136.02,759.94c-2.01,2.14-2.6,3.92-4.24,3.3-1.46-.56-6.25-.89-5.23-2.75,22.3-15.01,52.85,10.55,70.98,15.16,10.72,2.72,21.41,1.92,33.04,5.73-27.94,16.22-37,.68-51.72,10.08-18.98-15.74-18.59-19.28-41.82-23.55-.21-2.63.82-5.54-1.01-7.97Z"/>
          <path class="st0" d="M1863.21,718.16c-8.46-8.3-12.96-16.93-23.94-20.42-.15-2.64,1.35-4.57,2.19-7.05,24.3-2.21,19.09-10.72,36.06-16.29,5.83,33.82-12.78,27.49,4.71,60.02,2.21,4.11,1.57,5.29-.49,6.9-8.04,6.29-13.95-16.27-18.53-23.16h0Z"/>
          <path class="st0" d="M2178.87,791.46c1.09,4.13-1.52,2.71-2.81,3.5-2.52,1.54-5.61-.29-7-.23-2.14,3.68-5.58-.16-8.98-2.06,1.14-1.99,2.06-.41,2.85-.78,1-.46,2.8-3.19.45-4.37-1.33.4-1.85,3.76-3.9,1.36-1.17-1.37-3.1-.62-4.51-3.64-1.27-.28-.68,2.23-1.09,2.63-.64.62-2.5-.31-3.24-1.08-1.25-1.29-.1-1.32,1.24-3.35-5.67,1.8-6.7-3.61-9.42-6.09-1.77.21-4.65,4.78-8.16,1.8-6.16-5.25-16.77,3.57-18.06-1.97-.35-1.5-1.73-4.42.73-6.61,3.08-3.02-.37-6.71-3.92-2.39-2.81-2.6,1.1-4.66,3.05-6.4,3.94-3.52,3.26,2.88,6.31,3.44l14.62,2.69c23.23,4.27,22.84,7.81,41.82,23.55h.02Z"/>
          <path class="st0" d="M2109.62,785.5c1.29-.51,2.39.08,3.15-.3,1.32-.65,3.54.42,2.4,1.89-.63.82-2.18,2.87-3.26,1.54-.58-.7-2.35-1.71-2.29-3.13h0Z"/>
        </g>
      </g>
      <g>
        <path class="st0" d="M1828.2,755.56c13.3-5.21,27.19-2.97,33.98-26.5,3.26-11.3,11.6,28.41,17.58,25.8,1.21-6.15,1.4-6.32,5.6-7.87,3.66-1.35,2.75-1.05,6.69,3.7,28.36,34.23,34.47,10.77,37.36,29.55,3.34-1.41,23.73,3.84,22.47,7.58-.41,1.21-3.22,2.27-4.5,4.19,2.43,3.25,6.99,4.75,11.55,6.4,4.23,1.52.92,8.25-.03,12.03,1.12-3.37,6.34-4.64,7.46-7.47,1.24.44,2.39.81.81,2.14-14.5,23.5-44.87,30.36-68.16,12.98-9.8-7.31-19.12-16.6-27.29-25-11.38-11.71-21.29-25.26-36.86-33.11-.16,3.32-3.75,5.88-.9,1.14l-5.76-5.55h0Z"/>
        <path class="st0" d="M1920.26,810.01c-.69-2.9,3.44-3.47,3.83-5.57-1.9-3.33-5.53-1.59-5.94-2.88-.29-.92-.04-2.56-1.21-4.74,19.67-5.55,16.56,12.97,32.63,12.41,1.72-.06,3.07,3.43,2.43,4.36-4.23,6.21-29.93,3.98-31.74-3.58h0Z"/>
      </g>
      <path class="st0" d="M776.61,450.63c-17.84-.42-12.57,4.43-16.76,7.77-2.74,2.19-13.56-6.79-13.05-6.52-4.41-2.36-1.7-9.23-.96-12.99,1.63-8.32-19.34-7.79-17.63-7.66-4.21-.31-3.24-4.28-6.14-5.78-2.19-1.13-15.08,1.35-20.28-1.73-2.76-1.63-4.12-3.63-1.4-7.77,1.45-2.2,4.12-5.09,8.62-3.37,1.18-4.29,3.13-10.11,5.86-12.42,21.44,2.27-3.46-4.09,18.57.73,2.24.49,3.9-3.05,5.92-3.14,4.35-.2,7.34,3.88,12.57,5.44,10.28,3.07,12.28,17.07,15.06,26.44,4.46-1.15,7.03-2.62,9.63-2.05v23.06s0-.01,0-.01Z"/>
      <path class="st0" d="M1638.38,760.02c4.59.67,1.73,7.51,2.46,10.61-3.71-2.07-1.92-6.83-2.46-10.61Z"/>
    </g>
  </g>
</svg>