<svg width="989" height="30" viewBox="0 0 989 30" fill="none" xmlns="http://www.w3.org/2000/svg">
<path d="M0.585787 13.3133C-0.195262 14.0944 -0.195262 15.3607 0.585786 16.1418L13.3137 28.8697C14.0948 29.6507 15.3611 29.6507 16.1421 28.8697C16.9232 28.0886 16.9232 26.8223 16.1421 26.0412L4.82843 14.7275L16.1421 3.41383C16.9232 2.63278 16.9232 1.36645 16.1421 0.585405C15.3611 -0.195644 14.0948 -0.195644 13.3137 0.585404L0.585787 13.3133ZM987.655 16.1418C988.436 15.3608 988.436 14.0945 987.655 13.3134L974.928 0.585488C974.146 -0.19556 972.88 -0.19556 972.099 0.585488C971.318 1.36654 971.318 2.63287 972.099 3.41392L983.413 14.7276L972.099 26.0413C971.318 26.8224 971.318 28.0887 972.099 28.8698C972.88 29.6508 974.146 29.6508 974.928 28.8698L987.655 16.1418ZM2 14.7275L2 16.7275L986.241 16.7276L986.241 14.7276L986.241 12.7276L2 12.7275L2 14.7275Z" fill="#7C6351"/>
</svg>
