<svg width="206" height="247" viewBox="0 0 206 247" fill="none" xmlns="http://www.w3.org/2000/svg">
<g clip-path="url(#clip0_1_1091)">
<path d="M79.9705 171.732C122.176 171.732 156.391 157.292 156.391 139.479C156.391 121.665 122.176 107.225 79.9705 107.225C37.7646 107.225 3.54993 121.665 3.54993 139.479C3.54993 157.292 37.7646 171.732 79.9705 171.732Z" fill="#D6A672"/>
<path d="M154.416 160.366C154.416 178.178 121.085 192.62 79.9834 192.62C38.8815 192.62 5.55078 178.178 5.55078 160.366C5.55078 149.58 10.7918 136.573 30.4004 135.177C58.0383 133.214 58.6967 124.702 79.9963 126.006C118.8 128.396 111.326 133.718 125.926 135.668C154.442 139.466 154.442 149.541 154.442 160.366H154.416Z" fill="#9EC3BC"/>
<path d="M84.7468 150.174C88.3483 156.258 92.7115 159.009 95.345 160.043C98.0042 161.089 99.1014 162.549 106.537 163.001C110.565 163.246 114.54 160.753 115.857 160.43C120.633 159.268 125.939 155.638 126.339 151.298C126.714 147.255 127.759 143.535 126.404 137.696C125.048 131.845 118.581 129.068 116.128 128.034C114.334 127.285 110.836 125.231 105.349 125.567C97.6944 126.045 96.6229 128.034 92.0274 130.049C88.6711 131.522 87.3285 133.744 86.1667 136.12C85.0953 138.29 84.85 140.538 84.7597 142.695C84.6435 145.188 83.2364 147.629 84.7338 150.174H84.7468Z" fill="#FDD23E"/>
<path d="M105.737 125.554C106.046 124.934 106.472 123.397 107.208 121.886C107.944 120.374 107.725 119.703 108.422 120.026C109.119 120.349 109.571 120.633 108.848 121.601C108.125 122.57 107.066 125.515 106.989 126.097C106.911 126.678 106.937 128.112 106.059 127.582C105.182 127.065 105.052 126.936 105.737 125.541V125.554Z" fill="#7C9C81"/>
<path d="M110.797 140.886C111.404 140.886 112.617 140.835 113.546 139.969C114.114 139.44 114.928 139.685 115.922 140.047C116.128 140.124 116.322 140.189 116.503 140.241C117.574 140.551 119.614 139.556 120.311 138.355C120.414 138.174 120.349 137.954 120.156 137.864C119.962 137.773 119.73 137.825 119.627 138.006C119.084 138.949 117.406 139.737 116.735 139.543C116.58 139.504 116.399 139.427 116.206 139.362C115.315 139.039 113.972 138.548 113.004 139.44C112.217 140.176 111.145 140.15 110.719 140.15L110.629 140.512V140.874C110.629 140.874 110.732 140.874 110.797 140.874V140.886Z" fill="#F2A355"/>
<path d="M96.326 153.778C96.5326 153.804 96.7391 153.778 96.9586 153.714C97.746 153.468 98.9078 153.61 99.9405 153.791C100.263 153.843 100.496 153.946 100.702 154.037C101.322 154.321 101.774 154.424 102.819 153.636C102.987 153.507 103.013 153.275 102.871 153.12C102.742 152.965 102.496 152.939 102.329 153.068C101.593 153.636 101.451 153.572 101.038 153.378C100.805 153.275 100.509 153.145 100.07 153.068C98.9465 152.874 97.6557 152.732 96.7133 153.016C96.1324 153.197 95.4999 152.629 95.1901 152.357L94.8802 152.59L94.6221 152.861C94.9577 153.158 95.5773 153.701 96.326 153.778Z" fill="#F2A355"/>
<path d="M114.67 134.299C114.786 134.505 114.915 134.596 114.992 134.634C115.07 134.673 115.108 134.725 115.341 134.738C115.47 134.738 115.586 134.66 115.625 134.647C115.767 134.609 115.935 134.479 115.948 134.337C115.948 134.195 115.986 134.079 115.948 133.872C115.909 133.679 115.702 133.575 115.638 133.549C115.586 133.524 115.47 133.459 115.302 133.459C115.07 133.472 115.031 133.536 114.902 133.614C114.799 133.666 114.76 133.743 114.721 133.821C114.683 133.898 114.682 133.976 114.682 134.04C114.682 134.131 114.631 134.208 114.682 134.299H114.67Z" fill="#C98841"/>
<path d="M109.893 147.061C110.009 147.268 110.138 147.358 110.216 147.397C110.293 147.436 110.332 147.488 110.564 147.5C110.694 147.5 110.81 147.423 110.848 147.41C110.99 147.371 111.158 147.242 111.171 147.1C111.171 146.958 111.21 146.842 111.171 146.635C111.132 146.441 110.926 146.338 110.861 146.312C110.81 146.286 110.694 146.222 110.526 146.222C110.293 146.235 110.255 146.299 110.126 146.377C110.022 146.428 109.984 146.506 109.945 146.583C109.906 146.661 109.906 146.738 109.906 146.803C109.906 146.893 109.854 146.971 109.906 147.061H109.893Z" fill="#C98841"/>
<path d="M100.134 134.261C100.25 134.467 100.379 134.558 100.457 134.596C100.534 134.635 100.573 134.687 100.805 134.7C100.935 134.7 101.051 134.622 101.089 134.609C101.231 134.571 101.399 134.441 101.412 134.299C101.412 134.157 101.451 134.041 101.412 133.834C101.373 133.64 101.167 133.537 101.102 133.511C101.051 133.485 100.935 133.421 100.767 133.421C100.534 133.434 100.496 133.498 100.367 133.576C100.263 133.628 100.225 133.705 100.186 133.783C100.147 133.86 100.147 133.938 100.147 134.002C100.147 134.093 100.095 134.17 100.147 134.261H100.134Z" fill="#C98841"/>
<path d="M107.221 137.528C107.337 137.735 107.466 137.825 107.544 137.864C107.621 137.903 107.66 137.954 107.879 137.967C108.009 137.967 108.125 137.89 108.163 137.877C108.305 137.838 108.473 137.709 108.486 137.567C108.486 137.425 108.525 137.308 108.486 137.102C108.447 136.908 108.241 136.805 108.176 136.779C108.125 136.753 108.009 136.688 107.841 136.688C107.608 136.701 107.57 136.766 107.441 136.843C107.337 136.895 107.299 136.973 107.26 137.05C107.221 137.128 107.221 137.205 107.221 137.27C107.221 137.36 107.169 137.438 107.221 137.528Z" fill="#C98841"/>
<path d="M107.053 155.637C107.17 155.844 107.299 155.935 107.376 155.973C107.454 156.012 107.492 156.064 107.725 156.077C107.854 156.077 107.97 155.999 108.009 155.986C108.151 155.947 108.318 155.818 108.331 155.676C108.331 155.534 108.37 155.418 108.331 155.211C108.293 155.017 108.086 154.914 108.022 154.888C107.97 154.862 107.854 154.798 107.686 154.798C107.454 154.811 107.415 154.875 107.286 154.953C107.182 155.005 107.144 155.082 107.105 155.16C107.066 155.237 107.066 155.315 107.066 155.379C107.066 155.47 107.015 155.547 107.066 155.637H107.053Z" fill="#C98841"/>
<path d="M119.368 150.458C119.485 150.664 119.614 150.755 119.691 150.794C119.769 150.832 119.807 150.884 120.027 150.897C120.156 150.897 120.272 150.819 120.311 150.807C120.453 150.768 120.621 150.639 120.633 150.497C120.633 150.354 120.672 150.238 120.633 150.032C120.595 149.838 120.388 149.734 120.324 149.709C120.272 149.683 120.156 149.618 119.988 149.618C119.756 149.631 119.717 149.696 119.588 149.773C119.485 149.825 119.446 149.902 119.407 149.98C119.368 150.057 119.368 150.135 119.368 150.199C119.368 150.29 119.317 150.367 119.368 150.458Z" fill="#C98841"/>
<path d="M97.9396 146.506C98.0558 146.712 98.1849 146.803 98.2623 146.841C98.3398 146.88 98.3785 146.932 98.6109 146.945C98.74 146.945 98.8561 146.867 98.8949 146.854C99.0369 146.816 99.2047 146.686 99.2176 146.544C99.2176 146.402 99.2563 146.286 99.2176 146.079C99.1789 145.886 98.9723 145.782 98.9078 145.756C98.8561 145.731 98.74 145.666 98.5721 145.666C98.3398 145.679 98.3011 145.744 98.172 145.821C98.0687 145.873 98.03 145.95 97.9912 146.028C97.9525 146.105 97.9525 146.183 97.9525 146.247C97.9525 146.338 97.9009 146.415 97.9525 146.506H97.9396Z" fill="#C98841"/>
<path d="M89.7038 141.519C89.8199 141.726 89.949 141.816 90.0265 141.855C90.1039 141.894 90.1427 141.946 90.375 141.958C90.5041 141.958 90.6203 141.881 90.659 141.868C90.801 141.829 90.9688 141.7 90.9817 141.558C90.9817 141.416 91.0205 141.3 90.9817 141.093C90.943 140.899 90.7365 140.796 90.6719 140.77C90.6203 140.744 90.5041 140.68 90.3363 140.68C90.1039 140.693 90.0652 140.757 89.9361 140.835C89.8329 140.886 89.7941 140.964 89.7554 141.041C89.7167 141.119 89.7167 141.196 89.7167 141.261C89.7167 141.351 89.665 141.429 89.7167 141.519H89.7038Z" fill="#C98841"/>
<path d="M90.5428 150.536C90.659 150.743 90.7881 150.833 90.8656 150.872C90.943 150.91 90.9818 150.962 91.2012 150.975C91.3303 150.975 91.4465 150.898 91.4852 150.885C91.6272 150.846 91.795 150.717 91.8079 150.575C91.8079 150.433 91.8466 150.316 91.8079 150.11C91.7692 149.916 91.5626 149.813 91.4981 149.787C91.4465 149.761 91.3303 149.696 91.1625 149.696C90.9301 149.709 90.8914 149.774 90.7623 149.851C90.659 149.903 90.6203 149.98 90.5816 150.058C90.5428 150.135 90.5428 150.213 90.5428 150.278C90.5428 150.368 90.4912 150.445 90.5428 150.536Z" fill="#C98841"/>
<path d="M103.865 127.298C104.265 127.892 104.755 128.164 105.039 128.267C105.336 128.37 105.453 128.512 106.292 128.551C106.743 128.577 107.182 128.332 107.337 128.293C107.867 128.177 108.46 127.828 108.512 127.402C108.551 127.001 108.667 126.639 108.512 126.071C108.357 125.503 107.647 125.232 107.363 125.128C107.169 125.051 106.769 124.857 106.163 124.896C105.311 124.947 105.181 125.141 104.678 125.335C104.304 125.477 104.149 125.697 104.02 125.929C103.903 126.136 103.878 126.355 103.865 126.575C103.852 126.82 103.697 127.053 103.865 127.311V127.298Z" fill="#7C9C81"/>
<path d="M80.1642 139.336C77.2468 147.164 72.8578 151.168 70.1082 152.835C67.3328 154.514 66.3646 156.438 58.1545 158.221C53.701 159.19 48.8214 156.891 47.2982 156.736C41.7603 156.154 35.1896 152.744 33.9633 147.642C32.8273 142.901 30.9943 138.665 31.4461 131.496C31.9108 124.314 38.6234 119.935 41.1665 118.294C43.0253 117.093 46.5624 114.071 52.7457 113.567C61.3689 112.856 62.9308 115.039 68.4042 116.667C72.4189 117.855 74.3036 120.271 76.0334 122.893C77.6082 125.295 78.2924 127.918 78.783 130.462C79.3638 133.407 81.3647 136.068 80.1513 139.336H80.1642Z" fill="#FDD23E"/>
<path d="M50.6673 108.917C50.8093 109.731 50.8223 111.655 51.1708 113.632C51.5193 115.621 51.0804 116.331 51.9324 116.189C52.7844 116.047 53.3653 115.879 52.8748 114.523C52.3842 113.167 52.1131 109.408 52.2035 108.71C52.2939 108.013 52.7586 106.385 51.6484 106.682C50.5383 106.979 50.3575 107.083 50.6803 108.917H50.6673Z" fill="#7C9C81"/>
<path d="M51.1708 115.892C53.2879 114.846 43.8257 108.904 37.7197 108.994C33.1242 109.059 29.6517 111.332 27.1732 110.596C24.6947 109.86 22.7454 109.95 25.4434 112.017C28.1414 114.084 31.3428 117.403 36.4676 118.811C41.5924 120.219 49.4023 116.77 51.1837 115.892H51.1708Z" fill="#7C9C81"/>
<path d="M49.4281 132.659C48.7439 132.762 47.3885 132.904 46.2008 132.026C45.4779 131.496 44.613 131.91 43.5674 132.517C43.348 132.646 43.1414 132.762 42.9607 132.853C41.8247 133.395 39.372 132.556 38.3781 131.251C38.2361 131.057 38.2748 130.786 38.4555 130.644C38.6491 130.502 38.9202 130.528 39.0622 130.721C39.8368 131.755 41.8505 132.414 42.5734 132.065C42.7413 131.987 42.922 131.884 43.1285 131.768C44.058 131.238 45.465 130.424 46.7172 131.328C47.7241 132.065 48.9246 131.858 49.3893 131.781L49.5572 132.194L49.6217 132.62C49.6217 132.62 49.5055 132.646 49.4281 132.646V132.659Z" fill="#F2A355"/>
<path d="M67.9007 145.562C67.6813 145.614 67.436 145.64 67.1907 145.588C66.2613 145.433 64.9962 145.795 63.8732 146.182C63.5117 146.298 63.2923 146.453 63.0599 146.608C62.4144 147.048 61.9239 147.254 60.6201 146.479C60.4136 146.35 60.349 146.092 60.4652 145.885C60.5814 145.678 60.8525 145.614 61.059 145.73C61.9755 146.273 62.1305 146.182 62.5564 145.885C62.8017 145.717 63.1115 145.511 63.5763 145.356C64.8026 144.942 66.1968 144.555 67.3198 144.736C67.9911 144.852 68.6107 144.077 68.8947 143.702L69.282 143.922L69.6176 144.193C69.2949 144.593 68.7011 145.356 67.8878 145.562H67.9007Z" fill="#F2A355"/>
<path d="M43.9289 125.476C43.8386 125.735 43.7095 125.877 43.632 125.928C43.5417 125.98 43.5159 126.045 43.2706 126.109C43.1286 126.135 42.9866 126.057 42.935 126.057C42.7671 126.032 42.5606 125.915 42.5219 125.747C42.4832 125.58 42.4315 125.437 42.4315 125.192C42.4315 124.947 42.651 124.805 42.7284 124.753C42.7801 124.714 42.8962 124.611 43.077 124.598C43.3351 124.572 43.3868 124.65 43.5546 124.714C43.6837 124.753 43.7353 124.843 43.787 124.934C43.8386 125.011 43.8644 125.102 43.8773 125.192C43.8902 125.295 43.9548 125.386 43.9289 125.489V125.476Z" fill="#C98841"/>
<path d="M51.5452 139.84C51.4548 140.099 51.3257 140.241 51.2483 140.293C51.1579 140.344 51.1321 140.409 50.8868 140.473C50.7448 140.499 50.6028 140.422 50.5512 140.422C50.3834 140.396 50.1768 140.28 50.1381 140.112C50.0994 139.944 50.0477 139.802 50.0477 139.556C50.0477 139.311 50.2672 139.169 50.3446 139.117C50.3963 139.078 50.5124 138.975 50.6932 138.962C50.9514 138.936 51.003 139.014 51.1708 139.078C51.2999 139.117 51.3515 139.208 51.4032 139.298C51.4548 139.375 51.4806 139.466 51.4935 139.556C51.5064 139.66 51.571 139.75 51.5452 139.853V139.84Z" fill="#C98841"/>
<path d="M60.1425 122.997C60.0521 123.255 59.923 123.397 59.8455 123.449C59.7552 123.501 59.7294 123.565 59.4841 123.63C59.3421 123.656 59.2001 123.578 59.1485 123.578C58.9806 123.552 58.7741 123.436 58.7354 123.268C58.6967 123.1 58.645 122.958 58.645 122.713C58.645 122.467 58.8645 122.325 58.9419 122.273C58.9936 122.235 59.1097 122.131 59.2905 122.118C59.5486 122.093 59.6003 122.17 59.7681 122.235C59.8972 122.273 59.9488 122.364 60.0005 122.454C60.0521 122.532 60.0779 122.622 60.0908 122.713C60.1037 122.816 60.1683 122.906 60.1425 123.01V122.997Z" fill="#C98841"/>
<path d="M52.8231 128.073C52.7328 128.331 52.6037 128.473 52.5262 128.525C52.4358 128.577 52.41 128.641 52.1648 128.706C52.0228 128.732 51.8808 128.654 51.8291 128.654C51.6613 128.628 51.4548 128.512 51.4161 128.344C51.3773 128.176 51.3257 128.034 51.3257 127.789C51.3257 127.543 51.5451 127.401 51.6226 127.35C51.6742 127.311 51.7904 127.207 51.9711 127.195C52.2293 127.169 52.2809 127.246 52.4488 127.311C52.5778 127.35 52.6295 127.44 52.6811 127.53C52.7328 127.608 52.7586 127.698 52.7715 127.789C52.7844 127.892 52.8489 127.982 52.8231 128.086V128.073Z" fill="#C98841"/>
<path d="M56.2698 149.554C56.1794 149.813 56.0503 149.955 55.9729 150.006C55.8825 150.058 55.8567 150.123 55.6114 150.187C55.4694 150.213 55.3274 150.136 55.2758 150.136C55.108 150.11 54.9014 149.994 54.8627 149.826C54.824 149.671 54.7723 149.516 54.7723 149.27C54.7723 149.025 54.9918 148.883 55.0692 148.831C55.1209 148.792 55.2371 148.689 55.4178 148.676C55.676 148.65 55.7276 148.728 55.8954 148.792C56.0245 148.831 56.0761 148.921 56.1278 149.012C56.1794 149.089 56.2052 149.18 56.2181 149.27C56.231 149.374 56.2956 149.464 56.2698 149.567V149.554Z" fill="#C98841"/>
<path d="M41.6053 145.472C41.515 145.731 41.3859 145.873 41.3084 145.924C41.2181 145.976 41.1923 146.041 40.947 146.105C40.805 146.131 40.663 146.054 40.6114 146.054C40.4435 146.028 40.237 145.912 40.1983 145.744C40.1595 145.576 40.1079 145.434 40.1079 145.188C40.1079 144.943 40.3274 144.801 40.4048 144.749C40.4564 144.71 40.5726 144.607 40.7534 144.594C41.0115 144.568 41.0632 144.646 41.231 144.71C41.3601 144.749 41.4117 144.839 41.4633 144.93C41.515 145.007 41.5408 145.098 41.5537 145.188C41.5666 145.291 41.6312 145.382 41.6053 145.485V145.472Z" fill="#C98841"/>
<path d="M64.7767 137.192C64.6864 137.45 64.5573 137.592 64.4798 137.644C64.3895 137.696 64.3636 137.76 64.1184 137.825C63.9764 137.851 63.8344 137.773 63.7827 137.773C63.6149 137.747 63.4084 137.631 63.3697 137.463C63.3309 137.308 63.2793 137.153 63.2793 136.908C63.2793 136.662 63.4987 136.52 63.5762 136.469C63.6278 136.43 63.744 136.327 63.9247 136.314C64.1829 136.288 64.2346 136.365 64.4024 136.43C64.5315 136.469 64.5831 136.559 64.6347 136.65C64.6864 136.727 64.7122 136.817 64.7251 136.908C64.738 137.011 64.8025 137.102 64.7767 137.205V137.192Z" fill="#C98841"/>
<path d="M73.0901 129.882C72.9997 130.14 72.8706 130.282 72.7932 130.334C72.7028 130.385 72.677 130.45 72.4317 130.514C72.2897 130.54 72.1477 130.463 72.0961 130.463C71.9283 130.437 71.7217 130.321 71.683 130.153C71.6443 129.998 71.5927 129.843 71.5927 129.597C71.5927 129.352 71.8121 129.21 71.8896 129.158C71.9412 129.119 72.0574 129.016 72.2381 129.003C72.4963 128.977 72.5479 129.055 72.7157 129.119C72.8448 129.158 72.8964 129.249 72.9481 129.339C72.9997 129.416 73.0255 129.507 73.0385 129.597C73.0514 129.701 73.1159 129.791 73.0901 129.894V129.882Z" fill="#C98841"/>
<path d="M73.7613 140.732C73.671 140.99 73.5419 141.133 73.4644 141.184C73.3741 141.236 73.3483 141.3 73.103 141.365C72.961 141.391 72.819 141.313 72.7674 141.313C72.5995 141.288 72.393 141.171 72.3543 141.003C72.3156 140.848 72.2639 140.693 72.2639 140.448C72.2639 140.203 72.4834 140.06 72.5608 140.009C72.6125 139.97 72.7286 139.867 72.9094 139.854C73.1675 139.828 73.2192 139.905 73.387 139.97C73.5161 140.009 73.5677 140.099 73.6193 140.19C73.671 140.267 73.6968 140.358 73.7097 140.448C73.7226 140.551 73.7872 140.642 73.7613 140.745V140.732Z" fill="#C98841"/>
<path d="M54.7337 115.363C54.3981 116.138 53.8946 116.538 53.5848 116.706C53.275 116.874 53.1588 117.068 52.2423 117.261C51.7388 117.365 51.2096 117.145 51.0417 117.132C50.4221 117.081 49.6992 116.758 49.5701 116.267C49.454 115.802 49.2603 115.388 49.3249 114.691C49.3894 113.98 50.151 113.541 50.435 113.373C50.6416 113.257 51.0418 112.947 51.7388 112.883C52.707 112.792 52.8748 113.012 53.4815 113.154C53.9204 113.257 54.127 113.503 54.3206 113.748C54.4884 113.98 54.5659 114.239 54.6175 114.484C54.6821 114.768 54.8886 115.027 54.7595 115.35L54.7337 115.363Z" fill="#7C9C81"/>
<path d="M46.8335 114.768C46.9884 114.394 45.2199 115.001 40.9341 114.497C37.7069 114.123 35.2542 113.567 33.589 113.296C31.9237 113.025 31.3428 113.218 33.021 113.619C34.6991 114.019 35.8093 114.226 39.256 114.781C42.6897 115.324 46.6786 115.156 46.8464 114.781L46.8335 114.768Z" fill="#F2A355"/>
<path d="M125.603 154.01C133.362 148.559 140.023 165.597 132.29 181.239C126.959 192.038 68.701 189.248 55.7147 189.248C40.0562 189.248 22.3452 188.266 16.4587 176.473C9.90102 163.349 13.8511 151.53 23.5973 150.716C35.8737 149.709 42.8187 155.483 52.7327 155.78C72.3542 156.374 75.1038 142.204 83.8044 151.168C94.209 161.877 110.565 164.563 125.59 153.997L125.603 154.01Z" fill="#9EC3BC"/>
<path d="M82.4103 170.454C56.1149 170.454 40.8178 168.413 24.2816 159.771C4.53096 149.463 4.04043 134.479 3.38208 139.465C0.632483 160.365 3.38208 214.733 3.38208 214.733C3.38208 232.546 37.5906 246.987 79.8027 246.987C122.015 246.987 156.223 232.546 156.223 214.733C156.223 214.733 156.378 151.375 156.378 139.465C156.378 134.609 155.165 145.407 146.942 152.654C134.562 163.569 110.048 170.454 82.3974 170.454H82.4103Z" fill="#C98841"/>
<path d="M14.019 171.332C15.2453 187.104 15.9553 202.914 16.136 218.738C16.1619 220.959 19.1567 219.564 19.1438 217.937C18.9631 201.868 18.2531 185.799 17.0009 169.769C16.846 167.819 13.9028 169.769 14.019 171.332Z" fill="#512A00"/>
<path d="M41.6182 175.414C41.3987 196.675 42.3669 217.924 44.5227 239.069C44.7292 241.033 47.6595 239.069 47.5046 237.506C45.3747 216.606 44.4065 195.616 44.6259 174.613C44.6518 172.391 41.6311 173.786 41.6182 175.414Z" fill="#512A00"/>
<path d="M78.047 177.804C78.4214 199.143 85.4051 220.017 83.43 241.433C83.2235 243.629 86.2829 242.234 86.4378 240.632C88.4129 219.177 81.4292 198.355 81.0548 177.003C81.0161 174.781 78.0212 176.176 78.047 177.804Z" fill="#512A00"/>
<path d="M113.482 184.379C113.624 196.818 113.766 209.27 113.908 221.709C113.934 223.931 116.929 222.536 116.916 220.908C116.774 208.469 116.632 196.017 116.49 183.578C116.464 181.356 113.469 182.751 113.482 184.379Z" fill="#512A00"/>
<path d="M140.242 166.566C141.352 187.246 140.048 207.991 136.395 228.374C136.008 230.519 139.119 229.136 139.403 227.573C143.095 206.919 144.347 185.955 143.224 165.003C143.121 163.066 140.165 165.016 140.242 166.566Z" fill="#512A00"/>
<path d="M158.624 172.985C156.12 170.622 152.932 173.45 151.253 175.466C137.944 191.353 116.942 195.138 98.5851 196.081C87.9353 196.624 77.0918 196.921 66.4549 195.874C55.7663 194.828 45.1165 192.129 34.7765 188.899C25.9339 186.135 9.39762 178.591 4.18243 169.239C0.72285 163.039 -1.63948 177.054 1.40702 182.518C6.59639 191.806 15.3228 196.662 24.2299 199.853C35.0863 203.728 46.3945 206.441 57.6639 208.107C69.7079 209.889 82.023 209.605 94.1186 209.063C105.569 208.546 117.174 207.112 128.095 203.043C139.61 198.755 149.82 191.78 158.185 181.782C159.954 179.676 160.87 175.104 158.624 172.985Z" fill="#F18E38"/>
<path d="M82.875 164.408C79.1185 164.163 77.4275 163.595 75.6461 162.988C74.2519 162.523 72.8061 162.032 70.1081 161.67C67.5522 161.321 65.3577 161.67 63.0212 162.032C59.9618 162.51 56.4893 163.039 51.6484 162.109C51.1579 162.019 50.8481 161.605 50.9514 161.205C51.0546 160.805 51.5194 160.546 52.0099 160.637C56.4893 161.489 59.6261 161.011 62.6597 160.546C65.1382 160.159 67.4876 159.797 70.3534 160.185C73.245 160.572 74.8586 161.115 76.2786 161.593C78.0084 162.174 79.4929 162.678 82.9783 162.897C82.9912 162.897 83.017 162.897 83.017 162.897C83.5076 162.936 83.8948 163.298 83.869 163.711C83.8432 164.137 83.3914 164.434 82.8879 164.396L82.875 164.408Z" fill="white"/>
<path d="M104.73 166.553C100.573 166.553 96.8166 165.209 95.0481 163.969C94.7254 163.737 94.6479 163.298 94.8803 162.962C95.1127 162.639 95.5516 162.561 95.8872 162.794C98.3915 164.563 105.866 166.643 111.791 163.44C118.955 159.564 121.731 159.345 125.926 158.996C127.243 158.893 128.74 158.764 130.56 158.505C133.168 158.131 134.511 156.439 135.169 155.082C136.421 152.525 136.344 148.947 134.988 146.583C134.795 146.234 134.911 145.795 135.259 145.601C135.595 145.407 136.047 145.524 136.24 145.872C137.841 148.675 137.931 152.718 136.46 155.715C135.311 158.066 133.284 159.564 130.754 159.926C128.895 160.197 127.372 160.314 126.029 160.43C122.015 160.766 119.356 160.985 112.462 164.705C109.984 166.049 107.273 166.553 104.73 166.553Z" fill="white"/>
<path d="M37.0743 156.465C37.0743 156.465 36.971 156.465 36.9194 156.452C28.6706 154.579 24.2041 150.743 23.2876 144.749C23.223 144.362 23.4941 143.987 23.8943 143.935C24.2945 143.884 24.6559 144.142 24.7205 144.542C25.5595 149.968 29.5355 153.3 37.255 155.057C37.6423 155.147 37.8875 155.535 37.7972 155.922C37.7197 156.258 37.4228 156.478 37.1001 156.478L37.0743 156.465Z" fill="white"/>
<path d="M40.4435 161.812C34.7765 161.812 27.767 159.526 24.1266 156.49C23.8168 156.232 23.7781 155.78 24.0363 155.483C24.2945 155.173 24.7463 155.134 25.0432 155.392C28.3995 158.195 35.1637 160.378 40.4435 160.378C40.8437 160.378 41.1664 160.701 41.1664 161.102C41.1664 161.502 40.8437 161.825 40.4435 161.825V161.812Z" fill="white"/>
<path d="M190.626 12.6717C183.5 0.736354 174.825 0.775105 168.371 11.4188C166.396 7.72448 167.906 5.25732 170.242 3.11309C174.038 -0.374513 180.789 -0.981615 185.449 1.6018C189.128 3.64269 191.297 7.78907 190.613 12.6846L190.626 12.6717Z" fill="#F1EAE4"/>
<path d="M200.488 39.5518C201.572 48.7487 197.79 55.2331 191.929 56.1373C186.34 57.0027 178.943 52.0942 177.897 45.7649C180.118 47.5862 181.615 48.9554 183.255 50.1437C190.161 55.1168 194.472 53.8768 197.842 45.9974C198.577 44.2923 199.249 42.5614 200.488 39.5518Z" fill="#F1EAE4"/>
<path d="M157.824 26.3896C151.847 37.4079 158.121 42.1743 167.854 42.5231C164.408 45.649 162.265 46.0623 158.547 43.9698C154.429 41.6576 151.589 38.2217 151.512 33.3519C151.46 29.8385 153.964 27.4747 157.824 26.3896Z" fill="#F1EAE4"/>
<path d="M199.881 32.0601C204.27 22.3465 201.998 19.8923 194.653 15.9009C198.461 13.4725 201.469 14.5446 204.309 19.3627C207.42 24.6199 206.4 28.1721 199.868 32.0601H199.881Z" fill="#F1EAE4"/>
<path fill-rule="evenodd" clip-rule="evenodd" d="M124.403 94.9142C122.105 91.1554 118.542 93.1833 116.257 89.5665C112.553 83.7151 117.29 74.3761 123.809 73.8723C126.907 73.6269 126.404 76.4299 129.876 76.6366C128.986 73.2394 127.385 71.3923 125.345 70.501C116.619 70.8239 109.235 83.3664 113.985 90.9874C115.315 93.1187 119.949 96.6838 124.403 94.9271V94.9142Z" fill="#F1EAE4"/>
<path fill-rule="evenodd" clip-rule="evenodd" d="M143.353 100.185C149.704 105.972 165.957 95.4314 157.256 88.4045C171.469 84.3614 164.859 63.565 151.77 67.4401C150.944 60.6715 141.662 57.804 137.88 64.185C138.061 65.5929 140.229 66.4326 140.294 65.6317C141.804 66.2259 140.423 63.4229 142.14 63.0612C145.496 62.2603 148.052 63.4229 148.775 65.748C149.537 68.1764 146.116 69.7393 148.155 71.6123C157.837 63.7716 169.971 78.2388 159.05 84.4389C156.753 85.7436 153.758 85.046 152.054 87.0611C153.461 90.0579 156.172 89.1407 157.088 91.75C158.328 95.2763 153.345 99.6811 148.749 99.5648C145.444 99.4873 144.489 96.3872 142.062 95.4959C140.539 98.3635 140.565 103.66 134.691 103.414C132.2 102.574 131.116 99.2419 130.535 96.0514C125.139 103.879 139.739 110.351 143.34 100.185H143.353Z" fill="#F1EAE4"/>
</g>
<defs>
<clipPath id="clip0_1_1091">
<rect width="206" height="247" fill="white"/>
</clipPath>
</defs>
</svg>
