<svg width="262" height="109" viewBox="0 0 262 109" fill="none" xmlns="http://www.w3.org/2000/svg">
<path d="M96.7729 19.0428C97.5006 19.7877 100.198 20.7808 101.299 20.1956L101.033 21.0823L101.494 21.5966C105.647 19.5394 107.813 25.0725 103.642 26.243C102.843 25.3917 101.76 23.9553 100.855 23.2991C100.127 22.7848 96.7551 21.1887 96.3646 22.5365C96.6664 24.6292 96.8616 26.8282 96.9149 28.9386C97.0391 33.7446 96.7906 37.7526 96.0097 42.3812C95.2997 46.5133 95.9032 49.6878 96.0097 53.7312C96.0097 54.3696 95.3529 54.1568 95.2819 54.476C94.9625 55.7707 95.1577 57.8278 94.7672 59.2289C93.2053 64.8329 89.904 67.6881 86.4074 71.8025C85.3957 72.973 84.7922 75.172 83.2125 75.509C82.751 75.0124 87.7563 64.6378 88.2888 63.0417C88.5195 62.3324 88.4485 61.6053 88.626 60.8959C88.9987 59.4417 89.9217 58.7146 89.2295 56.7106C88.342 56.6928 87.2593 56.9234 86.4961 57.349C85.5199 57.8988 85.4312 58.7146 84.7212 59.1224C79.8579 61.9599 69.9717 61.8003 65.4811 58.2712C64.0967 57.1894 63.9369 57.0298 62.4105 56.0189C62.233 55.8948 59.5529 53.1105 59.4464 52.9154C59.2689 52.5962 58.7009 49.138 58.7009 48.6947C58.7009 48.1272 59.0914 44.864 59.2334 44.2611C59.9079 41.459 62.943 37.1673 65.9958 36.8304C70.6284 36.2984 81.1536 37.3801 85.2359 39.5969C86.2121 40.129 87.8451 42.2039 89.2295 41.6364C90.7204 41.0334 89.7975 39.3309 89.9395 38.0718C90.4187 33.4077 90.8624 27.8568 90.6672 23.1749C90.5607 20.3906 89.1762 21.7207 87.6676 21.5966C83.1593 21.2419 79.219 20.6212 74.6219 22.0399C72.35 22.7316 70.2024 25.7464 67.8595 26.6331C67.0608 26.9346 65.7119 26.8105 65.5166 26.9524C65.3214 27.0942 65.3746 27.8923 65.0196 28.2292C63.8837 29.2756 59.4642 29.2756 58.7187 28.0696C57.9732 26.8637 57.494 21.8626 57.8135 20.4971C58.5945 17.2871 63.795 15.7088 66.7236 15.9039C67.9483 15.9925 69.3327 17.8369 71.1431 16.9679C70.8591 19.699 73.1133 18.7236 74.5332 18.9187C76.0774 19.1315 77.586 19.9473 79.1302 18.7414L78.9527 19.4507L90.3122 18.3867C89.7442 16.2585 90.4897 9.73231 93.3118 9.55497C98.1751 9.25349 95.2997 17.4645 96.8084 19.0074L96.7729 19.0428ZM87.2593 43.8177C86.5316 42.6472 85.7684 41.2817 84.3485 40.8561C79.7692 39.4905 71.1431 37.0787 66.8833 39.5615C66.4041 39.8452 62.8365 42.7714 62.6413 43.1261C61.9668 44.3852 61.5408 49.1735 61.878 50.4681C61.9845 50.9292 62.9075 50.805 63.227 51.142C64.1499 52.0642 63.7595 54.3874 66.2443 55.3805C72.3678 57.8456 81.2779 54.8307 85.6797 50.1843C87.4901 48.269 88.4663 46.9212 87.7918 44.2256C87.7208 43.9241 87.3126 43.9418 87.2593 43.8177Z" fill="#7C6351"/>
<path d="M258.45 6.82351C258.61 6.96538 261.041 10.1576 261.13 10.3526C262.532 13.6512 262.195 21.2238 260.438 24.3628C259.32 26.3668 258.592 25.5332 257.598 26.3313C257.119 26.7037 256.675 28.3353 256.196 28.9914C251.457 35.4467 248.12 37.1138 241.553 40.9799C240.435 41.636 240.186 43.1966 238.695 41.3168L249.114 27.6259C250.658 24.1854 253.107 19.2553 252.894 15.4424C252.77 13.2611 251.208 11.0088 250.924 8.88069C250.232 7.49742 243.913 5.03234 242.245 4.78406C235.784 3.7732 224.869 6.43335 220.218 11.1862C218.94 12.4985 217.716 14.3961 217.52 16.2227C217.449 16.9321 217.68 21.4189 217.804 22.0928C218.532 25.9057 222.65 28.2111 223.023 31.8999C222.419 32.7511 218.958 31.4388 218.337 30.889C217.645 30.2683 216.597 27.7323 216.118 26.9875C215.817 26.5264 215.036 26.4377 214.716 25.8879C214.379 25.3204 213.562 17.7479 213.58 16.7725C213.58 16.3114 214.042 16.0099 214.077 15.4956C214.219 13.4739 214.042 11.9665 215.107 9.96249C215.923 8.4196 220.786 5.38703 222.472 4.55351C226.484 2.54953 237.932 -0.217024 242.422 0.0135228C248.031 0.315007 254.403 3.08156 258.468 6.85898L258.45 6.82351Z" fill="#7C6351"/>
<path d="M131.259 26.8101C131.792 27.3953 132.839 28.2288 133.07 29.08C133.442 30.4101 132.413 30.7648 134.649 32.1126C133.425 33.5668 134.436 33.7796 134.525 34.56C134.543 34.755 134.348 38.1955 134.312 38.3906C134.241 38.6389 133.726 38.6034 133.638 38.9049C133.336 39.8625 133.194 41.7778 132.573 42.6645C132.253 43.1079 131.437 43.1434 130.94 43.6045C128.544 45.8745 128.899 50.7337 126.556 53.3761C126.644 54.5998 134.206 55.114 135.483 55.4155C135.963 55.5219 136.353 56.1249 136.797 56.2313C137.88 56.5151 138.962 56.1249 139.85 57.0116C140.666 57.0116 141.128 54.0323 143.577 54.7594C146.523 55.6461 143.897 59.1929 144.287 59.5831C145.494 59.2639 145.405 60.5053 146.399 60.8422C147.003 61.055 147.73 60.8954 148.281 61.0905C150.002 61.6758 155.664 64.1763 151.617 65.2404C151.05 63.5911 148.849 63.6443 148.192 62.9526C147.837 62.5979 147.926 61.8886 147.801 61.7644C147.571 61.5693 146.772 61.8176 146.346 61.6403C145.636 61.3388 145.086 60.4166 144.11 60.4166C142.636 60.594 142.175 67.1557 139.85 66.9783C137.294 66.7832 140.542 59.6718 138.82 58.1644C136.566 56.1781 129.36 55.8412 126.396 55.3446C124.444 55.8944 123.272 58.8915 122.172 59.8491C121.071 60.8068 119.758 60.8954 118.941 62.8285C118.586 63.662 119.421 64.8502 117.663 64.5664C118.444 65.2936 116.687 66.8364 116.013 67.3507C114.983 68.1311 110.404 70.5252 109.286 70.5961C107.83 70.7025 107.742 69.1596 107.014 68.2907C105.239 66.1803 104.653 66.0561 104.334 62.8285C104.192 61.3211 107.351 57.3663 108.665 56.4619C110.67 55.0963 116.51 53.3406 118.906 53.1987C121.533 53.0391 123.219 55.0786 124.71 52.2766C126.059 49.7228 127.78 41.6182 127.177 38.9226C127.035 38.3196 126.467 37.9472 126.36 37.5748C126.094 36.6526 126.449 35.5708 125.455 34.5954C123.893 33.0703 119.403 35.9078 116.847 35.3935C116.51 35.3225 114.185 34.223 113.954 34.0279C113.51 33.6378 112.534 30.6584 112.41 29.8958C112.143 28.2288 112.96 27.2179 114.096 26.0652C116.172 23.9548 121.568 22.4297 124.497 23.139C127.212 23.7952 129.449 24.8238 131.277 26.8278L131.259 26.8101ZM121.888 56.3909C120.219 57.0648 117.77 57.0826 116.314 58.0579C115.675 58.4836 115.569 59.122 114.983 59.6008C114.327 60.1329 113.102 60.4343 112.623 61.1792C112.268 61.729 112.782 62.793 112.658 63.6443C112.569 64.3004 112.037 64.7793 111.984 65.4354C111.859 67.2798 113.883 66.9074 114.965 65.9852C116.226 64.9211 121.178 59.1575 121.639 57.7565C121.781 57.3131 121.941 56.8875 121.87 56.4087L121.888 56.3909Z" fill="#7C6351"/>
<path d="M11.9851 20.0711C13.1388 21.5608 15.6059 24.079 15.7834 26.0476C15.8189 26.4732 15.2687 30.1974 15.1267 30.7294C14.186 33.9748 9.80197 37.6281 9.71322 41.3168C9.65998 43.9947 11.7899 51.4609 12.9791 54.0146C13.6713 55.4866 17.4696 61.6404 18.4458 62.7399C20.6822 65.1872 21.7472 63.1478 22.6701 60.9665C22.8476 60.5231 23.4156 57.3664 23.5753 57.0827C23.5931 57.0472 24.1078 57.4728 24.445 57.1181C25.0485 56.4797 25.652 54.653 26.0779 53.8195C26.2199 53.5535 26.5927 53.589 26.7347 53.2698C26.8412 53.0392 26.8057 50.3613 27.7819 51.9752C28.6516 53.4116 27.5511 53.8195 27.5866 54.4048C27.6931 55.7171 27.8884 54.7949 27.5866 56.6038C27.1429 59.5123 27.9061 59.5832 28.0836 61.5872C28.3321 64.3005 26.3264 68.3617 23.7883 69.5499C22.2619 70.277 18.9428 70.9686 17.6116 69.7272C17.2921 69.4258 17.2389 68.6809 16.8129 68.2198C15.4107 66.6947 14.5587 67.1203 13.1743 64.3892C9.58898 57.3309 7.76082 50.5387 4.86771 43.2499C3.83825 40.6607 3.62526 39.6675 2.8798 37.0783C2.70231 36.4753 1.40662 35.3049 0.99839 34.3472C-0.2618 31.3679 -0.47479 22.8199 1.21138 20.0179C1.58411 19.3972 2.11659 19.3617 2.47157 18.9716C2.68456 18.741 2.57806 18.1026 2.93305 17.8543C3.28803 17.606 3.927 17.7301 4.33523 17.4819C4.70796 17.2513 4.70796 16.5952 5.31143 16.3291C9.14525 14.6444 10.1392 17.6947 11.9496 20.0179L11.9851 20.0711Z" fill="#7C6351"/>
<path d="M237.612 76.9441C236.618 75.9864 242.173 71.943 242.759 71.2691C243.522 70.4001 246.007 67.1192 246.557 66.1971C248.652 62.597 247.711 56.9929 248.918 53.0382C245.777 50.7505 241.534 51.4953 237.967 52.2933C235.464 52.8608 231.098 55.255 228.95 53.854C226.625 52.3288 229.376 51.3712 230.778 50.7859C236.334 48.4627 241.375 47.8066 247.374 48.5869C250.107 48.9416 254.988 50.0588 255.379 53.3574C256.178 60.1142 255.343 68.2542 250.746 73.5745C248.847 75.7736 247.587 75.8445 244.996 76.3411C243.114 76.6958 243.345 76.483 241.694 76.5716C240.328 76.6426 239.014 77.1391 237.612 76.9618V76.9441Z" fill="#7C6351"/>
<path d="M184.01 64.1942C182.2 64.1587 183.602 61.6759 183.673 60.4877C184.294 48.7653 180.034 37.3267 166.066 42.1859C159.463 44.4913 156.321 49.989 157.031 56.9231C158.167 68.078 170.254 63.1301 173.662 55.8236C174.479 54.0679 175.295 48.8185 178.667 51.6205C181.419 53.9083 179.732 59.264 177.62 61.5518C172.207 67.4218 162.09 71.4298 156.96 63.0237C153.659 57.6325 153.872 46.2648 159.747 42.6115C163.669 40.1819 171.657 38.3552 175.97 40.1287C185.554 44.0657 184.809 55.593 184.01 64.1942Z" fill="#7C6351"/>
<path d="M209.16 29.0095C206.143 29.0272 202.664 29.5947 200.02 27.8036C197.606 26.172 191.553 20.9226 190.045 18.6172C189.725 18.1383 188.074 13.6516 188.27 13.4742L189.672 13.4387V12.4102L190.169 12.4456C193.097 14.1304 196.931 13.7402 199.913 14.7688C200.41 14.9462 203.694 16.7551 204.031 17.0388C204.333 17.2871 206.09 19.2911 206.551 19.8408C209.054 22.6429 211.557 25.303 209.143 29.0095H209.16Z" fill="#7C6351"/>
<path d="M211.947 56.6391C211.042 58.2175 207.545 61.9417 206.019 63.3072C205.22 64.0343 200.658 67.2443 199.842 67.4571C197.854 67.9536 194.677 66.1979 193.346 64.7792C193.133 64.5486 193.097 63.9102 192.725 63.4669C192.316 63.0058 190.453 61.4451 190.399 61.1791C190.169 60.1683 193.044 60.2924 192.174 58.8914C192.867 58.4835 196.683 61.1969 199.629 59.051C203.126 56.515 204.883 56.3731 208.752 54.6884C209.64 54.2982 213.047 52.1523 213.296 52.1523C214.432 52.1701 212.479 54.777 212.32 55.0785C212.071 55.5573 212.178 56.2135 211.929 56.6391H211.947Z" fill="#7C6351"/>
<path d="M47.4658 30.7303C50.5721 35.359 51.9567 40.8921 51.6194 46.638C51.3887 50.4331 50.7674 56.9594 46.2765 57.7929C46.5605 56.0195 46.5605 54.1751 46.7202 52.3839C47.3593 45.237 48.0693 40.2714 45.4599 33.2308C44.4304 30.4466 42.8506 28.5312 41.6436 25.8711C44.7677 26.1903 45.957 28.478 47.448 30.7126L47.4658 30.7303Z" fill="#7C6351"/>
<path d="M217.378 45.3963C219.632 45.2012 222.224 43.9776 224.336 43.6406C230.939 42.5943 238.198 43.1972 244.889 42.5411C249.699 42.0623 252.167 41.4415 257.332 41.814C257.97 41.8672 258.485 41.7076 258.911 42.3637C257.882 42.7362 256.462 43.6761 255.574 43.9776C250.374 45.7155 244.623 42.4879 239.405 44.1372C237.062 44.882 234.613 45.5204 232.287 46.2476C231.081 46.6377 228.702 48.4643 227.495 48.553C225.987 48.6594 223.679 47.1875 222.188 47.2052C220.041 47.2407 218.905 49.6703 217.396 45.3786L217.378 45.3963Z" fill="#7C6351"/>
<path d="M234.683 57.5438C235.322 58.2355 235.216 59.7252 234.861 60.5587C234.754 60.807 231.595 64.3538 231.311 64.5666C230.37 65.276 223.093 68.681 222.702 66.8544L231.648 56.8345C232.251 56.4798 234.239 57.0828 234.665 57.5438H234.683Z" fill="#7C6351"/>
<path d="M205.203 43.5152C203.676 44.8275 199.416 41.8304 198.422 40.3939C198.138 39.9683 196.239 36.3682 196.434 36.1731C199.416 35.4106 206.872 35.6234 206.747 39.8796C206.73 40.7309 205.824 42.9831 205.203 43.5152Z" fill="#7C6351"/>
<path d="M105.257 6.43324C105.843 6.06082 107.937 6.68152 108.416 7.24902C108.931 7.85199 110.209 11.7003 110.174 12.5693C109.908 20.2483 103.198 15.8147 103.784 11.2038C103.855 10.6895 105.044 6.57511 105.257 6.43324Z" fill="#7C6351"/>
<path d="M242.582 21.26C239.334 22.3418 235.89 23.1221 232.465 23.3881C231.595 23.459 228.382 23.6896 227.832 23.6009C227.601 23.5654 225.542 22.2708 226.465 21.9516C229.891 20.7102 238.979 18.121 241.996 20.2491C242.422 20.5506 242.706 20.657 242.582 21.26Z" fill="#7C6351"/>
<path d="M230.513 73.0443L238.306 61.1445C242.14 62.0667 239.708 62.7051 238.945 64.2835C238.182 65.8619 238.43 67.724 237.241 69.3201C236.62 70.1536 231.064 73.5586 230.496 73.0443H230.513Z" fill="#7C6351"/>
<path d="M225.898 49.2803C226.04 50.3621 225.792 51.2133 225.455 52.2242C224.94 53.8203 220.733 61.6943 219.65 62.7406C219.348 63.0421 217.627 64.0884 217.36 63.8224L223.804 49.3335L225.881 49.2803H225.898Z" fill="#7C6351"/>
<path d="M116.475 11.9491C115.285 13.4033 111.132 10.2643 111.38 8.47317C112.499 0.687795 119.013 8.84559 116.475 11.9491Z" fill="#7C6351"/>
<path d="M229.447 35.4465C229.447 34.9322 230.53 34.7548 230.939 34.6484C232.66 34.1518 239.317 32.7686 237.045 36.1558C235.429 38.5677 231.56 36.1026 229.43 35.4642L229.447 35.4465Z" fill="#7C6351"/>
<path d="M74.4278 108.046C74.4278 108.392 74.1392 108.659 73.7713 108.659H72.8487C72.4808 108.659 72.1638 108.387 72.1638 108.046V88.9598C72.1638 88.6134 72.4808 88.3408 72.8487 88.3408H73.7713C74.1392 88.3408 74.4278 88.6134 74.4278 88.9541V108.04V108.046Z" fill="#7C6351"/>
<path d="M73.7713 108.824H72.8488C72.379 108.824 71.9998 108.472 71.9998 108.046V88.9594C71.9998 88.5279 72.379 88.1758 72.8488 88.1758H73.7713C74.2298 88.1758 74.592 88.5165 74.592 88.9538V108.04C74.592 108.477 74.2298 108.818 73.7713 108.818V108.824ZM72.8488 88.5051C72.5601 88.5051 72.328 88.7096 72.328 88.9538V108.04C72.328 108.284 72.5658 108.489 72.8488 108.489H73.7713C74.0487 108.489 74.2638 108.29 74.2638 108.04V88.9594C74.2638 88.7039 74.0487 88.5108 73.7713 88.5108H72.8488V88.5051Z" fill="#7C6351"/>
<path d="M79.9802 107.45C79.9802 106.933 80.0595 106.615 80.1896 106.269L84.961 91.2712C84.9893 91.2201 85.0403 90.9759 85.0403 90.9248C85.0403 90.6295 84.8309 90.3853 84.4347 90.3853H80.7726C80.3764 90.3853 80.0878 90.1128 80.0878 89.772V88.96C80.0878 88.6136 80.3764 88.3467 80.7726 88.3467H87.0156C87.4118 88.3467 87.7005 88.6193 87.7005 88.96V89.7948C87.7005 90.0162 87.593 90.4081 87.4911 90.7317L82.7253 105.729C82.697 105.78 82.6461 106.025 82.6461 106.076C82.6461 106.371 82.8555 106.615 83.2234 106.615H87.1232C87.5194 106.615 87.808 106.888 87.808 107.228V108.04C87.808 108.387 87.5194 108.654 87.1232 108.654H80.6707C80.2745 108.654 79.9859 108.381 79.9859 108.04V107.45H79.9802Z" fill="#7C6351"/>
<path d="M87.1178 108.824H80.6654C80.1843 108.824 79.8164 108.489 79.8164 108.046V107.455C79.8164 106.91 79.907 106.564 80.0371 106.212L84.8029 91.2254C84.8312 91.163 84.8708 90.9699 84.8765 90.9245C84.8765 90.6973 84.7067 90.5497 84.435 90.5497H80.7729C80.2918 90.5497 79.9239 90.2146 79.9239 89.7717V88.9596C79.9239 88.5167 80.2862 88.1816 80.7729 88.1816H87.016C87.4971 88.1816 87.865 88.5167 87.865 88.9596V89.7944C87.865 90.084 87.7121 90.5781 87.6442 90.7825L82.8785 105.78C82.8502 105.842 82.8106 106.036 82.8049 106.081C82.8049 106.308 82.969 106.456 83.2181 106.456H87.1178C87.5933 106.456 87.9668 106.796 87.9668 107.234V108.046C87.9668 108.483 87.5933 108.824 87.1178 108.824ZM80.7673 88.5053C80.473 88.5053 80.2466 88.6984 80.2466 88.9539V89.766C80.2466 90.0215 80.473 90.2146 80.7673 90.2146H84.4293C84.8821 90.2146 85.1991 90.5042 85.1991 90.9188C85.1991 90.9926 85.1425 91.2652 85.1029 91.339L80.3484 106.308C80.2239 106.637 80.1447 106.938 80.1447 107.438V108.029C80.1447 108.284 80.3711 108.477 80.6654 108.477H87.1178C87.4122 108.477 87.6386 108.284 87.6386 108.029V107.217C87.6386 106.961 87.4122 106.768 87.1178 106.768H83.2181C82.7879 106.768 82.4766 106.473 82.4766 106.064C82.4766 105.996 82.5332 105.723 82.5728 105.638L87.3329 90.6803C87.4631 90.2941 87.5367 89.9648 87.5367 89.7944V88.9596C87.5367 88.7041 87.3103 88.511 87.016 88.511H80.7729L80.7673 88.5053Z" fill="#7C6351"/>
<path d="M100.011 88.96C100.011 88.6136 100.328 88.3467 100.696 88.3467H101.619C101.987 88.3467 102.275 88.6193 102.275 88.96V104.253C102.275 105.803 101.851 106.763 101.143 107.501C100.379 108.313 99.1962 108.83 97.7473 108.83C96.2983 108.83 95.138 108.313 94.3512 107.501C93.6664 106.763 93.2192 105.803 93.2192 104.253V88.96C93.2192 88.6136 93.5362 88.3467 93.9041 88.3467H94.8267C95.1946 88.3467 95.4832 88.6193 95.4832 88.96V104.082C95.4832 105.093 95.6417 105.831 96.1398 106.297C96.5587 106.717 97.1133 106.91 97.7473 106.91C98.3812 106.91 98.9585 106.712 99.383 106.297C99.8584 105.831 100.017 105.093 100.017 104.082V88.96H100.011Z" fill="#7C6351"/>
<path d="M97.7471 108.994C96.3264 108.994 95.1095 108.517 94.2322 107.614C93.4285 106.745 93.0549 105.678 93.0549 104.247V88.9596C93.0549 88.528 93.4342 88.1816 93.9039 88.1816H94.8265C95.285 88.1816 95.6472 88.5224 95.6472 88.9596V104.082C95.6472 105.155 95.8283 105.78 96.2528 106.177C96.6377 106.558 97.1358 106.751 97.7471 106.751C98.3584 106.751 98.9017 106.541 99.264 106.183C99.6658 105.786 99.847 105.138 99.847 104.082V88.9596C99.847 88.528 100.226 88.1816 100.696 88.1816H101.619C102.077 88.1816 102.439 88.5224 102.439 88.9596V104.252C102.439 105.735 102.077 106.768 101.262 107.62C100.424 108.511 99.1791 109 97.7471 109V108.994ZM93.8983 88.5053C93.6096 88.5053 93.3776 88.7098 93.3776 88.9539V104.247C93.3776 105.604 93.7115 106.575 94.4643 107.387C95.2793 108.222 96.4113 108.665 97.7414 108.665C99.0715 108.665 100.243 108.21 101.019 107.387C101.771 106.603 102.105 105.638 102.105 104.247V88.9596C102.105 88.7041 101.89 88.511 101.613 88.511H100.69C100.402 88.511 100.17 88.7154 100.17 88.9596V104.082C100.17 105.229 99.9602 105.95 99.4904 106.416C99.0659 106.836 98.4263 107.08 97.7414 107.08C97.0566 107.08 96.4623 106.859 96.0208 106.416C95.5284 105.956 95.3133 105.258 95.3133 104.082V88.9596C95.3133 88.7041 95.0982 88.511 94.8209 88.511H93.8983V88.5053Z" fill="#7C6351"/>
<path d="M116.674 108.045C116.674 108.392 116.386 108.659 116.018 108.659H115.095C114.727 108.659 114.41 108.386 114.41 108.045V92.7754C114.41 91.8157 114.224 91.1229 113.776 90.6799C113.38 90.2597 112.826 90.0893 112.248 90.0893C111.671 90.0893 111.139 90.2597 110.72 90.6799C110.245 91.1229 110.114 91.8157 110.114 92.7754V108.045C110.114 108.392 109.826 108.659 109.458 108.659H108.535C108.167 108.659 107.85 108.386 107.85 108.045V89.0785C107.85 88.7321 107.958 88.5618 108.139 88.4368C108.297 88.3119 108.479 88.2665 108.694 88.2665C108.96 88.2665 109.192 88.363 109.429 88.5106L109.537 88.5845C109.746 88.7321 109.882 88.7832 110.114 88.7832C110.324 88.7832 110.641 88.5845 111.195 88.4141C111.614 88.2892 112.141 88.1699 112.673 88.1699C113.465 88.1699 114.331 88.3914 115.254 89.1523C115.333 89.2489 115.463 89.3 115.622 89.3C115.752 89.3 115.888 89.2489 116.046 89.1523C116.969 88.3914 117.97 88.1699 119.102 88.1699C120.048 88.1699 121.265 88.5618 122 89.3284C122.685 90.0155 123.24 91.0036 123.24 92.7015V108.045C123.24 108.392 122.951 108.659 122.583 108.659H121.661C121.293 108.659 120.976 108.386 120.976 108.045V92.7754C120.976 91.8157 120.789 91.1229 120.342 90.6799C119.946 90.2597 119.391 90.0893 118.814 90.0893C118.236 90.0893 117.71 90.2597 117.286 90.6799C116.81 91.1229 116.68 91.8157 116.68 92.7754V108.045H116.674Z" fill="#7C6351"/>
<path d="M122.571 108.824H121.649C121.179 108.824 120.8 108.472 120.8 108.046V92.7758C120.8 91.8218 120.613 91.1914 120.217 90.7996C119.792 90.351 119.215 90.2545 118.802 90.2545C118.23 90.2545 117.755 90.4362 117.387 90.7996C116.991 91.1687 116.832 91.7423 116.832 92.7758V108.046C116.832 108.483 116.47 108.824 116.011 108.824H115.089C114.619 108.824 114.24 108.472 114.24 108.046V92.7758C114.24 91.8218 114.053 91.1914 113.657 90.7996C113.232 90.351 112.655 90.2545 112.242 90.2545C111.67 90.2545 111.195 90.4362 110.827 90.7996C110.431 91.1687 110.272 91.7423 110.272 92.7758V108.046C110.272 108.483 109.91 108.824 109.452 108.824H108.529C108.059 108.824 107.68 108.472 107.68 108.046V89.079C107.68 88.7098 107.793 88.4713 108.042 88.301C108.212 88.1704 108.427 88.1022 108.687 88.1022C108.948 88.1022 109.214 88.1874 109.514 88.3748L109.627 88.4543C109.814 88.5849 109.916 88.619 110.114 88.619C110.199 88.619 110.346 88.5622 110.527 88.4827C110.691 88.4145 110.895 88.335 111.144 88.2555C111.727 88.0852 112.225 88 112.666 88C113.646 88 114.523 88.335 115.349 89.0222C115.474 89.1698 115.655 89.1925 115.949 89.0108C116.787 88.318 117.76 88 119.091 88C120.013 88 121.298 88.3748 122.107 89.2096C122.985 90.0898 123.392 91.1971 123.392 92.6963V108.04C123.392 108.477 123.03 108.818 122.571 108.818V108.824ZM118.808 89.9251C119.487 89.9251 120.058 90.1466 120.455 90.5668C120.913 91.0211 121.134 91.7252 121.134 92.7758V108.046C121.134 108.29 121.372 108.494 121.655 108.494H122.577C122.854 108.494 123.07 108.296 123.07 108.046V92.702C123.07 91.2993 122.69 90.2601 121.881 89.4424C121.139 88.6758 119.951 88.335 119.102 88.335C117.851 88.335 116.94 88.6247 116.153 89.2834C115.944 89.414 115.785 89.4708 115.627 89.4708C115.412 89.4708 115.236 89.397 115.129 89.2607C114.381 88.6474 113.572 88.335 112.678 88.335C112.27 88.335 111.8 88.4145 111.246 88.5736C111.014 88.6474 110.816 88.7269 110.657 88.7893C110.431 88.8802 110.272 88.9483 110.119 88.9483C109.853 88.9483 109.689 88.8916 109.446 88.7212L109.338 88.6474C108.88 88.3634 108.495 88.3748 108.24 88.5679C108.099 88.6644 108.014 88.778 108.014 89.079V108.04C108.014 108.284 108.252 108.489 108.535 108.489H109.457C109.735 108.489 109.95 108.29 109.95 108.04V92.7758C109.95 91.6401 110.142 90.9984 110.606 90.5611C111.031 90.1409 111.58 89.9251 112.248 89.9251C112.915 89.9251 113.498 90.1466 113.895 90.5668C114.353 91.0211 114.574 91.7252 114.574 92.7758V108.046C114.574 108.29 114.812 108.494 115.095 108.494H116.017C116.294 108.494 116.51 108.296 116.51 108.046V92.7758C116.51 91.6401 116.702 90.9984 117.166 90.5611C117.591 90.1409 118.14 89.9251 118.808 89.9251Z" fill="#7C6351"/>
<path d="M131.227 108.046C131.227 108.393 130.938 108.659 130.57 108.659H129.648C129.28 108.659 128.963 108.387 128.963 108.046V88.96C128.963 88.6136 129.28 88.3467 129.648 88.3467H130.57C130.938 88.3467 131.227 88.6193 131.227 88.96V108.046Z" fill="#7C6351"/>
<path d="M130.57 108.824H129.647C129.177 108.824 128.798 108.472 128.798 108.046V88.9596C128.798 88.528 129.177 88.1816 129.647 88.1816H130.57C131.034 88.1816 131.39 88.5224 131.39 88.9596V108.046C131.39 108.483 131.028 108.824 130.57 108.824ZM129.647 88.5053C129.358 88.5053 129.126 88.7098 129.126 88.9539V108.04C129.126 108.284 129.364 108.489 129.647 108.489H130.57C130.847 108.489 131.068 108.29 131.068 108.04V88.9596C131.068 88.7041 130.853 88.511 130.57 88.511H129.647V88.5053Z" fill="#7C6351"/>
<path d="M143.707 92.9228C143.707 91.912 143.52 91.1738 143.05 90.7081C142.626 90.2879 142.048 90.0948 141.443 90.0948C140.837 90.0948 140.26 90.2936 139.835 90.7081C139.337 91.1738 139.179 91.912 139.179 92.9228V108.045C139.179 108.392 138.89 108.659 138.522 108.659H137.6C137.232 108.659 136.915 108.386 136.915 108.045V89.0783C136.915 88.7319 137.022 88.5616 137.203 88.4366C137.362 88.3117 137.549 88.2663 137.758 88.2663C138.024 88.2663 138.256 88.3628 138.494 88.5105L138.601 88.5843C138.811 88.7319 138.941 88.783 139.179 88.783C139.388 88.783 139.733 88.6127 140.288 88.4366C140.707 88.3117 141.318 88.1641 141.947 88.1641C142.92 88.1641 144.029 88.5332 144.794 89.2941C145.507 89.9813 145.976 91.0205 145.976 92.7184V108.034C145.976 108.38 145.688 108.647 145.32 108.647H144.397C144.029 108.647 143.712 108.375 143.712 108.034V92.9228H143.707Z" fill="#7C6351"/>
<path d="M145.314 108.824H144.392C143.922 108.824 143.543 108.472 143.543 108.046V92.9234C143.543 91.9013 143.35 91.2369 142.931 90.8223C142.563 90.4532 142.031 90.2545 141.437 90.2545C140.843 90.2545 140.328 90.4475 139.948 90.8223C139.518 91.2255 139.337 91.8502 139.337 92.9234V108.046C139.337 108.483 138.975 108.824 138.516 108.824H137.594C137.124 108.824 136.745 108.472 136.745 108.046V89.079C136.745 88.7098 136.858 88.4713 137.107 88.301C137.277 88.1704 137.492 88.1022 137.752 88.1022C138.013 88.1022 138.279 88.1874 138.579 88.3748L138.692 88.4543C138.879 88.5849 138.981 88.619 139.179 88.619C139.281 88.619 139.456 88.5565 139.682 88.4713C139.841 88.4145 140.022 88.3464 140.237 88.2783C140.877 88.0909 141.437 88 141.946 88C143.061 88 144.165 88.4429 144.907 89.1812C145.739 89.9876 146.141 91.146 146.141 92.719V108.035C146.141 108.472 145.778 108.812 145.32 108.812L145.314 108.824ZM141.443 89.9251C142.122 89.9251 142.733 90.1636 143.163 90.5895C143.644 91.0665 143.871 91.8047 143.871 92.9234V108.046C143.871 108.29 144.109 108.494 144.392 108.494H145.314C145.591 108.494 145.812 108.296 145.812 108.046V92.7247C145.812 91.2425 145.439 90.1579 144.675 89.4197C143.995 88.7382 142.971 88.335 141.941 88.335C141.465 88.335 140.933 88.4202 140.328 88.5963C140.124 88.6587 139.943 88.7269 139.79 88.7837C139.524 88.8802 139.332 88.9483 139.173 88.9483C138.907 88.9483 138.743 88.8916 138.499 88.7212L138.392 88.6474C137.933 88.3634 137.549 88.3748 137.294 88.5679C137.152 88.6644 137.067 88.7837 137.067 89.079V108.04C137.067 108.284 137.305 108.489 137.588 108.489H138.511C138.788 108.489 139.003 108.29 139.003 108.04V92.9234C139.003 91.7536 139.218 91.0552 139.716 90.5895C140.158 90.1522 140.735 89.9308 141.437 89.9308L141.443 89.9251Z" fill="#7C6351"/>
<path d="M152.678 107.5C151.993 106.762 151.546 105.802 151.546 104.252V92.747C151.546 91.1967 151.993 90.237 152.678 89.4987C153.471 88.6867 154.625 88.1699 156.074 88.1699C157.523 88.1699 158.683 88.6867 159.47 89.4987C160.155 90.237 160.602 91.1967 160.602 92.747V104.246C160.602 105.797 160.155 106.756 159.47 107.495C158.678 108.307 157.523 108.823 156.074 108.823C154.625 108.823 153.465 108.307 152.678 107.495V107.5ZM157.682 106.296C158.18 105.831 158.338 105.092 158.338 104.082V92.923C158.338 91.9122 158.18 91.174 157.682 90.7083C157.263 90.2881 156.708 90.095 156.074 90.095C155.44 90.095 154.891 90.2938 154.467 90.7083C153.969 91.174 153.81 91.9122 153.81 92.923V104.076C153.81 105.087 153.969 105.825 154.467 106.291C154.891 106.711 155.44 106.904 156.074 106.904C156.708 106.904 157.257 106.705 157.682 106.291V106.296Z" fill="#7C6351"/>
<path d="M156.079 108.994C154.659 108.994 153.442 108.517 152.564 107.614C151.761 106.746 151.387 105.678 151.387 104.247V92.7476C151.387 91.3222 151.761 90.249 152.564 89.3858C153.442 88.4829 154.659 88.0059 156.079 88.0059C157.5 88.0059 158.717 88.4829 159.594 89.3858C160.398 90.2546 160.772 91.3222 160.772 92.7533V104.253C160.772 105.678 160.398 106.751 159.594 107.614C158.711 108.517 157.5 108.994 156.074 108.994H156.079ZM152.797 107.387C153.612 108.222 154.744 108.665 156.074 108.665C157.404 108.665 158.541 108.222 159.357 107.387C160.109 106.575 160.443 105.61 160.443 104.253V92.7476C160.443 91.3904 160.109 90.4193 159.357 89.6073C158.547 88.7725 157.409 88.3295 156.079 88.3295C154.749 88.3295 153.612 88.7725 152.797 89.6073C152.044 90.4193 151.71 91.3847 151.71 92.7419V104.241C151.71 105.599 152.044 106.564 152.797 107.376V107.387ZM156.079 107.075C155.378 107.075 154.8 106.854 154.359 106.411C153.866 105.951 153.651 105.246 153.651 104.077V92.9236C153.651 91.7538 153.866 91.0553 154.359 90.5897C154.8 90.1524 155.378 89.9309 156.079 89.9309C156.781 89.9309 157.359 90.1524 157.8 90.5954C158.292 91.0553 158.508 91.7538 158.508 92.9293V104.082C158.508 105.252 158.298 105.951 157.8 106.416C157.359 106.854 156.781 107.075 156.079 107.075ZM156.079 90.2546C155.468 90.2546 154.97 90.4477 154.585 90.8225C154.155 91.2257 153.974 91.8504 153.974 92.9236V104.077C153.974 105.15 154.155 105.775 154.579 106.172C154.964 106.553 155.462 106.746 156.074 106.746C156.685 106.746 157.189 106.553 157.562 106.178C157.987 105.775 158.168 105.15 158.168 104.077V92.9236C158.168 91.8504 157.987 91.2257 157.562 90.8282C157.177 90.4477 156.679 90.2546 156.068 90.2546H156.079Z" fill="#7C6351"/>
<path d="M169.585 101.05C169.585 100.828 169.455 100.63 169.217 100.51L168.9 100.386C167.111 99.6473 166.16 98.2901 166.16 96.0527V88.96C166.16 88.6136 166.477 88.3467 166.845 88.3467H167.768C168.136 88.3467 168.424 88.6193 168.424 88.96V95.905C168.424 96.9159 168.583 97.6541 169.081 98.1197C169.5 98.54 170.054 98.733 170.688 98.733C171.322 98.733 171.9 98.5343 172.324 98.1197C172.8 97.6541 172.958 96.9159 172.958 95.905V88.96C172.958 88.6136 173.275 88.3467 173.643 88.3467H174.566C174.933 88.3467 175.222 88.6193 175.222 88.96V96.0527C175.222 98.4662 173.881 99.9426 172.534 100.386L172.245 100.482C172.036 100.579 171.849 100.726 171.849 100.999V108.04C171.849 108.387 171.532 108.654 171.164 108.654H170.241C169.873 108.654 169.585 108.381 169.585 108.04V101.044V101.05Z" fill="#7C6351"/>
<path d="M171.163 108.824H170.241C169.777 108.824 169.42 108.483 169.42 108.046V101.05C169.42 100.891 169.318 100.749 169.137 100.652L168.837 100.539C166.924 99.7492 165.996 98.2841 165.996 96.0523V88.9596C165.996 88.528 166.375 88.1816 166.845 88.1816H167.767C168.226 88.1816 168.588 88.5224 168.588 88.9596V95.9047C168.588 96.978 168.769 97.6026 169.194 98.0001C169.579 98.3806 170.077 98.5737 170.688 98.5737C171.299 98.5737 171.843 98.3636 172.205 98.0058C172.607 97.6083 172.788 96.9609 172.788 95.9047V88.9596C172.788 88.528 173.167 88.1816 173.637 88.1816H174.559C175.024 88.1816 175.38 88.5224 175.38 88.9596V96.0523C175.38 98.6873 173.875 100.118 172.578 100.544L172.29 100.641C172.097 100.732 172.007 100.845 172.007 101.004V108.046C172.007 108.477 171.628 108.824 171.158 108.824H171.163ZM166.845 88.5053C166.556 88.5053 166.324 88.7098 166.324 88.9539V96.0467C166.324 98.1592 167.162 99.488 168.962 100.226L169.273 100.345C169.579 100.504 169.748 100.754 169.748 101.038V108.034C169.748 108.29 169.964 108.483 170.247 108.483H171.169C171.452 108.483 171.69 108.279 171.69 108.034V100.993C171.69 100.556 172.058 100.385 172.182 100.328L172.488 100.221C173.676 99.8287 175.063 98.4999 175.063 96.041V88.9596C175.063 88.7041 174.848 88.511 174.565 88.511H173.643C173.354 88.511 173.122 88.7154 173.122 88.9596V95.9047C173.122 97.0518 172.912 97.773 172.443 98.2387C172.018 98.6589 171.379 98.9031 170.694 98.9031C170.009 98.9031 169.415 98.6816 168.973 98.2387C168.481 97.7787 168.266 97.0802 168.266 95.9047V88.9596C168.266 88.7041 168.05 88.511 167.773 88.511H166.851L166.845 88.5053Z" fill="#7C6351"/>
<path d="M187.572 88.96C187.572 88.6136 187.889 88.3467 188.257 88.3467H189.179C189.547 88.3467 189.836 88.6193 189.836 88.96V104.253C189.836 105.803 189.411 106.763 188.704 107.501C187.94 108.313 186.757 108.83 185.308 108.83C183.859 108.83 182.699 108.313 181.912 107.501C181.227 106.763 180.78 105.803 180.78 104.253V88.96C180.78 88.6136 181.097 88.3467 181.465 88.3467H182.387C182.755 88.3467 183.044 88.6193 183.044 88.96V104.082C183.044 105.093 183.202 105.831 183.7 106.297C184.119 106.717 184.674 106.91 185.308 106.91C185.942 106.91 186.519 106.712 186.944 106.297C187.419 105.831 187.577 105.093 187.577 104.082V88.96H187.572Z" fill="#7C6351"/>
<path d="M185.308 108.994C183.887 108.994 182.67 108.517 181.793 107.614C180.989 106.745 180.616 105.678 180.616 104.247V88.9596C180.616 88.528 180.995 88.1816 181.465 88.1816H182.387C182.846 88.1816 183.208 88.5224 183.208 88.9596V104.082C183.208 105.155 183.389 105.78 183.814 106.177C184.199 106.558 184.697 106.751 185.308 106.751C185.919 106.751 186.463 106.541 186.825 106.183C187.227 105.786 187.408 105.138 187.408 104.082V88.9596C187.408 88.528 187.787 88.1816 188.257 88.1816H189.179C189.643 88.1816 190 88.5224 190 88.9596V104.252C190 105.735 189.638 106.768 188.823 107.62C187.985 108.511 186.74 109 185.308 109V108.994ZM181.459 88.5053C181.17 88.5053 180.938 88.7098 180.938 88.9539V104.247C180.938 105.604 181.272 106.575 182.025 107.387C182.834 108.222 183.972 108.665 185.302 108.665C186.632 108.665 187.804 108.21 188.579 107.387C189.332 106.603 189.666 105.638 189.666 104.247V88.9596C189.666 88.7041 189.451 88.511 189.168 88.511H188.245C187.957 88.511 187.725 88.7154 187.725 88.9596V104.082C187.725 105.229 187.515 105.95 187.046 106.416C186.621 106.836 185.981 107.08 185.297 107.08C184.612 107.08 184.017 106.859 183.576 106.416C183.083 105.956 182.868 105.258 182.868 104.082V88.9596C182.868 88.7041 182.653 88.511 182.376 88.511H181.453L181.459 88.5053Z" fill="#7C6351"/>
</svg>
