<svg width="72" height="64" viewBox="0 0 72 64" fill="none" xmlns="http://www.w3.org/2000/svg">
<path d="M0.238767 21.4819C0.632999 21.2213 1.1964 21.0785 1.65705 21.0207C1.794 21.0051 1.78911 21.1779 1.88728 21.1736C2.07527 21.1666 2.23572 21.0218 2.41581 21.033C2.47911 21.0362 2.49978 21.2974 2.56399 21.2954C2.91523 21.2829 3.21655 21.1059 3.55049 21.0461C5.2616 20.7305 6.86624 20.3642 8.55653 20.0811C9.12066 19.986 9.82057 20.0675 10.3793 19.8555C10.4445 19.8304 10.3615 19.6215 10.3709 19.601C10.5181 19.2879 10.535 19.7395 10.6744 19.773C11.2228 19.9061 11.8109 19.8246 12.2836 19.6643C12.4885 19.5949 12.2095 19.1937 12.4607 19.4045C12.478 19.4187 12.4598 19.659 12.5215 19.6749C12.6612 19.7104 12.9063 19.6321 13.0125 19.636C13.2168 19.6447 13.2442 19.6386 13.4295 19.6165C13.6822 19.5887 13.9983 19.6669 14.2676 19.5826C14.3251 19.5639 14.2196 19.3337 14.3094 19.2823C14.4017 19.2305 14.6474 19.2245 14.7363 19.2725C14.8249 19.3204 14.8089 19.5123 14.8279 19.5539C14.9839 19.9056 15.2178 19.374 15.2547 19.3582C15.9168 19.0829 16.503 19.3311 17.1396 19.2977C17.6206 19.272 18.1222 19.1598 18.5856 19.1649C19.1351 19.1723 19.5864 19.3031 20.1201 19.2901C20.1763 19.2891 20.1156 19.0049 20.1848 19.0031C20.9091 18.9845 21.6436 19.049 22.3454 19.2914C22.4159 19.3159 22.3054 19.557 22.3744 19.5964C22.7985 19.8308 23.4383 20.385 23.8098 19.3385C24.1024 19.4126 24.4609 19.5002 24.6988 19.752C24.8519 19.9142 24.6491 20.1598 24.8745 20.0741C24.9254 20.0552 24.8962 19.8118 24.9705 19.8013C25.284 19.7575 25.5928 19.8824 25.9085 19.8103C25.9727 19.795 25.9911 19.5828 26.0145 19.5479C26.2105 19.2662 26.3652 19.813 26.4098 19.8589C26.7605 20.2035 27.0583 20.15 27.4226 20.2319C27.5069 20.2511 27.4647 19.9509 27.5483 19.9595C27.9802 20.0077 28.4255 20.1341 28.8012 20.3567C28.8855 20.4071 28.7437 20.6225 28.7808 20.6586C28.9438 20.8151 29.0988 20.3808 29.259 20.5246C29.2928 20.5543 29.2186 20.75 29.22 20.774C29.2394 21.1495 29.4641 20.6834 29.496 20.6804C29.8982 20.6293 29.9876 21.2058 30.3453 21.2325C30.3888 21.2355 30.371 20.9557 30.4893 20.9795C31.2802 21.138 32.0753 21.4798 32.7438 21.9532C32.8484 22.0267 32.6965 22.1811 32.6954 22.2067C32.6796 22.6073 32.9352 22.1586 32.9803 22.1551C33.3312 22.1406 33.4413 22.6452 33.8685 22.1628C34.8066 22.7273 35.8566 23.005 36.7316 23.6809C36.9347 23.8411 37.1278 24.0194 37.3076 24.2267C37.3195 24.2395 37.1832 24.4526 37.2075 24.4773C37.4998 24.7752 37.6026 24.3906 38.0345 24.0656C38.1421 23.9836 38.077 24.5886 38.0759 24.6345C38.0688 24.8025 37.8539 25.1155 37.8607 25.1517C37.9247 25.441 38.4085 24.3029 38.6242 24.3983C38.6302 24.4033 38.5094 24.5987 38.5185 24.6275C38.5468 24.7177 38.6397 24.6598 38.6641 24.7559C38.7188 24.9774 38.5292 25.5504 38.8642 25.3125C38.9067 25.2811 39.1424 24.6197 39.3229 24.7309C39.3949 24.7764 39.7411 24.9044 39.8201 24.9841C39.8992 25.0643 39.7503 25.2484 39.7535 25.2602C39.9054 25.6412 39.7628 25.7181 39.7382 26.1832C39.7171 26.6474 40.0549 25.6507 40.1509 25.5617C40.2468 25.4731 40.3554 25.7771 40.3744 25.8754C40.3931 25.9737 40.2829 26.0861 40.3093 26.1476C40.4879 26.5507 40.6138 25.7032 40.7637 25.5801C41.1143 25.2864 41.0237 26.0809 41.2034 26.223C41.2515 26.2611 41.264 26.0778 41.3179 26.0785C41.5305 26.0834 41.5755 26.3547 41.8666 26.2141C41.915 26.1915 42.2341 25.801 42.2471 26.1651C42.2489 26.2176 42.1444 26.3887 42.2151 26.4561C42.3206 26.5572 42.5343 26.6659 42.6868 26.6426C42.7992 26.6254 42.7757 26.2851 42.8716 26.4165C42.9144 26.4751 42.76 26.6255 42.8452 26.7207C42.9279 26.8153 43.2034 26.8839 43.3072 26.9051C43.4115 26.9266 43.4188 26.6769 43.4314 26.6634C43.5059 26.5866 43.7301 26.525 43.7471 26.5296C44.6085 26.7249 45.3394 27.3072 46.2207 27.3344C46.2908 27.337 46.2922 27.0767 46.3033 27.0745C46.5543 27.0116 46.2481 27.6479 46.3721 27.902C46.4404 27.3861 46.5203 27.4964 46.6941 27.4687C46.7779 27.4548 46.7689 27.249 46.7796 27.23C46.9471 26.9486 46.9618 27.3512 46.9699 27.4344C46.9991 27.7404 47.1399 27.4076 47.161 27.612C47.183 27.8151 47.0145 28.0843 47.174 28.1057C47.2469 27.9288 47.2062 27.4303 47.3369 27.371C47.8198 27.1471 48.6148 27.6355 48.9725 27.7126C49.3277 27.7912 49.4515 27.768 49.6583 27.8549C50.0328 28.0105 49.9234 27.6384 50.1726 27.4932C50.4212 27.347 50.2394 28.223 50.2592 28.416C50.2791 28.6088 50.3309 28.4157 50.3657 28.5234C50.4005 28.631 50.2991 28.7538 50.3964 28.8002C50.4948 28.8469 50.7884 28.5259 50.8363 28.3287C50.9367 27.9112 50.8412 27.4615 51.0928 27.6319C51.1073 27.642 51.0455 27.8724 51.1019 27.8991C51.5526 28.1038 52.022 28.1324 52.4796 28.3004C52.5429 28.3239 52.4808 28.5824 52.5178 28.599C52.9038 28.7715 52.7724 28.3312 52.9854 27.8471C52.9328 28.4937 53.047 28.8915 53.3418 28.8952C53.5183 28.8974 53.4869 28.6147 53.5982 28.4148C53.6314 28.3546 53.7563 28.5475 53.7771 28.4143C53.8459 27.9787 53.7237 27.4944 54.0244 27.6833C54.0377 27.6922 54.0001 27.9308 54.0458 27.9444C54.3414 28.0328 54.3657 27.5777 54.6745 27.5128C54.9154 27.462 55.3602 27.7199 55.6471 27.7484C55.6814 28.4754 55.9432 28.2932 56.0172 27.7853C56.2002 27.794 56.3929 27.7518 56.5719 27.8074C56.6335 27.8263 56.6107 28.0394 56.62 28.0615C56.7674 28.4081 56.8091 27.9148 56.8467 27.8924C57.2597 27.6709 57.6412 28.005 58.0049 27.6011C58.0182 27.5865 57.9852 27.0817 58.1355 27.436C58.1456 27.4604 58.0363 27.7045 58.231 27.7C58.425 27.6958 58.8211 27.9199 59.0524 27.6522C59.1097 27.5877 59.208 27.1602 59.3862 27.4586C59.4098 27.4992 59.4111 27.6454 59.4478 27.7217C59.5667 27.9643 59.5376 27.4523 59.6966 27.8676C59.8555 28.2828 60.1093 28.5736 60.3309 28.2348C60.3382 28.2248 60.337 27.8149 60.421 27.8077C60.5537 27.7967 60.7612 27.8472 60.903 27.8197C60.9707 27.8065 60.8839 27.5664 60.8949 27.5598C61.3271 27.3405 61.664 27.5054 62.1791 27.5008C62.2726 27.5006 62.4552 27.1128 62.6794 27.3417C62.928 27.5915 62.9935 28.8414 63.3703 28.4568C63.5285 28.3007 63.3957 26.7249 63.8893 27.441C64.4413 27.1017 65.096 27.3609 65.633 26.9128C65.657 26.8929 65.6238 26.4482 65.6876 26.4362C65.7828 26.4192 65.8897 26.601 65.9592 26.595C66.242 26.5773 66.47 26.3268 66.7389 26.2723C66.8422 26.2507 66.8699 26.4633 66.9926 26.4374C67.1131 26.4118 67.1123 26.1205 67.321 26.1945C67.478 26.2515 67.78 26.751 67.9648 26.7595C67.7967 26.2243 67.9008 26.2023 68.0607 25.9915C68.091 25.9509 67.9856 25.7806 67.9967 25.7518C68.0399 25.6308 68.1617 25.76 68.1961 25.6322C68.2045 25.6014 68.1425 25.4202 68.1457 25.3849C68.1705 25.0778 68.4998 25.4181 68.5571 25.4773C68.7729 25.7027 68.7606 25.4422 68.8961 25.5122C69.0339 25.5813 68.9335 25.7673 69.073 25.7888C69.3582 25.8343 69.6508 25.6908 69.8971 25.604C69.9922 25.5694 69.8348 25.3564 69.8462 25.346C70.0039 25.2148 70.3248 25.3788 70.2365 24.8647C70.8753 26.0256 70.2807 24.7096 70.682 24.8268C70.7122 24.8371 70.9853 25.3977 70.9323 25.5193C70.8729 25.6435 70.6748 25.5151 70.6135 25.6941C70.6002 25.7358 70.6538 26.3436 70.6419 26.3864C70.5528 26.7197 70.1998 25.8583 70.1696 25.8154C69.8701 25.3409 69.902 26.0027 69.8616 26.0646C69.6706 26.351 69.4505 26.2933 69.2877 26.5041C69.1842 26.6396 69.3761 27.2182 69.2597 27.2402C68.8983 27.3037 68.4994 26.5423 68.3952 27.356C68.3766 27.5281 68.6586 28.1366 68.2404 27.7237C68.2138 27.6978 67.8765 27.3044 67.8584 27.6287C67.8562 27.6696 67.9163 27.8542 67.9027 27.8758C67.8118 28.0159 67.6716 27.8983 67.5664 28.0091C67.4586 28.1207 67.3312 28.2758 67.1573 28.2599C67.0525 28.2506 66.8277 27.9404 66.7575 27.8689C66.5561 27.6628 66.5426 28.1026 66.3812 27.8277C66.2191 27.5515 66.2347 27.0562 65.9824 26.9202C66.1145 27.4071 66.2404 27.9095 66.368 28.4006C65.9121 28.5128 65.4214 28.477 64.975 28.6145C64.919 28.6322 65.0445 28.88 64.9858 28.9058C64.7351 29.0141 64.464 28.882 64.22 29.0194C64.0298 29.1272 63.8659 29.46 63.6589 29.5806C63.3908 29.0495 63.1272 29.308 62.8794 29.3059C62.7937 29.3052 62.7677 29.1532 62.6993 29.116C62.4417 28.9791 62.6469 29.4575 62.602 29.5486C62.4066 29.9375 62.1531 28.811 61.8639 28.8956C61.849 28.8997 61.7671 29.5412 61.746 29.584C61.6177 29.8617 61.6785 29.3787 61.562 29.3538C61.3489 29.3081 61.1863 29.1878 60.9808 29.4057C60.9192 29.4704 60.8227 29.8755 60.6432 29.604C60.6198 29.5685 60.5967 29.3662 60.581 29.3566C60.2999 29.2007 60.3927 29.8327 60.2791 30.0693C60.1649 30.3059 59.8714 29.903 59.8075 29.7836C59.6399 29.4754 59.8799 29.6312 59.8817 29.5982C59.9021 29.2069 59.7481 29.2965 59.6177 29.2821C59.5106 28.6645 59.3457 28.7254 59.4841 29.2694C59.4988 29.329 59.5885 29.2574 59.6177 29.2821C59.5914 29.9068 59.4122 30.0113 59.1264 29.4692C58.9933 29.2148 59.0465 28.892 58.7637 29.0432C58.6347 29.1113 58.7395 29.5332 58.6323 29.6646C58.3835 29.9648 57.9794 29.6042 57.7048 29.6951C57.6041 29.7282 57.7278 29.9533 57.6594 29.984C57.4771 30.0662 57.2941 29.9051 57.1112 30.0119C57.0945 30.0219 57.1582 30.2646 57.0987 30.2729C56.6425 30.3402 56.2531 30.2092 55.7792 30.2318C55.5506 30.243 55.1491 30.3983 54.9146 30.379C54.5063 30.3484 53.9903 29.9995 53.6477 30.0892C53.4235 30.1466 53.4736 30.3934 53.3765 30.5622C53.1873 30.8895 52.8536 30.3018 52.811 30.2105C52.8098 30.2076 53.006 30.1511 52.9028 30.0232C52.845 29.7581 52.8134 30.2094 52.811 30.2105C52.7822 30.1521 52.391 30.0896 52.3114 30.1345C52.2683 30.1593 52.2865 30.3941 52.264 30.4026C51.7394 30.5997 51.2041 30.6369 50.671 30.4942C50.6618 30.4889 50.692 30.2282 50.6706 30.219C50.3742 30.0837 50.157 30.3892 49.8857 30.5585C49.6149 30.7275 49.4133 30.645 49.3051 30.1828C49.1052 30.2208 48.854 29.9946 48.7119 29.8572C48.5699 29.7199 48.4895 30.2239 48.4744 30.2323C48.003 30.5019 47.7828 30.1791 47.3399 30.0696C47.132 30.0173 46.7 30.0249 46.4592 30.0406C46.2688 30.0541 46.1791 29.9171 45.9969 29.9621C45.9722 29.968 45.9551 30.1957 45.9466 30.2031C45.7079 30.436 45.8989 29.9063 45.8779 29.8016C45.8015 29.4208 45.7554 29.217 45.4883 29.3377C45.4276 29.3655 45.1114 30.1177 44.9998 30.1425C44.8561 30.1735 44.964 29.9032 44.8125 29.9424C44.7996 29.9454 44.7656 30.119 44.682 30.0933C44.2933 29.9759 43.8829 29.7759 43.4772 29.6936C43.4214 29.6815 43.4251 29.9714 43.3429 29.9583C42.9572 29.8965 42.5425 29.7754 42.209 29.5445C42.1273 29.4869 42.2379 29.3142 42.2343 29.2525C42.2139 28.8801 41.9052 29.324 41.8739 29.3249C41.1417 29.3657 40.762 28.7569 40.0342 28.7373C39.9951 28.7377 39.5291 29.1556 39.5642 28.6666C39.5658 28.6339 39.6097 28.1368 39.3873 28.4059C39.3732 28.4226 39.364 28.684 39.2384 28.6103C39.1135 28.5369 38.8367 28.6091 38.7511 28.2828C38.7222 28.1793 38.7681 27.6809 38.4564 27.9687C38.4371 27.99 37.8439 28.6848 37.9772 28.0922C37.9994 27.9948 38.2585 27.4176 37.932 27.6324C37.8689 27.674 37.8845 27.8339 37.7479 27.8718C37.5374 27.9303 37.3975 27.6853 37.0901 27.8575C37.037 27.8886 36.7143 28.2153 36.7345 27.8664C36.7378 27.8118 36.8585 27.6346 36.8089 27.5861C36.574 27.3548 36.2182 27.344 35.9954 27.0734C35.9166 26.9781 36.1177 26.6961 36.0537 26.5629C35.9896 26.4297 35.8205 26.2471 35.6413 26.3311C35.4613 26.4149 35.3351 26.9616 35.1491 26.9156C35.1252 26.9096 35.1015 26.9032 35.078 26.8964C34.4042 26.7246 33.9496 26.1735 33.3453 25.8581C33.2533 25.8102 33.2536 26.0228 33.1133 25.9659C32.5944 25.7533 31.6498 25.5769 31.3325 25.0248C31.0778 24.5809 31.6269 24.5098 31.3889 24.2813C31.2718 24.1712 30.916 24.7179 30.8777 24.7258C30.4978 24.8092 30.355 24.4673 30.0373 24.4571C29.9718 24.4552 29.9538 24.7185 29.8992 24.7143C29.7124 24.7024 29.5634 24.5374 29.3913 24.5084C29.3139 24.4961 29.2726 24.6881 29.2088 24.6538C29.0561 24.5741 28.9323 24.4534 28.8177 24.2314C28.8071 24.2112 28.9728 24.0039 28.8504 23.9609C28.6528 23.8922 28.4463 23.6504 28.1682 23.7735C28.0854 23.8109 27.9755 24.2447 27.9028 23.9085C27.8875 23.8384 28.0532 23.325 27.7723 23.7353C27.7249 23.8031 27.2953 24.3458 27.2424 23.9204C27.2285 23.8083 27.2265 23.3571 27.1272 23.4063C27.1135 23.4146 27.1078 23.6595 27.0336 23.6674C26.7735 23.6914 26.5242 23.6141 26.2612 23.64C26.1911 23.6475 26.2423 23.9108 26.1399 23.9143C25.8581 23.9242 25.5255 23.8008 25.2711 23.6802C25.1771 23.6353 25.2785 23.4429 25.275 23.4196C25.2167 23.0403 25.0696 23.5159 25.0273 23.5384C24.7624 23.6711 24.6188 23.4162 24.3847 23.4456C24.3209 23.4533 24.3327 23.692 24.3176 23.7111C24.1641 23.8967 24.3147 23.4914 24.2406 23.4346C24.0328 23.2739 23.7784 23.2615 23.5485 23.2657C23.464 23.2676 23.5268 23.5487 23.4518 23.5474C23.0129 23.5454 22.5473 23.4762 22.1282 23.2947C22.0489 23.26 22.1154 23.0546 22.1019 23.0056C22.0076 22.6626 21.8032 23.1072 21.7618 23.1482C21.5702 23.3353 21.5087 23.1461 21.3465 23.172C20.5593 23.3013 19.5984 23.1612 18.8636 23.0958C17.8926 23.0115 17.1269 22.8485 16.2112 22.97C16.1534 22.9775 16.2338 23.2511 16.1842 23.2612C15.5298 23.3804 14.8935 23.3362 14.2457 23.4986C14.1933 23.5114 14.3027 23.7641 14.2203 23.7934C14.0511 23.8554 13.8335 23.8701 13.6458 23.8113C13.5528 23.7833 13.6384 23.542 13.5451 23.5185C13.3275 23.4635 13.1053 23.4777 12.9045 23.5521C12.8194 23.5844 12.994 23.8307 12.8806 23.8518C12.1081 24.0017 11.3609 24.1879 10.5004 24.0134C10.4422 24.0013 10.279 23.4739 10.1874 23.6019C10.2115 23.7528 10.2504 23.928 10.2815 24.0881C9.16694 24.4223 8.01326 24.5245 6.89026 24.8309C6.84242 24.8441 7.00813 25.0984 6.91648 25.1252C6.39647 25.2778 5.91643 25.5168 5.29523 25.4239C5.23277 25.4154 5.09231 24.9216 4.96086 25.0493C4.93703 25.0724 4.72927 25.2181 4.71023 25.3432C4.70814 25.3618 4.82892 25.5726 4.76004 25.6047C4.32198 25.8003 3.86129 25.9165 3.3888 25.9483C3.30801 25.9548 3.28961 25.6878 3.23118 25.6904C2.82603 25.7077 2.54938 26.0342 2.11942 25.9733C1.8458 25.9258 1.72913 25.4957 1.43991 25.1517C1.41039 25.0977 1.24721 25.164 1.141 24.9355C0.848357 24.3726 0.615641 23.7143 0.296446 23.1178C0.234766 22.9852 0.0837053 23.2341 0.0513856 22.8579C0.0811513 22.8169 0.150175 22.6546 0.159853 22.5185C0.147349 22.4333 -0.00238276 22.2201 3.48091e-05 22.1025C0.00432253 21.9841 0.150145 22.1534 0.200337 21.9943C0.250124 21.834 0.0733059 21.5933 0.238767 21.4819ZM48.077 29.2377C47.9659 28.9762 47.8264 29.8628 48.0114 29.6704C48.0205 29.6601 48.0828 29.2505 48.077 29.2377ZM65.2493 27.8201C64.9712 27.4846 64.9949 28.0796 65.1998 28.342C65.4058 28.6036 65.3346 27.9215 65.2493 27.8201ZM67.0266 27.0079C66.7304 26.7727 67.0678 28 67.2166 27.6851C67.2253 27.6672 67.0439 27.0215 67.0266 27.0079ZM1.94817 24.7892C1.94742 24.7764 1.8301 24.8148 1.83308 24.8265C1.8908 25.1122 2.11273 25.0406 1.94817 24.7892ZM68.7322 26.11C68.614 25.9694 68.4994 26.2202 68.6482 26.3948C68.7693 26.5349 68.8807 26.2844 68.7322 26.11ZM41.0676 26.6394C41.0698 26.6261 40.9974 26.5886 40.9744 26.6606C40.9005 26.8926 41.03 26.8642 41.0676 26.6394ZM71.7246 24.8885C71.2603 25.0498 70.6083 24.1847 71.0907 24.1007C71.1819 24.0832 71.0618 24.4811 71.2004 24.5227C71.4679 24.5918 71.3372 23.9257 71.6567 24.1628C71.7479 24.1909 71.7511 24.8826 71.7245 24.8901C71.7245 24.8896 71.7246 24.889 71.7246 24.8885ZM48.1347 28.1583C48.1334 28.1462 48.023 28.1202 48.0188 28.1315C47.9197 28.4057 48.144 28.4585 48.1347 28.1583ZM36.9326 24.3155C36.9383 24.2904 36.7172 24.1528 36.6992 24.1695C36.3658 24.5233 36.8189 24.8062 36.9326 24.3155ZM55.6526 27.7675C55.7578 27.4745 55.8973 27.4322 56.0166 27.785C55.8957 27.7737 55.7747 27.7782 55.6526 27.7675Z" fill="#7C6351"/>
<path d="M0.238767 2.48192C0.632999 2.22131 1.1964 2.07848 1.65705 2.02072C1.794 2.00509 1.78911 2.17786 1.88728 2.17355C2.07527 2.16659 2.23572 2.02184 2.41581 2.03298C2.47911 2.03615 2.49978 2.2974 2.56399 2.2954C2.91523 2.28285 3.21655 2.10586 3.55049 2.04612C5.2616 1.73047 6.86624 1.36419 8.55653 1.08111C9.12066 0.98596 9.82057 1.06746 10.3793 0.855452C10.4445 0.830444 10.3615 0.621466 10.3709 0.601046C10.5181 0.28793 10.535 0.739469 10.6744 0.773027C11.2228 0.906111 11.8109 0.824602 12.2836 0.664275C12.4885 0.594912 12.2095 0.193747 12.4607 0.404474C12.478 0.418679 12.4598 0.658973 12.5215 0.674882C12.6612 0.710409 12.9063 0.632127 13.0125 0.636031C13.2168 0.644691 13.2442 0.638603 13.4295 0.616523C13.6822 0.588652 13.9983 0.666935 14.2676 0.582626C14.3251 0.563927 14.2196 0.333685 14.3094 0.282271C14.4017 0.230522 14.6474 0.224515 14.7363 0.272509C14.8249 0.320429 14.8089 0.512277 14.8279 0.553907C14.9839 0.905585 15.2178 0.373967 15.2547 0.358162C15.9168 0.0828974 16.503 0.331148 17.1396 0.297685C17.6206 0.271997 18.1222 0.159802 18.5856 0.164931C19.1351 0.172272 19.5864 0.303072 20.1201 0.29011C20.1763 0.289082 20.1156 0.00487053 20.1848 0.00309086C20.9091 -0.0155451 21.6436 0.0489881 22.3454 0.291355C22.4159 0.315939 22.3054 0.55701 22.3744 0.596391C22.7985 0.83078 23.4383 1.38496 23.8098 0.338524C24.1024 0.412624 24.4609 0.50022 24.6988 0.752024C24.8519 0.914179 24.6491 1.15979 24.8745 1.07408C24.9254 1.05517 24.8962 0.811766 24.9705 0.80127C25.284 0.757452 25.5928 0.882405 25.9085 0.810269C25.9727 0.795041 25.9911 0.582812 26.0145 0.547914C26.2105 0.266245 26.3652 0.813022 26.4098 0.858912C26.7605 1.20347 27.0583 1.14999 27.4226 1.23188C27.5069 1.25109 27.4647 0.950917 27.5483 0.959508C27.9802 1.0077 28.4255 1.13408 28.8012 1.35669C28.8855 1.40711 28.7437 1.6225 28.7808 1.65864C28.9438 1.8151 29.0988 1.38083 29.259 1.52455C29.2928 1.5543 29.2186 1.75 29.22 1.77396C29.2394 2.14955 29.4641 1.68344 29.496 1.68036C29.8982 1.62935 29.9876 2.20577 30.3453 2.23252C30.3888 2.23546 30.371 1.95565 30.4893 1.97955C31.2802 2.138 32.0753 2.47979 32.7438 2.95317C32.8484 3.02666 32.6965 3.18113 32.6954 3.20671C32.6796 3.60734 32.9352 3.15857 32.9803 3.15513C33.3312 3.14061 33.4413 3.64517 33.8685 3.16279C34.8066 3.72726 35.8566 4.00505 36.7316 4.68094C36.9347 4.84106 37.1278 5.01937 37.3076 5.22666C37.3195 5.23946 37.1832 5.45264 37.2075 5.47726C37.4998 5.77522 37.6026 5.39056 38.0345 5.0656C38.1421 4.98359 38.077 5.58859 38.0759 5.63447C38.0688 5.80248 37.8539 6.11546 37.8607 6.15174C37.9247 6.44098 38.4085 5.3029 38.6242 5.39835C38.6302 5.40326 38.5094 5.59871 38.5185 5.62751C38.5468 5.71775 38.6397 5.65978 38.6641 5.75592C38.7188 5.9774 38.5292 6.55041 38.8642 6.31254C38.9067 6.28111 39.1424 5.6197 39.3229 5.73094C39.3949 5.77641 39.7411 5.90438 39.8201 5.98409C39.8992 6.06427 39.7503 6.24843 39.7535 6.26021C39.9054 6.64123 39.7628 6.71812 39.7382 7.18322C39.7171 7.64743 40.0549 6.65065 40.1509 6.56167C40.2468 6.47307 40.3554 6.77709 40.3744 6.87536C40.3931 6.97368 40.2829 7.08614 40.3093 7.14761C40.4879 7.55073 40.6138 6.7032 40.7637 6.58011C41.1143 6.28643 41.0237 7.08088 41.2034 7.22295C41.2515 7.26112 41.264 7.07781 41.3179 7.07855C41.5305 7.0834 41.5755 7.35471 41.8666 7.21406C41.915 7.19151 42.2341 6.80102 42.2471 7.16514C42.2489 7.21763 42.1444 7.38873 42.2151 7.45615C42.3206 7.55723 42.5343 7.66588 42.6868 7.64265C42.7992 7.62539 42.7757 7.28506 42.8716 7.4165C42.9144 7.47509 42.76 7.6255 42.8452 7.72065C42.9279 7.81528 43.2034 7.88386 43.3072 7.90512C43.4115 7.92661 43.4188 7.67687 43.4314 7.66335C43.5059 7.58659 43.7301 7.52501 43.7471 7.52962C44.6085 7.72491 45.3394 8.30723 46.2207 8.33441C46.2908 8.337 46.2922 8.07672 46.3033 8.07451C46.5543 8.0116 46.2481 8.64785 46.3721 8.90199C46.4404 8.38611 46.5203 8.49642 46.6941 8.46868C46.7779 8.45482 46.7689 8.24903 46.7796 8.22998C46.9471 7.94857 46.9618 8.35117 46.9699 8.4344C46.9991 8.74042 47.1399 8.40755 47.161 8.61201C47.183 8.81509 47.0145 9.08428 47.174 9.10571C47.2469 8.92881 47.2062 8.43027 47.3369 8.37096C47.8198 8.14714 48.6148 8.63548 48.9725 8.71256C49.3277 8.79115 49.4515 8.76795 49.6583 8.85488C50.0328 9.01051 49.9234 8.63844 50.1726 8.49322C50.4212 8.34701 50.2394 9.22305 50.2592 9.41599C50.2791 9.60876 50.3309 9.41573 50.3657 9.52337C50.4005 9.63099 50.2991 9.75377 50.3964 9.80021C50.4948 9.84692 50.7884 9.52586 50.8363 9.32868C50.9367 8.91117 50.8412 8.46148 51.0928 8.63195C51.1073 8.64202 51.0455 8.87235 51.1019 8.89909C51.5526 9.10378 52.022 9.13237 52.4796 9.30043C52.5429 9.32389 52.4808 9.58237 52.5178 9.59895C52.9038 9.77148 52.7724 9.33125 52.9854 8.84707C52.9328 9.49369 53.047 9.89151 53.3418 9.89525C53.5183 9.89742 53.4869 9.61473 53.5982 9.41482C53.6314 9.35458 53.7563 9.54748 53.7771 9.41425C53.8459 8.97871 53.7237 8.49438 54.0244 8.68328C54.0377 8.69225 54.0001 8.93082 54.0458 8.94441C54.3414 9.03284 54.3657 8.57766 54.6745 8.51277C54.9154 8.46195 55.3602 8.71986 55.6471 8.74835C55.6814 9.47538 55.9432 9.29316 56.0172 8.78533C56.2002 8.79405 56.3929 8.7518 56.5719 8.8074C56.6335 8.8263 56.6107 9.0394 56.62 9.0615C56.7674 9.40811 56.8091 8.9148 56.8467 8.89245C57.2597 8.67087 57.6412 9.00495 58.0049 8.60107C58.0182 8.58647 57.9852 8.08169 58.1355 8.436C58.1456 8.46043 58.0363 8.70446 58.231 8.7C58.425 8.69576 58.8211 8.91995 59.0524 8.65225C59.1097 8.58769 59.208 8.16016 59.3862 8.45856C59.4098 8.49917 59.4111 8.64542 59.4478 8.72166C59.5667 8.9643 59.5376 8.45231 59.6966 8.86756C59.8555 9.28277 60.1093 9.57362 60.3309 9.23481C60.3382 9.22482 60.337 8.81493 60.421 8.80765C60.5537 8.79668 60.7612 8.84722 60.903 8.81975C60.9707 8.8065 60.8839 8.56642 60.8949 8.55983C61.3271 8.3405 61.664 8.50543 62.1791 8.5008C62.2726 8.50065 62.4552 8.11279 62.6794 8.34175C62.928 8.59146 62.9935 9.84145 63.3703 9.45675C63.5285 9.30071 63.3957 7.72493 63.8893 8.44102C64.4413 8.10167 65.096 8.36094 65.633 7.91277C65.657 7.89287 65.6238 7.4482 65.6876 7.43624C65.7828 7.41921 65.8897 7.60103 65.9592 7.59498C66.242 7.57732 66.47 7.3268 66.7389 7.27229C66.8422 7.2507 66.8699 7.46331 66.9926 7.43739C67.1131 7.41179 67.1123 7.12045 67.321 7.19446C67.478 7.25146 67.78 7.75102 67.9648 7.75947C67.7967 7.2243 67.9008 7.20226 68.0607 6.99154C68.091 6.95086 67.9856 6.78057 67.9967 6.75181C68.0399 6.6308 68.1617 6.75996 68.1961 6.63215C68.2045 6.60139 68.1425 6.42019 68.1457 6.38488C68.1705 6.07782 68.4998 6.41814 68.5571 6.47726C68.7729 6.70269 68.7606 6.44223 68.8961 6.51224C69.0339 6.58133 68.9335 6.76732 69.073 6.78876C69.3582 6.83429 69.6508 6.69079 69.8971 6.60403C69.9922 6.5694 69.8348 6.35644 69.8462 6.34595C70.0039 6.2148 70.3248 6.37876 70.2365 5.86471C70.8753 7.02562 70.2807 5.70956 70.682 5.82677C70.7122 5.83714 70.9853 6.39772 70.9323 6.5193C70.8729 6.64345 70.6748 6.5151 70.6135 6.69412C70.6002 6.73581 70.6538 7.34364 70.6419 7.38643C70.5528 7.71968 70.1998 6.85828 70.1696 6.81536C69.8701 6.34086 69.902 7.00272 69.8616 7.06464C69.6706 7.35104 69.4505 7.29327 69.2877 7.50414C69.1842 7.63962 69.3761 8.21822 69.2597 8.24024C68.8983 8.30366 68.4994 7.54226 68.3952 8.35605C68.3766 8.52812 68.6586 9.13657 68.2404 8.72367C68.2138 8.69778 67.8765 8.30444 67.8584 8.62874C67.8562 8.66964 67.9163 8.85421 67.9027 8.87575C67.8118 9.01592 67.6716 8.89828 67.5664 9.00908C67.4586 9.12067 67.3312 9.27579 67.1573 9.25986C67.0525 9.25062 66.8277 8.94042 66.7575 8.86892C66.5561 8.6628 66.5426 9.10255 66.3812 8.82773C66.2191 8.55146 66.2347 8.05619 65.9824 7.92023C66.1145 8.40705 66.2404 8.90952 66.368 9.4006C65.9121 9.51279 65.4214 9.47697 64.975 9.61446C64.919 9.63218 65.0445 9.87996 64.9858 9.90578C64.7351 10.0141 64.464 9.88198 64.22 10.0194C64.0298 10.1272 63.8659 10.46 63.6589 10.5806C63.3908 10.0495 63.1272 10.308 62.8794 10.3059C62.7937 10.3052 62.7677 10.1532 62.6993 10.116C62.4417 9.97914 62.6469 10.4575 62.602 10.5486C62.4066 10.9375 62.1531 9.81103 61.8639 9.8956C61.849 9.89968 61.7671 10.5412 61.746 10.584C61.6177 10.8617 61.6785 10.3787 61.562 10.3538C61.3489 10.3081 61.1863 10.1878 60.9808 10.4057C60.9192 10.4704 60.8227 10.8755 60.6432 10.604C60.6198 10.5685 60.5967 10.3662 60.581 10.3566C60.2999 10.2007 60.3927 10.8327 60.2791 11.0693C60.1649 11.3059 59.8714 10.903 59.8075 10.7836C59.6399 10.4754 59.8799 10.6312 59.8817 10.5982C59.9021 10.2069 59.7481 10.2965 59.6177 10.2821C59.5106 9.6645 59.3457 9.72544 59.4841 10.2694C59.4988 10.329 59.5885 10.2574 59.6177 10.2821C59.5914 10.9068 59.4122 11.0113 59.1264 10.4692C58.9933 10.2148 59.0465 9.89195 58.7637 10.0432C58.6347 10.1113 58.7395 10.5332 58.6323 10.6646C58.3835 10.9648 57.9794 10.6042 57.7048 10.6951C57.6041 10.7282 57.7278 10.9533 57.6594 10.984C57.4771 11.0662 57.2941 10.9051 57.1112 11.0119C57.0945 11.0219 57.1582 11.2646 57.0987 11.2729C56.6425 11.3402 56.2531 11.2092 55.7792 11.2318C55.5506 11.243 55.1491 11.3983 54.9146 11.379C54.5063 11.3484 53.9903 10.9995 53.6477 11.0892C53.4235 11.1466 53.4736 11.3934 53.3765 11.5622C53.1873 11.8895 52.8536 11.3018 52.811 11.2105C52.8098 11.2076 53.006 11.1511 52.9028 11.0232C52.845 10.7581 52.8134 11.2094 52.811 11.2105C52.7822 11.1521 52.391 11.0896 52.3114 11.1345C52.2683 11.1593 52.2865 11.3941 52.264 11.4026C51.7394 11.5997 51.2041 11.6369 50.671 11.4942C50.6618 11.4889 50.692 11.2282 50.6706 11.219C50.3742 11.0837 50.157 11.3892 49.8857 11.5585C49.6149 11.7275 49.4133 11.645 49.3051 11.1828C49.1052 11.2208 48.854 10.9946 48.7119 10.8572C48.5699 10.7199 48.4895 11.2239 48.4744 11.2323C48.003 11.5019 47.7828 11.1791 47.3399 11.0696C47.132 11.0173 46.7 11.0249 46.4592 11.0406C46.2688 11.0541 46.1791 10.9171 45.9969 10.9621C45.9722 10.968 45.9551 11.1957 45.9466 11.2031C45.7079 11.436 45.8989 10.9063 45.8779 10.8016C45.8015 10.4208 45.7554 10.217 45.4883 10.3377C45.4276 10.3655 45.1114 11.1177 44.9998 11.1425C44.8561 11.1735 44.964 10.9032 44.8125 10.9424C44.7996 10.9454 44.7656 11.119 44.682 11.0933C44.2933 10.9759 43.8829 10.7759 43.4772 10.6936C43.4214 10.6815 43.4251 10.9714 43.3429 10.9583C42.9572 10.8965 42.5425 10.7754 42.209 10.5445C42.1273 10.4869 42.2379 10.3142 42.2343 10.2525C42.2139 9.88012 41.9052 10.324 41.8739 10.3249C41.1417 10.3657 40.762 9.75688 40.0342 9.73735C39.9951 9.7377 39.5291 10.1556 39.5642 9.66664C39.5658 9.63389 39.6097 9.13684 39.3873 9.40586C39.3732 9.42262 39.364 9.68402 39.2384 9.61032C39.1135 9.53688 38.8367 9.6091 38.7511 9.28282C38.7222 9.17931 38.7681 8.68086 38.4564 8.96868C38.4371 8.99003 37.8439 9.68475 37.9772 9.09222C37.9994 8.99475 38.2585 8.41756 37.932 8.63238C37.8689 8.67403 37.8845 8.83388 37.7479 8.87184C37.5374 8.93029 37.3975 8.68533 37.0901 8.85746C37.037 8.88862 36.7143 9.21527 36.7345 8.86636C36.7378 8.81182 36.8585 8.63455 36.8089 8.58606C36.574 8.35483 36.2182 8.34401 35.9954 8.07344C35.9166 7.97805 36.1177 7.69608 36.0537 7.56286C35.9896 7.42966 35.8205 7.24712 35.6413 7.33112C35.4613 7.41491 35.3351 7.9616 35.1491 7.91557C35.1252 7.90961 35.1015 7.90323 35.078 7.89645C34.4042 7.72463 33.9496 7.1735 33.3453 6.85812C33.2533 6.81024 33.2536 7.02281 33.1133 6.96586C32.5944 6.75334 31.6498 6.57689 31.3325 6.02485C31.0778 5.58092 31.6269 5.50981 31.3889 5.28126C31.2718 5.17121 30.916 5.71788 30.8777 5.72578C30.4978 5.80924 30.355 5.46731 30.0373 5.45713C29.9718 5.45521 29.9538 5.71846 29.8992 5.71427C29.7124 5.70236 29.5634 5.5374 29.3913 5.50843C29.3139 5.49606 29.2726 5.68812 29.2088 5.65376C29.0561 5.57405 28.9323 5.45343 28.8177 5.23144C28.8071 5.21116 28.9728 5.00394 28.8504 4.96093C28.6528 4.89225 28.4463 4.65044 28.1682 4.77354C28.0854 4.81085 27.9755 5.24472 27.9028 4.90849C27.8875 4.83836 28.0532 4.32495 27.7723 4.7353C27.7249 4.80309 27.2953 5.34583 27.2424 4.92039C27.2285 4.80828 27.2265 4.35707 27.1272 4.40626C27.1135 4.41458 27.1078 4.65946 27.0336 4.66738C26.7735 4.69138 26.5242 4.61409 26.2612 4.64001C26.1911 4.64747 26.2423 4.91077 26.1399 4.91427C25.8581 4.92418 25.5255 4.80077 25.2711 4.68023C25.1771 4.63526 25.2785 4.44293 25.275 4.41962C25.2167 4.04035 25.0696 4.51593 25.0273 4.53836C24.7624 4.67107 24.6188 4.41619 24.3847 4.44561C24.3209 4.45328 24.3327 4.69198 24.3176 4.71105C24.1641 4.89669 24.3147 4.49144 24.2406 4.43456C24.0328 4.27391 23.7784 4.26151 23.5485 4.26568C23.464 4.26759 23.5268 4.54872 23.4518 4.54741C23.0129 4.54544 22.5473 4.47622 22.1282 4.29471C22.0489 4.26003 22.1154 4.05465 22.1019 4.00563C22.0076 3.66263 21.8032 4.10719 21.7618 4.14825C21.5702 4.33534 21.5087 4.14609 21.3465 4.17204C20.5593 4.30126 19.5984 4.16119 18.8636 4.0958C17.8926 4.01148 17.1269 3.84849 16.2112 3.96999C16.1534 3.97754 16.2338 4.25109 16.1842 4.2612C15.5298 4.38045 14.8935 4.3362 14.2457 4.49862C14.1933 4.51139 14.3027 4.76414 14.2203 4.79344C14.0511 4.85543 13.8335 4.87007 13.6458 4.81126C13.5528 4.7833 13.6384 4.542 13.5451 4.51853C13.3275 4.46348 13.1053 4.47766 12.9045 4.55213C12.8194 4.5844 12.994 4.83068 12.8806 4.85176C12.1081 5.00169 11.3609 5.18785 10.5004 5.0134C10.4422 5.00125 10.279 4.47394 10.1874 4.60186C10.2115 4.75277 10.2504 4.92799 10.2815 5.0881C9.16694 5.42233 8.01326 5.52453 6.89026 5.83093C6.84242 5.8441 7.00813 6.0984 6.91648 6.12518C6.39647 6.27782 5.91643 6.5168 5.29523 6.42387C5.23277 6.41545 5.09231 5.92161 4.96086 6.04933C4.93703 6.07243 4.72927 6.21806 4.71023 6.34321C4.70814 6.36179 4.82892 6.57259 4.76004 6.60466C4.32198 6.80028 3.86129 6.91648 3.3888 6.94834C3.30801 6.95485 3.28961 6.68776 3.23118 6.6904C2.82603 6.70767 2.54938 7.03422 2.11942 6.97331C1.8458 6.92584 1.72913 6.49567 1.43991 6.15171C1.41039 6.09774 1.24721 6.16395 1.141 5.93553C0.848357 5.37262 0.615641 4.7143 0.296446 4.11775C0.234766 3.98521 0.0837053 4.23407 0.0513856 3.85788C0.0811513 3.81691 0.150175 3.65459 0.159853 3.51848C0.147349 3.43326 -0.00238276 3.22013 3.48091e-05 3.10246C0.00432253 2.98409 0.150145 3.15339 0.200337 2.99432C0.250124 2.83403 0.0733059 2.59331 0.238767 2.48192ZM48.077 10.2377C47.9659 9.97617 47.8264 10.8628 48.0114 10.6704C48.0205 10.6601 48.0828 10.2505 48.077 10.2377ZM65.2493 8.82015C64.9712 8.48465 64.9949 9.07961 65.1998 9.34199C65.4058 9.60357 65.3346 8.92155 65.2493 8.82015ZM67.0266 8.00789C66.7304 7.77268 67.0678 9.00001 67.2166 8.68509C67.2253 8.66717 67.0439 8.02148 67.0266 8.00789ZM1.94817 5.78916C1.94742 5.77643 1.8301 5.81484 1.83308 5.8265C1.8908 6.1122 2.11273 6.04062 1.94817 5.78916ZM68.7322 7.10997C68.614 6.96942 68.4994 7.22019 68.6482 7.39479C68.7693 7.53491 68.8807 7.28438 68.7322 7.10997ZM41.0676 7.63942C41.0698 7.62607 40.9974 7.58856 40.9744 7.66055C40.9005 7.89262 41.03 7.86419 41.0676 7.63942ZM71.7246 5.88847C71.2603 6.04981 70.6083 5.18474 71.0907 5.10067C71.1819 5.08316 71.0618 5.48107 71.2004 5.52273C71.4679 5.59178 71.3372 4.92565 71.6567 5.16284C71.7479 5.19088 71.7511 5.88263 71.7245 5.89011C71.7245 5.88957 71.7246 5.88902 71.7246 5.88847ZM48.1347 9.15833C48.1334 9.14624 48.023 9.12023 48.0188 9.13148C47.9197 9.40568 48.144 9.45854 48.1347 9.15833ZM36.9326 5.31552C36.9383 5.29035 36.7172 5.15282 36.6992 5.16951C36.3658 5.52331 36.8189 5.80617 36.9326 5.31552ZM55.6526 8.76748C55.7578 8.47455 55.8973 8.43216 56.0166 8.785C55.8957 8.77371 55.7747 8.77825 55.6526 8.76748Z" fill="#7C6351"/>
<path d="M65.085 63.8104C62.9017 63.8104 61.235 63.2354 60.085 62.0854C58.935 60.9187 58.36 59.177 58.36 56.8604V47.4604C58.36 46.977 58.485 46.6104 58.735 46.3604C59.0017 46.1104 59.3684 45.9854 59.835 45.9854C60.8017 45.9854 61.285 46.477 61.285 47.4604V56.7104C61.285 58.2104 61.6184 59.302 62.285 59.9854C62.9684 60.652 63.9017 60.9854 65.085 60.9854C66.2684 60.9854 67.1934 60.652 67.86 59.9854C68.5267 59.302 68.86 58.2104 68.86 56.7104V47.4604C68.86 46.477 69.3434 45.9854 70.31 45.9854C71.2767 45.9854 71.76 46.477 71.76 47.4604V56.8604C71.76 59.177 71.1934 60.9187 70.06 62.0854C68.9267 63.2354 67.2684 63.8104 65.085 63.8104Z" fill="#7C6351"/>
<path d="M40.4569 63.4854C39.5069 63.4854 39.0319 62.9937 39.0319 62.0104V47.4604C39.0319 46.477 39.5069 45.9854 40.4569 45.9854H40.7819C41.5319 45.9854 42.1236 46.3104 42.5569 46.9604L50.1569 58.4104V47.4604C50.1569 46.977 50.2819 46.6104 50.5319 46.3604C50.7986 46.1104 51.1653 45.9854 51.6319 45.9854C52.5986 45.9854 53.0819 46.477 53.0819 47.4604V62.0104C53.0819 62.9937 52.6236 63.4854 51.7069 63.4854H51.4569C50.6903 63.4854 50.0986 63.1604 49.6819 62.5104L41.9069 50.7104V62.0104C41.9069 62.9937 41.4236 63.4854 40.4569 63.4854Z" fill="#7C6351"/>
<path d="M23.8585 63.4854C22.8752 63.4854 22.3835 62.9937 22.3835 62.0104V47.4604C22.3835 46.477 22.8752 45.9854 23.8585 45.9854H32.6085C33.5918 45.9854 34.0835 46.4354 34.0835 47.3354C34.0835 48.2187 33.5918 48.6604 32.6085 48.6604H25.2585V53.2104H31.8335C32.8168 53.2104 33.3085 53.6604 33.3085 54.5604C33.3085 55.4604 32.8168 55.9104 31.8335 55.9104H25.2585V60.8104H32.8835C33.8668 60.8104 34.3585 61.252 34.3585 62.1354C34.3585 63.0354 33.8668 63.4854 32.8835 63.4854H23.8585Z" fill="#7C6351"/>
<path d="M2.52196 63.4854C1.55529 63.4854 1.07196 62.9937 1.07196 62.0104V47.4604C1.07196 46.8937 1.21363 46.5104 1.49696 46.3104C1.79696 46.0937 2.23029 45.9854 2.79696 45.9854C3.56363 45.9854 4.14696 46.3187 4.54696 46.9854L8.97196 54.3854L13.347 47.0104C13.5803 46.5937 13.847 46.3187 14.147 46.1854C14.4636 46.052 14.872 45.9854 15.372 45.9854C16.3553 45.9854 16.847 46.477 16.847 47.4604V62.0104C16.847 62.9937 16.3553 63.4854 15.372 63.4854C14.3886 63.4854 13.897 62.9937 13.897 62.0104V51.0104L10.372 57.1104C10.022 57.7937 9.54696 58.1354 8.94696 58.1354C8.34696 58.1354 7.87196 57.7937 7.52196 57.1104L3.97196 51.0104V62.0104C3.97196 62.9937 3.48863 63.4854 2.52196 63.4854Z" fill="#7C6351"/>
</svg>
