<svg width="350" height="301" viewBox="0 0 350 301" fill="none" xmlns="http://www.w3.org/2000/svg">
<path d="M104.194 62.1448L62.1707 74.2607L42.524 93.4188L42.2192 115.114L51.5854 128.921L102.989 142.728L133.526 148.079C133.526 148.079 190.374 149.77 192.785 149.77C195.195 149.77 265.65 146.11 269.28 145.819C272.91 145.528 304.348 131.167 304.348 131.167L316.138 122.142C316.138 122.142 309.488 94.5278 309.183 92.2682C308.878 90.0086 274.116 60.9804 274.116 60.9804L245.394 51.4014L214.552 51.9697L104.194 62.1171V62.1448Z" fill="#589991"/>
<path d="M26.0776 60.8546C26.3824 56.3493 41.1935 43.3878 44.214 42.251C47.2344 41.1282 68.7104 44.7879 71.1212 45.0651C73.5459 45.3424 81.4017 71.8337 81.4017 73.2477C81.4017 74.6617 62.3507 87.3459 62.3507 87.3459L45.4195 87.6232L30.3032 79.4443C30.3032 79.4443 25.7728 65.3461 26.0637 60.8407L26.0776 60.8546Z" fill="#9D9D9E"/>
<path d="M45.4199 89.6486C45.0873 89.6486 44.7549 89.5655 44.4639 89.413L29.3476 81.2341C28.8903 80.9845 28.544 80.5687 28.3916 80.0835C27.9206 78.6002 23.7499 65.4862 24.0686 60.7313C24.4566 54.8675 40.3071 41.5733 43.5077 40.3811C45.6414 39.5909 52.3474 40.187 68.2118 42.6268C69.7636 42.8625 70.8997 43.0427 71.3569 43.0982C72.7563 43.2645 74.1974 43.4309 79.0744 58.1252C80.6262 62.8107 83.411 71.8907 83.411 73.277C83.411 74.4969 83.4111 75.7584 63.4595 89.0387C63.1408 89.2466 62.7667 89.3714 62.3787 89.3714L45.4476 89.6486H45.4199ZM31.9803 78.0734L45.9185 85.6146L61.7276 85.3513C69.2233 80.3469 77.287 74.6355 79.2683 72.764C78.2984 68.4805 72.5208 49.974 70.3317 47.0074C69.722 46.9242 68.7799 46.7718 67.6022 46.5915C54.0656 44.5122 46.4173 43.6943 44.8932 44.1517C41.8589 45.2885 28.2947 57.8341 28.073 60.9947C27.8652 64.1693 30.6224 73.7622 31.9664 78.0734H31.9803Z" fill="#251E1C"/>
<path d="M67.4079 59.2335C67.4079 59.2335 60.5496 39.8537 61.9628 35.5563C63.5701 30.6905 87.9692 7.37368 93.4143 5.4052C98.8594 3.43671 108.53 2.5911 115.181 2.02273C121.831 1.45437 136.352 13.0157 137.862 13.0157C139.372 13.0157 156.608 44.0124 156.608 44.0124C156.608 44.0124 187.45 45.4264 189.861 46.5493C192.286 47.6721 201.347 53.0369 201.347 53.0369C201.347 53.0369 202.996 61.8951 202.691 64.7231C202.553 65.9846 197.08 70.3513 194.225 71.6682C192.216 72.6109 159.657 73.9278 159.657 73.9278C159.657 73.9278 112.438 78.7243 109.722 78.4332C107.006 78.142 81.3049 77.0192 80.6952 75.6191C80.0856 74.2051 67.4079 59.2335 67.4079 59.2335Z" fill="#9D9D9E"/>
<path d="M109.945 80.4436C109.765 80.4436 109.626 80.4436 109.529 80.4297C108.947 80.3743 107.105 80.2634 104.749 80.1247C79.8097 78.6414 79.5323 77.9899 78.8534 76.4096C78.2854 75.3976 71.7874 67.5237 65.8712 60.5369C65.7188 60.3567 65.5941 60.1349 65.5109 59.9131C63.8483 55.2137 58.5418 39.5213 60.052 34.9328C61.8255 29.5264 86.557 5.75212 92.7226 3.52025C98.5141 1.427 108.435 0.581385 115.002 0.0268832C119.879 -0.388994 127.264 4.08861 134.413 8.71871C135.896 9.67522 137.558 10.7426 138.154 11.0338C139.498 11.2001 141.812 13.3627 157.801 42.072C167.721 42.5295 188.283 43.6246 190.693 44.7475C193.173 45.8981 201.986 51.0965 202.36 51.3183C202.859 51.6095 203.205 52.1085 203.316 52.6769C203.496 53.6195 205.006 61.9232 204.687 64.9452C204.383 67.8009 196.818 72.6944 195.072 73.5123C192.994 74.4827 172.044 75.4531 159.741 75.9521C152.217 76.7145 115.016 80.4713 109.931 80.4713L109.945 80.4436ZM82.1096 74.0945C85.0053 74.9124 99.4149 75.7719 104.985 76.1046C107.479 76.2571 109.28 76.3541 109.931 76.4234C112.148 76.5621 141.493 73.7341 159.464 71.9181C174.649 71.2943 191.649 70.3516 193.506 69.7971C195.82 68.7159 199.907 65.3888 200.725 64.2521C200.822 62.3529 200.115 57.5426 199.547 54.3127C196.25 52.3719 190.721 49.1835 189.017 48.3933C187.063 47.7141 168.816 46.6051 156.512 46.0367C155.82 46.009 155.182 45.6208 154.85 45.0109C148.587 33.7406 139.11 17.3412 136.977 14.8875C136.104 14.5826 134.87 13.7924 132.252 12.115C127.707 9.17617 119.269 3.70046 115.362 4.06089C109.391 4.55994 99.4009 5.40556 94.1081 7.33245C89.2726 9.07913 65.2755 32.0355 63.89 36.222C63.1556 38.44 66.0512 49.2944 69.1963 58.2496C73.5192 63.351 80.2807 71.4329 82.1234 74.1361L82.1096 74.0945ZM82.4005 74.5381C82.4697 74.649 82.5253 74.7461 82.553 74.8154C82.5115 74.7045 82.4559 74.6213 82.4005 74.5381Z" fill="#251E1C"/>
<path d="M286.502 33.0618C284.576 31.0101 268.933 24.1343 263.432 24.1343C257.585 24.1343 234.807 37.9137 233.99 39.4524C233.824 39.7574 233.436 40.7278 232.923 42.1002C228.822 40.0901 224.485 38.3711 223.03 38.3711C220.01 38.3711 209.729 40.0624 207.914 41.1852C206.099 42.3081 197.717 53.0932 197.717 55.5052C197.717 59.165 201.375 68.3281 203.952 70.2966C206.515 72.2651 225.137 71.8631 226.647 71.5719C228.157 71.2947 247.956 76.3823 249.342 76.3823C251.808 76.3823 286.003 77.5329 288.192 75.7446C290.381 73.9563 300.953 50.9722 300.953 48.671C300.953 46.3698 288.414 35.1134 286.502 33.0618Z" fill="#9D9D9E"/>
<path d="M272.632 78.7662C267.603 78.7662 261.021 78.6831 252.39 78.4751C250.796 78.4335 249.702 78.4058 249.342 78.4058C248.621 78.4058 246.861 78.0177 240.211 76.465C235.639 75.3976 228.004 73.6094 226.799 73.5955C226.896 73.6232 226.952 73.5955 227.007 73.5678C226.273 73.7064 206.266 74.6352 202.719 71.9043C199.615 69.5199 195.694 59.6914 195.694 55.5187C195.694 52.0254 204.852 40.7274 206.834 39.4936C209.244 37.9965 220.218 36.3745 223.016 36.3745C224.956 36.3745 229.113 38.1351 231.815 39.3827C231.967 39.0362 232.106 38.7173 232.203 38.5232C233.671 35.7785 257.267 22.1377 263.418 22.1377C269.57 22.1377 285.532 29.1244 287.956 31.7029C288.372 32.1465 289.425 33.1584 290.672 34.3367C300.315 43.5415 302.961 46.6328 302.961 48.6845C302.961 51.2629 292.237 75.0511 289.453 77.3245C288.483 78.1147 286.238 78.7801 272.632 78.7801V78.7662ZM249.466 74.3718C249.827 74.3718 250.921 74.3995 252.487 74.4411C277.897 75.0511 285.365 74.5936 287.014 74.0807C289.203 71.5716 298.126 52.1085 298.902 48.7954C297.877 46.7576 290.658 39.8679 287.901 37.234C286.515 35.9171 285.518 34.9606 285.033 34.4476C283.342 32.7287 268.309 26.1578 263.432 26.1578C258.555 26.1578 238.064 38.343 235.68 40.5749C235.528 40.9076 235.223 41.6562 234.793 42.8206C234.599 43.3474 234.184 43.7771 233.657 43.9851C233.131 44.193 232.535 44.1792 232.022 43.9296C227.145 41.5453 223.765 40.4085 223.016 40.3947C219.913 40.3947 210.325 42.1136 208.953 42.9177C207.235 44.096 200.044 53.675 199.712 55.6158C199.712 58.721 203.231 67.2326 205.171 68.7159C207.319 70.0051 224.014 69.9635 226.286 69.617C227.353 69.4229 229.986 69.9358 241.125 72.5558C244.686 73.3876 248.732 74.3441 249.425 74.3995H249.48L249.466 74.3718Z" fill="#251E1C"/>
<path d="M287.804 93.362C285.795 92.1837 284.465 86.2228 283.689 83.977C282.914 81.7313 284.202 68.6866 285.228 67.0509C286.253 65.4151 300.385 52.3704 302.948 51.9545C305.511 51.5525 315.764 52.717 317.552 52.717C319.339 52.717 329.37 60.0641 330.659 61.284C331.947 62.5039 335.647 78.4736 335.384 80.7193C335.12 82.9651 312.495 97.4237 311.469 97.8257C310.444 98.2277 289.8 94.5264 287.791 93.3481L287.804 93.362Z" fill="#9D9D9E"/>
<path d="M311.165 99.8248C306.191 99.8248 288.234 95.9433 286.793 95.0976C284.687 93.8639 283.51 90.3844 282.318 86.3226C282.124 85.6572 281.958 85.075 281.805 84.6453C280.877 81.9559 282.166 68.1766 283.551 65.9863C284.424 64.5862 299.083 50.5434 302.658 49.975C304.473 49.6839 308.602 50.0027 313.797 50.4325C315.488 50.5711 317.081 50.7097 317.58 50.7097C320.642 50.7097 331.615 59.4016 332.072 59.8313C334.178 61.8414 337.67 78.7121 337.407 80.9578C337.282 82.0668 337.13 83.3145 324.868 91.632C320.074 94.8758 313.174 99.3257 312.232 99.7C312.024 99.7832 311.664 99.8248 311.165 99.8248ZM288.802 91.6181C290.881 92.6024 308.006 95.7215 310.943 95.8462C313.977 94.1827 331.103 82.8986 333.389 80.1954C333.278 77.2981 330.23 64.5723 329.163 62.6454C327.584 61.2453 319.243 55.2705 317.414 54.7299C316.735 54.7299 315.488 54.619 313.423 54.4388C310.167 54.1615 304.736 53.7041 303.253 53.9397C301.064 54.6606 288.262 66.2081 286.904 68.135C286.115 69.8401 285.062 81.5539 285.574 83.3283C285.741 83.7997 285.921 84.4373 286.142 85.1721C286.613 86.7524 287.846 90.9527 288.789 91.6181H288.802Z" fill="#251E1C"/>
<mask id="mask0_1_29489" style="mask-type:luminance" maskUnits="userSpaceOnUse" x="49" y="5" width="236" height="112">
<path d="M69.4173 112.867L112.66 112.59L120.515 101.846L189.459 100.294L189.155 116.291L231.787 115.862L231.178 99.3096L277.288 100.003L284.091 43.499L155.292 5.87598L126.723 9.39707L55.6726 41.1007L49.1606 80.2763L69.4173 112.867Z" fill="white"/>
</mask>
<g mask="url(#mask0_1_29489)">
<path d="M107.796 100.309C107.076 90.2724 103.654 83.2164 91.5165 83.05C84.2147 82.953 75.8461 86.0859 73.4907 97.8968C78.6172 99.6158 94.6893 104.315 107.783 100.309H107.796Z" fill="#88B24E"/>
<path d="M96.1708 103.914C86.4444 103.914 77.2447 101.28 72.8526 99.811L71.1758 99.2426L71.5222 97.5098C73.6282 86.9049 80.9163 80.9302 91.5433 81.0411C106.521 81.2351 109.167 91.3687 109.805 100.171L109.915 101.766L108.377 102.237C104.429 103.443 100.258 103.914 96.1708 103.914ZM75.8868 96.5533C81.6644 98.3277 94.6607 101.544 105.648 98.8267C104.581 89.0814 100.508 85.186 91.5017 85.0751C85.7518 85.0058 78.5193 86.9881 75.8868 96.5533Z" fill="#251E1C"/>
<path d="M108.392 105.134C108.073 103.415 107.893 101.807 107.796 100.324C94.7028 104.33 78.6307 99.6306 73.5042 97.9116C72.9084 100.92 72.9501 104.441 73.9199 108.53C78.7 128.617 89.1191 132.637 99.7877 129.255C110.442 125.872 110.9 118.47 108.392 105.148V105.134Z" fill="#BAD190"/>
<path d="M93.3031 132.332C90.2134 132.332 87.3451 131.597 84.7403 130.114C78.7825 126.745 74.4874 119.634 71.9519 108.987C70.9682 104.856 70.8295 101.002 71.5223 97.5089L71.9657 95.2632L74.1273 95.984C78.6995 97.5228 94.6191 102.236 107.2 98.3823L109.624 97.6337L109.791 100.171C109.902 101.765 110.082 103.276 110.359 104.745C112.617 116.736 113.421 126.995 100.383 131.139C97.9167 131.93 95.5477 132.318 93.3031 132.318V132.332ZM75.1664 100.545C75.0001 102.86 75.2357 105.383 75.873 108.058C78.1315 117.568 81.7894 123.82 86.7218 126.62C90.2272 128.603 94.4115 128.838 99.1777 127.327C108.392 124.402 108.863 118.497 106.424 105.508C106.258 104.634 106.133 103.761 106.022 102.874C94.6608 105.48 81.9971 102.61 75.1803 100.545H75.1664Z" fill="#251E1C"/>
<path d="M108.197 103.969C104.872 105.397 103.237 102.596 103.237 102.596C103.237 102.596 103.099 104.939 100.12 105.424C97.127 105.909 95.9215 103.442 95.9215 103.442C95.9215 103.442 95.6028 105.119 92.4161 105.549C89.2432 105.965 87.9686 103.442 87.9686 103.442C87.9686 103.442 86.8739 105.313 83.701 105.105C80.5282 104.897 80.2649 101.667 80.2649 101.667C80.2649 101.667 78.6995 103.955 76.2887 103.373C73.1435 102.624 73.6698 99.6297 73.6698 99.6297V98.4375C73.6698 98.4375 88.6753 104.398 107.782 100.309L108.184 103.969H108.197Z" fill="white"/>
<path d="M91.7102 106.977C89.909 106.977 88.6481 106.215 87.8445 105.466C86.9024 106.104 85.5033 106.603 83.6189 106.478C81.5822 106.339 80.3489 105.258 79.6562 104.094C78.6863 104.69 77.4256 105.064 75.9847 104.718C72.8256 103.955 72.0634 101.252 72.2989 99.5191V98.4378C72.2989 97.9804 72.5344 97.5506 72.9085 97.3011C73.2826 97.0516 73.7677 96.9961 74.1973 97.1625C74.3497 97.2179 89.0641 102.915 107.505 98.9646C107.893 98.8814 108.281 98.9646 108.6 99.2003C108.918 99.4359 109.126 99.7825 109.168 100.171L109.57 103.83C109.639 104.44 109.293 105.023 108.738 105.258C106.605 106.173 104.873 105.743 103.681 104.981C103.03 105.799 101.963 106.534 100.342 106.797C98.4161 107.102 96.9615 106.464 95.9778 105.646C95.285 106.201 94.2182 106.714 92.611 106.922C92.2923 106.963 92.0012 106.977 91.7102 106.977ZM89.3271 102.985C89.6181 103.414 90.5188 104.399 92.2508 104.163C93.9272 103.941 94.4398 103.345 94.5645 103.137C92.7217 103.137 90.9898 103.096 89.341 102.971L89.3271 102.985ZM97.3217 103.068C97.6403 103.498 98.4302 104.288 99.8989 104.052C101.284 103.83 101.686 103.096 101.811 102.707C100.273 102.888 98.7765 102.999 97.3217 103.082V103.068ZM81.7483 102.028C81.9285 102.652 82.4272 103.622 83.7989 103.719C85.7525 103.858 86.5698 102.999 86.7638 102.763C84.9349 102.569 83.2586 102.305 81.7483 102.028ZM104.762 102.292C105.109 102.652 105.746 103.068 106.702 102.957L106.591 101.973C105.981 102.084 105.372 102.195 104.762 102.292ZM75.0284 100.379C75.0699 100.961 75.3888 101.723 76.6219 102.028C77.4948 102.236 78.2291 101.779 78.6725 101.377C77.1761 101.016 75.9428 100.67 75.0284 100.379Z" fill="#251E1C"/>
<path d="M86.2095 93.3774C86.2095 94.5142 85.2257 95.4152 84.0203 95.4152C82.8148 95.4152 81.8452 94.5142 81.8452 93.3774C81.8452 92.2407 82.8287 91.3535 84.0203 91.3535C85.2118 91.3535 86.2095 92.2546 86.2095 93.3774Z" fill="#251E1C"/>
<path d="M101.672 94.1955C101.672 95.3184 100.688 96.2333 99.4827 96.2333C98.2773 96.2333 97.2935 95.3322 97.2935 94.1955C97.2935 93.0588 98.2773 92.1577 99.4827 92.1577C100.688 92.1577 101.672 93.0588 101.672 94.1955Z" fill="#251E1C"/>
<path d="M92.0282 96.6623C91.959 96.6623 91.8898 96.6623 91.8067 96.6623C90.4904 96.5375 89.7283 95.5117 89.6452 95.4008C89.3127 94.9433 89.4234 94.2918 89.8806 93.9591C90.3378 93.6264 90.9752 93.7373 91.3077 94.1809C91.3216 94.1947 91.6264 94.569 92.0005 94.6106C92.2083 94.6383 92.4579 94.3611 92.4995 94.2918C92.832 93.8343 93.4694 93.7234 93.9405 94.0422C94.3977 94.3611 94.5223 94.9988 94.2036 95.4562C94.1205 95.581 93.3445 96.6761 92.0144 96.6761L92.0282 96.6623Z" fill="#251E1C"/>
<path opacity="0.5" d="M87.3041 88.2215C86.4174 88.4988 85.5169 88.2215 85.2813 87.5838C85.0458 86.96 85.5859 86.2253 86.4727 85.948C87.3594 85.6708 88.2603 85.948 88.482 86.5857C88.7175 87.2095 88.177 87.9443 87.2903 88.2215H87.3041Z" fill="white"/>
<path d="M81.1941 95.6507C81.1387 96.0802 80.5013 96.3573 79.7531 96.2742C79.0188 96.191 78.4783 95.7754 78.5337 95.3459C78.5891 94.9164 79.2404 94.6254 79.9747 94.7085C80.709 94.8055 81.2496 95.2212 81.1941 95.6507Z" fill="#D193B2"/>
<path d="M104.428 96.8438C104.484 97.2733 103.971 97.689 103.279 97.7721C102.586 97.8552 101.962 97.5781 101.907 97.1486C101.852 96.7191 102.364 96.2896 103.057 96.2203C103.749 96.1372 104.373 96.4143 104.428 96.8438Z" fill="#D193B2"/>
<path d="M193.172 105.633C193.892 95.5964 197.315 88.5404 209.452 88.3879C216.754 88.2909 225.122 91.4238 227.464 103.221C222.337 104.954 206.265 109.639 193.172 105.633Z" fill="#88B24E"/>
<path d="M204.811 109.236C200.724 109.236 196.539 108.764 192.577 107.558L191.039 107.087L191.15 105.493C191.773 96.6902 194.419 86.5705 209.411 86.3765C209.522 86.3765 209.646 86.3765 209.757 86.3765C220.19 86.3765 227.34 92.3512 229.418 102.831L229.764 104.564L228.088 105.133C223.709 106.616 214.524 109.25 204.797 109.25L204.811 109.236ZM195.32 104.134C206.349 106.865 219.317 103.635 225.081 101.861C222.449 92.2958 215.272 90.3134 209.48 90.3827C200.46 90.5075 196.387 94.389 195.334 104.134H195.32Z" fill="#251E1C"/>
<path d="M192.562 110.442C192.881 108.723 193.061 107.115 193.158 105.631C206.251 109.638 222.323 104.938 227.45 103.219C228.046 106.241 228.004 109.748 227.035 113.838C222.254 133.925 211.835 137.945 201.166 134.562C190.512 131.18 190.055 123.777 192.562 110.455V110.442Z" fill="#BAD190"/>
<path d="M207.651 137.641C205.407 137.641 203.038 137.253 200.571 136.463C187.547 132.332 188.337 122.06 190.596 110.069C190.873 108.586 191.053 107.088 191.163 105.48L191.33 102.943L193.755 103.692C206.377 107.56 222.255 102.833 226.813 101.294L228.975 100.559L229.418 102.805C230.111 106.284 229.972 110.138 228.989 114.283C226.453 124.929 222.158 132.041 216.2 135.41C213.581 136.893 210.713 137.628 207.638 137.628L207.651 137.641ZM194.946 108.183C194.835 109.071 194.71 109.944 194.544 110.817C192.106 123.807 192.577 129.712 201.79 132.637C206.557 134.148 210.741 133.912 214.246 131.93C219.179 129.13 222.837 122.892 225.095 113.368C225.732 110.693 225.968 108.183 225.802 105.868C218.999 107.934 206.349 110.817 194.96 108.197L194.946 108.183Z" fill="#251E1C"/>
<path d="M192.756 109.292C196.095 110.706 197.717 107.906 197.717 107.906C197.717 107.906 197.855 110.249 200.834 110.734C203.827 111.219 205.032 108.765 205.032 108.765C205.032 108.765 205.351 110.443 208.538 110.872C211.711 111.302 212.985 108.765 212.985 108.765C212.985 108.765 214.08 110.637 217.253 110.415C220.426 110.207 220.689 106.977 220.689 106.977C220.689 106.977 222.254 109.264 224.665 108.682C227.81 107.934 227.284 104.939 227.284 104.939V103.747C227.284 103.747 212.279 109.708 193.172 105.619L192.77 109.278L192.756 109.292Z" fill="white"/>
<path d="M209.259 112.301C208.968 112.301 208.663 112.287 208.344 112.232C206.737 112.01 205.684 111.511 204.978 110.956C203.994 111.774 202.525 112.412 200.613 112.107C198.992 111.843 197.925 111.109 197.274 110.291C196.082 111.067 194.351 111.483 192.217 110.582C191.649 110.346 191.316 109.764 191.386 109.154L191.787 105.494C191.829 105.106 192.037 104.746 192.356 104.524C192.674 104.288 193.076 104.219 193.45 104.288C211.878 108.239 226.606 102.542 226.758 102.486C227.174 102.32 227.673 102.375 228.047 102.625C228.421 102.888 228.656 103.318 228.656 103.775V104.857C228.906 106.59 228.13 109.307 224.985 110.055C223.544 110.402 222.283 110.027 221.313 109.431C220.62 110.61 219.387 111.677 217.35 111.816C215.466 111.94 214.067 111.441 213.125 110.804C212.335 111.552 211.074 112.315 209.273 112.315L209.259 112.301ZM206.391 108.489C206.391 108.489 206.793 109.223 208.719 109.487C210.464 109.722 211.337 108.738 211.642 108.295C209.98 108.406 208.234 108.475 206.391 108.461C206.391 108.461 206.391 108.475 206.391 108.489ZM199.145 108.017C199.255 108.392 199.657 109.14 201.057 109.362C202.526 109.598 203.315 108.808 203.634 108.378C202.179 108.308 200.683 108.184 199.145 108.003V108.017ZM214.192 108.073C214.302 108.211 215.12 109.154 217.157 109.029C218.528 108.946 219.027 107.976 219.207 107.338C217.697 107.615 216.021 107.879 214.178 108.073H214.192ZM194.268 108.281C195.21 108.392 195.847 107.962 196.207 107.615C195.598 107.518 194.988 107.407 194.378 107.297L194.268 108.295V108.281ZM222.283 106.687C222.726 107.089 223.461 107.546 224.333 107.338C225.567 107.047 225.872 106.285 225.927 105.688C225.013 105.98 223.793 106.326 222.283 106.687Z" fill="#251E1C"/>
<path d="M214.759 98.7014C214.759 99.8242 215.729 100.739 216.948 100.739C218.153 100.739 219.123 99.8381 219.123 98.7014C219.123 97.5785 218.153 96.6636 216.948 96.6636C215.743 96.6636 214.759 97.5646 214.759 98.7014Z" fill="#251E1C"/>
<path d="M199.282 99.5061C199.282 100.629 200.266 101.544 201.471 101.544C202.677 101.544 203.66 100.629 203.66 99.5061C203.66 98.3832 202.677 97.4683 201.471 97.4683C200.266 97.4683 199.282 98.3832 199.282 99.5061Z" fill="#251E1C"/>
<path d="M208.94 101.973C207.609 101.973 206.833 100.878 206.75 100.753C206.432 100.282 206.556 99.63 207.027 99.3112C207.498 98.9923 208.15 99.1171 208.455 99.5884C208.496 99.6439 208.746 99.9211 208.953 99.8934C209.328 99.8518 209.632 99.4775 209.632 99.4775C209.979 99.0339 210.616 98.9369 211.073 99.2696C211.531 99.6023 211.627 100.24 211.309 100.697C211.226 100.808 210.464 101.82 209.161 101.959C209.092 101.959 209.009 101.959 208.94 101.959V101.973Z" fill="#251E1C"/>
<path opacity="0.5" d="M213.664 93.5291C214.551 93.8064 215.451 93.5291 215.687 92.8914C215.922 92.2538 215.382 91.519 214.495 91.2557C213.609 90.9784 212.708 91.2557 212.486 91.8933C212.251 92.531 212.791 93.2657 213.664 93.5291Z" fill="white"/>
<path d="M219.774 100.974C219.829 101.403 220.467 101.694 221.201 101.597C221.935 101.514 222.476 101.099 222.42 100.669C222.365 100.24 221.714 99.9486 220.979 100.046C220.245 100.129 219.705 100.558 219.76 100.974H219.774Z" fill="#D193B2"/>
<path d="M196.525 102.166C196.47 102.596 196.982 103.025 197.675 103.094C198.368 103.177 198.991 102.9 199.047 102.471C199.102 102.041 198.59 101.626 197.897 101.543C197.19 101.459 196.581 101.737 196.525 102.166Z" fill="#D193B2"/>
<path d="M239.975 89.1907C240.696 79.1542 244.118 72.0982 256.255 71.9319C263.557 71.8348 271.925 74.9678 274.267 86.7648C269.141 88.4976 253.068 93.1832 239.975 89.1907Z" fill="#88B24E"/>
<path d="M251.601 92.7964C247.514 92.7964 243.343 92.339 239.38 91.1191L237.842 90.6477L237.953 89.0536C238.577 80.2508 241.223 70.1173 256.214 69.9232C266.786 69.84 274.129 75.7871 276.235 86.3781L276.582 88.1109L274.905 88.6793C270.527 90.1487 261.327 92.7964 251.601 92.7964ZM242.124 87.695C253.139 90.4121 266.121 87.196 271.885 85.4216C269.252 75.8564 262.075 73.8602 256.284 73.9434C247.264 74.0681 243.191 77.9496 242.138 87.695H242.124Z" fill="#251E1C"/>
<path d="M239.366 94.0019C239.685 92.2829 239.865 90.6749 239.962 89.1916C253.055 93.1979 269.127 88.4984 274.254 86.7656C274.849 89.7877 274.808 93.3088 273.838 97.3843C269.058 117.471 258.639 121.491 247.97 118.109C237.315 114.726 236.858 107.324 239.366 94.0019Z" fill="#BAD190"/>
<path d="M254.454 121.214C252.209 121.214 249.84 120.826 247.374 120.036C234.35 115.891 235.14 105.633 237.398 93.6415C237.675 92.1583 237.855 90.6611 237.966 89.0669L238.132 86.5301L240.557 87.2648C253.179 91.1186 269.057 86.4053 273.616 84.8665L275.777 84.1318L276.221 86.3776C276.914 89.8571 276.775 93.7247 275.791 97.8558C273.256 108.502 268.961 115.614 263.003 118.982C260.384 120.466 257.53 121.2 254.44 121.2L254.454 121.214ZM241.749 91.7424C241.638 92.6296 241.513 93.5029 241.347 94.3624C238.908 107.352 239.379 113.257 248.593 116.182C253.345 117.693 257.544 117.457 261.035 115.475C265.981 112.675 269.626 106.437 271.884 96.9131C272.521 94.2376 272.757 91.7147 272.591 89.3996C265.788 91.4651 253.138 94.3485 241.749 91.7285V91.7424Z" fill="#251E1C"/>
<path d="M239.56 92.85C242.899 94.264 244.52 91.4776 244.52 91.4776C244.52 91.4776 244.659 93.8204 247.638 94.3056C250.631 94.7908 251.836 92.3232 251.836 92.3232C251.836 92.3232 252.155 94.0006 255.341 94.4303C258.514 94.8462 259.789 92.3232 259.789 92.3232C259.789 92.3232 260.884 94.1947 264.056 93.9867C267.229 93.7788 267.493 90.5488 267.493 90.5488C267.493 90.5488 269.058 92.8361 271.469 92.2539C274.614 91.5053 274.088 88.511 274.088 88.511V87.3188C274.088 87.3188 259.082 93.2936 239.976 89.1903L239.574 92.85H239.56Z" fill="white"/>
<path d="M256.062 95.8587C255.771 95.8587 255.48 95.8448 255.161 95.8033C253.554 95.5815 252.487 95.0824 251.795 94.5279C250.811 95.3458 249.356 95.9835 247.43 95.6785C245.795 95.4151 244.742 94.6804 244.091 93.8486C242.899 94.6111 241.168 95.0408 239.034 94.1259C238.466 93.8902 238.133 93.308 238.202 92.698L238.604 89.0383C238.646 88.6502 238.854 88.2897 239.172 88.0679C239.491 87.8323 239.893 87.763 240.267 87.8323C258.694 91.7831 273.423 86.0856 273.575 86.0301C274.005 85.8638 274.489 85.9192 274.863 86.1688C275.238 86.4322 275.473 86.8619 275.473 87.3194V88.4006C275.723 90.1196 274.947 92.8367 271.802 93.5991C270.361 93.9457 269.1 93.5714 268.13 92.9753C267.437 94.1536 266.204 95.221 264.167 95.3597C262.283 95.4844 260.884 94.9854 259.942 94.3477C259.138 95.0963 257.891 95.8587 256.076 95.8587H256.062ZM253.194 92.0465C253.194 92.0465 253.596 92.7951 255.522 93.0446C257.24 93.2803 258.126 92.296 258.431 91.8524C256.783 91.9633 255.023 92.0326 253.18 92.0188C253.18 92.0188 253.18 92.0326 253.18 92.0465H253.194ZM245.948 91.5752C246.059 91.9495 246.46 92.698 247.86 92.9198C249.3 93.1555 250.104 92.3792 250.437 91.9356C248.982 91.8663 247.486 91.7415 245.948 91.5613V91.5752ZM260.994 91.6306C261.119 91.7831 261.909 92.7119 263.96 92.5871C265.331 92.4901 265.83 91.5197 266.01 90.8959C264.5 91.1732 262.823 91.4365 260.994 91.6306ZM241.071 91.8386C242.027 91.9495 242.65 91.5336 243.01 91.1732C242.401 91.0761 241.791 90.9652 241.182 90.8543L241.071 91.8386ZM269.086 90.2444C269.529 90.6464 270.264 91.1038 271.137 90.8959C272.37 90.6048 272.675 89.8285 272.716 89.2463C271.802 89.5374 270.582 89.8839 269.072 90.2444H269.086Z" fill="#251E1C"/>
<path d="M261.562 82.2603C261.562 83.3831 262.532 84.2981 263.752 84.2981C264.957 84.2981 265.927 83.3831 265.927 82.2603C265.927 81.1374 264.957 80.2363 263.752 80.2363C262.546 80.2363 261.562 81.1374 261.562 82.2603Z" fill="#251E1C"/>
<path d="M246.086 83.0778C246.086 84.2007 247.069 85.1156 248.275 85.1156C249.48 85.1156 250.464 84.2146 250.464 83.0778C250.464 81.955 249.48 81.04 248.275 81.04C247.069 81.04 246.086 81.9411 246.086 83.0778Z" fill="#251E1C"/>
<path d="M255.715 85.532C254.399 85.532 253.636 84.4508 253.539 84.3121C253.221 83.8408 253.345 83.1893 253.816 82.8704C254.288 82.5516 254.939 82.6763 255.244 83.1477C255.285 83.2031 255.521 83.4665 255.743 83.4526C256.13 83.4111 256.421 83.0368 256.421 83.0368C256.768 82.5793 257.405 82.4961 257.862 82.8288C258.32 83.1615 258.43 83.7992 258.098 84.2567C258.015 84.3676 257.253 85.4073 255.936 85.5182C255.853 85.5182 255.784 85.5182 255.701 85.5182L255.715 85.532Z" fill="#251E1C"/>
<path opacity="0.5" d="M260.467 77.1028C261.354 77.3801 262.255 77.1028 262.49 76.4652C262.726 75.8414 262.186 75.0928 261.299 74.8294C260.412 74.5521 259.511 74.8294 259.29 75.4671C259.054 76.0909 259.595 76.8256 260.467 77.1028Z" fill="white"/>
<path d="M266.578 84.5325C266.633 84.962 267.271 85.2391 268.005 85.156C268.739 85.0729 269.28 84.6572 269.224 84.2277C269.169 83.7982 268.518 83.5072 267.783 83.5904C267.049 83.6735 266.509 84.103 266.564 84.5325H266.578Z" fill="#D193B2"/>
<path d="M243.328 85.7261C243.273 86.1556 243.786 86.5713 244.478 86.6544C245.171 86.7375 245.795 86.4604 245.85 86.0309C245.905 85.6014 245.393 85.1857 244.7 85.1026C243.994 85.0195 243.384 85.2966 243.328 85.7261Z" fill="#D193B2"/>
<path d="M148.171 56.3501C161.07 56.3501 175.978 61.7149 176.837 75.5082C177.322 83.0771 174.441 91.5471 175.411 98.2289C176.367 104.911 182.089 111.592 175.881 125.399C169.674 139.207 157.246 137.876 148.642 137.876C140.038 137.876 121.846 133.911 121.846 118.773C121.846 103.635 126.196 100.461 126.196 95.5673C126.196 90.6738 122.954 86.1823 124.714 74.6348C126.46 63.1705 135.756 56.3778 148.185 56.3778L148.171 56.3501Z" fill="#88B24E"/>
<path d="M153.102 139.915C152.285 139.915 151.481 139.915 150.719 139.901C150.013 139.901 149.32 139.887 148.641 139.887C137.058 139.887 119.822 134.259 119.822 118.761C119.822 108.752 121.651 103.775 122.995 100.143C123.674 98.2997 124.172 96.955 124.172 95.541C124.172 94.127 123.826 92.6437 123.438 90.9248C122.607 87.3067 121.485 82.3716 122.704 74.3036C124.56 62.1738 134.55 54.3276 148.17 54.3276C162.787 54.3276 177.931 60.8292 178.846 75.371C179.081 79.1555 178.541 83.0647 178.014 86.8492C177.46 90.8832 176.933 94.6815 177.391 97.9254C177.612 99.4364 178.125 101.044 178.665 102.736C180.453 108.267 182.669 115.157 177.695 126.205C171.987 138.903 161.526 139.901 153.088 139.901L153.102 139.915ZM148.17 58.3616C136.476 58.3616 128.246 64.7107 126.68 74.9135C125.572 82.2191 126.555 86.5442 127.359 90.0237C127.788 91.8952 128.19 93.6696 128.19 95.541C128.19 97.6759 127.525 99.4641 126.763 101.53C125.53 104.871 123.84 109.445 123.84 118.747C123.84 132.776 141.741 135.839 148.627 135.839C149.306 135.839 150.026 135.839 150.747 135.853C159.226 135.95 168.856 136.061 174.038 124.541C178.374 114.907 176.49 109.099 174.841 103.969C174.245 102.098 173.663 100.337 173.4 98.4937C172.86 94.6954 173.442 90.4257 174.024 86.2947C174.523 82.7043 175.035 79.003 174.813 75.6205C174.065 63.6849 160.875 58.3478 148.142 58.3478L148.17 58.3616Z" fill="#251E1C"/>
<path d="M151.163 78.1701C151.981 78.475 162.829 87.5966 162.829 88.8303C162.829 88.8303 154.682 86.3767 150.733 81.6634C150.733 81.6634 150.068 77.768 151.177 78.1839L151.163 78.1701Z" fill="#251E1C"/>
<path d="M163.245 89.3857L162.704 89.2193C162.372 89.1223 154.405 86.6686 150.401 81.9137L150.331 81.8306V81.7197C150.151 80.7632 149.846 78.462 150.553 77.8797C150.761 77.7134 151.024 77.6718 151.301 77.7688C151.564 77.9213 163.231 87.0706 163.231 88.8173V89.3857H163.245ZM151.121 81.4701C154.128 84.9774 159.573 87.2231 161.873 88.0549C159.739 85.6012 151.897 78.9472 151.01 78.559L151.163 78.1709L150.996 78.559C150.872 78.7531 150.9 80.1116 151.121 81.4701Z" fill="#251E1C"/>
<path d="M161.069 79.3911C161.069 80.8605 162.344 82.0666 163.924 82.0666C165.503 82.0666 166.778 80.8744 166.778 79.3911C166.778 77.9078 165.503 76.7295 163.924 76.7295C162.344 76.7295 161.069 77.9217 161.069 79.3911Z" fill="#251E1C"/>
<path d="M163.924 82.4823C162.123 82.4823 160.654 81.0961 160.654 79.391C160.654 77.6859 162.123 76.3135 163.924 76.3135C165.725 76.3135 167.193 77.6997 167.193 79.391C167.193 81.0822 165.725 82.4823 163.924 82.4823ZM163.924 77.1452C162.58 77.1452 161.485 78.1572 161.485 79.391C161.485 80.6247 162.58 81.6367 163.924 81.6367C165.268 81.6367 166.362 80.6247 166.362 79.391C166.362 78.1572 165.268 77.1452 163.924 77.1452Z" fill="#251E1C"/>
<path d="M133.802 79.3911C133.802 80.8605 135.077 82.0666 136.656 82.0666C138.236 82.0666 139.51 80.8744 139.51 79.3911C139.51 77.9078 138.236 76.7295 136.656 76.7295C135.077 76.7295 133.802 77.9217 133.802 79.3911Z" fill="#251E1C"/>
<path d="M136.657 82.4823C134.856 82.4823 133.374 81.0961 133.374 79.391C133.374 77.6859 134.842 76.3135 136.657 76.3135C138.472 76.3135 139.941 77.6997 139.941 79.391C139.941 81.0822 138.472 82.4823 136.657 82.4823ZM136.657 77.1452C135.313 77.1452 134.219 78.1572 134.219 79.391C134.219 80.6247 135.313 81.6367 136.657 81.6367C138.001 81.6367 139.096 80.6247 139.096 79.391C139.096 78.1572 138.001 77.1452 136.657 77.1452Z" fill="#251E1C"/>
<path d="M151.163 78.1701C150.345 78.475 139.51 87.5966 139.51 88.8303C139.51 88.8303 147.643 86.3767 151.606 81.6634C151.606 81.6634 152.271 77.768 151.163 78.1839V78.1701Z" fill="#251E1C"/>
<path d="M139.095 89.3853V88.8169C139.095 87.0702 150.789 77.9071 151.025 77.7685C151.302 77.6714 151.579 77.6991 151.787 77.8793C152.494 78.4616 152.189 80.7628 152.022 81.7193V81.8302L151.925 81.9134C147.935 86.6682 139.968 89.1219 139.636 89.2189L139.095 89.3853ZM151.274 78.5725C150.221 79.127 142.628 85.5869 140.481 88.0406C142.795 87.195 148.212 84.9631 151.205 81.4559C151.413 80.1805 151.44 78.9052 151.274 78.5725Z" fill="#251E1C"/>
<path d="M149.404 78.1709C149.404 79.072 150.194 79.8067 151.163 79.8067C152.133 79.8067 152.923 79.0859 152.923 78.1709C152.923 77.256 152.133 76.5352 151.163 76.5352C150.194 76.5352 149.404 77.2699 149.404 78.1709Z" fill="#251E1C"/>
<path d="M151.163 80.2217C149.958 80.2217 148.988 79.3067 148.988 78.17C148.988 77.0333 149.958 76.1045 151.163 76.1045C152.369 76.1045 153.352 77.0333 153.352 78.17C153.352 79.3067 152.369 80.2217 151.163 80.2217ZM151.163 76.9362C150.429 76.9362 149.819 77.4907 149.819 78.1562C149.819 78.8216 150.415 79.3761 151.163 79.3761C151.911 79.3761 152.507 78.8354 152.507 78.1562C152.507 77.4769 151.898 76.9362 151.163 76.9362Z" fill="#251E1C"/>
<path d="M166.57 84.617C166.639 85.1854 167.498 85.5597 168.454 85.4488C169.424 85.3379 170.144 84.7834 170.075 84.215C169.992 83.6466 169.146 83.2723 168.177 83.3832C167.207 83.508 166.486 84.0625 166.57 84.6309V84.617Z" fill="#D193B2"/>
<path d="M130.518 84.617C130.601 85.1854 131.447 85.5597 132.417 85.4488C133.373 85.3379 134.107 84.7834 134.038 84.215C133.954 83.6466 133.109 83.2723 132.139 83.3832C131.169 83.508 130.449 84.0625 130.518 84.6309V84.617Z" fill="#D193B2"/>
<path d="M130.02 54.6739C130.02 43.2789 139.095 34.0464 150.304 34.0464C161.513 34.0464 170.588 43.2789 170.588 54.6739V58.902H130.034V54.6739H130.02Z" fill="#E1C73B"/>
<path d="M172.584 60.9104H127.997V54.6722C127.997 42.1959 138.001 32.0347 150.29 32.0347C162.58 32.0347 172.584 42.1821 172.584 54.6722V60.9104ZM132.029 56.8902H168.565V54.6722C168.565 44.4139 160.363 36.0687 150.29 36.0687C140.218 36.0687 132.029 44.4139 132.029 54.6722V56.8902Z" fill="#251E1C"/>
<path d="M108.211 60.8562C108.211 63.3376 127.054 65.3615 150.304 65.3615C173.553 65.3615 192.382 63.3515 192.382 60.8562C192.382 58.361 173.539 56.3647 150.304 56.3647C127.068 56.3647 108.211 58.3748 108.211 60.8562Z" fill="#E1C73B"/>
<path d="M150.29 67.3584C138.984 67.3584 128.343 66.8871 120.321 66.0276C108.447 64.7523 106.202 63.2274 106.202 60.843C106.202 58.4587 108.447 56.9338 120.321 55.6584C128.343 54.799 138.984 54.3276 150.29 54.3276C161.596 54.3276 172.237 54.799 180.259 55.6584C192.133 56.9338 194.377 58.4587 194.377 60.843C194.377 63.2274 192.133 64.7523 180.259 66.0276C172.237 66.8871 161.596 67.3584 150.29 67.3584ZM112.756 60.8569C118.464 62.0907 131.779 63.3383 150.29 63.3383C168.8 63.3383 182.116 62.0907 187.824 60.8569C182.116 59.6231 168.814 58.3755 150.29 58.3755C131.765 58.3755 118.464 59.6231 112.756 60.8569Z" fill="#251E1C"/>
<path d="M171.71 50.2793H128.856V58.4859H171.71V50.2793Z" fill="#251E1C"/>
<path d="M168.441 53.5509V55.2005H132.139V53.5509H168.441ZM171.71 50.2793H128.856V58.4859H171.71V50.2793Z" fill="#251E1C"/>
</g>
<path d="M71.2319 111.746C71.2319 111.746 87.5536 112.134 93.9132 112.134C100.273 112.134 115.68 112.702 115.68 112.702" fill="white"/>
<path d="M115.68 114.075C115.68 114.075 115.652 114.075 115.625 114.075C115.472 114.075 100.162 113.506 93.8996 113.506C87.637 113.506 71.3568 113.132 71.1905 113.118C70.4285 113.104 69.8189 112.467 69.8328 111.704C69.8466 110.942 70.4563 110.276 71.246 110.346C71.4123 110.346 87.6231 110.734 93.8857 110.734C100.148 110.734 115.555 111.288 115.708 111.302C116.47 111.33 117.066 111.968 117.038 112.744C117.01 113.493 116.401 114.075 115.652 114.075H115.68Z" fill="#251E1C"/>
<path d="M206.986 117.831C199.504 117.831 186.826 117.553 186.702 117.553C185.94 117.539 185.33 116.902 185.344 116.139C185.358 115.391 185.981 114.781 186.73 114.781H186.757C186.882 114.781 199.532 115.058 206.986 115.058C214.44 115.058 231.856 114.504 232.036 114.49C232.784 114.462 233.436 115.072 233.463 115.834C233.491 116.597 232.882 117.234 232.119 117.262C231.939 117.262 214.468 117.831 206.986 117.831Z" fill="#251E1C"/>
<path d="M275.029 101.682C274.835 101.682 255.757 101.682 250.796 101.543C246.917 101.432 234.821 101.404 234.71 101.404C233.948 101.404 233.325 100.781 233.325 100.018C233.325 99.2557 233.948 98.6318 234.71 98.6318C234.835 98.6318 246.959 98.6596 250.88 98.7705C255.784 98.9091 274.835 98.9091 275.029 98.9091C275.791 98.9091 276.415 99.5329 276.415 100.295C276.415 101.058 275.791 101.682 275.029 101.682Z" fill="#251E1C"/>
<path d="M244.645 74.3716C242.982 74.5102 239.366 69.3949 240.28 67.4126C241.181 65.4441 251.711 63.5588 256.103 63.1429C260.481 62.7271 273.298 65.2223 273.755 66.3452C274.212 67.4681 273.076 74.6489 270.956 75.2172C268.836 75.7856 264.915 71.6961 256.45 72.5417C247.984 73.3874 246.321 74.233 244.659 74.3716H244.645Z" fill="white"/>
<path d="M270.513 77.2821C269.405 77.2821 268.269 76.8247 266.994 76.2979C264.666 75.3552 261.493 74.0522 256.616 74.5373C250.977 75.1057 248.414 75.6602 246.876 76.0068C246.086 76.187 245.463 76.3256 244.798 76.3811C242.761 76.5613 240.932 74.4126 240.018 73.1234C239.186 71.9312 237.358 68.9092 238.424 66.5802C240.212 62.6987 255.716 61.16 255.868 61.1461C258.32 60.9105 274.296 62.4076 275.584 65.596C276.277 67.315 275.348 72.1807 274.157 74.5789C273.45 76.0068 272.536 76.8801 271.441 77.1712C271.123 77.2544 270.804 77.296 270.499 77.296L270.513 77.2821ZM258.722 70.4063C263.225 70.4063 266.343 71.6817 268.518 72.5689C269.155 72.8323 269.918 73.1372 270.319 73.2343C271.04 72.3055 271.76 69.1448 271.829 67.5506C269.169 66.5941 259.914 64.8058 256.284 65.1524C251.337 65.6237 243.717 67.2734 242.096 68.3824C242.179 69.2834 243.772 71.7648 244.714 72.3471C245.061 72.2916 245.463 72.2084 246.017 72.0837C247.638 71.7233 250.34 71.1272 256.214 70.5449C257.087 70.4618 257.919 70.4202 258.708 70.4202L258.722 70.4063Z" fill="#251E1C"/>
<path d="M194.766 92.059C193.727 91.8511 191.579 85.1693 193.893 83.0899C196.207 81.0106 208.622 79.5827 211.628 79.8184C214.635 80.054 228.504 82.7711 228.684 84.1989C228.864 85.6268 227.645 92.5997 225.969 92.6135C224.292 92.6135 217.697 88.3023 210.866 88.3439C204.035 88.3854 196.997 92.5165 194.766 92.059Z" fill="white"/>
<path d="M225.955 94.6118C224.985 94.6118 223.877 94.1405 222.061 93.3503C219.263 92.1443 215.023 90.356 210.88 90.3421C207.264 90.3699 203.468 91.673 200.419 92.7265C197.662 93.683 195.833 94.3207 194.365 94.0157C193.88 93.9187 192.411 93.6137 191.358 89.7738C190.887 88.0548 190.056 83.8129 192.536 81.581C195.625 78.7946 208.871 77.5747 211.781 77.7965C213.527 77.9352 217.96 78.7253 221.66 79.5848C229.169 81.3038 230.458 82.2741 230.666 83.9376C230.873 85.6012 229.959 91.4789 228.158 93.5444C227.382 94.4316 226.551 94.6118 225.983 94.6257H225.955V94.6118ZM210.963 86.322C215.91 86.322 220.551 88.3182 223.641 89.649C224.237 89.8985 224.916 90.2035 225.414 90.3837C225.955 89.2054 226.523 86.5993 226.648 85.1575C223.96 84.0347 214.399 82.0246 211.462 81.8028C208.164 81.5533 196.775 83.1613 195.224 84.5615C194.475 85.2407 194.988 88.54 195.667 89.9956C196.498 89.8154 197.912 89.3302 199.103 88.9143C202.248 87.8192 206.557 86.3359 210.852 86.3081C210.894 86.3081 210.936 86.3081 210.963 86.3081V86.322Z" fill="#251E1C"/>
<path d="M76.5242 88.2214C74.7369 87.9164 70.1232 84.2151 70.0817 81.9555C70.0401 79.6959 80.847 73.0834 88.5506 72.9864C96.2541 72.8894 105.703 77.4224 106.161 78.4067C106.632 79.3909 105.953 85.3102 104.443 85.6152C102.932 85.9202 94.259 82.0802 89.2849 82.5654C84.297 83.0506 77.2724 88.3461 76.5104 88.2214H76.5242Z" fill="white"/>
<path d="M76.5806 90.2441C76.4559 90.2441 76.3173 90.2441 76.1787 90.2025C73.6709 89.7727 68.1287 85.5031 68.0732 81.982C68.0732 81.0116 68.5306 80.0689 69.5697 79.0015C72.701 75.7854 81.6376 71.0583 88.5375 70.9751C88.6207 70.9751 88.6902 70.9751 88.7733 70.9751C96.2275 70.9751 106.91 75.2725 107.99 77.546C108.739 79.1263 108.129 83.6455 107.132 85.6278C106.577 86.7368 105.815 87.4022 104.859 87.5963C103.834 87.8042 102.587 87.4438 99.6357 86.5566C96.4905 85.614 92.1818 84.3109 89.4938 84.5743C86.5842 84.8515 82.4691 87.2636 80.0167 88.7053C78.1739 89.7866 77.3842 90.2441 76.5806 90.2441ZM72.1608 82.1345C72.5765 83.2435 75.1257 85.4753 76.4696 86.0991C76.8714 85.8773 77.4673 85.5308 77.98 85.2397C80.9035 83.5346 85.3095 80.9423 89.1058 80.5819C92.5835 80.2491 97.3358 81.677 100.8 82.7167C101.783 83.0078 102.947 83.3682 103.682 83.5346C104.056 82.5365 104.361 80.4987 104.333 79.459C102.435 78.2114 94.8002 74.9537 88.593 75.0091C81.984 75.0923 73.5048 80.2769 72.1608 82.1345Z" fill="#251E1C"/>
<path d="M116.428 103.691C115.694 103.691 115.07 103.108 115.042 102.36C115.015 101.597 115.61 100.946 116.372 100.918C116.497 100.918 128.856 100.433 146.826 100.558C164.741 100.683 186.023 100.35 186.245 100.336C187.007 100.336 187.644 100.932 187.658 101.694C187.658 102.457 187.062 103.095 186.3 103.108C186.092 103.108 164.769 103.455 146.826 103.33C128.939 103.205 116.622 103.677 116.497 103.691C116.483 103.691 116.456 103.691 116.442 103.691H116.428Z" fill="#251E1C"/>
<path d="M296.768 93.9743C297.78 91.687 316.443 80.7079 318.604 80.5138C320.766 80.3197 342.491 86.4331 345.816 92.6297C349.142 98.8262 348.241 118.844 345.816 122.503C343.392 126.163 321.265 132.97 318.881 132.762C316.498 132.554 300.676 129.532 299.373 127.91C298.071 126.288 293.166 122.323 292.944 119.093C292.723 115.863 296.768 93.9743 296.768 93.9743Z" fill="#9D9D9E"/>
<path d="M318.868 134.771C318.868 134.771 318.757 134.771 318.716 134.771C317.386 134.66 312.772 133.842 308.283 132.83C299.096 130.778 298.293 129.78 297.808 129.17C297.558 128.865 297.032 128.339 296.478 127.784C294.233 125.524 291.144 122.419 290.936 119.231C290.714 115.918 294.109 97.3003 294.787 93.6128C294.815 93.4603 294.857 93.3079 294.926 93.1692C296.339 89.967 315.958 78.7383 318.425 78.5165C321.459 78.2254 343.766 84.5467 347.59 91.6859C351.095 98.2152 350.527 119.037 347.493 123.625C344.57 128.047 322.152 134.785 318.854 134.785L318.868 134.771ZM300.828 126.523C302.837 127.784 316.554 130.557 319.048 130.764C322.166 130.737 342.436 123.944 344.14 121.393C345.997 118.579 347.188 99.4351 344.043 93.5851C341.397 88.65 321.875 82.6614 318.813 82.5228C316.208 83.2436 300.842 92.3375 298.667 94.7634C297.115 103.178 294.801 116.833 294.94 118.967C295.051 120.659 297.836 123.459 299.318 124.956C299.914 125.552 300.441 126.079 300.815 126.523H300.828Z" fill="#251E1C"/>
<path d="M15.9638 78.0319C18.0283 77.2556 40.5293 77.2556 44.0347 79.7648C47.5401 82.26 57.419 94.6531 57.6545 96.6909C57.8762 98.604 55.5898 113.617 54.5645 115.156C53.5392 116.695 28.3503 126.897 26.4937 126.703C24.637 126.509 10.4355 123.21 8.95296 120.937C7.53972 118.774 1.29102 100.365 2.06692 95.7483C2.75968 91.6866 13.8994 78.7944 15.9638 78.0319Z" fill="#9D9D9E"/>
<path d="M26.3687 128.711C26.3687 128.711 26.3132 128.711 26.2855 128.711C26.1331 128.697 9.58987 125.592 7.26218 122.043C5.68268 119.631 -0.815364 100.667 0.0852304 95.4134C0.874983 90.7556 12.5134 77.1703 15.2706 76.1445C17.6398 75.2573 40.9858 75.1048 45.2117 78.1268C48.4816 80.4557 59.3166 93.4034 59.663 96.467C59.8847 98.4216 57.7095 114.1 56.2408 116.29C54.6059 118.716 29.0428 128.711 26.3687 128.725V128.711ZM16.6839 79.9151C14.3977 81.2736 4.5603 93.0152 4.04766 96.0927C3.39646 99.9188 9.34038 117.871 10.6289 119.839C12.0837 121.323 24.027 124.358 26.5487 124.691C29.5968 124.206 50.1859 115.778 52.9431 113.906C53.7882 111.757 55.7418 99.1147 55.6587 97.0076C54.8966 94.9005 46.1678 83.7689 42.8564 81.4122C42.2329 80.9686 38.6721 80.026 29.68 79.7071C23.3758 79.4715 17.7923 79.6794 16.67 79.9289L16.6839 79.9151Z" fill="#251E1C"/>
<path d="M20.4389 121.892C22.2678 117.013 37.3702 105.826 38.5756 105.826C39.781 105.826 55.5619 109.541 57.6679 110.941C59.7878 112.355 68.5584 117.983 68.5584 117.983C68.5584 117.983 89.5631 121.116 92.5836 122.53C95.604 123.944 105.621 131.984 106.688 134.369C107.63 136.476 107.506 161.068 106.91 162.191C106.314 163.314 74.142 170.633 70.2071 170.633C66.2722 170.633 30.29 160.486 25.2605 155.98C21.2702 152.404 18.3191 127.534 20.4389 121.892Z" fill="#9D9D9E"/>
<path d="M70.221 172.643C66.4108 172.643 29.6112 162.565 23.9305 157.477C18.9426 153.014 16.4208 126.91 18.5684 121.185C19.7322 118.094 24.5956 113.658 28.4751 110.469C30.9137 108.473 36.7884 103.815 38.5896 103.815C40.2383 103.815 56.3657 107.641 58.8042 109.277C60.6331 110.497 67.6302 114.989 69.3067 116.07C73.6711 116.721 90.4359 119.314 93.4563 120.714C96.5322 122.142 107.159 130.459 108.559 133.551C109.653 135.977 109.778 161.151 108.711 163.147C108.226 164.062 107.838 164.783 90.2834 168.803C88.5654 169.191 73.3661 172.657 70.2348 172.657L70.221 172.643ZM38.8389 107.877C36.1925 109.263 23.7228 118.87 22.3234 122.599C20.3283 127.895 23.5425 151.738 26.6045 154.483C31.1075 158.517 66.5493 168.623 70.2071 168.623C73.4493 168.623 100.038 162.648 105.095 160.846C105.483 156.424 105.483 137.321 104.818 135.103C104 133.426 94.6756 125.732 91.7244 124.36C89.7154 123.417 76.262 121.185 68.2536 119.979C67.9765 119.938 67.6993 119.841 67.4638 119.688C67.1035 119.452 58.652 114.032 56.546 112.618C54.8556 111.551 41.5268 108.307 38.8111 107.877H38.8389Z" fill="#251E1C"/>
<path d="M127.125 169.843C129.549 169.663 149.847 163.882 149.847 163.882C149.847 163.882 150.748 142.188 150.748 141.051C150.748 139.914 127.776 129.781 124.437 130.058C121.112 130.335 107.505 139.36 107.201 140.482C106.896 141.605 106.3 160.777 106.896 162.177C107.505 163.591 123.176 170.121 127.097 169.83L127.125 169.843Z" fill="#9D9D9E"/>
<path d="M127 171.867C122.677 171.867 106.203 165.643 105.067 162.981C104.859 162.51 104.485 161.622 104.721 151.184C104.721 150.782 104.942 141.203 105.275 139.955C105.981 137.321 121.098 128.311 124.284 128.047C126.085 127.881 130.949 129.489 138.735 132.788C139.885 133.274 150.083 137.626 151.953 139.345C152.618 139.955 152.757 140.607 152.757 141.05C152.757 142.187 151.94 161.733 151.843 163.965C151.801 164.839 151.219 165.573 150.388 165.823C146.966 166.793 129.771 171.673 127.249 171.867C127.166 171.867 127.083 171.867 126.986 171.867H127ZM108.766 161.193C111.33 162.953 124.035 168.069 126.972 167.847C128.344 167.75 138.514 165.019 147.894 162.357C148.199 154.885 148.614 145.001 148.711 141.965C144.957 139.623 127.277 132.081 124.589 132.081C122.303 132.275 111.26 139.304 109.113 141.342C108.863 144.003 108.462 158.171 108.766 161.207V161.193Z" fill="#251E1C"/>
<path d="M258.694 134.008C258.694 134.008 262.934 121.324 264.444 119.065C265.954 116.805 277.745 109.486 280.17 108.64C282.594 107.794 304.458 111.08 304.458 112.216C304.458 113.353 317.759 132.414 317.759 135.519C317.759 138.625 311.303 155.343 310.097 156.189C308.892 157.034 288.33 165.865 285.601 165.587C282.885 165.31 263.53 161.359 262.324 159.945C261.119 158.531 258.694 134.022 258.694 134.022V134.008Z" fill="#9D9D9E"/>
<path d="M285.629 167.584C285.546 167.584 285.476 167.584 285.407 167.584C285.199 167.556 262.92 163.73 260.814 161.263C260.371 160.75 259.193 159.377 256.713 134.217C256.685 133.94 256.713 133.648 256.81 133.385C257.53 131.222 261.202 120.327 262.795 117.97C264.749 115.059 277.08 107.615 279.532 106.769C282.262 105.812 303.17 108.765 305.525 110.443C306.01 110.789 306.328 111.26 306.439 111.787C306.813 112.591 308.726 115.586 310.402 118.247C317.025 128.672 319.796 133.371 319.796 135.548C319.796 138.764 313.409 156.369 311.275 157.866C310.305 158.546 289.799 167.626 285.643 167.626L285.629 167.584ZM263.917 158.559C266.91 159.876 282.83 163.259 285.809 163.564C288.234 163.522 305.969 156.134 308.781 154.609C310.291 152.294 315.736 137.863 315.736 135.506C315.487 133.759 309.959 125.054 306.98 120.368C304.458 116.39 303.322 114.587 302.823 113.575C299.276 112.356 282.968 110.082 280.752 110.567C278.424 111.385 267.229 118.552 266.107 120.188C265.151 121.63 262.366 129.393 260.731 134.231C261.756 144.614 263.183 156.023 263.904 158.559H263.917Z" fill="#251E1C"/>
<path d="M200.945 141.619C200.945 139.817 220.592 128.367 223.321 126.967C226.037 125.553 244.534 125.04 247.859 125.885C251.184 126.731 266.3 138.292 266.605 141.106C266.91 143.921 258.694 164.451 256.269 165.019C253.844 165.588 226.037 170.093 224.222 169.525C222.407 168.956 203.356 158.254 203.051 156.84C202.746 155.426 200.931 143.588 200.931 141.619H200.945Z" fill="#9D9D9E"/>
<path d="M224.708 171.534C224.209 171.534 223.849 171.506 223.627 171.437C223.419 171.367 201.763 160.361 201.098 157.255C200.849 156.091 198.937 143.878 198.937 141.618C198.937 140.398 198.937 139.331 210.049 132.427C215.48 129.059 221.05 125.87 222.394 125.177C225.719 123.458 244.729 123.015 248.359 123.93C251.906 124.831 268.158 136.711 268.615 140.884C268.906 143.545 265.096 152.833 264.32 154.677C259.457 166.335 257.683 166.751 256.741 166.973C256.492 167.028 230.804 171.534 224.722 171.534H224.708ZM224.722 167.555C227.603 167.708 251.407 163.979 255.522 163.105C257.85 160.776 264.431 144.405 264.597 141.383C263.295 138.652 249.952 128.477 247.361 127.825C244.105 126.993 226.384 127.7 224.237 128.74C220.482 130.681 205.477 139.65 202.983 142.145C203.19 144.751 204.493 153.512 204.936 155.952C207.361 158.073 222.408 166.613 224.722 167.541V167.555Z" fill="#251E1C"/>
<path d="M163.148 126.398C165.753 125.441 184.014 124.707 185.22 124.707C186.425 124.707 202.456 134.286 203.661 135.7C204.867 137.114 209.411 160.5 208.497 162.468C207.596 164.437 187.935 177.689 185.22 177.966C182.504 178.244 153.477 172.047 151.662 170.356C149.847 168.665 147.132 146.679 147.422 144.142C147.727 141.605 160.28 127.437 163.148 126.384V126.398Z" fill="#9D9D9E"/>
<path d="M185.234 179.977C181.645 179.977 152.743 174.127 150.291 171.825C147.548 169.275 145.178 145.986 145.428 143.906C145.843 140.357 159.242 125.677 162.456 124.499C165.643 123.334 185.04 122.683 185.22 122.683C187.534 122.683 204.064 133.066 205.186 134.383C206.765 136.226 211.587 160.555 210.326 163.314C209.051 166.072 188.809 179.63 185.428 179.977C185.373 179.977 185.303 179.977 185.234 179.977ZM153.09 168.887C156.609 170.605 182.422 176.109 185.04 175.97C187.465 175.416 204.216 164.298 206.626 161.65C206.862 158.226 203.232 139.567 202.068 136.933C200.35 135.436 187.285 127.604 184.985 126.717C182.172 126.772 165.92 127.535 163.855 128.283C161.486 129.295 150.153 142.021 149.418 144.502C149.197 146.623 151.649 165.878 153.104 168.887H153.09Z" fill="#251E1C"/>
<path d="M86.3346 33.6306C94.4954 29.9708 98.4302 37.013 98.4302 37.013C98.4302 37.013 105.205 35.8486 106.716 41.4768C108.226 47.1188 104.485 49.9745 104.485 49.9745C104.485 49.9745 105.995 57.0167 98.4441 59.8447C91.8767 62.2983 87.8585 58.999 87.8585 58.999C87.8585 58.999 78.7417 59.207 77.8411 52.1648C76.9405 45.1226 81.513 44.0552 81.513 44.0552C81.513 44.0552 78.5479 37.1239 86.3485 33.6306H86.3346Z" fill="white"/>
<path d="M93.6915 62.7537C90.5186 62.7537 88.2741 61.6447 87.2211 60.9932C83.3001 60.8823 76.6773 59.0108 75.8321 52.4122C75.1671 47.2415 77.1347 44.3442 79.0882 42.9857C78.437 39.6171 79.2266 34.5989 85.5031 31.7848C92.3476 28.7073 97.2109 32.0066 99.4277 34.8761C102.601 34.7514 107.297 35.8604 108.655 40.9479C109.999 45.9523 107.907 49.2377 106.605 50.6933C106.854 53.9787 105.58 59.3158 99.1368 61.714C97.114 62.4626 95.2848 62.7537 93.6915 62.7537ZM87.8446 56.973C88.3156 56.973 88.7731 57.1394 89.1333 57.4305C89.2442 57.5137 92.417 59.9258 97.7374 57.9434C103.418 55.8224 102.628 50.929 102.517 50.3745C102.365 49.6259 102.656 48.8357 103.266 48.3644C103.349 48.2951 105.898 46.1741 104.776 41.9876C103.778 38.2724 99.2754 38.8963 98.7627 38.9794C97.9314 39.1181 97.0862 38.716 96.6705 37.9813C96.3519 37.4407 93.3728 32.6581 87.1518 35.4583C81.5127 37.9813 82.9952 42.4035 83.3416 43.2768C83.5633 43.8175 83.5358 44.4413 83.2726 44.9681C82.9955 45.4948 82.5241 45.883 81.9422 46.0077C81.6928 46.0771 79.1714 46.9504 79.8088 51.8993C80.4738 57.0423 87.4985 56.9869 87.7894 56.973H87.8307H87.8446Z" fill="#251E1C"/>
<path d="M89.2022 61.7012C88.7727 61.7012 88.3572 61.5626 87.9831 61.2992C86.0295 59.8159 84.6023 56.8355 84.4499 56.5028C83.9788 55.4908 84.4222 54.2986 85.4197 53.8273C86.4312 53.3559 87.623 53.7857 88.0941 54.7977C88.5236 55.7126 89.5349 57.4177 90.4078 58.0831C91.2945 58.7485 91.4747 60.01 90.7958 60.8972C90.394 61.424 89.798 61.7012 89.1883 61.7012H89.2022Z" fill="#251E1C"/>
<path d="M171.587 19.2407C171.587 19.2407 167.984 22.637 170.077 28.0434C172.169 33.4637 177.655 34.0875 177.655 34.0875C177.655 34.0875 181.867 38.884 186.952 37.8581C192.037 36.8462 193.949 34.8361 193.949 34.8361C193.949 34.8361 202.29 35.0302 205.851 27.9603C209.412 20.8904 203.246 15.7058 203.246 15.7058C203.246 15.7058 204.174 8.13681 196.97 5.18409C189.765 2.24522 184.514 6.26537 184.514 6.26537C184.514 6.26537 178.445 5.15636 173.762 9.67555C169.079 14.1947 171.573 19.2407 171.573 19.2407H171.587Z" fill="white"/>
<path d="M185.524 40.0338C181.284 40.0338 177.904 37.1782 176.657 35.9582C174.828 35.5424 170.228 34.0036 168.205 28.7774C166.376 24.0365 168.108 20.5292 169.299 18.8519C168.565 16.2457 168.565 11.9067 172.375 8.21927C176.698 4.04664 181.991 4.01892 184.028 4.18527C185.884 3.0624 191.094 0.622592 197.73 3.32579C203.868 5.83491 205.351 11.4908 205.309 14.8872C207.776 17.4517 210.685 22.8027 207.637 28.8745C204.215 35.6949 197.107 36.7068 194.696 36.8455C193.643 37.6495 191.343 39.0496 187.325 39.8536C186.702 39.9784 186.092 40.0338 185.496 40.0338H185.524ZM172.985 20.6956C172.847 20.8203 170.408 23.3295 171.96 27.3219C173.567 31.4945 177.737 32.0767 177.903 32.1045C178.388 32.1738 178.846 32.4094 179.164 32.7699C179.192 32.7976 182.697 36.6652 186.563 35.9028C190.83 35.0572 192.507 33.4491 192.521 33.4353C192.909 33.061 193.449 32.7837 194.003 32.8392C194.281 32.8392 201.139 32.8808 204.062 27.0724C206.833 21.5412 202.15 17.424 201.956 17.2438C201.444 16.8002 201.181 16.1348 201.264 15.4694C201.291 15.2337 201.873 9.36987 196.22 7.05482C190.235 4.61501 185.926 7.73408 185.746 7.87271C185.302 8.20541 184.72 8.34404 184.166 8.247C183.972 8.21927 179.012 7.41524 175.174 11.1165C171.71 14.4574 173.22 17.9785 173.4 18.3667C173.761 19.143 173.609 20.0995 172.985 20.6956Z" fill="#251E1C"/>
<path d="M173.234 23.8289C172.583 23.8289 171.946 23.5101 171.558 22.9417C171.267 22.4981 169.784 20.2385 169.369 18.7275C169.078 17.6601 169.715 16.5511 170.782 16.2599C171.849 15.9688 172.957 16.6065 173.248 17.6739C173.401 18.2561 174.232 19.6979 174.897 20.696C175.521 21.6247 175.271 22.8724 174.343 23.4823C173.997 23.718 173.609 23.8289 173.221 23.8289H173.234Z" fill="#251E1C"/>
<path d="M59.5244 126.371C58.8871 126.371 58.2637 126.08 57.8757 125.511C57.2384 124.596 57.4599 123.349 58.3605 122.711L67.408 116.348C68.3225 115.71 69.5695 115.932 70.2068 116.833C70.8442 117.748 70.6227 118.996 69.7221 119.633L60.6745 125.996C60.3281 126.246 59.9124 126.357 59.5244 126.357V126.371Z" fill="#251E1C"/>
<path d="M197.98 159.281C197.495 159.281 196.997 159.101 196.609 158.741C195.791 157.992 195.75 156.717 196.498 155.899L205.158 146.555C205.92 145.738 207.18 145.696 207.998 146.444C208.815 147.193 208.857 148.468 208.109 149.286L199.449 158.63C199.047 159.059 198.507 159.281 197.966 159.281H197.98Z" fill="#251E1C"/>
<path d="M130.991 31.9802C130.284 31.9802 129.605 31.6198 129.245 30.9683C129.217 30.9128 126.155 25.5203 124.811 23.33C124.174 22.4428 119.712 20.4466 115.265 19.0742C114.198 18.7415 113.616 17.6186 113.935 16.5512C114.267 15.4977 115.39 14.8877 116.456 15.2204C119.463 16.1492 126.64 18.6167 128.233 21.2229C129.605 23.4686 132.612 28.7503 132.736 28.9721C133.291 29.9425 132.944 31.1624 131.988 31.7169C131.67 31.8971 131.337 31.9802 130.991 31.9802Z" fill="#251E1C"/>
<path d="M281.251 47.6862C280.766 47.6862 280.268 47.506 279.88 47.1455C278.924 46.2445 275.307 44.8028 273.063 44.0542C272.01 43.7076 271.428 42.5709 271.788 41.5173C272.134 40.4638 273.271 39.8815 274.324 40.2281C275.377 40.5747 280.683 42.3768 282.637 44.1928C283.454 44.9552 283.496 46.2306 282.734 47.0346C282.332 47.4644 281.805 47.6723 281.265 47.6723L281.251 47.6862Z" fill="#251E1C"/>
<path d="M297.476 152.057C296.88 152.057 296.298 151.794 295.896 151.295C295.204 150.422 295.356 149.16 296.229 148.467C298.986 146.291 301.66 143.615 301.937 142.756C302.27 141.203 302.339 136.698 302.339 135.09C302.339 133.981 303.239 133.08 304.348 133.08C305.456 133.08 306.357 133.981 306.357 135.09C306.357 135.727 306.343 141.356 305.858 143.629C305.304 146.194 300.676 150.075 298.723 151.628C298.349 151.919 297.919 152.057 297.476 152.057Z" fill="#251E1C"/>
<path d="M141.354 115.322H133.567C132.805 115.322 132.181 114.699 132.181 113.936C132.181 113.174 132.805 112.55 133.567 112.55H141.354C142.116 112.55 142.739 113.174 142.739 113.936C142.739 114.699 142.116 115.322 141.354 115.322Z" fill="white"/>
<path d="M118.202 122.807H108.573C107.811 122.807 107.187 122.183 107.187 121.421C107.187 120.658 107.811 120.035 108.573 120.035H118.202C118.964 120.035 119.587 120.658 119.587 121.421C119.587 122.183 118.964 122.807 118.202 122.807Z" fill="white"/>
<path d="M178.043 112.55H170.713C169.951 112.55 169.328 111.926 169.328 111.164C169.328 110.401 169.951 109.777 170.713 109.777H178.043C178.805 109.777 179.428 110.401 179.428 111.164C179.428 111.926 178.805 112.55 178.043 112.55Z" fill="white"/>
<path d="M251.85 113.824H244.285C243.523 113.824 242.9 113.2 242.9 112.438C242.9 111.676 243.523 111.052 244.285 111.052H251.85C252.612 111.052 253.236 111.676 253.236 112.438C253.236 113.2 252.612 113.824 251.85 113.824Z" fill="white"/>
<path d="M186.979 90.5352H182.628C181.866 90.5352 181.243 89.9114 181.243 89.149C181.243 88.3865 181.866 87.7627 182.628 87.7627H186.979C187.741 87.7627 188.364 88.3865 188.364 89.149C188.364 89.9114 187.741 90.5352 186.979 90.5352Z" fill="white"/>
<path d="M267.784 108.486H263.433C262.671 108.486 262.047 107.862 262.047 107.1C262.047 106.337 262.671 105.713 263.433 105.713H267.784C268.546 105.713 269.169 106.337 269.169 107.1C269.169 107.862 268.546 108.486 267.784 108.486Z" fill="white"/>
<path d="M65.4816 107.101H63.1956C62.4335 107.101 61.8101 106.477 61.8101 105.714C61.8101 104.952 62.4335 104.328 63.1956 104.328H65.4816C66.2436 104.328 66.8671 104.952 66.8671 105.714C66.8671 106.477 66.2436 107.101 65.4816 107.101Z" fill="white"/>
<path d="M116.719 94.2764H114.433C113.671 94.2764 113.047 93.6526 113.047 92.8902C113.047 92.1277 113.671 91.5039 114.433 91.5039H116.719C117.481 91.5039 118.104 92.1277 118.104 92.8902C118.104 93.6526 117.481 94.2764 116.719 94.2764Z" fill="white"/>
<path d="M155.348 124.941H150.54C149.778 124.941 149.155 124.318 149.155 123.555C149.155 122.793 149.778 122.169 150.54 122.169H155.348C156.11 122.169 156.734 122.793 156.734 123.555C156.734 124.318 156.11 124.941 155.348 124.941Z" fill="white"/>
<path d="M140.904 208.961C141.629 209.705 144.316 210.696 145.412 210.112L145.147 210.996L145.607 211.51C149.744 209.457 151.901 214.978 147.746 216.146C146.951 215.296 145.872 213.863 144.97 213.208C144.245 212.695 140.886 211.103 140.497 212.447C140.797 214.535 140.992 216.73 141.045 218.835C141.169 223.631 140.921 227.63 140.143 232.249C139.436 236.372 140.037 239.539 140.143 243.574C140.143 244.211 139.489 243.998 139.418 244.317C139.1 245.608 139.295 247.661 138.906 249.059C137.35 254.651 134.061 257.5 130.578 261.605C129.57 262.773 128.969 264.967 127.395 265.303C126.935 264.808 131.921 254.456 132.452 252.864C132.682 252.156 132.611 251.43 132.788 250.722C133.159 249.271 134.079 248.546 133.389 246.546C132.505 246.529 131.426 246.759 130.666 247.183C129.694 247.732 129.605 248.546 128.898 248.953C124.053 251.784 114.205 251.625 109.731 248.104C108.352 247.024 108.193 246.865 106.672 245.856C106.496 245.732 103.826 242.954 103.72 242.76C103.543 242.441 102.977 238.99 102.977 238.548C102.977 237.982 103.366 234.726 103.507 234.124C104.179 231.328 107.203 227.046 110.244 226.71C114.859 226.179 125.344 227.258 129.411 229.47C130.383 230.001 132.01 232.072 133.389 231.505C134.874 230.904 133.955 229.205 134.096 227.949C134.574 223.295 135.016 217.756 134.821 213.084C134.715 210.306 133.336 211.633 131.833 211.51C127.342 211.156 123.417 210.536 118.837 211.952C116.574 212.642 114.435 215.65 112.101 216.535C111.305 216.836 109.961 216.712 109.767 216.854C109.572 216.995 109.625 217.791 109.272 218.128C108.14 219.172 103.737 219.172 102.995 217.968C102.252 216.765 101.775 211.775 102.093 210.412C102.871 207.21 108.052 205.635 110.969 205.829C112.189 205.918 113.568 207.758 115.372 206.891C115.089 209.616 117.334 208.643 118.749 208.838C120.287 209.05 121.79 209.864 123.328 208.661L123.151 209.368L134.468 208.307C133.902 206.183 134.644 199.671 137.456 199.494C142.3 199.194 139.436 207.387 140.939 208.926L140.904 208.961ZM131.426 233.682C130.701 232.514 129.941 231.151 128.527 230.727C123.965 229.364 115.372 226.958 111.128 229.435C110.651 229.718 107.097 232.638 106.902 232.992C106.23 234.248 105.806 239.026 106.142 240.318C106.248 240.778 107.167 240.654 107.486 240.99C108.405 241.91 108.016 244.228 110.492 245.219C116.592 247.679 125.468 244.671 129.853 240.034C131.656 238.123 132.629 236.779 131.957 234.089C131.886 233.788 131.479 233.806 131.426 233.682Z" fill="black"/>
<path d="M301.964 196.769C302.123 196.911 304.545 200.096 304.633 200.291C306.03 203.582 305.694 211.138 303.944 214.27C302.83 216.27 302.105 215.438 301.115 216.234C300.637 216.606 300.195 218.234 299.718 218.889C294.997 225.33 291.673 226.993 285.131 230.851C284.017 231.505 283.769 233.063 282.284 231.187L292.663 217.526C294.201 214.093 296.641 209.174 296.429 205.369C296.305 203.193 294.75 200.946 294.467 198.822C293.777 197.442 287.482 194.982 285.82 194.734C279.384 193.726 268.51 196.38 263.878 201.123C262.605 202.432 261.385 204.325 261.19 206.148C261.119 206.856 261.349 211.333 261.473 212.005C262.198 215.81 266.3 218.11 266.671 221.791C266.07 222.64 262.622 221.331 262.004 220.782C261.314 220.163 260.271 217.632 259.793 216.889C259.493 216.429 258.715 216.341 258.397 215.792C258.061 215.226 257.247 207.67 257.265 206.697C257.265 206.236 257.725 205.936 257.76 205.422C257.901 203.405 257.725 201.901 258.786 199.902C259.599 198.362 264.444 195.336 266.123 194.504C270.119 192.505 281.524 189.744 285.997 189.974C291.585 190.275 297.932 193.036 301.981 196.805L301.964 196.769Z" fill="black"/>
<path d="M175.258 216.712C175.788 217.296 176.832 218.127 177.061 218.977C177.433 220.304 176.407 220.658 178.635 222.003C177.415 223.454 178.423 223.666 178.511 224.445C178.529 224.639 178.335 228.072 178.299 228.267C178.228 228.515 177.716 228.479 177.627 228.78C177.327 229.736 177.185 231.647 176.566 232.531C176.248 232.974 175.435 233.009 174.94 233.469C172.553 235.734 172.906 240.583 170.572 243.219C170.661 244.44 178.193 244.954 179.466 245.254C179.944 245.361 180.333 245.962 180.775 246.068C181.853 246.351 182.932 245.962 183.816 246.847C184.629 246.847 185.089 243.874 187.529 244.6C190.464 245.484 187.847 249.023 188.236 249.413C189.438 249.094 189.35 250.333 190.34 250.669C190.941 250.881 191.666 250.722 192.214 250.917C193.93 251.501 199.57 253.996 195.539 255.058C194.973 253.412 192.78 253.465 192.126 252.775C191.772 252.421 191.861 251.713 191.737 251.589C191.507 251.395 190.712 251.642 190.287 251.465C189.58 251.165 189.032 250.244 188.059 250.244C186.592 250.421 186.132 256.969 183.816 256.792C181.27 256.597 184.505 249.501 182.79 247.997C180.545 246.015 173.366 245.679 170.413 245.184C168.468 245.732 167.301 248.723 166.205 249.678C165.109 250.634 163.8 250.722 162.987 252.651C162.633 253.483 163.464 254.668 161.714 254.385C162.492 255.111 160.742 256.65 160.07 257.163C159.044 257.942 154.482 260.331 153.368 260.402C151.919 260.508 151.83 258.968 151.105 258.101C149.337 255.995 148.754 255.872 148.435 252.651C148.294 251.147 151.441 247.201 152.75 246.298C154.748 244.936 160.565 243.184 162.952 243.042C165.569 242.883 167.248 244.918 168.734 242.122C170.077 239.574 171.792 231.487 171.191 228.798C171.05 228.196 170.484 227.824 170.378 227.453C170.113 226.533 170.466 225.453 169.476 224.48C167.92 222.958 163.447 225.789 160.901 225.276C160.565 225.206 158.248 224.108 158.019 223.914C157.577 223.524 156.604 220.552 156.48 219.791C156.215 218.127 157.028 217.119 158.16 215.969C160.229 213.863 165.604 212.341 168.521 213.049C171.227 213.704 173.454 214.73 175.276 216.729L175.258 216.712ZM165.922 246.228C164.26 246.9 161.82 246.918 160.37 247.891C159.734 248.316 159.628 248.953 159.044 249.43C158.39 249.961 157.17 250.262 156.692 251.005C156.339 251.554 156.852 252.616 156.728 253.465C156.639 254.12 156.109 254.597 156.056 255.252C155.932 257.093 157.948 256.721 159.026 255.801C160.282 254.739 165.215 248.988 165.675 247.59C165.816 247.148 165.975 246.723 165.905 246.245L165.922 246.228Z" fill="black"/>
<path d="M56.4394 209.988C57.5887 211.474 60.0464 213.987 60.2232 215.951C60.2586 216.376 59.7104 220.092 59.569 220.622C58.6319 223.861 54.2646 227.506 54.1762 231.187C54.1231 233.859 56.2449 241.308 57.4295 243.856C58.1191 245.325 61.9029 251.465 62.8754 252.563C65.1033 255.005 66.1641 252.97 67.0836 250.793C67.2604 250.351 67.8262 247.201 67.9853 246.918C68.003 246.882 68.5158 247.307 68.8517 246.953C69.4529 246.316 70.0541 244.493 70.4784 243.662C70.6199 243.396 70.9912 243.432 71.1326 243.113C71.2387 242.883 71.2033 240.211 72.1758 241.822C73.0422 243.255 71.946 243.662 71.9813 244.246C72.0874 245.555 72.2819 244.635 71.9813 246.44C71.5393 249.342 72.2996 249.413 72.4764 251.412C72.7239 254.12 70.7259 258.172 68.1975 259.358C66.6769 260.083 63.3705 260.773 62.0444 259.535C61.7261 259.234 61.6731 258.491 61.2487 258.03C59.8519 256.509 59.0032 256.933 57.624 254.208C54.0524 247.165 52.2312 240.388 49.3491 233.115C48.3236 230.532 48.1114 229.541 47.3688 226.957C47.192 226.356 45.9013 225.188 45.4946 224.232C44.2392 221.26 44.027 212.73 45.7068 209.934C46.0781 209.315 46.6085 209.28 46.9621 208.89C47.1743 208.66 47.0682 208.023 47.4219 207.776C47.7755 207.528 48.412 207.652 48.8187 207.404C49.19 207.174 49.19 206.519 49.7912 206.254C53.6103 204.573 54.6005 207.616 56.404 209.934L56.4394 209.988Z" fill="black"/>
<path d="M281.205 266.736C280.215 265.78 285.749 261.746 286.333 261.074C287.093 260.206 289.568 256.933 290.116 256.013C292.203 252.42 291.266 246.829 292.468 242.883C289.338 240.6 285.113 241.343 281.559 242.139C279.066 242.706 274.716 245.095 272.577 243.697C270.26 242.175 273.001 241.219 274.398 240.635C279.932 238.317 284.954 237.663 290.93 238.441C293.653 238.795 298.515 239.91 298.904 243.201C299.7 249.943 298.869 258.065 294.289 263.374C292.397 265.568 291.142 265.639 288.561 266.134C286.686 266.488 286.916 266.276 285.272 266.364C283.91 266.435 282.602 266.931 281.205 266.754V266.736Z" fill="black"/>
<path d="M227.808 254.014C226.004 253.979 227.401 251.501 227.472 250.316C228.091 238.619 223.847 227.206 209.932 232.054C203.354 234.355 200.225 239.84 200.932 246.759C202.064 257.89 214.105 252.953 217.499 245.662C218.313 243.91 219.126 238.672 222.486 241.468C225.226 243.751 223.547 249.095 221.442 251.378C216.05 257.235 205.971 261.234 200.861 252.846C197.573 247.467 197.785 236.124 203.637 232.479C207.545 230.055 215.501 228.232 219.798 230.002C229.346 233.93 228.603 245.432 227.808 254.014Z" fill="black"/>
<path d="M252.862 218.907C249.856 218.924 246.391 219.491 243.756 217.703C241.352 216.075 235.322 210.838 233.819 208.537C233.501 208.059 231.857 203.582 232.051 203.405L233.448 203.37V202.344L233.943 202.379C236.86 204.06 240.68 203.671 243.65 204.697C244.145 204.874 247.416 206.679 247.752 206.962C248.053 207.21 249.803 209.21 250.263 209.758C252.756 212.554 255.249 215.208 252.844 218.907H252.862Z" fill="black"/>
<path d="M255.638 246.476C254.736 248.051 251.253 251.767 249.732 253.129C248.937 253.855 244.393 257.058 243.579 257.27C241.599 257.766 238.434 256.014 237.108 254.598C236.896 254.368 236.86 253.731 236.489 253.289C236.082 252.829 234.226 251.271 234.173 251.006C233.943 249.997 236.807 250.121 235.941 248.723C236.631 248.316 240.432 251.024 243.367 248.883C246.85 246.352 248.601 246.211 252.455 244.529C253.339 244.14 256.734 241.999 256.982 241.999C258.113 242.017 256.169 244.618 256.009 244.919C255.762 245.397 255.868 246.051 255.62 246.476H255.638Z" fill="black"/>
<path d="M91.7849 220.623C94.8794 225.242 96.2586 230.763 95.9227 236.496C95.6928 240.283 95.0739 246.795 90.6001 247.627C90.883 245.857 90.883 244.017 91.0422 242.229C91.6788 235.098 92.3861 230.144 89.7867 223.118C88.7611 220.34 87.1873 218.429 85.9849 215.775C89.0971 216.093 90.2818 218.376 91.7672 220.606L91.7849 220.623Z" fill="black"/>
<path d="M261.048 235.256C263.294 235.062 265.875 233.841 267.979 233.505C274.557 232.46 281.789 233.062 288.455 232.407C293.246 231.93 295.704 231.31 300.849 231.682C301.486 231.735 301.998 231.576 302.423 232.23C301.397 232.602 299.983 233.54 299.099 233.841C293.918 235.575 288.189 232.354 282.991 234C280.657 234.743 278.217 235.38 275.901 236.106C274.698 236.495 272.329 238.318 271.127 238.406C269.624 238.512 267.325 237.044 265.84 237.061C263.701 237.097 262.569 239.521 261.066 235.239L261.048 235.256Z" fill="black"/>
<path d="M278.288 247.378C278.924 248.068 278.818 249.555 278.464 250.386C278.358 250.634 275.211 254.173 274.928 254.385C273.991 255.093 266.742 258.491 266.353 256.668L275.264 246.67C275.865 246.316 277.845 246.918 278.27 247.378H278.288Z" fill="black"/>
<path d="M248.92 233.381C247.399 234.691 243.155 231.7 242.165 230.267C241.882 229.842 239.99 226.25 240.184 226.055C243.155 225.294 250.582 225.507 250.458 229.754C250.44 230.603 249.539 232.85 248.92 233.381Z" fill="black"/>
<path d="M149.355 196.38C149.938 196.009 152.025 196.628 152.502 197.194C153.015 197.796 154.288 201.636 154.253 202.503C153.988 210.165 147.304 205.741 147.887 201.14C147.958 200.627 149.143 196.522 149.355 196.38Z" fill="black"/>
<path d="M286.156 211.173C282.92 212.253 279.49 213.031 276.077 213.297C275.211 213.368 272.011 213.598 271.462 213.509C271.233 213.474 269.182 212.182 270.101 211.864C273.513 210.625 282.566 208.041 285.572 210.165C285.997 210.466 286.279 210.572 286.156 211.173Z" fill="black"/>
<path d="M274.133 262.844L281.896 250.971C285.716 251.891 283.293 252.528 282.533 254.103C281.772 255.678 282.02 257.536 280.835 259.128C280.216 259.96 274.682 263.357 274.116 262.844H274.133Z" fill="black"/>
<path d="M269.536 239.133C269.678 240.213 269.43 241.062 269.094 242.071C268.581 243.663 264.391 251.52 263.312 252.564C263.011 252.865 261.296 253.909 261.031 253.643L267.45 239.186L269.519 239.133H269.536Z" fill="black"/>
<path d="M160.53 201.883C159.345 203.335 155.207 200.202 155.455 198.415C156.569 190.647 163.059 198.787 160.53 201.883Z" fill="black"/>
<path d="M273.072 225.329C273.072 224.816 274.151 224.639 274.557 224.533C276.272 224.038 282.904 222.657 280.64 226.037C279.031 228.444 275.176 225.984 273.054 225.347L273.072 225.329Z" fill="black"/>
<path d="M117.04 299.275C117.04 299.646 116.744 299.932 116.367 299.932H115.422C115.045 299.932 114.72 299.64 114.72 299.275V278.82C114.72 278.449 115.045 278.157 115.422 278.157H116.367C116.744 278.157 117.04 278.449 117.04 278.814V299.269V299.275Z" fill="black"/>
<path d="M116.367 300.108H115.422C114.94 300.108 114.552 299.731 114.552 299.274V278.82C114.552 278.357 114.94 277.98 115.422 277.98H116.367C116.837 277.98 117.208 278.345 117.208 278.814V299.268C117.208 299.737 116.837 300.102 116.367 300.102V300.108ZM115.422 278.333C115.126 278.333 114.888 278.552 114.888 278.814V299.268C114.888 299.53 115.132 299.749 115.422 299.749H116.367C116.651 299.749 116.871 299.536 116.871 299.268V278.82C116.871 278.546 116.651 278.339 116.367 278.339H115.422V278.333Z" fill="black"/>
<path d="M122.729 298.635C122.729 298.082 122.81 297.741 122.943 297.37L127.832 281.297C127.861 281.242 127.913 280.98 127.913 280.926C127.913 280.609 127.698 280.347 127.292 280.347H123.54C123.134 280.347 122.839 280.055 122.839 279.69V278.82C122.839 278.449 123.134 278.163 123.54 278.163H129.937C130.343 278.163 130.638 278.455 130.638 278.82V279.714C130.638 279.952 130.528 280.372 130.424 280.719L125.541 296.791C125.512 296.846 125.46 297.108 125.46 297.163C125.46 297.479 125.674 297.741 126.051 297.741H130.047C130.453 297.741 130.748 298.033 130.748 298.398V299.268C130.748 299.64 130.453 299.926 130.047 299.926H123.436C123.03 299.926 122.734 299.634 122.734 299.268V298.635H122.729Z" fill="black"/>
<path d="M130.041 300.108H123.43C122.937 300.108 122.56 299.749 122.56 299.274V298.641C122.56 298.057 122.653 297.686 122.786 297.308L127.669 281.248C127.698 281.181 127.739 280.974 127.744 280.925C127.744 280.682 127.57 280.524 127.292 280.524H123.54C123.047 280.524 122.67 280.165 122.67 279.69V278.82C122.67 278.345 123.041 277.986 123.54 277.986H129.936C130.429 277.986 130.806 278.345 130.806 278.82V279.714C130.806 280.025 130.65 280.554 130.58 280.773L125.697 296.846C125.668 296.913 125.628 297.12 125.622 297.168C125.622 297.412 125.79 297.57 126.045 297.57H130.041C130.528 297.57 130.911 297.935 130.911 298.404V299.274C130.911 299.743 130.528 300.108 130.041 300.108ZM123.534 278.333C123.233 278.333 123.001 278.54 123.001 278.814V279.684C123.001 279.958 123.233 280.165 123.534 280.165H127.286C127.75 280.165 128.075 280.475 128.075 280.919C128.075 280.998 128.017 281.29 127.976 281.37L123.105 297.412C122.978 297.765 122.896 298.087 122.896 298.623V299.256C122.896 299.53 123.128 299.737 123.43 299.737H130.041C130.342 299.737 130.574 299.53 130.574 299.256V298.386C130.574 298.112 130.342 297.905 130.041 297.905H126.045C125.605 297.905 125.286 297.588 125.286 297.15C125.286 297.077 125.344 296.785 125.384 296.694L130.261 280.664C130.394 280.25 130.47 279.897 130.47 279.714V278.82C130.47 278.546 130.238 278.339 129.936 278.339H123.54L123.534 278.333Z" fill="black"/>
<path d="M143.251 278.82C143.251 278.449 143.576 278.163 143.953 278.163H144.898C145.275 278.163 145.571 278.455 145.571 278.82V295.209C145.571 296.871 145.136 297.899 144.411 298.69C143.628 299.561 142.416 300.114 140.932 300.114C139.447 300.114 138.258 299.561 137.452 298.69C136.751 297.899 136.292 296.871 136.292 295.209V278.82C136.292 278.449 136.617 278.163 136.994 278.163H137.939C138.316 278.163 138.612 278.455 138.612 278.82V295.027C138.612 296.11 138.774 296.901 139.285 297.4C139.714 297.85 140.282 298.057 140.932 298.057C141.581 298.057 142.173 297.844 142.608 297.4C143.095 296.901 143.257 296.11 143.257 295.027V278.82H143.251Z" fill="black"/>
<path d="M140.931 300.291C139.476 300.291 138.229 299.779 137.33 298.812C136.507 297.881 136.124 296.736 136.124 295.203V278.82C136.124 278.357 136.513 277.986 136.994 277.986H137.939C138.409 277.986 138.78 278.351 138.78 278.82V295.026C138.78 296.176 138.966 296.846 139.4 297.272C139.795 297.68 140.305 297.887 140.931 297.887C141.558 297.887 142.114 297.661 142.485 297.278C142.897 296.852 143.083 296.158 143.083 295.026V278.82C143.083 278.357 143.471 277.986 143.953 277.986H144.898C145.368 277.986 145.739 278.351 145.739 278.82V295.209C145.739 296.797 145.368 297.905 144.532 298.818C143.674 299.773 142.398 300.297 140.931 300.297V300.291ZM136.988 278.333C136.692 278.333 136.455 278.552 136.455 278.814V295.203C136.455 296.657 136.797 297.698 137.568 298.568C138.403 299.463 139.563 299.938 140.926 299.938C142.288 299.938 143.489 299.451 144.283 298.568C145.054 297.728 145.397 296.694 145.397 295.203V278.82C145.397 278.546 145.176 278.339 144.892 278.339H143.947C143.651 278.339 143.413 278.558 143.413 278.82V295.026C143.413 296.256 143.199 297.029 142.717 297.528C142.283 297.978 141.627 298.24 140.926 298.24C140.224 298.24 139.615 298.002 139.163 297.528C138.658 297.035 138.438 296.286 138.438 295.026V278.82C138.438 278.546 138.217 278.339 137.933 278.339H136.988V278.333Z" fill="black"/>
<path d="M160.323 299.275C160.323 299.646 160.027 299.932 159.65 299.932H158.705C158.328 299.932 158.003 299.64 158.003 299.275V282.91C158.003 281.881 157.812 281.139 157.354 280.664C156.948 280.214 156.379 280.031 155.788 280.031C155.197 280.031 154.651 280.214 154.222 280.664C153.735 281.139 153.602 281.881 153.602 282.91V299.275C153.602 299.646 153.306 299.932 152.929 299.932H151.984C151.607 299.932 151.282 299.64 151.282 299.275V278.948C151.282 278.577 151.392 278.394 151.578 278.26C151.74 278.126 151.926 278.078 152.146 278.078C152.419 278.078 152.657 278.181 152.9 278.339L153.01 278.418C153.225 278.577 153.364 278.631 153.602 278.631C153.816 278.631 154.141 278.418 154.709 278.236C155.139 278.102 155.678 277.974 156.223 277.974C157.035 277.974 157.922 278.211 158.867 279.027C158.948 279.13 159.082 279.185 159.244 279.185C159.378 279.185 159.517 279.13 159.679 279.027C160.624 278.211 161.651 277.974 162.811 277.974C163.779 277.974 165.026 278.394 165.78 279.216C166.481 279.952 167.05 281.011 167.05 282.831V299.275C167.05 299.646 166.754 299.932 166.377 299.932H165.432C165.055 299.932 164.73 299.64 164.73 299.275V282.91C164.73 281.881 164.539 281.139 164.081 280.664C163.675 280.214 163.106 280.031 162.515 280.031C161.923 280.031 161.384 280.214 160.949 280.664C160.462 281.139 160.329 281.881 160.329 282.91V299.275H160.323Z" fill="black"/>
<path d="M166.365 300.108H165.42C164.939 300.108 164.55 299.731 164.55 299.275V282.91C164.55 281.887 164.359 281.212 163.953 280.792C163.518 280.311 162.927 280.208 162.503 280.208C161.918 280.208 161.431 280.402 161.054 280.792C160.648 281.187 160.485 281.802 160.485 282.91V299.275C160.485 299.743 160.114 300.108 159.644 300.108H158.699C158.218 300.108 157.829 299.731 157.829 299.275V282.91C157.829 281.887 157.638 281.212 157.232 280.792C156.797 280.311 156.206 280.208 155.782 280.208C155.197 280.208 154.71 280.402 154.333 280.792C153.927 281.187 153.764 281.802 153.764 282.91V299.275C153.764 299.743 153.393 300.108 152.923 300.108H151.978C151.497 300.108 151.108 299.731 151.108 299.275V278.948C151.108 278.552 151.224 278.297 151.48 278.114C151.653 277.974 151.874 277.901 152.141 277.901C152.407 277.901 152.68 277.992 152.987 278.193L153.103 278.278C153.295 278.418 153.399 278.455 153.602 278.455C153.689 278.455 153.84 278.394 154.025 278.309C154.193 278.236 154.402 278.151 154.657 278.065C155.255 277.883 155.765 277.792 156.217 277.792C157.22 277.792 158.119 278.151 158.966 278.887C159.094 279.045 159.279 279.07 159.581 278.875C160.439 278.132 161.436 277.792 162.799 277.792C163.744 277.792 165.061 278.193 165.89 279.088C166.789 280.031 167.206 281.218 167.206 282.825V299.269C167.206 299.737 166.835 300.102 166.365 300.102V300.108ZM162.509 279.855C163.205 279.855 163.791 280.092 164.197 280.542C164.666 281.029 164.892 281.784 164.892 282.91V299.275C164.892 299.536 165.136 299.755 165.426 299.755H166.371C166.655 299.755 166.876 299.542 166.876 299.275V282.831C166.876 281.327 166.487 280.214 165.658 279.337C164.898 278.516 163.681 278.151 162.811 278.151C161.529 278.151 160.595 278.461 159.789 279.167C159.575 279.307 159.412 279.368 159.25 279.368C159.03 279.368 158.85 279.289 158.74 279.143C157.974 278.485 157.145 278.151 156.229 278.151C155.811 278.151 155.33 278.236 154.762 278.406C154.524 278.485 154.321 278.57 154.159 278.637C153.927 278.735 153.764 278.808 153.608 278.808C153.335 278.808 153.167 278.747 152.918 278.564L152.807 278.485C152.338 278.181 151.943 278.193 151.682 278.4C151.538 278.504 151.451 278.625 151.451 278.948V299.269C151.451 299.53 151.694 299.749 151.984 299.749H152.929C153.213 299.749 153.434 299.536 153.434 299.269V282.91C153.434 281.693 153.631 281.005 154.106 280.536C154.541 280.086 155.104 279.855 155.788 279.855C156.472 279.855 157.07 280.092 157.476 280.542C157.945 281.029 158.172 281.784 158.172 282.91V299.275C158.172 299.536 158.415 299.755 158.705 299.755H159.65C159.934 299.755 160.155 299.542 160.155 299.275V282.91C160.155 281.693 160.352 281.005 160.827 280.536C161.262 280.086 161.825 279.855 162.509 279.855Z" fill="black"/>
<path d="M175.232 299.274C175.232 299.646 174.936 299.932 174.559 299.932H173.614C173.237 299.932 172.913 299.64 172.913 299.274V278.82C172.913 278.449 173.237 278.163 173.614 278.163H174.559C174.936 278.163 175.232 278.455 175.232 278.82V299.274Z" fill="black"/>
<path d="M174.56 300.108H173.614C173.133 300.108 172.745 299.731 172.745 299.274V278.82C172.745 278.357 173.133 277.986 173.614 277.986H174.56C175.035 277.986 175.401 278.351 175.401 278.82V299.274C175.401 299.743 175.029 300.108 174.56 300.108ZM173.614 278.333C173.319 278.333 173.081 278.552 173.081 278.814V299.268C173.081 299.53 173.325 299.749 173.614 299.749H174.56C174.844 299.749 175.07 299.536 175.07 299.268V278.82C175.07 278.546 174.85 278.339 174.56 278.339H173.614V278.333Z" fill="black"/>
<path d="M188.019 283.068C188.019 281.984 187.827 281.193 187.346 280.694C186.911 280.244 186.32 280.037 185.699 280.037C185.079 280.037 184.487 280.25 184.052 280.694C183.542 281.193 183.38 281.984 183.38 283.068V299.274C183.38 299.646 183.084 299.932 182.707 299.932H181.762C181.385 299.932 181.06 299.64 181.06 299.274V278.948C181.06 278.576 181.17 278.394 181.356 278.26C181.518 278.126 181.71 278.077 181.924 278.077C182.197 278.077 182.434 278.181 182.678 278.339L182.788 278.418C183.003 278.576 183.136 278.631 183.38 278.631C183.594 278.631 183.948 278.449 184.516 278.26C184.945 278.126 185.572 277.968 186.215 277.968C187.213 277.968 188.349 278.363 189.132 279.179C189.863 279.915 190.344 281.029 190.344 282.849V299.262C190.344 299.633 190.048 299.919 189.671 299.919H188.726C188.349 299.919 188.025 299.627 188.025 299.262V283.068H188.019Z" fill="black"/>
<path d="M189.665 300.108H188.72C188.239 300.108 187.85 299.731 187.85 299.275V283.068C187.85 281.972 187.653 281.26 187.224 280.816C186.847 280.421 186.302 280.208 185.693 280.208C185.084 280.208 184.556 280.415 184.168 280.816C183.727 281.248 183.542 281.918 183.542 283.068V299.275C183.542 299.743 183.171 300.108 182.701 300.108H181.756C181.274 300.108 180.886 299.731 180.886 299.275V278.948C180.886 278.552 181.002 278.297 181.257 278.114C181.431 277.974 181.651 277.901 181.918 277.901C182.185 277.901 182.457 277.992 182.765 278.193L182.881 278.278C183.072 278.418 183.176 278.455 183.379 278.455C183.484 278.455 183.663 278.388 183.895 278.297C184.058 278.236 184.243 278.163 184.464 278.09C185.119 277.889 185.693 277.792 186.215 277.792C187.357 277.792 188.488 278.266 189.248 279.057C190.1 279.922 190.512 281.163 190.512 282.849V299.262C190.512 299.731 190.141 300.096 189.671 300.096L189.665 300.108ZM185.699 279.855C186.395 279.855 187.021 280.11 187.462 280.567C187.955 281.078 188.187 281.869 188.187 283.068V299.275C188.187 299.536 188.43 299.755 188.72 299.755H189.665C189.949 299.755 190.176 299.542 190.176 299.275V282.855C190.176 281.267 189.793 280.104 189.01 279.313C188.314 278.583 187.265 278.151 186.209 278.151C185.722 278.151 185.177 278.242 184.556 278.431C184.348 278.497 184.162 278.57 184.006 278.631C183.733 278.735 183.536 278.808 183.373 278.808C183.101 278.808 182.933 278.747 182.683 278.564L182.573 278.485C182.104 278.181 181.709 278.193 181.448 278.4C181.303 278.504 181.216 278.631 181.216 278.948V299.269C181.216 299.53 181.46 299.749 181.75 299.749H182.695C182.979 299.749 183.2 299.536 183.2 299.269V283.068C183.2 281.814 183.42 281.066 183.93 280.567C184.383 280.098 184.974 279.861 185.693 279.861L185.699 279.855Z" fill="black"/>
<path d="M197.21 298.69C196.508 297.899 196.05 296.871 196.05 295.209V282.879C196.05 281.218 196.508 280.189 197.21 279.398C198.022 278.528 199.205 277.974 200.689 277.974C202.174 277.974 203.363 278.528 204.169 279.398C204.87 280.189 205.329 281.218 205.329 282.879V295.203C205.329 296.865 204.87 297.893 204.169 298.684C203.357 299.555 202.174 300.108 200.689 300.108C199.205 300.108 198.016 299.555 197.21 298.684V298.69ZM202.336 297.4C202.847 296.901 203.009 296.11 203.009 295.027V283.068C203.009 281.985 202.847 281.194 202.336 280.695C201.907 280.244 201.339 280.037 200.689 280.037C200.04 280.037 199.477 280.25 199.043 280.695C198.532 281.194 198.37 281.985 198.37 283.068V295.021C198.37 296.104 198.532 296.895 199.043 297.394C199.477 297.844 200.04 298.051 200.689 298.051C201.339 298.051 201.901 297.838 202.336 297.394V297.4Z" fill="black"/>
<path d="M200.696 300.291C199.24 300.291 197.993 299.78 197.094 298.812C196.271 297.881 195.888 296.737 195.888 295.203V282.879C195.888 281.352 196.271 280.201 197.094 279.276C197.993 278.309 199.24 277.797 200.696 277.797C202.151 277.797 203.398 278.309 204.297 279.276C205.12 280.207 205.503 281.352 205.503 282.885V295.209C205.503 296.737 205.12 297.887 204.297 298.812C203.392 299.78 202.151 300.291 200.69 300.291H200.696ZM197.332 298.568C198.167 299.463 199.327 299.938 200.69 299.938C202.052 299.938 203.218 299.463 204.053 298.568C204.824 297.698 205.166 296.664 205.166 295.209V282.879C205.166 281.425 204.824 280.384 204.053 279.514C203.224 278.619 202.058 278.144 200.696 278.144C199.333 278.144 198.167 278.619 197.332 279.514C196.561 280.384 196.219 281.418 196.219 282.873V295.197C196.219 296.651 196.561 297.686 197.332 298.556V298.568ZM200.696 298.234C199.976 298.234 199.385 297.996 198.933 297.522C198.428 297.029 198.208 296.274 198.208 295.02V283.068C198.208 281.814 198.428 281.065 198.933 280.566C199.385 280.098 199.976 279.86 200.696 279.86C201.415 279.86 202.006 280.098 202.458 280.573C202.963 281.065 203.183 281.814 203.183 283.074V295.026C203.183 296.28 202.969 297.029 202.458 297.528C202.006 297.996 201.415 298.234 200.696 298.234ZM200.696 280.207C200.069 280.207 199.559 280.414 199.165 280.816C198.724 281.248 198.538 281.917 198.538 283.068V295.02C198.538 296.171 198.724 296.84 199.159 297.266C199.553 297.674 200.063 297.881 200.69 297.881C201.316 297.881 201.832 297.674 202.215 297.272C202.65 296.84 202.835 296.171 202.835 295.02V283.068C202.835 281.917 202.65 281.248 202.215 280.822C201.821 280.414 201.31 280.207 200.684 280.207H200.696Z" fill="black"/>
<path d="M214.532 291.777C214.532 291.539 214.398 291.326 214.155 291.199L213.83 291.065C211.998 290.273 211.023 288.819 211.023 286.421V278.82C211.023 278.449 211.348 278.163 211.725 278.163H212.67C213.047 278.163 213.343 278.455 213.343 278.82V286.263C213.343 287.346 213.505 288.137 214.016 288.636C214.445 289.087 215.013 289.294 215.663 289.294C216.312 289.294 216.904 289.081 217.338 288.636C217.826 288.137 217.988 287.346 217.988 286.263V278.82C217.988 278.449 218.313 278.163 218.69 278.163H219.635C220.012 278.163 220.308 278.455 220.308 278.82V286.421C220.308 289.008 218.933 290.59 217.553 291.065L217.257 291.168C217.043 291.272 216.851 291.43 216.851 291.722V299.268C216.851 299.64 216.527 299.926 216.15 299.926H215.204C214.828 299.926 214.532 299.634 214.532 299.268V291.771V291.777Z" fill="black"/>
<path d="M216.15 300.108H215.205C214.729 300.108 214.364 299.743 214.364 299.274V291.776C214.364 291.606 214.259 291.454 214.074 291.35L213.767 291.229C211.806 290.383 210.855 288.813 210.855 286.421V278.82C210.855 278.357 211.244 277.986 211.725 277.986H212.671C213.14 277.986 213.511 278.351 213.511 278.82V286.263C213.511 287.413 213.697 288.082 214.132 288.508C214.526 288.916 215.037 289.123 215.663 289.123C216.289 289.123 216.846 288.898 217.217 288.514C217.629 288.088 217.814 287.395 217.814 286.263V278.82C217.814 278.357 218.203 277.986 218.684 277.986H219.629C220.105 277.986 220.47 278.351 220.47 278.82V286.421C220.47 289.245 218.928 290.778 217.6 291.235L217.304 291.338C217.107 291.436 217.014 291.557 217.014 291.728V299.274C217.014 299.737 216.625 300.108 216.144 300.108H216.15ZM211.725 278.333C211.43 278.333 211.192 278.552 211.192 278.814V286.415C211.192 288.679 212.05 290.103 213.894 290.894L214.213 291.022C214.526 291.192 214.7 291.46 214.7 291.764V299.262C214.7 299.536 214.921 299.743 215.21 299.743H216.156C216.446 299.743 216.689 299.524 216.689 299.262V291.716C216.689 291.247 217.066 291.064 217.194 291.004L217.507 290.888C218.725 290.468 220.145 289.044 220.145 286.409V278.82C220.145 278.546 219.925 278.339 219.635 278.339H218.69C218.394 278.339 218.156 278.558 218.156 278.82V286.263C218.156 287.492 217.942 288.265 217.46 288.764C217.026 289.214 216.37 289.476 215.669 289.476C214.967 289.476 214.358 289.239 213.906 288.764C213.401 288.271 213.181 287.522 213.181 286.263V278.82C213.181 278.546 212.96 278.339 212.676 278.339H211.731L211.725 278.333Z" fill="black"/>
<path d="M232.961 278.82C232.961 278.449 233.285 278.163 233.662 278.163H234.608C234.985 278.163 235.28 278.455 235.28 278.82V295.209C235.28 296.871 234.845 297.899 234.12 298.69C233.338 299.561 232.126 300.114 230.641 300.114C229.157 300.114 227.968 299.561 227.162 298.69C226.46 297.899 226.002 296.871 226.002 295.209V278.82C226.002 278.449 226.327 278.163 226.704 278.163H227.649C228.026 278.163 228.322 278.455 228.322 278.82V295.027C228.322 296.11 228.484 296.901 228.994 297.4C229.423 297.85 229.992 298.057 230.641 298.057C231.291 298.057 231.882 297.844 232.317 297.4C232.804 296.901 232.966 296.11 232.966 295.027V278.82H232.961Z" fill="black"/>
<path d="M230.641 300.291C229.185 300.291 227.939 299.779 227.04 298.812C226.216 297.881 225.833 296.736 225.833 295.203V278.82C225.833 278.357 226.222 277.986 226.703 277.986H227.649C228.118 277.986 228.489 278.351 228.489 278.82V295.026C228.489 296.176 228.675 296.846 229.11 297.272C229.504 297.68 230.015 297.887 230.641 297.887C231.267 297.887 231.824 297.661 232.195 297.278C232.607 296.852 232.792 296.158 232.792 295.026V278.82C232.792 278.357 233.181 277.986 233.662 277.986H234.607C235.083 277.986 235.448 278.351 235.448 278.82V295.209C235.448 296.797 235.077 297.905 234.242 298.818C233.384 299.773 232.108 300.297 230.641 300.297V300.291ZM226.698 278.333C226.402 278.333 226.164 278.552 226.164 278.814V295.203C226.164 296.657 226.506 297.698 227.277 298.568C228.107 299.463 229.272 299.938 230.635 299.938C231.998 299.938 233.198 299.451 233.993 298.568C234.764 297.728 235.106 296.694 235.106 295.203V278.82C235.106 278.546 234.886 278.339 234.596 278.339H233.65C233.355 278.339 233.117 278.558 233.117 278.82V295.026C233.117 296.256 232.902 297.029 232.421 297.528C231.986 297.978 231.331 298.24 230.629 298.24C229.928 298.24 229.319 298.002 228.866 297.528C228.362 297.035 228.141 296.286 228.141 295.026V278.82C228.141 278.546 227.921 278.339 227.637 278.339H226.692L226.698 278.333Z" fill="black"/>
</svg>
