<svg width="133" height="81" viewBox="0 0 133 81" fill="none" xmlns="http://www.w3.org/2000/svg">
<path d="M0.015205 39.6415C0.338312 39.8048 0.612003 39.9453 0.638612 39.9567C1.00733 39.6188 1.32664 39.3719 1.59273 39.0758C2.13251 38.472 2.52784 37.5342 3.18546 37.2911C4.09016 36.957 5.19633 37.2076 6.19986 37.0861C6.99052 36.9912 7.95224 36.9456 8.50722 36.4824C11.9284 33.6383 15.3837 30.8133 18.5692 27.7149C21.0438 25.3075 23.2789 22.6192 25.3734 19.8701C28.3422 15.9743 31.0943 11.9152 33.9149 7.90932C34.3102 7.34735 34.5877 6.70185 35.0134 5.92725C35.8421 9.07123 35.5646 11.9988 34.7511 14.8997C34.3026 16.4983 33.8122 18.0893 33.242 19.6499C32.9683 20.4055 32.535 21.127 32.0636 21.7877C30.7408 23.652 29.5814 25.6986 27.9583 27.2592C25.5179 29.6058 22.7468 31.6107 20.1011 33.7371C18.0028 35.423 15.8931 37.0975 13.7644 38.7454C12.8863 39.4251 11.9512 40.025 10.8298 40.8148C11.5178 41.0996 11.917 41.2591 12.3161 41.4262C15.4521 42.7399 18.5882 44.0499 21.7204 45.3713C22.6935 45.7814 23.967 45.9599 24.5524 46.6889C25.5787 47.9609 26.2363 49.5481 26.9395 51.0556C28.7375 54.9058 29.3762 59.3484 32.7479 62.3861C33.4777 63.0467 34.1885 63.8251 35.0552 64.22C36.9597 65.0858 36.8304 66.6464 36.8342 68.4234C35.4011 67.0071 34.0213 65.7693 32.7935 64.3985C31.1703 62.5835 28.996 61.7367 26.8065 61.1102C23.1155 60.0508 19.1432 59.7623 15.6384 58.3042C11.343 56.5158 7.38205 53.8958 3.33371 51.5416C2.48983 51.0518 1.68396 50.2506 1.23541 49.3924C0.817271 48.5988 0.764054 47.5395 0.794464 46.6092C0.851483 45.0865 1.26582 43.5639 1.2126 42.0527C1.18599 41.2743 0.467555 40.5225 0 39.6415H0.015205Z" fill="white"/>
<path d="M117.49 63.5135C117.023 60.1189 116.559 56.7243 116.03 52.8816C115.08 54.3587 114.461 55.5016 113.67 56.5155C112.324 58.2393 111.074 60.1303 109.412 61.5048C106.82 63.6502 105.395 63.4489 102.969 60.1758C101.468 58.152 100.183 55.9459 99.035 53.698C97.9783 51.6248 98.7385 49.5402 99.7269 47.6265C100.411 46.3051 101.339 45.1128 102.084 43.818C102.547 43.0168 102.639 42.4738 101.483 41.8435C99.2061 40.5943 97.1154 38.9957 95.0095 37.4579C94.5647 37.1351 94.2112 36.4782 94.1162 35.9239C93.8463 34.3595 94.3215 33.695 95.9104 33.881C99.3125 34.2835 102.3 35.6733 105.163 37.3782C105.95 37.849 106.398 38.7755 105.969 39.8956C105.357 41.4942 104.976 43.1877 104.3 44.7559C103.536 46.5291 103.418 48.253 104.171 50.0073C104.775 51.4236 105.474 52.8019 106.257 54.4536C106.904 53.8423 107.345 53.5196 107.66 53.1057C109.542 50.63 111.762 48.3176 113.149 45.5874C114.373 43.1763 116.388 42.4283 118.482 41.8815C120.592 41.3309 121.865 42.2232 121.31 44.4559C119.881 50.1781 118.262 55.8775 118.342 61.8617C118.349 62.4047 118.182 62.9515 118.095 63.4945C117.893 63.4983 117.692 63.5021 117.49 63.5059V63.5135Z" fill="white"/>
<path d="M36.994 40.8111C38.1914 40.4124 38.9935 40.0364 40.1035 40.8642C41.738 42.0831 42.3804 41.5021 42.772 39.4707C43.536 35.5103 44.5015 31.5841 45.4556 27.6618C45.8852 25.8999 46.4592 24.1722 47.0256 22.4484C47.2042 21.9054 47.5691 21.4232 48.2116 20.9751C48.2762 21.4345 48.4282 21.9054 48.394 22.3572C47.9493 28.0529 47.4779 33.7447 47.0142 39.4403C46.9647 40.044 46.8241 40.6857 46.9609 41.2515C47.075 41.7223 47.4665 42.197 47.8618 42.5045C48.4054 42.9298 49.1467 43.1121 49.6674 43.5563C51.6403 45.2422 51.6251 46.2675 49.6712 47.9078C49.3747 48.1546 49.0136 48.3255 48.6829 48.5305C48.7779 48.6634 48.873 48.7925 48.9642 48.9254C51.5453 48.5381 54.1301 48.1546 56.7112 47.7597C60.482 47.1826 64.1655 47.5623 67.7805 48.7432C68.9855 49.138 69.3352 49.9658 68.8752 51.1125C68.689 51.5758 68.4647 52.0808 68.1112 52.4111C65.131 55.202 61.6984 57.1765 57.5741 57.9587C58.8437 56.5765 60.1627 55.2362 61.3677 53.8047C62.3561 52.6276 63.7701 51.3593 62.911 49.6886C62.0748 48.0673 60.1551 48.2647 58.7297 48.5419C55.434 49.1836 52.1877 50.1177 48.9528 51.0328C48.0025 51.3024 47.4247 51.9973 47.4817 53.1971C47.6224 56.1057 47.6376 59.0181 47.668 61.9304C47.6756 62.5455 47.5235 63.1645 47.4437 63.7834L46.9876 63.9125C45.8472 60.89 44.7068 57.8675 43.5626 54.8451C40.6508 56.3563 39.9514 54.6362 38.4385 51.9327C37.3666 50.019 37.6859 49.3583 39.366 47.7711C40.1719 47.0079 40.9892 46.2447 41.7038 45.4017C42.5667 44.3765 42.3804 43.9398 41.0994 43.731C40.7497 43.674 40.3886 43.5867 40.0426 43.6171C38.9479 43.712 38.1952 43.4348 37.9444 42.2084C37.8531 41.7641 37.4008 41.392 36.9902 40.8186L36.994 40.8111Z" fill="white"/>
<path d="M73.6161 38.8245C72.0956 38.8928 70.7462 38.9498 69.4005 39.0105C69.3435 38.8245 69.2865 38.6384 69.2295 38.4523C70.0392 37.7347 70.788 36.9335 71.6699 36.3146C73.0308 35.3577 74.4714 34.511 75.8969 33.649C77.0791 32.9352 78.9417 33.1212 79.7704 34.1958C80.1125 34.6401 80.0555 35.4413 80.0479 36.0792C80.0441 36.4551 79.7324 36.8158 79.6411 37.1993C79.09 39.5307 79.4701 39.994 81.8079 40.4003C83.6781 40.7268 85.6966 40.8863 87.3349 41.733C91.4897 43.8784 91.3566 49.1753 89.6004 52.3838C87.6352 55.9759 85.1074 59.1616 81.6178 61.3488C79.835 62.4651 77.7101 63.0385 75.7335 63.851C75.5472 63.927 75.3343 63.9346 75.1481 64.0029C73.0193 64.8003 72.1869 64.3105 72.4834 62.0512C72.7229 60.2286 73.293 58.3908 74.0609 56.7163C74.8402 55.0114 77.3756 54.9203 78.516 56.3518C80.5725 58.9414 80.5915 58.9566 82.8798 56.4771C84.1 55.1557 85.4039 53.8647 86.3922 52.3762C87.8367 50.2005 87.2133 48.826 84.6588 48.4045C82.686 48.0818 80.6675 47.9716 78.668 47.8805C77.0335 47.8084 75.7601 47.1742 75.1975 45.6592C74.6425 44.1594 74.3384 42.5684 73.9735 41.004C73.7948 40.237 73.715 39.4434 73.6161 38.8207V38.8245ZM79.8046 59.006C78.8049 58.482 78.1206 58.125 77.2197 57.6504C77.0107 58.744 76.8434 59.6059 76.6762 60.4678C76.8168 60.5628 76.9575 60.6539 77.0981 60.7488C77.8964 60.2324 78.6984 59.716 79.8046 59.006Z" fill="white"/>
<path d="M72.6234 17.026C72.6424 18.3816 72.1977 19.0765 70.833 18.8828C69.8979 18.7499 68.9552 18.6588 68.0277 18.5487C67.3435 21.9167 67.9707 22.4179 73.4445 23.052C73.703 24.9354 73.0796 25.6264 71.293 25.4214C70.7912 25.3644 70.2818 25.3189 69.7877 25.2087C66.6022 24.4949 65.8078 23.4849 65.8002 20.1738C65.8002 19.627 65.8002 19.0765 65.8002 18.355C65.0513 18.317 64.4279 18.2829 63.7551 18.2487C62.8086 21.5673 60.6799 23.7431 57.6464 25.0455C57.1523 25.2581 56.3882 25.2923 55.9663 25.0455C55.704 24.8898 55.6888 23.9823 55.8637 23.5342C56.0005 23.1887 56.5783 22.9115 57.0078 22.8014C59.2354 22.2356 60.4252 20.6788 61.4097 18.4196C60.1971 18.6474 59.2772 18.9284 58.3497 18.9474C57.8213 18.9588 57.2853 18.5449 56.7531 18.3246C57.1219 17.8538 57.4184 17.0792 57.8707 16.9767C59.1403 16.6881 60.4746 16.5552 61.7784 16.5856C63.0784 16.616 63.508 16.1223 63.3711 14.8997C63.3065 14.3491 63.2077 13.7226 63.4054 13.2479C63.6106 12.7619 64.158 12.424 64.5571 12.0215C64.9487 12.4392 65.5607 12.7999 65.6823 13.2859C65.9332 14.2845 65.5645 15.6667 66.1233 16.2932C66.606 16.8362 68.0201 16.54 69.016 16.6387C70.2058 16.7564 71.3956 16.9007 72.6158 17.0336L72.6234 17.026Z" fill="white"/>
<path d="M96.446 12.6329C96.1001 16.5401 95.3512 20.3942 98.5671 23.542C98.4112 23.8609 98.3238 24.3204 98.0463 24.5406C97.5636 24.9241 96.9667 25.3646 96.408 25.3835C96.0696 25.3949 95.4995 24.6963 95.3968 24.2368C94.9939 22.475 94.6556 20.6866 94.4579 18.8867C94.3135 17.5881 94.3857 16.2554 94.4275 14.9416C94.4541 14.0227 94.074 13.6809 93.1693 13.6923C90.6871 13.7227 88.2048 13.7227 85.7264 13.6923C84.6773 13.6809 84.3466 14.1594 84.2781 15.1618C84.1299 17.4249 84.0158 19.7069 83.5787 21.9206C83.3696 22.9762 82.5372 23.9558 81.8225 24.8368C81.5868 25.1253 80.8418 25.0038 80.3286 25.0684C80.2868 24.3963 79.9599 23.3407 80.2564 23.1167C82.0962 21.7345 82.119 19.7525 82.2863 17.8046C82.3965 16.4984 82.5638 15.158 82.3927 13.8746C82.2483 12.7734 82.7082 12.5228 83.5597 12.4127C83.9094 12.3671 84.2667 12.3216 84.6164 12.3216C87.9083 12.3178 91.2002 12.3102 94.4921 12.3406C95.1269 12.3482 95.7579 12.519 96.4498 12.6215L96.446 12.6329Z" fill="white"/>
<path d="M85.0874 17.8612C86.0149 17.7359 86.8702 17.6562 87.7065 17.4853C87.984 17.4284 88.2158 17.1322 88.4667 16.9461C88.2158 16.7639 87.984 16.4715 87.7065 16.4221C86.8322 16.2665 85.9389 16.1981 85.0532 16.0956C84.9962 15.9551 84.9354 15.8184 84.8783 15.6779C85.2471 15.3931 85.5968 14.8843 85.9845 14.8577C88.4363 14.6907 90.8919 14.6337 93.3475 14.5464C93.4274 14.5464 93.5072 14.6489 93.99 14.9755C92.9902 15.3552 92.2072 15.5906 91.4811 15.9475C91.0098 16.1791 90.6258 16.5854 90.2039 16.9158C90.6487 17.1132 91.0744 17.379 91.5381 17.4929C92.211 17.66 92.9104 17.7207 93.7049 17.8461C93.587 19.0573 93.5832 20.1775 93.3171 21.2292C93.2221 21.609 92.5037 21.833 91.9943 22.1747C92.3288 22.7974 92.7622 23.5986 93.3704 24.7264H84.7339C85.3953 23.7771 85.9655 22.9607 86.5357 22.1443C85.2166 21.6963 84.8479 20.6521 85.0874 17.8612ZM89.7401 20.5799C90.6487 20.5534 91.7282 21.3318 91.9411 19.8395C91.9943 19.4674 91.4887 18.7004 91.1504 18.6434C89.6071 18.3814 89.9378 19.6193 89.7401 20.5799ZM88.1246 22.8734C88.2234 23.0253 88.3261 23.1772 88.4249 23.329H91.0022C91.0858 23.2151 91.1694 23.0974 91.2493 22.9835C90.7969 22.5544 90.3141 21.7532 89.9036 21.7874C89.284 21.8406 88.7138 22.4823 88.1208 22.8734H88.1246ZM88.5123 19.1788C88.3603 18.9396 88.2082 18.7004 88.06 18.4612C87.5506 18.7346 86.874 18.8978 86.5965 19.3231C86.4331 19.5775 86.893 20.2382 87.0755 20.7166C87.5544 20.204 88.0334 19.6914 88.5123 19.1788Z" fill="white"/>
<path d="M109.183 20.4964C109.738 20.204 110.289 19.8964 110.856 19.6268C111.076 19.5205 111.399 19.5737 111.57 19.4294C113.612 17.6941 115.915 18.6168 118.629 18.7649C117.58 19.5167 116.801 20.0749 116.018 20.6369C116.109 20.8039 116.2 20.971 116.292 21.1381C117.478 21.4532 118.664 21.7646 119.838 22.076C119.564 23.7011 119.405 23.8188 117.721 23.5644C117.74 25.668 116.295 25.4667 114.832 25.387C113.786 25.3301 112.726 25.4705 111.597 25.5275C111.396 24.8972 111.205 24.2935 111.012 23.6821H108.655C109.24 21.5178 111.513 22.7366 112.559 21.3014H109.464C109.369 21.0356 109.274 20.7698 109.176 20.504L109.183 20.4964ZM114.254 24.8099C114.725 24.5289 115.098 24.3086 115.474 24.0846C115.136 23.8948 114.794 23.553 114.456 23.5568C114.041 23.5606 113.631 23.8568 113.216 24.0239C113.52 24.2555 113.825 24.4833 114.254 24.8099Z" fill="white"/>
<path d="M120.713 17.8651H115.673C115.673 16.0918 115.646 14.4439 115.699 12.7998C115.707 12.5454 116.064 12.0935 116.266 12.0897C118.417 12.0366 120.572 12.0555 122.576 12.0555C122.576 16.2209 122.614 19.9952 122.53 23.7695C122.519 24.2556 121.899 24.7264 121.565 25.2048C121.28 24.7644 120.77 24.3353 120.751 23.8835C120.66 21.9242 120.713 19.9611 120.713 17.8651ZM117.543 15.5109C117.535 15.6931 117.528 15.8716 117.52 16.0539C118.299 16.9272 119.345 16.4791 120.31 16.4184C120.265 16.1146 120.238 15.5527 120.177 15.5489C119.303 15.4919 118.425 15.5109 117.547 15.5109H117.543ZM120.42 14.4743C120.523 14.3338 120.626 14.1933 120.728 14.0528C120.432 13.8288 120.135 13.4187 119.843 13.4187C119.086 13.4225 118.334 13.6123 117.581 13.7263C117.786 13.9731 117.965 14.4097 118.201 14.4363C118.93 14.5274 119.683 14.4705 120.424 14.4705L120.42 14.4743Z" fill="white"/>
<path d="M113.868 12.1467C113.769 14.3339 113.69 16.0843 113.61 17.8993C112.561 17.8993 111.701 17.9791 110.861 17.8803C109.52 17.7247 109.071 18.2221 108.862 19.5776C108.626 21.0851 107.984 22.5469 107.36 23.9595C107.041 24.6809 106.285 25.4821 105.456 24.7113C104.768 24.0696 104.958 23.295 105.623 22.3685C106.425 21.2483 106.904 19.7675 107.102 18.3815C107.338 16.7488 107.163 15.0477 107.091 13.3808C107.041 12.2796 107.436 12.0214 108.531 12.1126C110.223 12.2531 111.937 12.1505 113.872 12.1505L113.868 12.1467ZM110.63 14.8047C111.135 14.5579 111.565 14.349 111.998 14.1364C111.561 13.92 111.12 13.5251 110.687 13.5327C110.192 13.5403 109.706 13.9048 109.215 14.1174C109.645 14.3263 110.075 14.5351 110.63 14.8047ZM110.455 15.2072C109.976 15.5603 109.603 15.8299 109.234 16.0995C109.694 16.2552 110.154 16.5324 110.614 16.5324C111.013 16.5324 111.413 16.221 111.812 16.0425C111.409 15.7919 111.006 15.5451 110.455 15.2072Z" fill="white"/>
<path d="M121.49 46.7231C123.174 47.9648 124.713 49.0659 126.215 50.2165C127.5 51.1961 127.735 52.9504 126.762 53.9186C125.945 54.735 124.5 54.4806 123.455 53.2807C121.866 51.4505 121.049 49.3659 121.486 46.7231H121.49Z" fill="white"/>
<path d="M127.418 46.6807C128.9 47.9641 130.402 49.2627 131.903 50.5651C132.208 50.8271 132.667 51.0473 132.77 51.3739C132.945 51.951 133.067 52.6573 132.877 53.1851C132.785 53.4395 131.892 53.5724 131.413 53.485C128.79 52.999 126.669 49.1791 127.422 46.6807H127.418Z" fill="white"/>
<path d="M72.689 73.7046H73.8712C74.3653 75.1437 74.8443 76.5372 75.4335 78.2535C76.3534 76.5448 77.0452 75.231 75.5627 73.754H77.068C77.5812 75.2538 78.0602 76.6587 78.5391 78.0598C78.657 78.0712 78.7786 78.0788 78.8964 78.0902C79.326 76.6929 79.7517 75.2994 80.2307 73.7426C80.2269 73.7426 80.6146 73.7426 80.9491 73.7426C80.1622 75.8765 79.3792 78.0105 78.4821 80.4482C77.8891 78.9597 77.4177 77.7675 76.8437 76.3246C76.2926 77.7143 75.825 78.8952 75.2244 80.4178C74.3197 78.0181 73.5176 75.8917 72.6928 73.7046H72.689Z" fill="white"/>
<path d="M111.355 76.6978C111.659 77.4306 112.343 78.285 112.149 78.8204C111.929 79.4393 110.986 80.005 110.256 80.1835C109.31 80.4151 108.265 80.2405 107.341 80.2405V73.7285C108.101 73.7285 109.078 73.5728 109.971 73.7778C110.667 73.9373 111.518 74.4195 111.815 75.0005C112.039 75.441 111.488 76.2687 111.355 76.694V76.6978ZM108.675 80.0886C109.584 79.7696 110.351 79.6671 110.857 79.2494C111.119 79.033 111.138 78.0078 110.884 77.7838C110.351 77.3167 109.568 77.142 108.675 76.7547V80.0886ZM108.671 76.6105C109.815 76.6446 110.952 76.6712 110.884 75.3194C110.815 74.017 109.736 74.0854 108.671 74.1955V76.6105Z" fill="white"/>
<path d="M74.2841 2.601C72.4709 2.96932 70.9694 3.27688 69.4717 3.58444C69.3083 2.52126 69.4793 2.38077 71.1709 2.22889C72.1174 2.14155 73.0639 2.06182 73.9686 1.97828C74.0979 1.23785 74.2043 0.634113 74.3107 0.0303766L74.7327 0C74.8771 0.618924 75.0216 1.23785 75.2002 1.99347C76.7625 2.09979 78.3629 2.2099 80.0354 2.32761C79.8073 3.42876 79.1839 3.67178 78.169 3.37181C77.2187 3.09082 76.238 2.91236 75.2002 2.66935C74.592 4.92861 75.5423 7.13472 74.8847 9.16615C74.687 9.15856 74.4856 9.15097 74.2879 9.14337V2.601H74.2841Z" fill="white"/>
<path d="M60.4249 73.7241H61.9112C60.9457 74.643 60.003 75.5391 58.9919 76.4998C60.1398 77.7452 61.2232 78.9223 62.3978 80.2019H60.8773C59.908 79.059 59.1173 78.1287 58.3228 77.1984C58.1708 77.263 58.0225 77.3238 57.8705 77.3883C57.9351 78.3262 57.9997 79.2603 58.0682 80.2285H56.6997V73.7621H58.1138C58.0187 74.6012 57.9161 75.4898 57.8173 76.3821C57.9427 76.4618 58.072 76.5416 58.1974 76.6213C58.9919 75.7669 59.7863 74.9088 60.5846 74.0545C60.5314 73.9444 60.4782 73.838 60.4211 73.7279L60.4249 73.7241Z" fill="white"/>
<path d="M85.6924 8.55802C87.7147 7.52901 89.2846 6.34812 89.0527 3.61042C87.3611 3.84963 85.7608 4.07746 84.1605 4.30149C84.0807 4.18758 84.0046 4.07746 83.9248 3.96355C84.3315 3.70155 84.7307 3.21932 85.1412 3.21172C88.3457 3.14717 91.5539 3.17755 94.8838 3.17755C94.5075 4.30908 94.0134 4.64323 92.9338 4.22934C92.0291 3.88001 91.0142 3.81166 90.0448 3.61801C89.201 8.3264 87.8173 9.96294 85.6962 8.55802H85.6924Z" fill="white"/>
<path d="M96.7584 80.2628C94.4853 80.4717 94.4663 77.8897 92.7861 77.229V80.2401H91.4062V73.7091C92.0943 73.7091 93.0408 73.523 93.8581 73.7622C94.6183 73.9901 95.6066 74.552 95.8195 75.1899C95.9982 75.7291 95.2151 76.5911 94.6867 77.6466C95.1087 78.1782 95.8765 79.1503 96.7584 80.2628ZM92.6075 76.6898C93.7364 76.7923 94.7514 76.7999 94.8882 75.4899C94.9984 74.4419 94.1051 73.9103 93.3107 74.1268C91.851 74.5254 92.8849 75.7785 92.6112 76.6898H92.6075Z" fill="white"/>
<path d="M104.679 0.44043C105.42 2.50224 104.706 4.70835 105.124 7.19544C106.652 6.03353 108.043 4.97414 109.476 3.88438C108.99 5.79431 105.99 8.26242 104.139 8.23584V0.501183C104.318 0.482198 104.496 0.459415 104.675 0.44043H104.679Z" fill="white"/>
<path d="M99.0396 73.7202H100.385C100.385 75.3681 100.294 77.0351 100.446 78.6754C100.488 79.1311 101.244 79.8487 101.689 79.8601C102.328 79.8753 103.502 79.4158 103.54 79.0551C103.734 77.3236 103.628 75.558 103.628 73.7506H104.658C104.38 75.6795 104.297 77.673 103.7 79.4994C103.533 80.0158 101.83 80.3233 100.902 80.2018C100.305 80.1221 99.5831 79.1538 99.3779 78.4514C99.1042 77.5173 99.2942 76.4503 99.2486 75.4403C99.2258 74.9049 99.1232 74.3771 99.0396 73.724V73.7202Z" fill="white"/>
<path d="M86.0197 73.4312C87.0992 75.8347 88.08 78.018 89.0835 80.2431H87.7454C87.4718 79.5331 87.3805 78.523 86.9434 78.337C86.2287 78.037 85.2252 78.1054 84.4726 78.3712C84.1266 78.4927 84.0848 79.4609 83.8568 80.2013H83.0547C84.0088 78.0294 84.9629 75.8461 86.0235 73.4312H86.0197ZM86.8712 77.6459C86.4834 76.7384 86.1755 76.0208 85.7422 75.0069C85.3392 76.0511 85.0542 76.7878 84.7234 77.6459H86.8674H86.8712Z" fill="white"/>
<path d="M116.441 80.2554H114.883V73.7358H116.441V80.2554Z" fill="white"/>
<path d="M69.1616 79.7729C66.9835 81.1551 65.1247 80.2552 65.003 77.7415C64.9498 76.6365 64.9688 75.5278 64.9194 74.4228C64.9118 74.214 64.7331 74.0128 64.6001 73.7432H66.1244C66.1244 75.4519 65.8811 77.2023 66.1928 78.8464C66.4969 80.4374 67.9186 79.9666 69.0552 79.6742L69.1616 79.7767V79.7729Z" fill="white"/>
<path d="M98.1914 7.26798C101.286 6.27314 101.73 3.77086 101.958 0.828125C102.316 1.34073 102.54 1.5116 102.54 1.68247C102.532 3.8506 102.092 5.88964 100.563 7.54137C99.6815 8.49443 99.4838 8.47165 98.1914 7.26798Z" fill="white"/>
<path d="M61.2701 14.4025C60.6352 14.9721 60.0991 15.5304 60.0421 15.4886C59.3768 14.9608 58.7799 14.3455 58.1641 13.7493C58.6241 13.3772 59.278 12.5987 59.5023 12.7088C60.122 13.0126 60.563 13.6848 61.2663 14.4025H61.2701Z" fill="white"/>
<path d="M68.5371 15.3177C68.7462 14.6114 68.8222 13.8177 69.2176 13.2405C69.4343 12.9253 70.1871 12.9747 70.7003 12.8569C70.7459 13.3392 71.0158 14.0038 70.7991 14.2658C70.3163 14.843 69.5902 15.2114 68.9667 15.6671L68.5447 15.3215L68.5371 15.3177Z" fill="white"/>
<path d="M92.5039 1.03947H86.2471C86.593 0.280051 90.322 -0.00852755 92.5039 1.03947Z" fill="white"/>
<path d="M80.0412 6.64872C79.6573 7.0019 79.3037 7.32848 78.7106 7.87533C78.1062 6.8348 77.5967 5.94998 77.0835 5.06515C77.1823 5.00059 77.2774 4.93223 77.3762 4.86768C78.2316 5.43731 79.0832 6.01074 80.0412 6.65252V6.64872Z" fill="white"/>
<path d="M72.3272 5.22839C71.7493 6.02968 71.2209 6.87273 70.5556 7.59426C70.4415 7.71958 69.7648 7.32464 69.2021 7.11577C70.2742 6.29171 71.1296 5.63853 71.985 4.98535L72.3272 5.22839Z" fill="white"/>
<path d="M69.0537 79.6744C69.909 77.7569 69.7075 75.8128 69.373 73.7472C69.5859 73.7282 69.9926 73.6978 70.5894 73.6484C70.4412 73.8573 70.3423 73.9294 70.3347 74.013C70.2245 75.19 70.2055 76.3785 69.9964 77.5366C69.8558 78.3075 69.449 79.0289 69.1601 79.7731L69.0537 79.6706V79.6744Z" fill="white"/>
</svg>
