<svg width="250" height="22" viewBox="0 0 250 22" fill="none" xmlns="http://www.w3.org/2000/svg">
<path d="M101.056 17.1871C101.056 17.1871 100.825 15.4822 100.718 14.622C100.61 13.7618 100.518 12.8863 100.411 11.9954C100.303 11.1046 100.211 10.2137 100.119 9.29208C100.027 8.37048 99.9192 7.41815 99.8117 6.43511V6.29688H99.3662L99.3201 6.37367C99.0744 6.84983 98.7979 7.35672 98.506 7.89432C98.2142 8.43192 97.9224 8.98488 97.6305 9.5532C97.3387 10.1215 97.0469 10.6745 96.755 11.2274C96.4632 11.7804 96.202 12.2873 95.9409 12.7481C95.6952 13.2242 95.4648 13.639 95.2804 14.0076C95.1576 14.238 95.0654 14.4223 94.9732 14.5913C94.2513 13.2396 93.5601 11.9186 92.8843 10.6284C92.1777 9.26136 91.4712 7.84824 90.78 6.38903L90.7339 6.29688H90.2424V6.43511C90.1502 7.24919 90.058 8.10936 89.9505 9.0156C89.843 9.92184 89.7201 10.8434 89.5819 11.765C89.459 12.702 89.3208 13.6236 89.1825 14.5452C89.0443 15.4668 88.7832 17.1718 88.7832 17.1718L88.7524 17.3561H90.1348V17.2025C90.1348 17.2025 90.1656 16.2655 90.2116 15.6358C90.2577 14.9906 90.3192 14.3148 90.396 13.5929C90.4728 12.871 90.5496 12.1337 90.6264 11.3964C90.6878 10.8434 90.7492 10.3058 90.8107 9.79896C91.4097 11.0124 91.9934 12.1798 92.5924 13.3471C93.2529 14.6374 93.8827 15.9276 94.4817 17.2178L94.5278 17.2946H94.8657L94.9118 17.2025C95.5108 15.8201 96.1406 14.4838 96.8164 13.2089C97.4155 12.0569 98.0299 10.9049 98.6443 9.75288C98.7825 10.9356 98.9054 12.0876 98.9976 13.2242C99.1051 14.5145 99.3355 17.1871 99.3355 17.1871V17.3254H101.087V17.141L101.056 17.1871Z" fill="white"/>
<path d="M66.31 15.2513C66.2793 15.9118 66.2332 17.1867 66.2332 17.1867V17.3556H68.0303V17.1867C68.0303 17.1867 67.9689 15.9118 67.9382 15.2513C67.9228 14.6062 67.9075 13.9303 67.9075 13.2699V10.6279C67.9075 9.9521 67.9075 9.29162 67.9382 8.64649C67.9689 8.00137 68.0303 6.66505 68.0303 6.66505V6.49609H66.2332V6.66505C66.2332 6.66505 66.2947 8.00137 66.3254 8.64649C66.3561 9.29162 66.3715 9.9521 66.3715 10.6279V11.0119C65.8799 11.0119 65.4038 11.0273 64.943 11.0427C64.4361 11.0427 63.9138 11.0427 63.3762 11.0427C62.8386 11.0427 62.3164 11.0427 61.8095 11.0427C61.3487 11.0427 60.8726 11.0427 60.3964 11.0119V10.6279C60.3964 9.9521 60.3964 9.29162 60.4425 8.64649C60.4578 8.00137 60.5193 6.66505 60.5193 6.66505V6.49609H58.7222V6.66505C58.7222 6.66505 58.7836 8.00137 58.8143 8.64649C58.8297 9.29162 58.8451 9.9521 58.8451 10.6279V13.2699C58.8451 13.9457 58.8451 14.6062 58.8143 15.2513C58.7836 15.9118 58.7375 17.1867 58.7375 17.1867V17.3556H60.5346V17.1867C60.5346 17.1867 60.4732 15.9118 60.4425 15.2513C60.4118 14.6062 60.3964 13.9303 60.3964 13.2699V12.0411C60.8879 12.0411 61.3641 12.0257 61.8095 12.0257C62.3164 12.0257 62.8386 12.0257 63.3762 12.0257C63.9138 12.0257 64.4361 12.0257 64.943 12.0257C65.4038 12.0257 65.8799 12.0257 66.3715 12.0411V13.2699C66.3715 13.9457 66.3715 14.6062 66.3254 15.2513H66.31Z" fill="white"/>
<path d="M125.584 16.3419C125.584 15.9886 125.554 15.6046 125.554 15.1899C125.554 14.7751 125.538 14.3604 125.538 13.9303C125.538 13.5617 125.538 13.2238 125.538 13.0548L129.609 6.49609H128.057L125.016 11.9489L121.944 6.49609H119.917L120.07 6.72649C120.07 6.72649 123.664 12.6862 124.002 13.2084C124.002 14.0225 124.002 14.514 123.987 15.2513C123.987 16.0039 123.879 17.1713 123.879 17.1713V17.3403H125.677V17.1713C125.677 17.1713 125.63 16.6644 125.615 16.3265L125.584 16.3419Z" fill="white"/>
<path d="M144.34 9.55342C144.063 8.84686 143.664 8.26318 143.142 7.77166C142.635 7.28014 142.02 6.9115 141.298 6.66574C140.592 6.41998 139.808 6.28174 138.964 6.28174C138.119 6.28174 137.351 6.40462 136.644 6.66574C135.938 6.92686 135.323 7.2955 134.801 7.77166C134.294 8.26318 133.895 8.86222 133.603 9.55342C133.311 10.26 133.173 11.0587 133.173 11.9496C133.173 12.8405 133.311 13.6238 133.603 14.3304C133.879 15.0216 134.279 15.6206 134.801 16.1121C135.308 16.6037 135.938 16.9569 136.644 17.2027C137.351 17.4331 138.134 17.556 138.964 17.556C139.793 17.556 140.592 17.4331 141.298 17.2027C142.005 16.9569 142.635 16.6037 143.142 16.1121C143.648 15.6206 144.048 15.0216 144.34 14.3304C144.631 13.6238 144.77 12.8251 144.77 11.9496C144.77 11.0741 144.631 10.26 144.34 9.55342ZM142.973 11.9496C142.973 12.779 142.865 13.5009 142.665 14.1C142.45 14.699 142.174 15.1905 141.821 15.5745C141.452 15.9585 141.037 16.2504 140.546 16.4347C140.054 16.619 139.532 16.7112 138.948 16.7112C138.365 16.7112 137.858 16.619 137.366 16.4347C136.875 16.2504 136.46 15.9585 136.107 15.5745C135.738 15.1905 135.461 14.699 135.262 14.1C135.047 13.5009 134.955 12.779 134.955 11.9496C134.955 11.1201 135.047 10.3982 135.262 9.79918C135.461 9.20014 135.753 8.70862 136.107 8.30926C136.475 7.92526 136.89 7.63342 137.382 7.4491C137.873 7.26478 138.395 7.17262 138.964 7.17262C139.532 7.17262 140.07 7.26478 140.561 7.4491C141.053 7.63342 141.467 7.92526 141.836 8.30926C142.189 8.69326 142.481 9.18478 142.681 9.79918C142.88 10.3982 142.988 11.1201 142.988 11.9496H142.973Z" fill="white"/>
<path d="M158.008 6.49752V6.66648C158.008 6.66648 158.1 7.51128 158.131 8.29464C158.161 9.078 158.177 10.1993 158.208 11.6585C158.208 11.8582 158.208 12.0732 158.208 12.3036C158.208 12.4265 158.208 12.5647 158.208 12.703C158.208 13.0716 158.177 13.4402 158.131 13.8242C158.069 14.1929 157.977 14.5462 157.854 14.8841C157.731 15.222 157.547 15.5138 157.317 15.7596C157.102 16.0054 156.81 16.205 156.441 16.3586C156.103 16.5122 155.335 16.6044 154.782 16.589C154.214 16.589 153.753 16.5276 153.385 16.3894C153.016 16.2511 152.709 16.0668 152.463 15.8518C152.217 15.6214 152.033 15.3602 151.895 15.053C151.756 14.7458 151.649 14.4233 151.587 14.07C151.526 13.7167 151.48 13.3634 151.465 12.9948C151.449 12.6262 151.434 12.2575 151.434 11.9196C151.434 11.3974 151.434 10.8905 151.434 10.399V10.2607C151.434 9.72312 151.434 9.2316 151.449 8.7708C151.449 8.31 151.48 7.89528 151.495 7.542C151.495 7.17336 151.541 6.66648 151.541 6.66648V6.49752H149.775V6.65112C149.775 6.65112 149.898 12.5801 149.898 13.0562C149.928 14.5769 150.297 15.7289 151.05 16.4662C151.802 17.2034 152.97 17.5567 154.521 17.5567C155.228 17.5567 156.149 17.4646 156.718 17.2495C157.271 17.0498 157.747 16.7426 158.115 16.3433C158.499 15.9439 158.776 15.4678 158.976 14.8994C159.16 14.3311 159.267 13.7167 159.267 13.0255V12.9948C159.267 12.4418 159.36 8.5404 159.375 8.04888C159.39 7.542 159.421 6.6204 159.421 6.6204V6.4668H158.008V6.49752Z" fill="white"/>
<path d="M83.4687 17.1257C83.4687 17.1257 83.1768 16.5266 82.9772 16.0505C82.7621 15.5743 82.5317 15.0521 82.286 14.453C82.0248 13.854 81.7637 13.2089 81.4565 12.5177C81.1647 11.8265 80.8728 11.1199 80.581 10.4134C80.2892 9.7068 79.9973 9.00024 79.7208 8.3244C79.4444 7.6332 79.1832 6.98808 78.9375 6.38903L78.8914 6.29688H78.3999L78.3538 6.38903C77.5704 8.23224 76.8024 10.0294 76.0191 11.7958C75.2511 13.5622 73.6383 17.141 73.6383 17.141L73.5308 17.3561H75.0053L75.036 17.2486C75.036 17.2486 75.3586 16.1887 75.6197 15.4668C75.7733 15.0674 75.9269 14.6527 76.0805 14.2226C76.3416 14.2226 76.6028 14.2226 76.8485 14.2226C77.3093 14.2226 77.7855 14.2226 78.277 14.2226C78.7685 14.2226 79.2447 14.2226 79.7055 14.2226C79.9359 14.2226 80.197 14.2226 80.4428 14.2226L81.564 17.2486L81.5948 17.3561H83.5609L83.438 17.1257H83.4687ZM79.7362 13.2242C79.2754 13.2242 78.7992 13.2396 78.3077 13.2396C77.8162 13.2396 77.34 13.2396 76.8792 13.2242C76.7564 13.2242 76.6335 13.2242 76.5106 13.2242L78.3077 8.92344L79.7516 12.2873L80.1048 13.2242C79.982 13.2242 79.8591 13.2242 79.7362 13.2242Z" fill="white"/>
<path d="M115.953 17.1257C115.953 17.1257 115.661 16.5266 115.446 16.0505C115.231 15.5743 115.016 15.0521 114.754 14.453C114.493 13.854 114.217 13.2089 113.925 12.5177C113.633 11.8265 113.341 11.1199 113.05 10.4134C112.758 9.7068 112.466 9.00024 112.189 8.3244C111.913 7.6332 111.652 6.98808 111.406 6.38903L111.36 6.29688H110.868L110.822 6.38903C110.039 8.23224 109.271 10.0294 108.488 11.7958C107.72 13.5622 106.107 17.141 106.107 17.141L106.015 17.3561H107.474L107.505 17.2486C107.505 17.2486 107.827 16.1887 108.088 15.4668C108.226 15.0674 108.395 14.6527 108.549 14.2226C108.81 14.2226 109.071 14.2226 109.317 14.2226C109.778 14.2226 110.254 14.2226 110.746 14.2226C111.237 14.2226 111.713 14.2226 112.174 14.2226C112.42 14.2226 112.666 14.2226 112.911 14.2226L114.033 17.2486L114.063 17.3561H116.029L115.922 17.1257H115.953ZM112.205 13.2242C111.744 13.2242 111.268 13.2396 110.776 13.2396C110.285 13.2396 109.809 13.2396 109.348 13.2242C109.225 13.2242 109.102 13.2242 108.979 13.2242L110.776 8.92344L112.205 12.2873L112.558 13.2242C112.435 13.2242 112.312 13.2242 112.189 13.2242H112.205Z" fill="white"/>
<path d="M180.266 17.0959C180.266 17.0959 179.944 16.7426 179.713 16.4662C179.483 16.1897 179.237 15.8825 178.976 15.5599C178.715 15.2374 178.438 14.8841 178.162 14.5154C177.885 14.1468 177.609 13.7935 177.348 13.471C177.087 13.133 176.856 12.8258 176.641 12.5494C176.518 12.3804 176.395 12.2268 176.303 12.1039C176.534 12.0578 176.779 11.981 177.041 11.8889C177.409 11.7506 177.762 11.5663 178.085 11.3206C178.408 11.0748 178.699 10.7676 178.914 10.399C179.145 10.015 179.252 9.56952 179.252 9.04728C179.252 8.57112 179.176 8.1564 178.991 7.81848C178.807 7.48056 178.561 7.21944 178.254 7.01976C177.947 6.82008 177.609 6.68184 177.209 6.58968C176.81 6.51288 176.395 6.4668 175.965 6.4668C175.673 6.4668 175.382 6.4668 175.09 6.49752C174.813 6.52824 174.521 6.52824 174.245 6.52824C173.969 6.52824 173.677 6.52824 173.4 6.51288C173.124 6.51288 172.832 6.48216 172.54 6.4668H172.371V6.6204C172.402 7.29624 172.433 7.95672 172.448 8.60184C172.479 9.24696 172.479 9.90744 172.479 10.5833V13.2252C172.479 13.901 172.479 14.5615 172.448 15.222C172.417 15.8825 172.371 17.1574 172.371 17.1574V17.311H174.168V17.1574C174.168 17.1574 174.107 15.8825 174.076 15.222C174.045 14.5769 174.03 13.901 174.03 13.2252V12.2575H174.383C174.69 12.5801 175.028 12.9794 175.382 13.4402C175.766 13.9318 176.15 14.4079 176.518 14.8994C176.887 15.391 177.225 15.8518 177.532 16.2818C177.839 16.7119 178.223 17.2495 178.223 17.2495L178.269 17.311H180.481L180.235 17.0498L180.266 17.0959ZM174.045 11.382V10.6294C174.045 10.0764 174.045 9.52344 174.076 8.97048C174.091 8.4636 174.122 7.94136 174.137 7.41912C174.26 7.41912 174.414 7.3884 174.583 7.3884C174.798 7.3884 175.09 7.37304 175.443 7.37304C175.689 7.37304 175.95 7.40376 176.211 7.44984C176.472 7.49592 176.703 7.60344 176.918 7.74168C177.133 7.87992 177.302 8.06424 177.44 8.31C177.563 8.5404 177.64 8.8476 177.64 9.2316C177.64 9.67704 177.547 10.0303 177.378 10.2914C177.209 10.5833 176.994 10.7983 176.733 10.9673C176.472 11.1362 176.18 11.2591 175.858 11.3206C175.535 11.3974 175.213 11.4281 174.921 11.4281C174.721 11.4281 174.552 11.4281 174.383 11.4281C174.276 11.4281 174.168 11.4127 174.061 11.3974L174.045 11.382Z" fill="white"/>
<path d="M192.691 16.1728C192.691 16.1728 192.107 16.265 191.754 16.2803C191.401 16.3111 191.017 16.3264 190.602 16.3418C190.203 16.3571 189.788 16.3725 189.358 16.3725H188.329C188.329 16.1882 188.329 15.9578 188.313 15.6659C188.313 15.2819 188.313 14.8058 188.313 14.2221V12.7015C188.313 12.5479 188.313 12.4096 188.313 12.3021C188.313 12.256 188.313 12.1946 188.313 12.1485C188.498 12.1485 188.713 12.1485 188.974 12.1485C189.312 12.1485 189.68 12.1485 190.064 12.1485C190.448 12.1485 190.832 12.1639 191.216 12.1792C191.6 12.1946 192.23 12.256 192.23 12.256H192.399V10.9965H192.23C192.23 10.9965 191.723 11.0426 191.462 11.0579C191.186 11.0733 190.894 11.0887 190.571 11.104C190.249 11.104 189.895 11.1347 189.496 11.1347C189.143 11.1347 188.759 11.1347 188.329 11.1501C188.329 10.9658 188.329 10.7354 188.329 10.4435C188.329 10.0595 188.329 9.67553 188.329 9.27617C188.329 8.87681 188.329 8.56961 188.359 8.26241C188.359 8.01665 188.39 7.75553 188.39 7.47905C188.866 7.47905 189.296 7.47905 189.65 7.50977C190.034 7.50977 190.402 7.54049 190.725 7.55585C191.063 7.57121 191.37 7.60193 191.662 7.61729C191.954 7.63265 192.645 7.67873 192.645 7.67873H192.814V6.43457H192.66C192.66 6.43457 191.662 6.48065 191.17 6.49601C190.679 6.51137 190.187 6.51137 189.68 6.51137C189.173 6.51137 188.682 6.51137 188.19 6.49601C187.683 6.49601 187.192 6.46529 186.685 6.44993H186.516V6.60353C186.547 7.26401 186.578 7.90913 186.608 8.56961C186.639 9.23009 186.654 9.89057 186.654 10.5511V13.193C186.654 13.8688 186.654 14.5293 186.608 15.1744C186.578 15.8195 186.547 16.48 186.516 17.1405V17.3095H186.67C187.177 17.2941 187.683 17.2787 188.19 17.2787H191.232C191.723 17.2787 192.722 17.3095 192.722 17.3095H192.875V16.096L192.691 16.1267V16.1728Z" fill="white"/>
<path d="M205.671 12.5482C205.395 12.1949 205.057 11.9031 204.642 11.6727C204.243 11.4423 203.813 11.2733 203.367 11.1197C202.922 10.9661 202.507 10.8125 202.123 10.6128C201.754 10.4285 201.432 10.2135 201.186 9.95233C200.956 9.70657 200.833 9.36865 200.833 8.92321C200.833 8.66209 200.879 8.43169 200.971 8.21665C201.063 8.00161 201.202 7.81729 201.386 7.66369C201.57 7.51009 201.77 7.38721 202.016 7.29505C202.261 7.20289 202.522 7.17217 202.83 7.17217C203.137 7.17217 203.367 7.21825 203.567 7.31041C203.782 7.40257 203.966 7.51009 204.105 7.64833C204.258 7.78657 204.366 7.92481 204.458 8.07841C204.55 8.24737 204.627 8.38561 204.673 8.52385L204.704 8.61601H205.118L205.656 7.11073L205.548 7.04929C205.548 7.04929 204.857 6.61921 204.427 6.49633C204.012 6.37345 203.536 6.31201 202.999 6.31201C202.461 6.31201 201.908 6.38881 201.447 6.52705C200.986 6.68065 200.587 6.88033 200.249 7.15681C199.911 7.41793 199.666 7.74049 199.481 8.12449C199.297 8.50849 199.22 8.90785 199.22 9.36865C199.22 9.99841 199.358 10.5053 199.65 10.9047C199.927 11.2733 200.265 11.5805 200.679 11.8263C201.079 12.0567 201.509 12.2563 201.97 12.4099C202.415 12.5635 202.83 12.7325 203.214 12.9015C203.598 13.0858 203.905 13.3008 204.151 13.5619C204.381 13.8077 204.504 14.1303 204.504 14.5757C204.504 14.8675 204.442 15.1287 204.35 15.3898C204.243 15.6355 204.105 15.8506 203.905 16.0349C203.721 16.2192 203.49 16.3728 203.198 16.4803C202.922 16.5879 202.615 16.6493 202.261 16.6493C201.908 16.6493 201.616 16.6032 201.34 16.5111C201.063 16.4189 200.818 16.296 200.618 16.1578C200.403 16.0195 200.234 15.8506 200.096 15.6816C199.957 15.4973 199.834 15.3283 199.758 15.144L199.712 15.0519H199.297L198.928 16.6493L199.02 16.7107C199.02 16.7107 199.666 17.1255 200.126 17.2944C200.572 17.4787 201.155 17.5555 201.862 17.5555C202.522 17.5555 203.122 17.4787 203.644 17.2944C204.166 17.1255 204.611 16.8797 204.98 16.5418C205.349 16.2192 205.625 15.8352 205.825 15.3898C206.009 14.9443 206.117 14.4835 206.117 13.992C206.117 13.4083 205.978 12.9168 205.687 12.5482H205.671Z" fill="white"/>
<path d="M222.338 9.55342C222.061 8.84686 221.662 8.26318 221.14 7.77166C220.633 7.28014 220.018 6.9115 219.296 6.66574C218.59 6.40462 217.806 6.28174 216.962 6.28174C216.117 6.28174 215.349 6.40462 214.642 6.66574C213.936 6.92686 213.321 7.28014 212.799 7.77166C212.292 8.26318 211.893 8.86222 211.601 9.55342C211.309 10.26 211.171 11.0587 211.171 11.9342C211.171 12.8097 211.309 13.6085 211.601 14.315C211.877 15.0062 212.277 15.6053 212.799 16.0968C213.321 16.5883 213.936 16.9416 214.642 17.1873C215.349 17.4177 216.132 17.5406 216.962 17.5406C217.791 17.5406 218.59 17.4177 219.296 17.1873C220.003 16.9569 220.617 16.5883 221.14 16.0968C221.646 15.6053 222.046 15.0062 222.338 14.315C222.614 13.6085 222.768 12.8251 222.768 11.9342C222.768 11.0433 222.629 10.2446 222.338 9.55342ZM220.971 11.9496C220.971 12.779 220.863 13.5009 220.663 14.1C220.464 14.699 220.172 15.1905 219.819 15.5745C219.465 15.9585 219.035 16.2504 218.559 16.4347C218.068 16.619 217.545 16.7112 216.962 16.7112C216.378 16.7112 215.871 16.619 215.38 16.4347C214.888 16.2504 214.473 15.9585 214.105 15.5745C213.751 15.1905 213.46 14.699 213.26 14.1C213.06 13.5009 212.953 12.779 212.953 11.9496C212.953 11.1201 213.06 10.3982 213.26 9.79918C213.46 9.20014 213.751 8.70862 214.105 8.32462C214.473 7.94062 214.888 7.64878 215.38 7.46446C215.871 7.28014 216.393 7.18798 216.962 7.18798C217.53 7.18798 218.068 7.28014 218.559 7.46446C219.051 7.64878 219.465 7.94062 219.819 8.32462C220.172 8.70862 220.464 9.20014 220.663 9.79918C220.863 10.3982 220.971 11.1201 220.971 11.9496Z" fill="white"/>
<path d="M236.054 17.0952C236.054 17.0952 235.732 16.7419 235.501 16.4654C235.271 16.189 235.025 15.8818 234.764 15.5592C234.503 15.2366 234.226 14.8834 233.95 14.5147C233.673 14.1461 233.397 13.7928 233.136 13.4702C232.875 13.1323 232.644 12.8405 232.429 12.564C232.291 12.395 232.184 12.2414 232.091 12.1186C232.322 12.0725 232.568 11.9957 232.844 11.9035C233.213 11.7653 233.566 11.581 233.889 11.3352C234.211 11.0894 234.488 10.7822 234.718 10.4136C234.948 10.0296 235.071 9.58417 235.071 9.06193C235.071 8.58577 234.979 8.17105 234.81 7.83313C234.626 7.49521 234.38 7.23409 234.073 7.03441C233.766 6.83473 233.412 6.69649 233.013 6.60433C232.629 6.52753 232.214 6.48145 231.784 6.48145C231.477 6.48145 231.201 6.48145 230.909 6.51217C230.632 6.54289 230.356 6.54289 230.064 6.54289C229.772 6.54289 229.496 6.54289 229.219 6.52753C228.943 6.52753 228.651 6.49681 228.359 6.48145H228.19V6.63505C228.221 7.31089 228.251 7.97137 228.267 8.61649C228.297 9.26161 228.297 9.92209 228.297 10.5979V13.2398C228.297 13.9157 228.297 14.5762 228.267 15.2366C228.236 15.8818 228.19 17.172 228.19 17.172V17.3256H229.987V17.172C229.987 17.172 229.926 15.8971 229.895 15.2366C229.864 14.5915 229.849 13.9157 229.849 13.2398V12.2722H230.202C230.509 12.5947 230.847 12.9941 231.216 13.4549C231.6 13.9464 231.984 14.4226 232.353 14.9141C232.721 15.4056 233.059 15.8664 233.366 16.2965C233.673 16.7266 234.057 17.2642 234.057 17.2642L234.104 17.3256H236.315L236.07 17.0645L236.054 17.0952ZM229.833 10.6286C229.833 10.0757 229.833 9.52273 229.864 8.96977C229.88 8.46289 229.91 7.94065 229.926 7.43377C230.049 7.43377 230.202 7.40305 230.371 7.40305C230.601 7.40305 230.878 7.37233 231.231 7.37233C231.492 7.37233 231.738 7.40305 231.999 7.44913C232.245 7.49521 232.475 7.60273 232.706 7.74097C232.921 7.87921 233.09 8.06353 233.228 8.30929C233.351 8.53969 233.428 8.84689 233.428 9.23089C233.428 9.67633 233.336 10.0296 233.167 10.2907C232.998 10.5826 232.783 10.7976 232.521 10.9666C232.26 11.1355 231.969 11.2584 231.646 11.3198C231.323 11.3966 231.001 11.4274 230.709 11.4274C230.509 11.4274 230.325 11.4274 230.171 11.4274C230.064 11.4274 229.956 11.412 229.849 11.3966V10.644L229.833 10.6286Z" fill="white"/>
<path d="M249.11 6.49609C249.11 6.49609 247.712 6.52681 247.082 6.54217C246.452 6.55753 245.807 6.55753 245.147 6.55753C244.486 6.55753 243.841 6.55753 243.211 6.54217C242.582 6.54217 241.153 6.49609 241.153 6.49609H241V7.78633H241.168C241.168 7.78633 241.737 7.72489 241.998 7.69417C242.259 7.67881 242.536 7.66345 242.827 7.64809C243.119 7.64809 243.396 7.61737 243.688 7.61737C243.918 7.61737 244.133 7.61737 244.348 7.61737C244.379 8.61577 244.394 9.62954 244.394 10.6433V13.2852C244.394 13.9611 244.394 14.6215 244.363 15.282C244.333 15.9425 244.287 17.2174 244.287 17.2174V17.371H246.084V17.2174C246.084 17.2174 246.022 15.9425 245.992 15.282C245.961 14.6369 245.961 13.9611 245.961 13.2852V10.6433C245.961 9.62954 245.961 8.61577 246.007 7.61737C246.222 7.61737 246.452 7.61737 246.683 7.61737C246.959 7.61737 247.251 7.63273 247.528 7.64809C247.819 7.64809 248.096 7.67881 248.357 7.69417C248.618 7.72489 249.156 7.77098 249.156 7.77098H249.325V6.49609H249.171H249.11Z" fill="white"/>
<path d="M37.8624 6.58944C37.2634 6.58944 36.6797 6.62016 36.1114 6.6816V5.71392C36.1114 3.5328 36.1882 2.41152 36.6029 1.6896C37.0483 0.93696 37.417 0.64512 38.4 0.49152L39.0298 0.384C39.0298 0.384 39.0759 0.24576 39.0759 0.16896C39.0759 0.06144 39.0144 0.01536 38.9991 0H27.8784C27.8784 0 27.8016 0.0768 27.8016 0.16896C27.8016 0.24576 27.8323 0.384 27.8477 0.384L28.6771 0.49152C29.6755 0.6144 30.0595 0.90624 30.4896 1.65888C30.9043 2.39616 30.9658 3.5328 30.9811 5.71392V7.81824C28.969 8.47872 26.7879 9.35424 24.1613 10.3526L24.0999 10.3834L24.0384 10.3526C22.656 9.50784 21.1814 8.72448 19.4611 8.07936C16.4045 6.94272 13.4246 6.42048 10.752 6.34368V5.71392C10.752 3.5328 10.8288 2.41152 11.2435 1.6896C11.689 0.93696 12.0576 0.64512 13.0406 0.49152L13.655 0.384C13.655 0.384 13.7011 0.24576 13.7011 0.16896C13.7011 0.06144 13.6397 0.01536 13.6243 0H2.50368C2.50368 0 2.42688 0.0768 2.42688 0.16896C2.42688 0.24576 2.47296 0.384 2.47296 0.384L3.3024 0.49152C4.28544 0.6144 4.66944 0.90624 5.11488 1.65888C5.5296 2.39616 5.59104 3.5328 5.6064 5.71392V6.85056C4.1472 7.20384 2.9184 7.74144 2.02752 8.38656C0.72192 9.30816 0 10.7213 0 11.8426C0 11.8733 0 11.904 0 11.9194C0.03072 13.0406 0.72192 14.0851 1.98144 14.8685C2.88768 15.4214 4.08576 15.8976 5.59104 16.1741C5.59104 18.2938 5.51424 19.415 5.09952 20.137C4.65408 20.905 4.27008 21.1968 3.28704 21.3043L2.4576 21.4118C2.4576 21.4118 2.41152 21.504 2.41152 21.5962C2.41152 21.7037 2.48832 21.7958 2.48832 21.8112H13.609C13.609 21.8112 13.6858 21.7037 13.6858 21.5962C13.6858 21.5194 13.6397 21.4272 13.6397 21.4118L13.0253 21.3043C12.0422 21.1507 11.6736 20.8589 11.2282 20.1062C10.8134 19.3997 10.752 18.2938 10.7366 16.1741C13.3632 15.7901 16.512 14.8531 20.2291 13.0253C21.3965 12.457 22.7482 11.8272 23.9309 11.3664L24.0077 11.3357L24.0691 11.3818C27.5559 13.6704 29.4298 17.111 30.2746 19.0618C30.2746 19.0618 30.6432 19.9066 30.2131 20.5363C30.2131 20.567 30.1824 20.5824 30.1671 20.5978C30.1671 20.6131 30.1363 20.6285 30.121 20.6438C29.7831 21.0278 29.3837 21.2122 28.6618 21.3043L27.8323 21.4118C27.8323 21.4118 27.7863 21.504 27.7863 21.5962C27.7863 21.7037 27.8477 21.7958 27.8631 21.8112H38.9837C38.9837 21.8112 39.0605 21.7037 39.0605 21.5962C39.0605 21.5194 39.0144 21.4272 39.0144 21.4118L38.3847 21.3043C37.4016 21.1507 37.033 20.8589 36.5875 20.1062C36.1728 19.3843 36.1114 18.263 36.096 16.0819V7.94112C36.3571 7.94112 36.6336 7.9104 36.9101 7.9104C43.2077 7.84896 45.097 9.84576 46.249 10.8442C46.3872 10.8288 46.4794 10.7366 46.5408 10.6138C46.5101 10.3987 44.9127 6.57408 37.8471 6.57408L37.8624 6.58944ZM2.19648 12.0269C2.04288 10.8902 2.54976 10.2298 3.44064 9.47712C3.9168 9.07776 4.66944 8.6784 5.59104 8.35584V14.4691C4.97664 14.3309 4.39296 14.1466 3.88608 13.9622C3.08736 13.6397 2.33472 13.056 2.19648 12.0422V12.0269ZM22.825 10.967C21.9648 11.3357 20.3366 12.0576 19.3843 12.4109C16.1126 13.8547 13.225 14.5459 10.7366 14.761V7.38816C10.9824 7.38816 11.2282 7.3728 11.4739 7.3728C13.7472 7.3728 16.3277 7.78752 19.0618 8.80128C20.3366 9.27744 21.7805 10.0147 22.8403 10.6598L23.1168 10.8288L22.8096 10.9517L22.825 10.967ZM30.9658 16.0819C30.9658 16.1587 30.9658 16.2355 30.9658 16.3277C29.6141 14.6995 27.7248 12.8102 25.2826 11.0899L25.0215 10.9056L25.3287 10.7981C27.6019 9.984 29.3837 9.33888 30.9811 8.86272V16.0819H30.9658Z" fill="white"/>
</svg>
